M48
METRIC,LZ,000.000
;FILE_FORMAT=3:3
;TYPE=PLATED
;Layer: Drill PTH
;EasyEDA v6.4.25, 2021-12-20T13:39:12+01:00
;63a1d32c011d494aaade838ba407243e,51d3ad7738a14b0e94bcfea3d2f56fdc,10
;Gerber Generator version 0.2
;Holesize 1 = 0.305 mm
T01C0.305
;Holesize 2 = 0.800 mm
T02C0.800
;Holesize 3 = 0.813 mm
T03C0.813
;Holesize 4 = 0.900 mm
T04C0.900
;Holesize 5 = 1.000 mm
T05C1.000
;Holesize 6 = 1.200 mm
T06C1.200
%
G05
G90
T01
X072898Y-034290
X122682Y-033528
X072771Y-035560
X124079Y-034798
T02
X095377Y-042164
X095377Y-039624
X102997Y-044704
X102997Y-042164
X102997Y-039624
X095377Y-044704
T03
X089160Y-038190
X086620Y-038190
X073920Y-038190
X071380Y-038190
X084080Y-038190
X081540Y-038190
X076460Y-038190
X079000Y-038190
X068840Y-038190
X068840Y-045810
X071380Y-045810
X073920Y-045810
X076460Y-045810
X079000Y-045810
X081540Y-045810
X084080Y-045810
X086620Y-045810
X089160Y-045810
T04
X003920Y-031000
X014080Y-031000
X023920Y-031000
X034080Y-031000
X043920Y-031000
X054080Y-031000
X063920Y-031000
X074080Y-031000
X083920Y-031000
X094080Y-031000
X103920Y-031000
X114080Y-031000
X123920Y-031000
X134080Y-031000
X143920Y-031000
X154080Y-031000
X117441Y-045503
X107281Y-045503
X117314Y-042074
X107154Y-042074
X117441Y-038518
X107281Y-038518
X045974Y-036920
X045974Y-047080
X052197Y-036703
X052197Y-046863
T05
X013350Y-014000
X004650Y-014000
X033350Y-014000
X024650Y-014000
X053350Y-014000
X044650Y-014000
X073350Y-014224
X064650Y-014224
X093350Y-014000
X084650Y-014000
X113350Y-014000
X104650Y-014000
X133350Y-014000
X124650Y-014000
X153350Y-014000
X144650Y-014000
T06
X-004000Y-032496
X-004000Y-037504
X162000Y-037504
X162000Y-032496
X009000Y-022995
X011540Y-023005
X006460Y-022995
X029000Y-022995
X031540Y-023005
X026460Y-022995
X049000Y-022995
X051540Y-023005
X046460Y-022995
X069000Y-023205
X071540Y-023215
X066460Y-023205
X089000Y-022995
X091540Y-023005
X086460Y-022995
X109000Y-022995
X111540Y-023005
X106460Y-022995
X129000Y-022995
X131540Y-023005
X126460Y-022995
X149000Y-022995
X151540Y-023005
X146460Y-022995
X-004000Y-019810
X-004000Y-017270
X-004000Y-014730
X-004000Y-012190
X162814Y-019810
X162814Y-017270
X162814Y-014730
X162814Y-012190
X010270Y-006000
X007730Y-006000
X030270Y-006000
X027730Y-006000
X050270Y-006000
X047730Y-006000
X070270Y-006210
X067730Y-006210
X090270Y-006000
X087730Y-006000
X110270Y-006000
X107730Y-006000
X130270Y-006000
X127730Y-006000
X150270Y-006000
X147730Y-006000
M30
