G04 Layer: BottomSolderMaskLayer*
G04 EasyEDA v6.4.25, 2021-12-20T13:39:12+01:00*
G04 63a1d32c011d494aaade838ba407243e,51d3ad7738a14b0e94bcfea3d2f56fdc,10*
G04 Gerber Generator version 0.2*
G04 Scale: 100 percent, Rotated: No, Reflected: No *
G04 Dimensions in millimeters *
G04 leading zeros omitted , absolute positions ,4 integer and 5 decimal *
%FSLAX45Y45*%
%MOMM*%

%ADD23C,1.9016*%
%ADD24C,2.1016*%
%ADD26C,2.0032*%
%ADD29C,2.5032*%

%LPD*%
D23*
X899998Y-2259512D02*
G01*
X899998Y-2339512D01*
X1154023Y-2260503D02*
G01*
X1154023Y-2340503D01*
X2899994Y-2259512D02*
G01*
X2899994Y-2339512D01*
X3154019Y-2260503D02*
G01*
X3154019Y-2340503D01*
X4899990Y-2259512D02*
G01*
X4899990Y-2339512D01*
X5154015Y-2260503D02*
G01*
X5154015Y-2340503D01*
X6899986Y-2280518D02*
G01*
X6899986Y-2360518D01*
X7154011Y-2281509D02*
G01*
X7154011Y-2361509D01*
X8899982Y-2259512D02*
G01*
X8899982Y-2339512D01*
X9154007Y-2260503D02*
G01*
X9154007Y-2340503D01*
X10900003Y-2259512D02*
G01*
X10900003Y-2339512D01*
X11154029Y-2260503D02*
G01*
X11154029Y-2340503D01*
X12899999Y-2259512D02*
G01*
X12899999Y-2339512D01*
X13154025Y-2260503D02*
G01*
X13154025Y-2340503D01*
X14899995Y-2259512D02*
G01*
X14899995Y-2339512D01*
X15154020Y-2260503D02*
G01*
X15154020Y-2340503D01*
D24*
G01*
X-399999Y-3249548D03*
G01*
X-399999Y-3750437D03*
G01*
X16199993Y-3750437D03*
G01*
X16199993Y-3249548D03*
D23*
G01*
X1334998Y-1399997D03*
G01*
X464997Y-1399997D03*
G01*
X3334994Y-1399997D03*
G01*
X2464993Y-1399997D03*
G01*
X5335015Y-1399997D03*
G01*
X4465015Y-1399997D03*
G01*
X7334986Y-1422400D03*
G01*
X6464985Y-1422400D03*
G01*
X9334982Y-1399997D03*
G01*
X8464981Y-1399997D03*
G01*
X11335004Y-1399997D03*
G01*
X10465003Y-1399997D03*
G01*
X13335000Y-1399997D03*
G01*
X12464999Y-1399997D03*
G01*
X15334995Y-1399997D03*
G01*
X14464995Y-1399997D03*
G36*
X550926Y-2434589D02*
G01*
X550926Y-2164334D01*
X741171Y-2164334D01*
X741171Y-2434589D01*
G37*
G36*
X2550922Y-2434589D02*
G01*
X2550922Y-2164334D01*
X2741168Y-2164334D01*
X2741168Y-2434589D01*
G37*
G36*
X4550918Y-2434589D02*
G01*
X4550918Y-2164334D01*
X4741163Y-2164334D01*
X4741163Y-2434589D01*
G37*
G36*
X6550913Y-2455671D02*
G01*
X6550913Y-2185415D01*
X6741159Y-2185415D01*
X6741159Y-2455671D01*
G37*
G36*
X8550909Y-2434589D02*
G01*
X8550909Y-2164334D01*
X8741156Y-2164334D01*
X8741156Y-2434589D01*
G37*
G36*
X10550906Y-2434589D02*
G01*
X10550906Y-2164334D01*
X10741152Y-2164334D01*
X10741152Y-2434589D01*
G37*
G36*
X12550902Y-2434589D02*
G01*
X12550902Y-2164334D01*
X12741147Y-2164334D01*
X12741147Y-2434589D01*
G37*
G36*
X14550897Y-2434589D02*
G01*
X14550897Y-2164334D01*
X14741143Y-2164334D01*
X14741143Y-2434589D01*
G37*
D26*
G01*
X9537700Y-4216400D03*
G01*
X9537700Y-3962400D03*
G01*
X10299700Y-4470400D03*
G01*
X10299700Y-4216400D03*
G01*
X10299700Y-3962400D03*
G01*
X9537700Y-4470400D03*
G36*
X-495045Y-2076195D02*
G01*
X-495045Y-1885950D01*
X-304800Y-1885950D01*
X-304800Y-2076195D01*
G37*
D23*
G01*
X-399999Y-1726996D03*
G01*
X-399999Y-1472996D03*
G01*
X-399999Y-1218996D03*
G36*
X16186404Y-2076195D02*
G01*
X16186404Y-1885950D01*
X16376395Y-1885950D01*
X16376395Y-2076195D01*
G37*
G01*
X16281400Y-1726996D03*
G01*
X16281400Y-1472996D03*
G01*
X16281400Y-1218996D03*
G36*
X931926Y-695197D02*
G01*
X931926Y-504952D01*
X1122171Y-504952D01*
X1122171Y-695197D01*
G37*
G01*
X772998Y-599998D03*
G36*
X2931922Y-695197D02*
G01*
X2931922Y-504952D01*
X3122168Y-504952D01*
X3122168Y-695197D01*
G37*
G01*
X2772994Y-599998D03*
G36*
X4931918Y-695197D02*
G01*
X4931918Y-504952D01*
X5122163Y-504952D01*
X5122163Y-695197D01*
G37*
G01*
X4772990Y-599998D03*
G36*
X6931913Y-716026D02*
G01*
X6931913Y-526034D01*
X7122159Y-526034D01*
X7122159Y-716026D01*
G37*
G01*
X6773011Y-621004D03*
G36*
X8931909Y-695197D02*
G01*
X8931909Y-504952D01*
X9122156Y-504952D01*
X9122156Y-695197D01*
G37*
G01*
X8773007Y-599998D03*
G36*
X10931906Y-695197D02*
G01*
X10931906Y-504952D01*
X11122152Y-504952D01*
X11122152Y-695197D01*
G37*
G01*
X10773003Y-599998D03*
G36*
X12931902Y-695197D02*
G01*
X12931902Y-504952D01*
X13122147Y-504952D01*
X13122147Y-695197D01*
G37*
G01*
X12772999Y-599998D03*
G36*
X14931897Y-695197D02*
G01*
X14931897Y-504952D01*
X15122143Y-504952D01*
X15122143Y-695197D01*
G37*
G01*
X14772995Y-599998D03*
G36*
X8845295Y-3938270D02*
G01*
X8845295Y-3699763D01*
X8986774Y-3699763D01*
X8986774Y-3938270D01*
G37*
G36*
X8591295Y-3938270D02*
G01*
X8591295Y-3699763D01*
X8732774Y-3699763D01*
X8732774Y-3938270D01*
G37*
G36*
X7321295Y-3938270D02*
G01*
X7321295Y-3699763D01*
X7462774Y-3699763D01*
X7462774Y-3938270D01*
G37*
G36*
X7067295Y-3938270D02*
G01*
X7067295Y-3699763D01*
X7208774Y-3699763D01*
X7208774Y-3938270D01*
G37*
G36*
X8337295Y-3938270D02*
G01*
X8337295Y-3699763D01*
X8478774Y-3699763D01*
X8478774Y-3938270D01*
G37*
G36*
X8083295Y-3938270D02*
G01*
X8083295Y-3699763D01*
X8224774Y-3699763D01*
X8224774Y-3938270D01*
G37*
G36*
X7575295Y-3938270D02*
G01*
X7575295Y-3699763D01*
X7716774Y-3699763D01*
X7716774Y-3938270D01*
G37*
G36*
X7829295Y-3938270D02*
G01*
X7829295Y-3699763D01*
X7970774Y-3699763D01*
X7970774Y-3938270D01*
G37*
G36*
X6813295Y-3938270D02*
G01*
X6813295Y-3699763D01*
X6954774Y-3699763D01*
X6954774Y-3938270D01*
G37*
G36*
X6813295Y-4700270D02*
G01*
X6813295Y-4461763D01*
X6954774Y-4461763D01*
X6954774Y-4700270D01*
G37*
G36*
X7067295Y-4700270D02*
G01*
X7067295Y-4461763D01*
X7208774Y-4461763D01*
X7208774Y-4700270D01*
G37*
G36*
X7321295Y-4700270D02*
G01*
X7321295Y-4461763D01*
X7462774Y-4461763D01*
X7462774Y-4700270D01*
G37*
G36*
X7575295Y-4700270D02*
G01*
X7575295Y-4461763D01*
X7716774Y-4461763D01*
X7716774Y-4700270D01*
G37*
G36*
X7829295Y-4700270D02*
G01*
X7829295Y-4461763D01*
X7970774Y-4461763D01*
X7970774Y-4700270D01*
G37*
G36*
X8083295Y-4700270D02*
G01*
X8083295Y-4461763D01*
X8224774Y-4461763D01*
X8224774Y-4700270D01*
G37*
G36*
X8337295Y-4700270D02*
G01*
X8337295Y-4461763D01*
X8478774Y-4461763D01*
X8478774Y-4700270D01*
G37*
G36*
X8591295Y-4700270D02*
G01*
X8591295Y-4461763D01*
X8732774Y-4461763D01*
X8732774Y-4700270D01*
G37*
G36*
X8845295Y-4700270D02*
G01*
X8845295Y-4461763D01*
X8986774Y-4461763D01*
X8986774Y-4700270D01*
G37*
D29*
G01*
X391998Y-3099993D03*
G01*
X1407998Y-3099993D03*
G01*
X2391994Y-3099993D03*
G01*
X3407994Y-3099993D03*
G01*
X4391990Y-3099993D03*
G01*
X5407990Y-3099993D03*
G01*
X6392011Y-3099993D03*
G01*
X7408011Y-3099993D03*
G01*
X8392007Y-3099993D03*
G01*
X9408007Y-3099993D03*
G01*
X10392003Y-3099993D03*
G01*
X11408003Y-3099993D03*
G01*
X12391999Y-3099993D03*
G01*
X13407999Y-3099993D03*
G01*
X14391995Y-3099993D03*
G01*
X15407995Y-3099993D03*
G01*
X11744096Y-4550308D03*
G01*
X10728096Y-4550308D03*
G01*
X11731396Y-4207408D03*
G01*
X10715396Y-4207408D03*
G01*
X11744096Y-3851808D03*
G01*
X10728096Y-3851808D03*
G01*
X4597400Y-3692017D03*
G01*
X4597400Y-4708017D03*
G01*
X5219700Y-3670300D03*
G01*
X5219700Y-4686300D03*
M02*
