G04 Layer: TopLayer*
G04 EasyEDA v6.4.25, 2021-12-20T13:39:12+01:00*
G04 63a1d32c011d494aaade838ba407243e,51d3ad7738a14b0e94bcfea3d2f56fdc,10*
G04 Gerber Generator version 0.2*
G04 Scale: 100 percent, Rotated: No, Reflected: No *
G04 Dimensions in millimeters *
G04 leading zeros omitted , absolute positions ,4 integer and 5 decimal *
%FSLAX45Y45*%
%MOMM*%

%ADD10C,0.2540*%
%ADD11C,2.0000*%
%ADD12C,1.0000*%
%ADD13C,1.8000*%
%ADD15R,1.8000X1.8000*%
%ADD16R,1.2116X2.1819*%
%ADD17C,2.3000*%

%LPD*%
G36*
X-1221232Y-4974082D02*
G01*
X-1225143Y-4973320D01*
X-1228394Y-4971084D01*
X-1230630Y-4967833D01*
X-1231392Y-4963922D01*
X-1231392Y-36068D01*
X-1230630Y-32156D01*
X-1228394Y-28905D01*
X-1225143Y-26670D01*
X-1221232Y-25908D01*
X17045432Y-25908D01*
X17049343Y-26670D01*
X17052594Y-28905D01*
X17054830Y-32156D01*
X17055592Y-36068D01*
X17055592Y-4963922D01*
X17054830Y-4967833D01*
X17052594Y-4971084D01*
X17049343Y-4973320D01*
X17045432Y-4974082D01*
G37*

%LPC*%
G36*
X10401808Y-4864608D02*
G01*
X13982192Y-4864608D01*
X13990218Y-4863795D01*
X13997432Y-4861610D01*
X14004137Y-4858054D01*
X14010335Y-4852924D01*
X16308324Y-2554935D01*
X16313454Y-2548737D01*
X16317010Y-2542032D01*
X16319195Y-2534818D01*
X16320007Y-2526792D01*
X16320007Y-2107082D01*
X16320769Y-2103170D01*
X16323005Y-2099868D01*
X16326256Y-2097684D01*
X16330168Y-2096922D01*
X16370807Y-2096922D01*
X16377157Y-2096211D01*
X16382593Y-2094280D01*
X16387521Y-2091182D01*
X16391585Y-2087118D01*
X16394684Y-2082190D01*
X16396614Y-2076754D01*
X16397325Y-2070404D01*
X16397325Y-1891588D01*
X16396614Y-1885238D01*
X16394684Y-1879803D01*
X16391585Y-1874875D01*
X16387521Y-1870811D01*
X16382593Y-1867712D01*
X16377157Y-1865782D01*
X16370807Y-1865071D01*
X16191992Y-1865071D01*
X16185642Y-1865782D01*
X16180206Y-1867712D01*
X16175278Y-1870811D01*
X16171214Y-1874875D01*
X16168116Y-1879803D01*
X16166185Y-1885238D01*
X16165474Y-1891588D01*
X16165474Y-2070404D01*
X16166185Y-2076754D01*
X16168116Y-2082190D01*
X16171214Y-2087118D01*
X16175278Y-2091182D01*
X16180206Y-2094280D01*
X16185642Y-2096211D01*
X16191992Y-2096922D01*
X16232632Y-2096922D01*
X16236543Y-2097684D01*
X16239794Y-2099868D01*
X16242030Y-2103170D01*
X16242792Y-2107082D01*
X16242792Y-2507081D01*
X16242030Y-2510993D01*
X16239794Y-2514295D01*
X13969695Y-4784394D01*
X13966393Y-4786630D01*
X13962481Y-4787392D01*
X10421518Y-4787392D01*
X10417606Y-4786630D01*
X10414304Y-4784394D01*
X9647021Y-4017111D01*
X9644837Y-4013860D01*
X9644024Y-4010050D01*
X9644735Y-4006189D01*
X9647936Y-3998214D01*
X9651542Y-3984091D01*
X9653371Y-3969664D01*
X9653371Y-3955135D01*
X9651542Y-3940708D01*
X9647936Y-3926586D01*
X9642551Y-3913073D01*
X9636302Y-3901694D01*
X9635134Y-3897782D01*
X9635540Y-3893718D01*
X9637572Y-3890111D01*
X9640874Y-3887673D01*
X9644837Y-3886657D01*
X9648901Y-3887368D01*
X9652355Y-3889552D01*
X10189870Y-4416755D01*
X10192105Y-4420006D01*
X10192918Y-4423867D01*
X10192207Y-4427728D01*
X10189464Y-4434586D01*
X10185857Y-4448708D01*
X10184028Y-4463135D01*
X10184028Y-4477664D01*
X10185857Y-4492091D01*
X10189464Y-4506214D01*
X10194848Y-4519726D01*
X10201859Y-4532477D01*
X10210393Y-4544263D01*
X10220350Y-4554880D01*
X10231577Y-4564176D01*
X10243870Y-4571949D01*
X10257028Y-4578146D01*
X10270896Y-4582668D01*
X10285171Y-4585360D01*
X10299700Y-4586274D01*
X10314228Y-4585360D01*
X10328503Y-4582668D01*
X10342372Y-4578146D01*
X10355529Y-4571949D01*
X10367822Y-4564176D01*
X10379049Y-4554880D01*
X10389006Y-4544263D01*
X10396677Y-4533646D01*
X10399471Y-4531055D01*
X10402976Y-4529683D01*
X10406786Y-4529632D01*
X10580674Y-4562094D01*
X10584434Y-4563618D01*
X10587329Y-4566513D01*
X10588802Y-4570323D01*
X10590885Y-4582210D01*
X10595406Y-4597654D01*
X10601655Y-4612487D01*
X10609580Y-4626457D01*
X10619028Y-4639462D01*
X10629900Y-4651349D01*
X10642041Y-4661865D01*
X10655350Y-4670958D01*
X10669574Y-4678476D01*
X10684560Y-4684318D01*
X10700105Y-4688382D01*
X10716056Y-4690668D01*
X10732109Y-4691126D01*
X10748162Y-4689754D01*
X10763910Y-4686554D01*
X10779201Y-4681575D01*
X10793831Y-4674920D01*
X10807649Y-4666589D01*
X10820349Y-4656785D01*
X10831880Y-4645558D01*
X10842091Y-4633112D01*
X10850778Y-4619599D01*
X10857890Y-4605121D01*
X10863275Y-4589983D01*
X10866932Y-4574336D01*
X10868761Y-4558334D01*
X10868761Y-4542282D01*
X10866932Y-4526280D01*
X10863275Y-4510582D01*
X10857890Y-4495444D01*
X10850778Y-4481017D01*
X10842091Y-4467504D01*
X10831880Y-4455058D01*
X10820349Y-4443831D01*
X10807649Y-4433976D01*
X10793831Y-4425696D01*
X10779201Y-4418990D01*
X10763910Y-4414062D01*
X10748162Y-4410862D01*
X10732109Y-4409490D01*
X10716056Y-4409948D01*
X10700105Y-4412234D01*
X10684560Y-4416298D01*
X10669574Y-4422140D01*
X10655350Y-4429658D01*
X10642041Y-4438751D01*
X10629900Y-4449267D01*
X10619028Y-4461103D01*
X10609580Y-4474108D01*
X10605566Y-4481169D01*
X10602823Y-4484319D01*
X10599064Y-4486097D01*
X10594898Y-4486198D01*
X10420908Y-4453737D01*
X10417352Y-4452315D01*
X10414558Y-4449724D01*
X10412933Y-4446270D01*
X10409936Y-4434586D01*
X10404551Y-4421073D01*
X10397540Y-4408322D01*
X10389006Y-4396536D01*
X10379049Y-4385919D01*
X10367822Y-4376623D01*
X10355529Y-4368850D01*
X10342372Y-4362653D01*
X10328503Y-4358132D01*
X10314228Y-4355439D01*
X10299700Y-4354525D01*
X10285171Y-4355439D01*
X10270896Y-4358132D01*
X10257028Y-4362653D01*
X10255300Y-4363466D01*
X10251287Y-4364431D01*
X10247274Y-4363770D01*
X10243820Y-4361535D01*
X9666681Y-3795471D01*
X9660737Y-3790645D01*
X9654032Y-3787089D01*
X9646818Y-3784904D01*
X9638792Y-3784092D01*
X9398508Y-3784092D01*
X9390481Y-3784904D01*
X9383268Y-3787089D01*
X9376562Y-3790645D01*
X9370364Y-3795776D01*
X8979712Y-4186377D01*
X8976461Y-4188561D01*
X8972550Y-4189323D01*
X8968638Y-4188561D01*
X8965387Y-4186377D01*
X8943035Y-4164076D01*
X8936837Y-4158945D01*
X8930132Y-4155389D01*
X8922918Y-4153204D01*
X8914892Y-4152392D01*
X8084718Y-4152392D01*
X8080806Y-4151629D01*
X8077504Y-4149394D01*
X7941564Y-4013504D01*
X7939379Y-4010202D01*
X7938617Y-4006291D01*
X7938617Y-3964178D01*
X7939379Y-3960266D01*
X7941564Y-3956964D01*
X7944866Y-3954779D01*
X7948777Y-3954018D01*
X7960004Y-3954018D01*
X7966354Y-3953306D01*
X7971790Y-3951376D01*
X7976666Y-3948277D01*
X7980781Y-3944213D01*
X7983880Y-3939286D01*
X7985759Y-3933850D01*
X7986471Y-3927500D01*
X7986471Y-3710482D01*
X7985759Y-3704132D01*
X7983880Y-3698697D01*
X7980781Y-3693769D01*
X7976666Y-3689705D01*
X7971790Y-3686606D01*
X7966354Y-3684727D01*
X7960004Y-3684015D01*
X7840014Y-3684015D01*
X7833664Y-3684727D01*
X7828229Y-3686606D01*
X7826552Y-3687673D01*
X7822539Y-3689096D01*
X7818221Y-3688791D01*
X7814462Y-3686708D01*
X7811922Y-3683254D01*
X7811008Y-3679037D01*
X7811008Y-3454908D01*
X7810195Y-3446881D01*
X7808010Y-3439668D01*
X7804454Y-3433013D01*
X7798917Y-3426358D01*
X7537348Y-3171901D01*
X7535062Y-3168599D01*
X7534249Y-3164636D01*
X7535062Y-3160674D01*
X7540701Y-3147364D01*
X7545222Y-3131921D01*
X7547965Y-3116072D01*
X7548880Y-3100019D01*
X7547965Y-3083915D01*
X7545222Y-3068066D01*
X7540701Y-3052673D01*
X7534452Y-3037840D01*
X7526528Y-3023819D01*
X7517079Y-3010814D01*
X7506208Y-2998978D01*
X7494016Y-2988411D01*
X7480757Y-2979369D01*
X7466533Y-2971850D01*
X7451547Y-2966008D01*
X7436002Y-2961894D01*
X7420051Y-2959608D01*
X7403998Y-2959150D01*
X7387945Y-2960522D01*
X7372197Y-2963722D01*
X7356906Y-2968701D01*
X7342225Y-2975406D01*
X7328458Y-2983687D01*
X7315758Y-2993542D01*
X7304176Y-3004718D01*
X7294016Y-3017164D01*
X7285329Y-3030728D01*
X7278217Y-3045155D01*
X7272832Y-3060293D01*
X7269175Y-3075990D01*
X7267346Y-3091942D01*
X7267346Y-3108045D01*
X7269175Y-3124047D01*
X7272832Y-3139694D01*
X7278217Y-3154832D01*
X7285329Y-3169259D01*
X7294016Y-3182823D01*
X7304176Y-3195269D01*
X7315758Y-3206496D01*
X7328458Y-3216300D01*
X7342225Y-3224631D01*
X7356906Y-3231286D01*
X7372197Y-3236264D01*
X7387945Y-3239465D01*
X7403998Y-3240836D01*
X7420051Y-3240379D01*
X7436002Y-3238093D01*
X7451547Y-3233978D01*
X7466533Y-3228136D01*
X7471613Y-3225495D01*
X7475677Y-3224326D01*
X7479842Y-3224936D01*
X7483398Y-3227171D01*
X7730693Y-3467709D01*
X7732979Y-3471062D01*
X7733792Y-3474974D01*
X7733792Y-3678275D01*
X7732877Y-3682492D01*
X7730337Y-3685946D01*
X7726578Y-3688029D01*
X7722260Y-3688384D01*
X7712354Y-3684727D01*
X7706004Y-3684015D01*
X7586014Y-3684015D01*
X7579664Y-3684727D01*
X7574229Y-3686606D01*
X7569301Y-3689705D01*
X7565237Y-3693769D01*
X7562138Y-3698697D01*
X7560208Y-3704132D01*
X7559497Y-3710482D01*
X7559497Y-3927500D01*
X7560208Y-3933850D01*
X7562138Y-3939286D01*
X7565237Y-3944213D01*
X7569301Y-3948277D01*
X7574229Y-3951376D01*
X7579664Y-3953306D01*
X7586014Y-3954018D01*
X7706004Y-3954018D01*
X7712354Y-3953306D01*
X7722260Y-3949649D01*
X7726578Y-3949954D01*
X7730337Y-3952036D01*
X7732877Y-3955491D01*
X7733792Y-3959707D01*
X7733792Y-4056481D01*
X7733030Y-4060393D01*
X7730794Y-4063695D01*
X7619034Y-4175455D01*
X7613954Y-4181703D01*
X7610398Y-4188358D01*
X7608163Y-4195572D01*
X7607401Y-4203598D01*
X7607401Y-4435856D01*
X7606639Y-4439716D01*
X7604404Y-4443018D01*
X7601102Y-4445203D01*
X7597241Y-4446016D01*
X7586014Y-4446016D01*
X7579664Y-4446727D01*
X7574229Y-4448606D01*
X7569301Y-4451705D01*
X7565237Y-4455769D01*
X7562138Y-4460697D01*
X7560208Y-4466132D01*
X7559497Y-4472482D01*
X7559497Y-4689500D01*
X7560208Y-4695850D01*
X7562138Y-4701286D01*
X7565237Y-4706213D01*
X7569301Y-4710277D01*
X7574229Y-4713376D01*
X7579664Y-4715306D01*
X7586014Y-4716018D01*
X7706004Y-4716018D01*
X7712354Y-4715306D01*
X7717790Y-4713376D01*
X7722666Y-4710277D01*
X7726781Y-4706213D01*
X7729880Y-4701286D01*
X7731759Y-4695850D01*
X7732471Y-4689500D01*
X7732471Y-4472482D01*
X7731759Y-4466132D01*
X7729880Y-4460697D01*
X7726781Y-4455769D01*
X7722666Y-4451705D01*
X7717790Y-4448606D01*
X7712354Y-4446727D01*
X7706004Y-4446016D01*
X7694777Y-4446016D01*
X7690866Y-4445203D01*
X7687564Y-4443018D01*
X7685379Y-4439716D01*
X7684617Y-4435856D01*
X7684617Y-4223308D01*
X7685379Y-4219397D01*
X7687564Y-4216095D01*
X7799324Y-4104335D01*
X7804454Y-4098137D01*
X7808010Y-4091432D01*
X7810195Y-4084218D01*
X7811008Y-4076192D01*
X7811008Y-3958945D01*
X7811922Y-3954729D01*
X7814462Y-3951325D01*
X7818221Y-3949242D01*
X7822539Y-3948887D01*
X7826552Y-3950360D01*
X7828229Y-3951376D01*
X7833664Y-3953306D01*
X7840014Y-3954018D01*
X7851241Y-3954018D01*
X7855102Y-3954779D01*
X7858404Y-3956964D01*
X7860639Y-3960266D01*
X7861401Y-3964178D01*
X7861401Y-4026001D01*
X7862163Y-4034028D01*
X7864398Y-4041241D01*
X7867954Y-4047896D01*
X7873034Y-4054144D01*
X8036864Y-4217924D01*
X8043062Y-4223054D01*
X8049768Y-4226610D01*
X8056981Y-4228795D01*
X8065008Y-4229608D01*
X8895181Y-4229608D01*
X8899093Y-4230370D01*
X8902395Y-4232605D01*
X8925864Y-4256024D01*
X8932062Y-4261154D01*
X8938768Y-4264710D01*
X8945981Y-4266895D01*
X8954008Y-4267708D01*
X8991092Y-4267708D01*
X8999118Y-4266895D01*
X9006332Y-4264710D01*
X9013037Y-4261154D01*
X9019235Y-4256024D01*
X9411004Y-3864305D01*
X9414306Y-3862070D01*
X9418218Y-3861308D01*
X9450476Y-3861308D01*
X9454337Y-3862070D01*
X9457588Y-3864203D01*
X9459823Y-3867454D01*
X9460636Y-3871264D01*
X9459976Y-3875125D01*
X9457893Y-3878427D01*
X9448393Y-3888536D01*
X9439859Y-3900322D01*
X9432848Y-3913073D01*
X9427464Y-3926586D01*
X9423857Y-3940708D01*
X9422028Y-3955135D01*
X9422028Y-3969664D01*
X9423857Y-3984091D01*
X9427464Y-3998214D01*
X9432848Y-4011726D01*
X9439859Y-4024477D01*
X9448393Y-4036263D01*
X9458350Y-4046880D01*
X9469577Y-4056176D01*
X9481870Y-4063949D01*
X9493250Y-4069334D01*
X9496348Y-4071569D01*
X9498380Y-4074769D01*
X9499092Y-4078528D01*
X9499092Y-4100271D01*
X9498380Y-4104030D01*
X9496348Y-4107230D01*
X9493250Y-4109465D01*
X9481870Y-4114850D01*
X9469577Y-4122623D01*
X9458350Y-4131919D01*
X9448393Y-4142536D01*
X9439859Y-4154322D01*
X9432848Y-4167073D01*
X9427464Y-4180586D01*
X9423857Y-4194708D01*
X9422028Y-4209135D01*
X9422028Y-4223664D01*
X9423857Y-4238091D01*
X9427464Y-4252214D01*
X9432848Y-4265726D01*
X9439859Y-4278477D01*
X9448393Y-4290263D01*
X9458350Y-4300880D01*
X9469577Y-4310176D01*
X9481870Y-4317949D01*
X9493250Y-4323334D01*
X9496348Y-4325569D01*
X9498380Y-4328769D01*
X9499092Y-4332528D01*
X9499092Y-4354271D01*
X9498380Y-4358030D01*
X9496348Y-4361230D01*
X9493250Y-4363466D01*
X9481870Y-4368850D01*
X9469577Y-4376623D01*
X9458350Y-4385919D01*
X9448393Y-4396536D01*
X9439859Y-4408322D01*
X9432848Y-4421073D01*
X9431121Y-4425391D01*
X9428937Y-4428744D01*
X9425635Y-4430979D01*
X9421672Y-4431792D01*
X9027109Y-4431792D01*
X9019082Y-4432604D01*
X9011869Y-4434789D01*
X9005163Y-4438345D01*
X8998966Y-4443476D01*
X8996730Y-4445660D01*
X8993632Y-4447794D01*
X8989923Y-4448606D01*
X8986215Y-4448048D01*
X8982354Y-4446727D01*
X8976004Y-4446016D01*
X8856014Y-4446016D01*
X8849664Y-4446727D01*
X8844229Y-4448606D01*
X8839301Y-4451705D01*
X8835237Y-4455769D01*
X8832138Y-4460697D01*
X8830208Y-4466132D01*
X8829497Y-4472482D01*
X8829497Y-4689500D01*
X8830818Y-4699711D01*
X8830005Y-4703419D01*
X8827871Y-4706518D01*
X8788095Y-4746294D01*
X8784793Y-4748530D01*
X8780881Y-4749292D01*
X5360974Y-4749292D01*
X5357114Y-4748530D01*
X5353862Y-4746396D01*
X5351627Y-4743145D01*
X5350814Y-4739284D01*
X5351526Y-4735423D01*
X5353710Y-4729835D01*
X5357774Y-4714290D01*
X5360060Y-4698339D01*
X5360517Y-4682286D01*
X5359146Y-4666234D01*
X5355945Y-4650486D01*
X5350967Y-4635195D01*
X5344312Y-4620564D01*
X5335981Y-4606798D01*
X5326176Y-4594047D01*
X5314950Y-4582515D01*
X5302504Y-4572304D01*
X5288991Y-4563618D01*
X5274564Y-4556506D01*
X5259374Y-4551121D01*
X5243728Y-4547463D01*
X5227726Y-4545634D01*
X5211673Y-4545634D01*
X5195671Y-4547463D01*
X5180025Y-4551121D01*
X5164836Y-4556506D01*
X5150408Y-4563618D01*
X5136896Y-4572304D01*
X5124450Y-4582515D01*
X5113223Y-4594047D01*
X5103418Y-4606798D01*
X5095087Y-4620564D01*
X5088432Y-4635195D01*
X5083454Y-4650486D01*
X5081270Y-4661255D01*
X5080000Y-4664506D01*
X5077714Y-4667097D01*
X5074716Y-4668824D01*
X5071313Y-4669383D01*
X4740148Y-4669383D01*
X4735982Y-4668520D01*
X4732578Y-4666030D01*
X4730496Y-4662373D01*
X4728667Y-4656886D01*
X4722012Y-4642256D01*
X4713681Y-4628489D01*
X4703876Y-4615738D01*
X4692650Y-4604207D01*
X4680204Y-4593996D01*
X4666691Y-4585309D01*
X4652264Y-4578197D01*
X4637074Y-4572812D01*
X4621428Y-4569155D01*
X4605426Y-4567326D01*
X4589373Y-4567326D01*
X4573371Y-4569155D01*
X4557725Y-4572812D01*
X4542536Y-4578197D01*
X4528108Y-4585309D01*
X4514596Y-4593996D01*
X4502150Y-4604207D01*
X4490923Y-4615738D01*
X4481118Y-4628489D01*
X4472787Y-4642256D01*
X4466132Y-4656886D01*
X4464354Y-4662271D01*
X4462272Y-4665929D01*
X4458817Y-4668418D01*
X4454702Y-4669282D01*
X54508Y-4669282D01*
X50596Y-4668520D01*
X47294Y-4666284D01*
X-618794Y-4000195D01*
X-621030Y-3996893D01*
X-621792Y-3992981D01*
X-621792Y-3356254D01*
X-621030Y-3352342D01*
X-618794Y-3349040D01*
X-615543Y-3346856D01*
X-611632Y-3346094D01*
X-607720Y-3346856D01*
X-604469Y-3349040D01*
X-331673Y-3621836D01*
X-329438Y-3625189D01*
X-328676Y-3629101D01*
X-329488Y-3633063D01*
X-331774Y-3636314D01*
X-335178Y-3638499D01*
X-339090Y-3639210D01*
X-343662Y-3637991D01*
X-343662Y-3694074D01*
X-287578Y-3694074D01*
X-288747Y-3689553D01*
X-288036Y-3685590D01*
X-285902Y-3682237D01*
X-282600Y-3679951D01*
X-278688Y-3679139D01*
X-274726Y-3679901D01*
X-271424Y-3682085D01*
X-234645Y-3718814D01*
X-228447Y-3723944D01*
X-221742Y-3727500D01*
X-214528Y-3729685D01*
X-206502Y-3730498D01*
X4454499Y-3730498D01*
X4458462Y-3731310D01*
X4461764Y-3733596D01*
X4463948Y-3736949D01*
X4469231Y-3750513D01*
X4476750Y-3764737D01*
X4485843Y-3778046D01*
X4496358Y-3790187D01*
X4508195Y-3801059D01*
X4521250Y-3810508D01*
X4535220Y-3818432D01*
X4550054Y-3824681D01*
X4565497Y-3829253D01*
X4581347Y-3831996D01*
X4597400Y-3832910D01*
X4613452Y-3831996D01*
X4629302Y-3829253D01*
X4644745Y-3824681D01*
X4659579Y-3818432D01*
X4673549Y-3810508D01*
X4686604Y-3801059D01*
X4698441Y-3790187D01*
X4708956Y-3778046D01*
X4718050Y-3764737D01*
X4725568Y-3750513D01*
X4731410Y-3735527D01*
X4735474Y-3719982D01*
X4737760Y-3704031D01*
X4738217Y-3687978D01*
X4736846Y-3671925D01*
X4733645Y-3656177D01*
X4728667Y-3640886D01*
X4723587Y-3629761D01*
X4722672Y-3625748D01*
X4723434Y-3621735D01*
X4725670Y-3618331D01*
X4873447Y-3470605D01*
X4876698Y-3468370D01*
X4880610Y-3467608D01*
X7219188Y-3467608D01*
X7222388Y-3468115D01*
X7225233Y-3469589D01*
X7227519Y-3471926D01*
X7231278Y-3477260D01*
X7233666Y-3479749D01*
X7235901Y-3483356D01*
X7236459Y-3487572D01*
X7235240Y-3491636D01*
X7232497Y-3494887D01*
X7226604Y-3499358D01*
X7218578Y-3507740D01*
X7214819Y-3513074D01*
X7212533Y-3515410D01*
X7209688Y-3516884D01*
X7206488Y-3517392D01*
X5334508Y-3517392D01*
X5326481Y-3518204D01*
X5319268Y-3520389D01*
X5312562Y-3523945D01*
X5306364Y-3529076D01*
X5293309Y-3542080D01*
X5289804Y-3544366D01*
X5285689Y-3545027D01*
X5281676Y-3544011D01*
X5274564Y-3540506D01*
X5259374Y-3535121D01*
X5243728Y-3531463D01*
X5227726Y-3529634D01*
X5211673Y-3529634D01*
X5195671Y-3531463D01*
X5180025Y-3535121D01*
X5164836Y-3540506D01*
X5150408Y-3547618D01*
X5136896Y-3556304D01*
X5124450Y-3566515D01*
X5113223Y-3578047D01*
X5103418Y-3590798D01*
X5095087Y-3604564D01*
X5088432Y-3619195D01*
X5083454Y-3634486D01*
X5080254Y-3650234D01*
X5078882Y-3666286D01*
X5079339Y-3682339D01*
X5081625Y-3698290D01*
X5085689Y-3713835D01*
X5091531Y-3728821D01*
X5099050Y-3743045D01*
X5108143Y-3756355D01*
X5118658Y-3768496D01*
X5130495Y-3779367D01*
X5143550Y-3788816D01*
X5157520Y-3796741D01*
X5172354Y-3802989D01*
X5187797Y-3807510D01*
X5203647Y-3810254D01*
X5219700Y-3811168D01*
X5235752Y-3810254D01*
X5251602Y-3807510D01*
X5267045Y-3802989D01*
X5281879Y-3796741D01*
X5295849Y-3788816D01*
X5308904Y-3779367D01*
X5320741Y-3768496D01*
X5331256Y-3756355D01*
X5340350Y-3743045D01*
X5347868Y-3728821D01*
X5353710Y-3713835D01*
X5357774Y-3698290D01*
X5360060Y-3682339D01*
X5360517Y-3666286D01*
X5359146Y-3650234D01*
X5355945Y-3634486D01*
X5350967Y-3619195D01*
X5346344Y-3608984D01*
X5345430Y-3605072D01*
X5346090Y-3601059D01*
X5348274Y-3597706D01*
X5351627Y-3595420D01*
X5355590Y-3594608D01*
X7206488Y-3594608D01*
X7209688Y-3595115D01*
X7212533Y-3596589D01*
X7214819Y-3598926D01*
X7218578Y-3604260D01*
X7226604Y-3612642D01*
X7235850Y-3619703D01*
X7246061Y-3625240D01*
X7256983Y-3629151D01*
X7268413Y-3631387D01*
X7279995Y-3631844D01*
X7291527Y-3630472D01*
X7302753Y-3627424D01*
X7313371Y-3622649D01*
X7323074Y-3616350D01*
X7331760Y-3608628D01*
X7339177Y-3599637D01*
X7345121Y-3589680D01*
X7349439Y-3578910D01*
X7352080Y-3567582D01*
X7352995Y-3556000D01*
X7352080Y-3544417D01*
X7349439Y-3533089D01*
X7345121Y-3522319D01*
X7339177Y-3512362D01*
X7332878Y-3504742D01*
X7330897Y-3500932D01*
X7330694Y-3496716D01*
X7332167Y-3492754D01*
X7344460Y-3481628D01*
X7351877Y-3472637D01*
X7357821Y-3462680D01*
X7362139Y-3451910D01*
X7364780Y-3440582D01*
X7365695Y-3429000D01*
X7364780Y-3417417D01*
X7362139Y-3406089D01*
X7357821Y-3395319D01*
X7351877Y-3385362D01*
X7344460Y-3376371D01*
X7335774Y-3368649D01*
X7326071Y-3362350D01*
X7315453Y-3357575D01*
X7304227Y-3354527D01*
X7292695Y-3353155D01*
X7281113Y-3353612D01*
X7269683Y-3355848D01*
X7258761Y-3359759D01*
X7248550Y-3365296D01*
X7239304Y-3372358D01*
X7231278Y-3380740D01*
X7227519Y-3386074D01*
X7225233Y-3388410D01*
X7222388Y-3389884D01*
X7219188Y-3390392D01*
X4860899Y-3390392D01*
X4852873Y-3391204D01*
X4845659Y-3393389D01*
X4839004Y-3396945D01*
X4832756Y-3402076D01*
X4671009Y-3563772D01*
X4667504Y-3566058D01*
X4663389Y-3566769D01*
X4659376Y-3565702D01*
X4652264Y-3562197D01*
X4637074Y-3556812D01*
X4621428Y-3553155D01*
X4605426Y-3551326D01*
X4589373Y-3551326D01*
X4573371Y-3553155D01*
X4557725Y-3556812D01*
X4542536Y-3562197D01*
X4528108Y-3569309D01*
X4514596Y-3577996D01*
X4502150Y-3588207D01*
X4490923Y-3599738D01*
X4481118Y-3612489D01*
X4472787Y-3626256D01*
X4466132Y-3640886D01*
X4464354Y-3646271D01*
X4462272Y-3649929D01*
X4458817Y-3652418D01*
X4454702Y-3653282D01*
X-186791Y-3653282D01*
X-190703Y-3652520D01*
X-194005Y-3650284D01*
X-297230Y-3547059D01*
X-299466Y-3543757D01*
X-300228Y-3539845D01*
X-299415Y-3535934D01*
X-297230Y-3532632D01*
X-293878Y-3530447D01*
X-290017Y-3529685D01*
X-286105Y-3530498D01*
X-277774Y-3534054D01*
X-270510Y-3536543D01*
X-263296Y-3538524D01*
X-255778Y-3540150D01*
X-248361Y-3541268D01*
X-240690Y-3541979D01*
X-233019Y-3542233D01*
X418947Y-3542233D01*
X426720Y-3541979D01*
X434289Y-3541268D01*
X441807Y-3540150D01*
X449224Y-3538524D01*
X456539Y-3536492D01*
X463753Y-3534003D01*
X470763Y-3531108D01*
X477621Y-3527806D01*
X484225Y-3524046D01*
X490626Y-3519932D01*
X496722Y-3515410D01*
X502564Y-3510534D01*
X508254Y-3505200D01*
X1562100Y-2451354D01*
X1567434Y-2445664D01*
X1572310Y-2439822D01*
X1576832Y-2433726D01*
X1580946Y-2427325D01*
X1584706Y-2420721D01*
X1588008Y-2413863D01*
X1590903Y-2406853D01*
X1593392Y-2399639D01*
X1595424Y-2392324D01*
X1597050Y-2384907D01*
X1598168Y-2377389D01*
X1598879Y-2369820D01*
X1599133Y-2362047D01*
X1599133Y-1727352D01*
X1598879Y-1719580D01*
X1598168Y-1712010D01*
X1597050Y-1704492D01*
X1595424Y-1697075D01*
X1593392Y-1689760D01*
X1590903Y-1682546D01*
X1588008Y-1675536D01*
X1584706Y-1668678D01*
X1580946Y-1662074D01*
X1576832Y-1655673D01*
X1572310Y-1649577D01*
X1567434Y-1643735D01*
X1562100Y-1638046D01*
X1463903Y-1539849D01*
X1461719Y-1536547D01*
X1460957Y-1532686D01*
X1460957Y-908202D01*
X1460703Y-900430D01*
X1459992Y-892860D01*
X1458874Y-885342D01*
X1457248Y-877925D01*
X1455216Y-870610D01*
X1452727Y-863396D01*
X1449832Y-856386D01*
X1446530Y-849528D01*
X1442770Y-842924D01*
X1438656Y-836523D01*
X1434134Y-830427D01*
X1429258Y-824585D01*
X1423924Y-818896D01*
X1145895Y-540867D01*
X1143660Y-537565D01*
X1142898Y-533654D01*
X1142898Y-510590D01*
X1142187Y-504240D01*
X1140307Y-498805D01*
X1137208Y-493877D01*
X1133094Y-489813D01*
X1128217Y-486714D01*
X1122730Y-484784D01*
X1116431Y-484073D01*
X1077671Y-484073D01*
X1074064Y-483412D01*
X1064361Y-479755D01*
X1049629Y-476097D01*
X1034542Y-474268D01*
X1019302Y-474268D01*
X1004214Y-476097D01*
X989482Y-479755D01*
X979779Y-483412D01*
X976172Y-484073D01*
X937564Y-484073D01*
X931265Y-484784D01*
X925779Y-486714D01*
X920902Y-489813D01*
X916787Y-493877D01*
X913739Y-498805D01*
X911809Y-504240D01*
X911098Y-510590D01*
X911098Y-549148D01*
X910437Y-552754D01*
X909472Y-555345D01*
X907287Y-558749D01*
X903935Y-561086D01*
X899972Y-561898D01*
X895959Y-561086D01*
X892606Y-558749D01*
X890473Y-555345D01*
X887780Y-548335D01*
X880719Y-534873D01*
X872083Y-522376D01*
X862025Y-510997D01*
X850646Y-500888D01*
X838149Y-492251D01*
X824687Y-485190D01*
X810463Y-479806D01*
X795680Y-476148D01*
X780592Y-474319D01*
X765403Y-474319D01*
X750316Y-476148D01*
X735533Y-479806D01*
X721309Y-485190D01*
X707847Y-492251D01*
X695350Y-500888D01*
X683768Y-511200D01*
X376072Y-818845D01*
X370738Y-824484D01*
X365912Y-830326D01*
X361391Y-836472D01*
X357276Y-842873D01*
X353517Y-849477D01*
X350215Y-856335D01*
X347268Y-863346D01*
X344779Y-870559D01*
X342747Y-877874D01*
X341172Y-885291D01*
X340004Y-892810D01*
X339344Y-900379D01*
X339090Y-908151D01*
X339090Y-1399844D01*
X339293Y-1406906D01*
X340004Y-1415186D01*
X341020Y-1421993D01*
X342747Y-1430172D01*
X344576Y-1436776D01*
X347268Y-1444650D01*
X349910Y-1451000D01*
X353517Y-1458518D01*
X356870Y-1464513D01*
X361391Y-1471523D01*
X365455Y-1477060D01*
X370789Y-1483512D01*
X375564Y-1488643D01*
X772668Y-1890064D01*
X774852Y-1893366D01*
X775563Y-1897278D01*
X774649Y-2147519D01*
X773836Y-2151430D01*
X771601Y-2154732D01*
X768299Y-2156917D01*
X764387Y-2157679D01*
X760476Y-2156815D01*
X757224Y-2154580D01*
X752043Y-2149246D01*
X747217Y-2146198D01*
X741730Y-2144318D01*
X735431Y-2143607D01*
X556564Y-2143607D01*
X550265Y-2144318D01*
X544779Y-2146198D01*
X539902Y-2149297D01*
X535787Y-2153412D01*
X532688Y-2158288D01*
X530809Y-2163775D01*
X530098Y-2170074D01*
X530098Y-2428951D01*
X530809Y-2435250D01*
X532688Y-2440736D01*
X535787Y-2445613D01*
X539902Y-2449728D01*
X544779Y-2452776D01*
X550265Y-2454706D01*
X556564Y-2455418D01*
X597763Y-2455418D01*
X601624Y-2456180D01*
X604926Y-2458364D01*
X607110Y-2461666D01*
X607923Y-2465527D01*
X609041Y-2824581D01*
X608279Y-2828493D01*
X606044Y-2831846D01*
X465785Y-2971800D01*
X462178Y-2974136D01*
X457962Y-2974746D01*
X453847Y-2973578D01*
X450545Y-2971850D01*
X435559Y-2966008D01*
X419963Y-2961894D01*
X404063Y-2959608D01*
X387959Y-2959150D01*
X371957Y-2960522D01*
X356158Y-2963722D01*
X340868Y-2968701D01*
X326237Y-2975406D01*
X312470Y-2983687D01*
X299720Y-2993542D01*
X288188Y-3004718D01*
X278028Y-3017164D01*
X269341Y-3030728D01*
X262229Y-3045155D01*
X256794Y-3060293D01*
X253187Y-3075990D01*
X251358Y-3091942D01*
X251358Y-3108045D01*
X253187Y-3124047D01*
X256794Y-3139694D01*
X262229Y-3154832D01*
X269341Y-3169259D01*
X278028Y-3182823D01*
X288188Y-3195269D01*
X299720Y-3206496D01*
X312470Y-3216300D01*
X326237Y-3224631D01*
X340868Y-3231286D01*
X356158Y-3236264D01*
X371957Y-3239465D01*
X387959Y-3240836D01*
X391820Y-3240735D01*
X395732Y-3241395D01*
X399135Y-3243580D01*
X401421Y-3246882D01*
X402234Y-3250793D01*
X401472Y-3254705D01*
X399288Y-3258058D01*
X369925Y-3287420D01*
X366623Y-3289604D01*
X362762Y-3290417D01*
X-176885Y-3290417D01*
X-180746Y-3289604D01*
X-184048Y-3287420D01*
X-316433Y-3155391D01*
X-328472Y-3145942D01*
X-341477Y-3138068D01*
X-355346Y-3131870D01*
X-369874Y-3127349D01*
X-384810Y-3124606D01*
X-400100Y-3123641D01*
X-415188Y-3124555D01*
X-422859Y-3125825D01*
X-430123Y-3127298D01*
X-437591Y-3129483D01*
X-444652Y-3131820D01*
X-458520Y-3138068D01*
X-465277Y-3141980D01*
X-471525Y-3145942D01*
X-477774Y-3150616D01*
X-483463Y-3155340D01*
X-489153Y-3160725D01*
X-494233Y-3166059D01*
X-499211Y-3172104D01*
X-503631Y-3178048D01*
X-507847Y-3184601D01*
X-511505Y-3191052D01*
X-514908Y-3198114D01*
X-517702Y-3204921D01*
X-520293Y-3212287D01*
X-522224Y-3219450D01*
X-523900Y-3227070D01*
X-524967Y-3234385D01*
X-525729Y-3242157D01*
X-525881Y-3249574D01*
X-525729Y-3257346D01*
X-524967Y-3264712D01*
X-523849Y-3272485D01*
X-522224Y-3279698D01*
X-520242Y-3287217D01*
X-517753Y-3294176D01*
X-514451Y-3302254D01*
X-513689Y-3306114D01*
X-514502Y-3310026D01*
X-516686Y-3313277D01*
X-519988Y-3315462D01*
X-523849Y-3316224D01*
X-527761Y-3315462D01*
X-531063Y-3313277D01*
X-555294Y-3288995D01*
X-557530Y-3285693D01*
X-558292Y-3281781D01*
X-558292Y-2865018D01*
X-557530Y-2861106D01*
X-555294Y-2857804D01*
X-163576Y-2466035D01*
X-158445Y-2459837D01*
X-154889Y-2453132D01*
X-152704Y-2445918D01*
X-151892Y-2437892D01*
X-151892Y-1683004D01*
X-152704Y-1674977D01*
X-154889Y-1667764D01*
X-158445Y-1661058D01*
X-163576Y-1654860D01*
X-290677Y-1527708D01*
X-292862Y-1524457D01*
X-293674Y-1520647D01*
X-292963Y-1516786D01*
X-289763Y-1508810D01*
X-286156Y-1494739D01*
X-284327Y-1480261D01*
X-284327Y-1465732D01*
X-286156Y-1451305D01*
X-289763Y-1437182D01*
X-295148Y-1423670D01*
X-302158Y-1410919D01*
X-310692Y-1399133D01*
X-320649Y-1388516D01*
X-331876Y-1379220D01*
X-344170Y-1371447D01*
X-357327Y-1365250D01*
X-371195Y-1360728D01*
X-385470Y-1358036D01*
X-399999Y-1357122D01*
X-414528Y-1358036D01*
X-428802Y-1360728D01*
X-442671Y-1365250D01*
X-455828Y-1371447D01*
X-468122Y-1379220D01*
X-479348Y-1388516D01*
X-489305Y-1399133D01*
X-497840Y-1410919D01*
X-504850Y-1423670D01*
X-510235Y-1437182D01*
X-513842Y-1451305D01*
X-515670Y-1465732D01*
X-515670Y-1480261D01*
X-513842Y-1494739D01*
X-510235Y-1508810D01*
X-504850Y-1522323D01*
X-497840Y-1535074D01*
X-489305Y-1546860D01*
X-479348Y-1557477D01*
X-468122Y-1566773D01*
X-455828Y-1574546D01*
X-442671Y-1580743D01*
X-428802Y-1585264D01*
X-414528Y-1587957D01*
X-399999Y-1588871D01*
X-385470Y-1587957D01*
X-371195Y-1585264D01*
X-357327Y-1580743D01*
X-352653Y-1579473D01*
X-348589Y-1580184D01*
X-345135Y-1582420D01*
X-232105Y-1695500D01*
X-229870Y-1698802D01*
X-229108Y-1702714D01*
X-229108Y-2418181D01*
X-229870Y-2422093D01*
X-232105Y-2425395D01*
X-604469Y-2797759D01*
X-607720Y-2799943D01*
X-611632Y-2800705D01*
X-615543Y-2799943D01*
X-618794Y-2797759D01*
X-621030Y-2794457D01*
X-621792Y-2790545D01*
X-621792Y-2261514D01*
X-621030Y-2257602D01*
X-618794Y-2254300D01*
X-464362Y-2099868D01*
X-461111Y-2097684D01*
X-457200Y-2096922D01*
X-310591Y-2096922D01*
X-304241Y-2096211D01*
X-298805Y-2094280D01*
X-293878Y-2091182D01*
X-289814Y-2087118D01*
X-286715Y-2082190D01*
X-284784Y-2076754D01*
X-284073Y-2070404D01*
X-284073Y-1891588D01*
X-284784Y-1885238D01*
X-286715Y-1879803D01*
X-289814Y-1874875D01*
X-293878Y-1870811D01*
X-298805Y-1867712D01*
X-304241Y-1865782D01*
X-310591Y-1865071D01*
X-489407Y-1865071D01*
X-495757Y-1865782D01*
X-501192Y-1867712D01*
X-506120Y-1870811D01*
X-510184Y-1874875D01*
X-513283Y-1879803D01*
X-515213Y-1885238D01*
X-515924Y-1891588D01*
X-515924Y-2037994D01*
X-516686Y-2041906D01*
X-518871Y-2045157D01*
X-687324Y-2213660D01*
X-692454Y-2219858D01*
X-696010Y-2226564D01*
X-698195Y-2233777D01*
X-699008Y-2241804D01*
X-699008Y-4012692D01*
X-698195Y-4020718D01*
X-696010Y-4027932D01*
X-692454Y-4034637D01*
X-687324Y-4040835D01*
X6654Y-4734814D01*
X12852Y-4739944D01*
X19558Y-4743500D01*
X26771Y-4745685D01*
X34798Y-4746498D01*
X4454499Y-4746498D01*
X4458462Y-4747310D01*
X4461764Y-4749596D01*
X4463948Y-4752949D01*
X4469231Y-4766513D01*
X4476750Y-4780737D01*
X4485843Y-4794046D01*
X4496358Y-4806188D01*
X4508195Y-4817059D01*
X4521250Y-4826508D01*
X4535220Y-4834432D01*
X4550054Y-4840681D01*
X4565497Y-4845253D01*
X4581347Y-4847996D01*
X4597400Y-4848910D01*
X4613452Y-4847996D01*
X4629302Y-4845253D01*
X4644745Y-4840681D01*
X4659579Y-4834432D01*
X4673549Y-4826508D01*
X4686604Y-4817059D01*
X4698441Y-4806188D01*
X4708956Y-4794046D01*
X4718050Y-4780737D01*
X4725568Y-4766513D01*
X4730800Y-4753102D01*
X4732985Y-4749698D01*
X4736287Y-4747412D01*
X4740249Y-4746599D01*
X5086350Y-4746599D01*
X5089956Y-4747260D01*
X5093106Y-4749139D01*
X5095341Y-4752035D01*
X5099050Y-4759045D01*
X5108143Y-4772355D01*
X5118658Y-4784496D01*
X5130495Y-4795367D01*
X5143550Y-4804816D01*
X5157520Y-4812741D01*
X5172354Y-4818989D01*
X5187797Y-4823510D01*
X5203647Y-4826254D01*
X5219700Y-4827168D01*
X5235752Y-4826254D01*
X5251602Y-4823510D01*
X5267045Y-4818989D01*
X5282336Y-4812538D01*
X5285943Y-4811725D01*
X5289600Y-4812284D01*
X5292801Y-4814062D01*
X5299913Y-4819954D01*
X5306568Y-4823510D01*
X5313781Y-4825695D01*
X5321808Y-4826508D01*
X8800592Y-4826508D01*
X8808618Y-4825695D01*
X8815832Y-4823510D01*
X8822537Y-4819954D01*
X8828735Y-4814824D01*
X8924645Y-4718964D01*
X8927896Y-4716780D01*
X8931808Y-4716018D01*
X8976004Y-4716018D01*
X8982354Y-4715306D01*
X8987790Y-4713376D01*
X8992666Y-4710277D01*
X8996781Y-4706213D01*
X8999880Y-4701286D01*
X9001760Y-4695850D01*
X9002471Y-4689500D01*
X9002471Y-4553305D01*
X9003284Y-4549444D01*
X9005468Y-4546142D01*
X9039606Y-4512005D01*
X9042908Y-4509770D01*
X9046819Y-4509008D01*
X9421672Y-4509008D01*
X9425635Y-4509820D01*
X9428937Y-4512056D01*
X9431121Y-4515408D01*
X9432848Y-4519726D01*
X9439859Y-4532477D01*
X9448393Y-4544263D01*
X9458350Y-4554880D01*
X9469577Y-4564176D01*
X9481870Y-4571949D01*
X9495028Y-4578146D01*
X9508896Y-4582668D01*
X9523171Y-4585360D01*
X9537700Y-4586274D01*
X9552228Y-4585360D01*
X9566503Y-4582668D01*
X9580372Y-4578146D01*
X9593529Y-4571949D01*
X9605822Y-4564176D01*
X9617049Y-4554880D01*
X9627006Y-4544263D01*
X9635540Y-4532477D01*
X9642551Y-4519726D01*
X9647936Y-4506214D01*
X9651542Y-4492091D01*
X9653371Y-4477664D01*
X9653371Y-4463135D01*
X9651542Y-4448708D01*
X9647936Y-4434586D01*
X9642551Y-4421073D01*
X9635540Y-4408322D01*
X9627006Y-4396536D01*
X9617049Y-4385919D01*
X9605822Y-4376623D01*
X9593529Y-4368850D01*
X9582150Y-4363466D01*
X9579051Y-4361230D01*
X9577019Y-4358030D01*
X9576308Y-4354271D01*
X9576308Y-4332528D01*
X9577019Y-4328769D01*
X9579051Y-4325569D01*
X9582150Y-4323334D01*
X9593529Y-4317949D01*
X9605822Y-4310176D01*
X9617049Y-4300880D01*
X9627006Y-4290263D01*
X9635540Y-4278477D01*
X9642551Y-4265726D01*
X9647936Y-4252214D01*
X9651542Y-4238091D01*
X9653371Y-4223664D01*
X9653371Y-4209135D01*
X9651542Y-4194708D01*
X9647936Y-4180586D01*
X9642551Y-4167073D01*
X9635540Y-4154322D01*
X9627006Y-4142536D01*
X9617049Y-4131919D01*
X9605822Y-4122623D01*
X9593529Y-4114850D01*
X9582150Y-4109465D01*
X9579051Y-4107230D01*
X9577019Y-4104030D01*
X9576308Y-4100271D01*
X9576308Y-4080154D01*
X9577070Y-4076242D01*
X9579305Y-4072940D01*
X9582556Y-4070756D01*
X9586468Y-4069994D01*
X9590379Y-4070756D01*
X9593630Y-4072940D01*
X10373664Y-4852924D01*
X10379862Y-4858054D01*
X10386568Y-4861610D01*
X10393781Y-4863795D01*
G37*
G36*
X-766724Y-4785664D02*
G01*
X-747877Y-4785664D01*
X-729132Y-4783734D01*
X-710692Y-4779975D01*
X-692759Y-4774336D01*
X-675436Y-4766868D01*
X-658977Y-4757724D01*
X-643534Y-4747006D01*
X-629208Y-4734712D01*
X-616254Y-4721098D01*
X-604723Y-4706162D01*
X-594766Y-4690211D01*
X-586486Y-4673295D01*
X-579932Y-4655616D01*
X-575208Y-4637430D01*
X-572363Y-4618786D01*
X-571398Y-4599990D01*
X-572363Y-4581194D01*
X-575208Y-4562551D01*
X-579932Y-4544364D01*
X-586486Y-4526686D01*
X-594766Y-4509770D01*
X-604723Y-4493818D01*
X-616254Y-4478883D01*
X-629208Y-4465269D01*
X-643534Y-4452975D01*
X-658977Y-4442256D01*
X-675436Y-4433112D01*
X-692759Y-4425645D01*
X-710692Y-4420006D01*
X-729132Y-4416247D01*
X-747877Y-4414316D01*
X-766724Y-4414316D01*
X-785469Y-4416247D01*
X-803910Y-4420006D01*
X-821842Y-4425645D01*
X-839165Y-4433112D01*
X-855624Y-4442256D01*
X-871067Y-4452975D01*
X-885393Y-4465269D01*
X-898347Y-4478883D01*
X-909878Y-4493818D01*
X-919835Y-4509770D01*
X-928116Y-4526686D01*
X-934669Y-4544364D01*
X-939393Y-4562551D01*
X-942238Y-4581194D01*
X-943203Y-4599990D01*
X-942238Y-4618786D01*
X-939393Y-4637430D01*
X-934669Y-4655616D01*
X-928116Y-4673295D01*
X-919835Y-4690211D01*
X-909878Y-4706162D01*
X-898347Y-4721098D01*
X-885393Y-4734712D01*
X-871067Y-4747006D01*
X-855624Y-4757724D01*
X-839165Y-4766868D01*
X-821842Y-4774336D01*
X-803910Y-4779975D01*
X-785469Y-4783734D01*
G37*
G36*
X7840014Y-4716018D02*
G01*
X7960004Y-4716018D01*
X7966354Y-4715306D01*
X7971790Y-4713376D01*
X7976666Y-4710277D01*
X7980781Y-4706213D01*
X7983880Y-4701286D01*
X7985759Y-4695850D01*
X7986471Y-4689500D01*
X7986471Y-4472482D01*
X7985759Y-4466132D01*
X7983880Y-4460697D01*
X7980781Y-4455769D01*
X7976666Y-4451705D01*
X7971790Y-4448606D01*
X7966354Y-4446727D01*
X7960004Y-4446016D01*
X7840014Y-4446016D01*
X7833664Y-4446727D01*
X7828229Y-4448606D01*
X7823301Y-4451705D01*
X7819237Y-4455769D01*
X7816138Y-4460697D01*
X7814208Y-4466132D01*
X7813497Y-4472482D01*
X7813497Y-4689500D01*
X7814208Y-4695850D01*
X7816138Y-4701286D01*
X7819237Y-4706213D01*
X7823301Y-4710277D01*
X7828229Y-4713376D01*
X7833664Y-4715306D01*
G37*
G36*
X8348014Y-4716018D02*
G01*
X8468004Y-4716018D01*
X8474354Y-4715306D01*
X8479790Y-4713376D01*
X8484666Y-4710277D01*
X8488781Y-4706213D01*
X8491880Y-4701286D01*
X8493760Y-4695850D01*
X8494471Y-4689500D01*
X8494471Y-4472482D01*
X8493760Y-4466132D01*
X8491880Y-4460697D01*
X8488781Y-4455769D01*
X8484666Y-4451705D01*
X8479790Y-4448606D01*
X8474354Y-4446727D01*
X8468004Y-4446016D01*
X8348014Y-4446016D01*
X8341664Y-4446727D01*
X8336229Y-4448606D01*
X8331301Y-4451705D01*
X8327237Y-4455769D01*
X8324138Y-4460697D01*
X8322208Y-4466132D01*
X8321497Y-4472482D01*
X8321497Y-4689500D01*
X8322208Y-4695850D01*
X8324138Y-4701286D01*
X8327237Y-4706213D01*
X8331301Y-4710277D01*
X8336229Y-4713376D01*
X8341664Y-4715306D01*
G37*
G36*
X8602014Y-4716018D02*
G01*
X8722004Y-4716018D01*
X8728354Y-4715306D01*
X8733790Y-4713376D01*
X8738666Y-4710277D01*
X8742781Y-4706213D01*
X8745880Y-4701286D01*
X8747760Y-4695850D01*
X8748471Y-4689500D01*
X8748471Y-4472482D01*
X8747760Y-4466132D01*
X8745880Y-4460697D01*
X8742781Y-4455769D01*
X8738666Y-4451705D01*
X8733790Y-4448606D01*
X8728354Y-4446727D01*
X8722004Y-4446016D01*
X8602014Y-4446016D01*
X8595664Y-4446727D01*
X8590229Y-4448606D01*
X8585301Y-4451705D01*
X8581237Y-4455769D01*
X8578138Y-4460697D01*
X8576208Y-4466132D01*
X8575497Y-4472482D01*
X8575497Y-4689500D01*
X8576208Y-4695850D01*
X8578138Y-4701286D01*
X8581237Y-4706213D01*
X8585301Y-4710277D01*
X8590229Y-4713376D01*
X8595664Y-4715306D01*
G37*
G36*
X7078014Y-4716018D02*
G01*
X7198004Y-4716018D01*
X7204354Y-4715306D01*
X7209790Y-4713376D01*
X7214666Y-4710277D01*
X7218781Y-4706213D01*
X7221880Y-4701286D01*
X7223759Y-4695850D01*
X7224471Y-4689500D01*
X7224471Y-4472482D01*
X7223759Y-4466132D01*
X7221880Y-4460697D01*
X7218781Y-4455769D01*
X7214666Y-4451705D01*
X7209790Y-4448606D01*
X7204354Y-4446727D01*
X7198004Y-4446016D01*
X7078014Y-4446016D01*
X7071664Y-4446727D01*
X7066229Y-4448606D01*
X7061301Y-4451705D01*
X7057237Y-4455769D01*
X7054138Y-4460697D01*
X7052208Y-4466132D01*
X7051497Y-4472482D01*
X7051497Y-4689500D01*
X7052208Y-4695850D01*
X7054138Y-4701286D01*
X7057237Y-4706213D01*
X7061301Y-4710277D01*
X7066229Y-4713376D01*
X7071664Y-4715306D01*
G37*
G36*
X6824014Y-4716018D02*
G01*
X6944004Y-4716018D01*
X6950354Y-4715306D01*
X6955790Y-4713376D01*
X6960666Y-4710277D01*
X6964781Y-4706213D01*
X6967880Y-4701286D01*
X6969759Y-4695850D01*
X6970471Y-4689500D01*
X6970471Y-4472482D01*
X6969759Y-4466132D01*
X6967880Y-4460697D01*
X6964781Y-4455769D01*
X6960666Y-4451705D01*
X6955790Y-4448606D01*
X6950354Y-4446727D01*
X6944004Y-4446016D01*
X6824014Y-4446016D01*
X6817664Y-4446727D01*
X6812229Y-4448606D01*
X6807301Y-4451705D01*
X6803237Y-4455769D01*
X6800138Y-4460697D01*
X6798208Y-4466132D01*
X6797497Y-4472482D01*
X6797497Y-4689500D01*
X6798208Y-4695850D01*
X6800138Y-4701286D01*
X6803237Y-4706213D01*
X6807301Y-4710277D01*
X6812229Y-4713376D01*
X6817664Y-4715306D01*
G37*
G36*
X8094014Y-4716018D02*
G01*
X8214004Y-4716018D01*
X8220354Y-4715306D01*
X8225790Y-4713376D01*
X8230666Y-4710277D01*
X8234781Y-4706213D01*
X8237880Y-4701286D01*
X8239759Y-4695850D01*
X8240471Y-4689500D01*
X8240471Y-4472482D01*
X8239759Y-4466132D01*
X8237880Y-4460697D01*
X8234781Y-4455769D01*
X8230666Y-4451705D01*
X8225790Y-4448606D01*
X8220354Y-4446727D01*
X8214004Y-4446016D01*
X8094014Y-4446016D01*
X8087664Y-4446727D01*
X8082229Y-4448606D01*
X8077301Y-4451705D01*
X8073237Y-4455769D01*
X8070138Y-4460697D01*
X8068208Y-4466132D01*
X8067497Y-4472482D01*
X8067497Y-4689500D01*
X8068208Y-4695850D01*
X8070138Y-4701286D01*
X8073237Y-4706213D01*
X8077301Y-4710277D01*
X8082229Y-4713376D01*
X8087664Y-4715306D01*
G37*
G36*
X7332014Y-4716018D02*
G01*
X7452004Y-4716018D01*
X7458354Y-4715306D01*
X7463790Y-4713376D01*
X7468666Y-4710277D01*
X7472781Y-4706213D01*
X7475880Y-4701286D01*
X7477759Y-4695850D01*
X7478471Y-4689500D01*
X7478471Y-4472482D01*
X7477759Y-4466132D01*
X7475880Y-4460697D01*
X7472781Y-4455769D01*
X7468666Y-4451705D01*
X7463790Y-4448606D01*
X7458354Y-4446727D01*
X7452004Y-4446016D01*
X7332014Y-4446016D01*
X7325664Y-4446727D01*
X7320229Y-4448606D01*
X7315301Y-4451705D01*
X7311237Y-4455769D01*
X7308138Y-4460697D01*
X7306208Y-4466132D01*
X7305497Y-4472482D01*
X7305497Y-4689500D01*
X7306208Y-4695850D01*
X7308138Y-4701286D01*
X7311237Y-4706213D01*
X7315301Y-4710277D01*
X7320229Y-4713376D01*
X7325664Y-4715306D01*
G37*
G36*
X16490594Y-4685639D02*
G01*
X16509390Y-4685639D01*
X16528135Y-4683760D01*
X16546576Y-4679950D01*
X16564559Y-4674311D01*
X16581882Y-4666894D01*
X16598341Y-4657750D01*
X16613784Y-4646980D01*
X16628059Y-4634738D01*
X16641063Y-4621072D01*
X16652544Y-4606188D01*
X16662552Y-4590186D01*
X16670832Y-4573320D01*
X16677386Y-4555642D01*
X16682059Y-4537405D01*
X16684955Y-4518812D01*
X16685869Y-4500016D01*
X16684955Y-4481169D01*
X16682059Y-4462576D01*
X16677386Y-4444339D01*
X16670832Y-4426661D01*
X16662552Y-4409795D01*
X16652544Y-4393793D01*
X16641063Y-4378909D01*
X16628059Y-4365244D01*
X16613784Y-4353001D01*
X16598341Y-4342231D01*
X16581882Y-4333087D01*
X16564559Y-4325670D01*
X16546576Y-4320032D01*
X16528135Y-4316222D01*
X16509390Y-4314342D01*
X16490594Y-4314342D01*
X16471849Y-4316222D01*
X16453408Y-4320032D01*
X16435425Y-4325670D01*
X16418102Y-4333087D01*
X16401643Y-4342231D01*
X16386200Y-4353001D01*
X16371925Y-4365244D01*
X16358920Y-4378909D01*
X16347440Y-4393793D01*
X16337432Y-4409795D01*
X16329151Y-4426661D01*
X16322598Y-4444339D01*
X16317925Y-4462576D01*
X16315029Y-4481169D01*
X16314115Y-4500016D01*
X16315029Y-4518812D01*
X16317925Y-4537405D01*
X16322598Y-4555642D01*
X16329151Y-4573320D01*
X16337432Y-4590186D01*
X16347440Y-4606188D01*
X16358920Y-4621072D01*
X16371925Y-4634738D01*
X16386200Y-4646980D01*
X16401643Y-4657750D01*
X16418102Y-4666894D01*
X16435425Y-4674311D01*
X16453408Y-4679950D01*
X16471849Y-4683760D01*
G37*
G36*
X11807952Y-4675784D02*
G01*
X11809831Y-4674920D01*
X11823649Y-4666589D01*
X11836349Y-4656785D01*
X11847880Y-4645558D01*
X11858091Y-4633112D01*
X11866778Y-4619599D01*
X11869470Y-4614164D01*
X11807952Y-4614164D01*
G37*
G36*
X11680240Y-4675632D02*
G01*
X11680240Y-4614164D01*
X11618620Y-4614164D01*
X11625580Y-4626457D01*
X11635028Y-4639462D01*
X11645900Y-4651349D01*
X11658041Y-4661865D01*
X11671350Y-4670958D01*
G37*
G36*
X11807952Y-4486452D02*
G01*
X11869470Y-4486452D01*
X11866778Y-4481017D01*
X11858091Y-4467504D01*
X11847880Y-4455058D01*
X11836349Y-4443831D01*
X11823649Y-4433976D01*
X11809831Y-4425696D01*
X11807952Y-4424832D01*
G37*
G36*
X11618620Y-4486452D02*
G01*
X11680240Y-4486452D01*
X11680240Y-4424934D01*
X11671350Y-4429658D01*
X11658041Y-4438751D01*
X11645900Y-4449267D01*
X11635028Y-4461103D01*
X11625580Y-4474108D01*
G37*
G36*
X10719409Y-4348226D02*
G01*
X10735462Y-4346854D01*
X10751210Y-4343654D01*
X10766501Y-4338675D01*
X10781131Y-4332020D01*
X10794949Y-4323689D01*
X10807649Y-4313885D01*
X10819180Y-4302658D01*
X10829391Y-4290212D01*
X10838078Y-4276699D01*
X10845190Y-4262221D01*
X10850575Y-4247083D01*
X10854232Y-4231436D01*
X10856061Y-4215434D01*
X10856061Y-4199382D01*
X10854232Y-4183379D01*
X10850575Y-4167682D01*
X10845190Y-4152544D01*
X10838078Y-4138117D01*
X10829391Y-4124604D01*
X10819180Y-4112158D01*
X10807649Y-4100931D01*
X10794949Y-4091076D01*
X10781131Y-4082796D01*
X10766501Y-4076090D01*
X10751210Y-4071162D01*
X10735462Y-4067962D01*
X10719409Y-4066590D01*
X10703356Y-4067048D01*
X10687405Y-4069334D01*
X10671860Y-4073398D01*
X10656874Y-4079240D01*
X10642650Y-4086758D01*
X10629341Y-4095851D01*
X10617200Y-4106367D01*
X10606328Y-4118203D01*
X10596880Y-4131208D01*
X10588955Y-4145229D01*
X10582706Y-4160062D01*
X10581386Y-4164584D01*
X10579354Y-4168343D01*
X10575950Y-4170934D01*
X10571835Y-4171899D01*
X10414965Y-4175302D01*
X10410901Y-4174540D01*
X10407497Y-4172305D01*
X10405262Y-4168851D01*
X10404551Y-4167073D01*
X10397540Y-4154322D01*
X10389006Y-4142536D01*
X10379049Y-4131919D01*
X10367822Y-4122623D01*
X10355529Y-4114850D01*
X10342372Y-4108653D01*
X10328503Y-4104132D01*
X10314228Y-4101439D01*
X10299700Y-4100525D01*
X10285171Y-4101439D01*
X10270896Y-4104132D01*
X10257028Y-4108653D01*
X10252354Y-4109923D01*
X10248290Y-4109212D01*
X10244836Y-4106976D01*
X9819335Y-3681476D01*
X9813137Y-3676345D01*
X9806432Y-3672789D01*
X9799218Y-3670604D01*
X9791192Y-3669792D01*
X9296908Y-3669792D01*
X9288881Y-3670604D01*
X9281668Y-3672789D01*
X9274962Y-3676345D01*
X9268764Y-3681476D01*
X9019844Y-3930345D01*
X9016542Y-3932580D01*
X9012631Y-3933342D01*
X9008770Y-3932580D01*
X9005468Y-3930345D01*
X9003284Y-3927094D01*
X9002471Y-3923182D01*
X9002471Y-3710482D01*
X9001760Y-3704132D01*
X8999880Y-3698697D01*
X8996781Y-3693769D01*
X8992666Y-3689705D01*
X8987790Y-3686606D01*
X8982354Y-3684727D01*
X8976004Y-3684015D01*
X8856014Y-3684015D01*
X8849664Y-3684727D01*
X8844229Y-3686606D01*
X8839301Y-3689705D01*
X8835237Y-3693769D01*
X8832138Y-3698697D01*
X8830208Y-3704132D01*
X8829497Y-3710482D01*
X8829497Y-3927500D01*
X8830208Y-3933850D01*
X8832138Y-3939286D01*
X8835237Y-3944213D01*
X8839301Y-3948277D01*
X8844229Y-3951376D01*
X8849664Y-3953306D01*
X8856014Y-3954018D01*
X8971686Y-3954018D01*
X8975547Y-3954779D01*
X8978849Y-3956964D01*
X8981033Y-3960266D01*
X8981846Y-3964178D01*
X8981033Y-3968038D01*
X8978849Y-3971340D01*
X8940495Y-4009694D01*
X8937193Y-4011929D01*
X8933281Y-4012692D01*
X8406536Y-4012692D01*
X8402624Y-4011929D01*
X8399322Y-4009694D01*
X8360968Y-3971340D01*
X8358784Y-3968038D01*
X8357971Y-3964178D01*
X8358784Y-3960266D01*
X8360968Y-3956964D01*
X8364270Y-3954779D01*
X8368131Y-3954018D01*
X8468004Y-3954018D01*
X8474354Y-3953306D01*
X8479790Y-3951376D01*
X8484666Y-3948277D01*
X8488781Y-3944213D01*
X8491880Y-3939286D01*
X8493760Y-3933850D01*
X8494471Y-3927500D01*
X8494471Y-3791204D01*
X8495284Y-3787292D01*
X8497468Y-3783990D01*
X8558174Y-3723386D01*
X8561476Y-3721150D01*
X8565337Y-3720388D01*
X8569248Y-3721150D01*
X8572550Y-3723386D01*
X8574735Y-3726687D01*
X8575497Y-3730548D01*
X8575497Y-3927500D01*
X8576208Y-3933850D01*
X8578138Y-3939286D01*
X8581237Y-3944213D01*
X8585301Y-3948277D01*
X8590229Y-3951376D01*
X8595664Y-3953306D01*
X8602014Y-3954018D01*
X8722004Y-3954018D01*
X8728354Y-3953306D01*
X8733790Y-3951376D01*
X8738666Y-3948277D01*
X8742781Y-3944213D01*
X8745880Y-3939286D01*
X8747760Y-3933850D01*
X8748471Y-3927500D01*
X8748471Y-3710482D01*
X8747760Y-3704132D01*
X8745880Y-3698697D01*
X8742781Y-3693769D01*
X8738666Y-3689705D01*
X8733790Y-3686606D01*
X8728354Y-3684727D01*
X8722004Y-3684015D01*
X8622131Y-3684015D01*
X8618220Y-3683203D01*
X8614968Y-3681018D01*
X8612733Y-3677716D01*
X8611971Y-3673856D01*
X8612733Y-3669944D01*
X8614968Y-3666642D01*
X8645956Y-3635705D01*
X8649258Y-3633470D01*
X8653119Y-3632708D01*
X10063581Y-3632708D01*
X10067493Y-3633470D01*
X10070795Y-3635705D01*
X10258094Y-3823004D01*
X10260330Y-3826306D01*
X10261092Y-3830218D01*
X10261092Y-3846271D01*
X10260380Y-3850030D01*
X10258348Y-3853230D01*
X10255250Y-3855465D01*
X10243870Y-3860850D01*
X10231577Y-3868623D01*
X10220350Y-3877919D01*
X10210393Y-3888536D01*
X10201859Y-3900322D01*
X10194848Y-3913073D01*
X10189464Y-3926586D01*
X10185857Y-3940708D01*
X10184028Y-3955135D01*
X10184028Y-3969664D01*
X10185857Y-3984091D01*
X10189464Y-3998214D01*
X10194848Y-4011726D01*
X10201859Y-4024477D01*
X10210393Y-4036263D01*
X10220350Y-4046880D01*
X10231577Y-4056176D01*
X10243870Y-4063949D01*
X10257028Y-4070146D01*
X10270896Y-4074668D01*
X10285171Y-4077360D01*
X10299700Y-4078274D01*
X10314228Y-4077360D01*
X10328503Y-4074668D01*
X10342372Y-4070146D01*
X10355529Y-4063949D01*
X10367822Y-4056176D01*
X10379049Y-4046880D01*
X10389006Y-4036263D01*
X10397540Y-4024477D01*
X10404551Y-4011726D01*
X10409936Y-3998214D01*
X10413542Y-3984091D01*
X10414152Y-3979367D01*
X10415422Y-3975557D01*
X10418064Y-3972560D01*
X10421670Y-3970782D01*
X10599420Y-3924909D01*
X10603433Y-3924706D01*
X10607192Y-3926027D01*
X10610138Y-3928770D01*
X10619028Y-3940962D01*
X10629900Y-3952849D01*
X10642041Y-3963365D01*
X10655350Y-3972458D01*
X10669574Y-3979976D01*
X10684560Y-3985818D01*
X10700105Y-3989882D01*
X10716056Y-3992168D01*
X10732109Y-3992626D01*
X10748162Y-3991254D01*
X10763910Y-3988054D01*
X10779201Y-3983075D01*
X10793831Y-3976420D01*
X10807649Y-3968089D01*
X10820349Y-3958285D01*
X10831880Y-3947058D01*
X10842091Y-3934612D01*
X10850778Y-3921099D01*
X10857890Y-3906621D01*
X10863275Y-3891483D01*
X10866932Y-3875836D01*
X10868761Y-3859834D01*
X10868761Y-3843782D01*
X10866932Y-3827779D01*
X10863275Y-3812082D01*
X10857890Y-3796944D01*
X10850778Y-3782517D01*
X10842091Y-3769004D01*
X10831880Y-3756558D01*
X10820349Y-3745331D01*
X10807649Y-3735476D01*
X10793831Y-3727196D01*
X10779201Y-3720490D01*
X10763910Y-3715562D01*
X10748162Y-3712362D01*
X10732109Y-3710990D01*
X10716056Y-3711448D01*
X10700105Y-3713734D01*
X10684560Y-3717798D01*
X10669574Y-3723640D01*
X10655350Y-3731158D01*
X10642041Y-3740251D01*
X10629900Y-3750767D01*
X10619028Y-3762603D01*
X10609580Y-3775608D01*
X10601655Y-3789629D01*
X10595406Y-3804462D01*
X10590885Y-3819906D01*
X10588142Y-3835755D01*
X10587837Y-3840835D01*
X10586720Y-3844950D01*
X10584027Y-3848201D01*
X10580217Y-3850132D01*
X10402366Y-3896004D01*
X10398353Y-3896258D01*
X10394594Y-3894886D01*
X10391648Y-3892143D01*
X10389006Y-3888536D01*
X10379049Y-3877919D01*
X10367822Y-3868623D01*
X10355529Y-3860850D01*
X10344150Y-3855465D01*
X10341051Y-3853230D01*
X10339019Y-3850030D01*
X10338308Y-3846271D01*
X10338308Y-3810508D01*
X10337495Y-3802481D01*
X10335310Y-3795268D01*
X10331754Y-3788562D01*
X10326624Y-3782364D01*
X10111435Y-3567176D01*
X10105237Y-3562045D01*
X10098532Y-3558489D01*
X10091318Y-3556304D01*
X10083292Y-3555492D01*
X8633460Y-3555492D01*
X8625433Y-3556254D01*
X8618220Y-3558489D01*
X8611565Y-3562045D01*
X8605316Y-3567125D01*
X8488680Y-3683660D01*
X8485581Y-3685743D01*
X8481872Y-3686606D01*
X8478164Y-3686048D01*
X8474354Y-3684727D01*
X8468004Y-3684015D01*
X8348014Y-3684015D01*
X8341664Y-3684727D01*
X8336229Y-3686606D01*
X8331301Y-3689705D01*
X8327237Y-3693769D01*
X8324138Y-3698697D01*
X8322208Y-3704132D01*
X8321497Y-3710482D01*
X8321497Y-3907383D01*
X8320735Y-3911244D01*
X8318550Y-3914546D01*
X8315248Y-3916730D01*
X8311337Y-3917543D01*
X8307476Y-3916730D01*
X8304174Y-3914546D01*
X8243468Y-3853840D01*
X8241284Y-3850538D01*
X8240471Y-3846677D01*
X8240471Y-3710482D01*
X8239759Y-3704132D01*
X8237880Y-3698697D01*
X8234781Y-3693769D01*
X8230666Y-3689705D01*
X8225790Y-3686606D01*
X8220354Y-3684727D01*
X8214004Y-3684015D01*
X8094014Y-3684015D01*
X8087664Y-3684727D01*
X8082229Y-3686606D01*
X8077301Y-3689705D01*
X8073237Y-3693769D01*
X8070138Y-3698697D01*
X8068208Y-3704132D01*
X8067497Y-3710482D01*
X8067497Y-3927500D01*
X8068208Y-3933850D01*
X8070138Y-3939286D01*
X8073237Y-3944213D01*
X8077301Y-3948277D01*
X8082229Y-3951376D01*
X8087664Y-3953306D01*
X8094014Y-3954018D01*
X8214004Y-3954018D01*
X8220354Y-3953306D01*
X8224215Y-3951935D01*
X8227923Y-3951376D01*
X8231631Y-3952189D01*
X8234730Y-3954322D01*
X8358682Y-4078224D01*
X8364880Y-4083354D01*
X8371586Y-4086910D01*
X8378799Y-4089095D01*
X8386825Y-4089908D01*
X8952992Y-4089908D01*
X8961018Y-4089095D01*
X8968232Y-4086910D01*
X8974937Y-4083354D01*
X8981135Y-4078224D01*
X9309404Y-3750005D01*
X9312706Y-3747770D01*
X9316618Y-3747008D01*
X9771481Y-3747008D01*
X9775393Y-3747770D01*
X9778695Y-3750005D01*
X10190378Y-4161688D01*
X10192562Y-4164939D01*
X10193375Y-4168749D01*
X10192664Y-4172610D01*
X10189464Y-4180586D01*
X10185857Y-4194708D01*
X10184028Y-4209135D01*
X10184028Y-4223664D01*
X10185857Y-4238091D01*
X10189464Y-4252214D01*
X10194848Y-4265726D01*
X10201859Y-4278477D01*
X10210393Y-4290263D01*
X10220350Y-4300880D01*
X10231577Y-4310176D01*
X10243870Y-4317949D01*
X10257028Y-4324146D01*
X10270896Y-4328668D01*
X10285171Y-4331360D01*
X10299700Y-4332274D01*
X10314228Y-4331360D01*
X10328503Y-4328668D01*
X10342372Y-4324146D01*
X10355529Y-4317949D01*
X10367822Y-4310176D01*
X10379049Y-4300880D01*
X10389006Y-4290263D01*
X10397540Y-4278477D01*
X10404551Y-4265726D01*
X10407243Y-4258919D01*
X10409377Y-4255617D01*
X10412628Y-4253331D01*
X10416489Y-4252468D01*
X10573359Y-4249115D01*
X10577322Y-4249826D01*
X10580674Y-4252010D01*
X10582910Y-4255312D01*
X10588955Y-4269587D01*
X10596880Y-4283557D01*
X10606328Y-4296562D01*
X10617200Y-4308449D01*
X10629341Y-4318965D01*
X10642650Y-4328058D01*
X10656874Y-4335576D01*
X10671860Y-4341418D01*
X10687405Y-4345482D01*
X10703356Y-4347768D01*
G37*
G36*
X11795252Y-4332884D02*
G01*
X11797131Y-4332020D01*
X11810949Y-4323689D01*
X11823649Y-4313885D01*
X11835180Y-4302658D01*
X11845391Y-4290212D01*
X11854078Y-4276699D01*
X11856770Y-4271264D01*
X11795252Y-4271264D01*
G37*
G36*
X11667540Y-4332732D02*
G01*
X11667540Y-4271264D01*
X11605920Y-4271264D01*
X11612880Y-4283557D01*
X11622328Y-4296562D01*
X11633200Y-4308449D01*
X11645341Y-4318965D01*
X11658650Y-4328058D01*
G37*
G36*
X11795252Y-4143552D02*
G01*
X11856770Y-4143552D01*
X11854078Y-4138117D01*
X11845391Y-4124604D01*
X11835180Y-4112158D01*
X11823649Y-4100931D01*
X11810949Y-4091076D01*
X11797131Y-4082796D01*
X11795252Y-4081932D01*
G37*
G36*
X11605920Y-4143552D02*
G01*
X11667540Y-4143552D01*
X11667540Y-4082034D01*
X11658650Y-4086758D01*
X11645341Y-4095851D01*
X11633200Y-4106367D01*
X11622328Y-4118203D01*
X11612880Y-4131208D01*
G37*
G36*
X11807952Y-3977284D02*
G01*
X11809831Y-3976420D01*
X11823649Y-3968089D01*
X11836349Y-3958285D01*
X11847880Y-3947058D01*
X11858091Y-3934612D01*
X11866778Y-3921099D01*
X11869470Y-3915664D01*
X11807952Y-3915664D01*
G37*
G36*
X11680240Y-3977132D02*
G01*
X11680240Y-3915664D01*
X11618620Y-3915664D01*
X11625580Y-3927957D01*
X11635028Y-3940962D01*
X11645900Y-3952849D01*
X11658041Y-3963365D01*
X11671350Y-3972458D01*
G37*
G36*
X6920636Y-3954018D02*
G01*
X6944004Y-3954018D01*
X6950354Y-3953306D01*
X6955790Y-3951376D01*
X6960666Y-3948277D01*
X6964781Y-3944213D01*
X6967880Y-3939286D01*
X6969759Y-3933850D01*
X6970471Y-3927500D01*
X6970471Y-3879900D01*
X6920636Y-3879900D01*
G37*
G36*
X6824014Y-3954018D02*
G01*
X6847382Y-3954018D01*
X6847382Y-3879900D01*
X6797497Y-3879900D01*
X6797497Y-3927500D01*
X6798208Y-3933850D01*
X6800138Y-3939286D01*
X6803237Y-3944213D01*
X6807301Y-3948277D01*
X6812229Y-3951376D01*
X6817664Y-3953306D01*
G37*
G36*
X7078014Y-3954018D02*
G01*
X7198004Y-3954018D01*
X7204354Y-3953306D01*
X7209790Y-3951376D01*
X7214666Y-3948277D01*
X7218781Y-3944213D01*
X7221880Y-3939286D01*
X7223759Y-3933850D01*
X7224471Y-3927500D01*
X7224471Y-3710482D01*
X7223759Y-3704132D01*
X7221880Y-3698697D01*
X7218781Y-3693769D01*
X7214666Y-3689705D01*
X7209790Y-3686606D01*
X7204354Y-3684727D01*
X7198004Y-3684015D01*
X7078014Y-3684015D01*
X7071664Y-3684727D01*
X7066229Y-3686606D01*
X7061301Y-3689705D01*
X7057237Y-3693769D01*
X7054138Y-3698697D01*
X7052208Y-3704132D01*
X7051497Y-3710482D01*
X7051497Y-3927500D01*
X7052208Y-3933850D01*
X7054138Y-3939286D01*
X7057237Y-3944213D01*
X7061301Y-3948277D01*
X7066229Y-3951376D01*
X7071664Y-3953306D01*
G37*
G36*
X7332014Y-3954018D02*
G01*
X7452004Y-3954018D01*
X7458354Y-3953306D01*
X7463790Y-3951376D01*
X7468666Y-3948277D01*
X7472781Y-3944213D01*
X7475880Y-3939286D01*
X7477759Y-3933850D01*
X7478471Y-3927500D01*
X7478471Y-3710482D01*
X7477759Y-3704132D01*
X7475880Y-3698697D01*
X7472781Y-3693769D01*
X7468666Y-3689705D01*
X7463790Y-3686606D01*
X7458354Y-3684727D01*
X7452004Y-3684015D01*
X7332014Y-3684015D01*
X7325664Y-3684727D01*
X7320229Y-3686606D01*
X7315301Y-3689705D01*
X7311237Y-3693769D01*
X7308138Y-3698697D01*
X7306208Y-3704132D01*
X7305497Y-3710482D01*
X7305497Y-3927500D01*
X7306208Y-3933850D01*
X7308138Y-3939286D01*
X7311237Y-3944213D01*
X7315301Y-3948277D01*
X7320229Y-3951376D01*
X7325664Y-3953306D01*
G37*
G36*
X16544747Y-3885082D02*
G01*
X16555821Y-3884879D01*
X16560038Y-3884523D01*
X16570909Y-3882999D01*
X16575074Y-3882186D01*
X16585692Y-3879342D01*
X16589705Y-3878021D01*
X16599865Y-3873957D01*
X16603726Y-3872179D01*
X16613327Y-3866896D01*
X16616934Y-3864610D01*
X16625824Y-3858209D01*
X16629126Y-3855567D01*
X16637304Y-3848100D01*
X16738600Y-3746754D01*
X16743934Y-3741064D01*
X16748810Y-3735222D01*
X16753332Y-3729126D01*
X16757446Y-3722725D01*
X16761206Y-3716121D01*
X16764507Y-3709263D01*
X16767403Y-3702253D01*
X16769892Y-3695039D01*
X16771924Y-3687724D01*
X16773550Y-3680307D01*
X16774668Y-3672789D01*
X16775379Y-3665220D01*
X16775633Y-3657447D01*
X16775633Y-775004D01*
X16774668Y-759510D01*
X16771924Y-744575D01*
X16767403Y-730046D01*
X16761155Y-716178D01*
X16753281Y-703173D01*
X16743934Y-691235D01*
X16733164Y-680466D01*
X16721226Y-671118D01*
X16708221Y-663244D01*
X16694353Y-656996D01*
X16679824Y-652475D01*
X16664889Y-649732D01*
X16649395Y-648817D01*
X15695625Y-648817D01*
X15680232Y-649986D01*
X15665297Y-652932D01*
X15650870Y-657656D01*
X15637103Y-664108D01*
X15624200Y-672134D01*
X15612363Y-681685D01*
X15601746Y-692607D01*
X15592551Y-704697D01*
X15584881Y-717804D01*
X15578836Y-731774D01*
X15574568Y-746353D01*
X15572028Y-761339D01*
X15571317Y-776833D01*
X15582036Y-1517192D01*
X15581325Y-1521104D01*
X15579191Y-1524406D01*
X15575940Y-1526641D01*
X15572079Y-1527505D01*
X15471241Y-1529283D01*
X15467279Y-1528572D01*
X15463926Y-1526387D01*
X15461691Y-1523034D01*
X15460929Y-1519123D01*
X15460929Y-908151D01*
X15460675Y-900430D01*
X15460014Y-892810D01*
X15458846Y-885291D01*
X15457271Y-877874D01*
X15455188Y-870559D01*
X15452750Y-863346D01*
X15449804Y-856335D01*
X15446501Y-849477D01*
X15442742Y-842873D01*
X15438628Y-836472D01*
X15434106Y-830376D01*
X15429230Y-824534D01*
X15423946Y-818896D01*
X15145867Y-540816D01*
X15143683Y-537514D01*
X15142921Y-533654D01*
X15142921Y-510590D01*
X15142210Y-504240D01*
X15140279Y-498805D01*
X15137180Y-493877D01*
X15133116Y-489813D01*
X15128189Y-486714D01*
X15122753Y-484784D01*
X15116454Y-484073D01*
X15077592Y-484073D01*
X15073985Y-483412D01*
X15064435Y-479806D01*
X15049703Y-476148D01*
X15034615Y-474319D01*
X15019375Y-474319D01*
X15004288Y-476148D01*
X14989556Y-479806D01*
X14980005Y-483412D01*
X14976398Y-484073D01*
X14937587Y-484073D01*
X14931237Y-484784D01*
X14925801Y-486714D01*
X14920874Y-489813D01*
X14916810Y-493877D01*
X14913711Y-498805D01*
X14911781Y-504240D01*
X14911069Y-510590D01*
X14911069Y-549402D01*
X14910409Y-553008D01*
X14909495Y-555447D01*
X14907310Y-558901D01*
X14903957Y-561187D01*
X14899995Y-562000D01*
X14896033Y-561187D01*
X14892680Y-558901D01*
X14890496Y-555447D01*
X14887803Y-548335D01*
X14880742Y-534873D01*
X14872106Y-522376D01*
X14861997Y-510997D01*
X14850618Y-500888D01*
X14838121Y-492251D01*
X14824659Y-485190D01*
X14810435Y-479806D01*
X14795703Y-476148D01*
X14780615Y-474319D01*
X14765375Y-474319D01*
X14750288Y-476148D01*
X14735556Y-479806D01*
X14721332Y-485190D01*
X14707869Y-492251D01*
X14695373Y-500888D01*
X14683740Y-511200D01*
X14376095Y-818845D01*
X14370761Y-824484D01*
X14365884Y-830326D01*
X14361413Y-836472D01*
X14357248Y-842873D01*
X14353540Y-849477D01*
X14350187Y-856335D01*
X14347291Y-863346D01*
X14344802Y-870508D01*
X14342770Y-877874D01*
X14341144Y-885291D01*
X14340027Y-892810D01*
X14339316Y-900379D01*
X14339112Y-908151D01*
X14339112Y-1399844D01*
X14339316Y-1407617D01*
X14340027Y-1415186D01*
X14341144Y-1422704D01*
X14342770Y-1430121D01*
X14344802Y-1437436D01*
X14347291Y-1444650D01*
X14350187Y-1451660D01*
X14353540Y-1458518D01*
X14357248Y-1465122D01*
X14361413Y-1471523D01*
X14365884Y-1477670D01*
X14370761Y-1483512D01*
X14376095Y-1489151D01*
X14771116Y-1884172D01*
X14773300Y-1887474D01*
X14774113Y-1891334D01*
X14774113Y-2146757D01*
X14773300Y-2150618D01*
X14771116Y-2153920D01*
X14767813Y-2156155D01*
X14763953Y-2156917D01*
X14760041Y-2156155D01*
X14756739Y-2153920D01*
X14752116Y-2149297D01*
X14747189Y-2146198D01*
X14741753Y-2144318D01*
X14735403Y-2143607D01*
X14556587Y-2143607D01*
X14550237Y-2144318D01*
X14544801Y-2146198D01*
X14539874Y-2149297D01*
X14535810Y-2153412D01*
X14532711Y-2158288D01*
X14530781Y-2163775D01*
X14530069Y-2170074D01*
X14530069Y-2428951D01*
X14530781Y-2435250D01*
X14532711Y-2440736D01*
X14535810Y-2445613D01*
X14539874Y-2449728D01*
X14544801Y-2452776D01*
X14550237Y-2454706D01*
X14556587Y-2455418D01*
X14592858Y-2455418D01*
X14596821Y-2456230D01*
X14600174Y-2458466D01*
X14602358Y-2461869D01*
X14603018Y-2465832D01*
X14592401Y-2884728D01*
X14591334Y-2888945D01*
X14588591Y-2892399D01*
X14479117Y-2980436D01*
X14475256Y-2982315D01*
X14470989Y-2982518D01*
X14466976Y-2980893D01*
X14464741Y-2979369D01*
X14450517Y-2971850D01*
X14435531Y-2966008D01*
X14419986Y-2961894D01*
X14404035Y-2959608D01*
X14387982Y-2959150D01*
X14371929Y-2960522D01*
X14356181Y-2963722D01*
X14340890Y-2968701D01*
X14326260Y-2975406D01*
X14312493Y-2983687D01*
X14299742Y-2993542D01*
X14288211Y-3004718D01*
X14278000Y-3017164D01*
X14269313Y-3030728D01*
X14262201Y-3045155D01*
X14256816Y-3060293D01*
X14253159Y-3075990D01*
X14251330Y-3091942D01*
X14251330Y-3108045D01*
X14253159Y-3124047D01*
X14256816Y-3139694D01*
X14262201Y-3154832D01*
X14269313Y-3169259D01*
X14278000Y-3182823D01*
X14288211Y-3195269D01*
X14299742Y-3206496D01*
X14312493Y-3216300D01*
X14326260Y-3224631D01*
X14340890Y-3231286D01*
X14356181Y-3236264D01*
X14371929Y-3239465D01*
X14387982Y-3240836D01*
X14404035Y-3240379D01*
X14419986Y-3238093D01*
X14435531Y-3233978D01*
X14450517Y-3228136D01*
X14464741Y-3220669D01*
X14478050Y-3211576D01*
X14490192Y-3201060D01*
X14501063Y-3189173D01*
X14510512Y-3176168D01*
X14518436Y-3162147D01*
X14524685Y-3147364D01*
X14529206Y-3131921D01*
X14531949Y-3116072D01*
X14532914Y-3100019D01*
X14531949Y-3083915D01*
X14529206Y-3068066D01*
X14524583Y-3052368D01*
X14523770Y-3048101D01*
X14524837Y-3043885D01*
X14527580Y-3040532D01*
X14654428Y-2938526D01*
X14656917Y-2936341D01*
X14660016Y-2933039D01*
X14661896Y-2930601D01*
X14664283Y-2926740D01*
X14665655Y-2924048D01*
X14667230Y-2919780D01*
X14668042Y-2916885D01*
X14668754Y-2912364D01*
X14669007Y-2909062D01*
X14680285Y-2465324D01*
X14681149Y-2461514D01*
X14683333Y-2458313D01*
X14686635Y-2456180D01*
X14690445Y-2455418D01*
X14735403Y-2455418D01*
X14741753Y-2454706D01*
X14747189Y-2452776D01*
X14752116Y-2449728D01*
X14756180Y-2445613D01*
X14759279Y-2440736D01*
X14761210Y-2435250D01*
X14761921Y-2428951D01*
X14761921Y-2345486D01*
X14762734Y-2341473D01*
X14765070Y-2338120D01*
X14768525Y-2335936D01*
X14772589Y-2335326D01*
X14776551Y-2336393D01*
X14779802Y-2338882D01*
X14781784Y-2342489D01*
X14783968Y-2347925D01*
X14784832Y-2351430D01*
X14785035Y-2354021D01*
X14787727Y-2368346D01*
X14792248Y-2382164D01*
X14798446Y-2395321D01*
X14806218Y-2407615D01*
X14815515Y-2418842D01*
X14826132Y-2428798D01*
X14837918Y-2437333D01*
X14850668Y-2444343D01*
X14864181Y-2449728D01*
X14878253Y-2453335D01*
X14892731Y-2455164D01*
X14907260Y-2455164D01*
X14921687Y-2453335D01*
X14935809Y-2449728D01*
X14949322Y-2444343D01*
X14962073Y-2437333D01*
X14973858Y-2428798D01*
X14984476Y-2418842D01*
X14993772Y-2407615D01*
X15001544Y-2395321D01*
X15007742Y-2382164D01*
X15012263Y-2368346D01*
X15014956Y-2354021D01*
X15015108Y-2351481D01*
X15016022Y-2347925D01*
X15017699Y-2344166D01*
X15022220Y-2329637D01*
X15024963Y-2314702D01*
X15025928Y-2299208D01*
X15025928Y-2239314D01*
X15026690Y-2235403D01*
X15028875Y-2232152D01*
X15032177Y-2229916D01*
X15036088Y-2229154D01*
X15102636Y-2229154D01*
X15102636Y-2156764D01*
X15091918Y-2162657D01*
X15080132Y-2171192D01*
X15069515Y-2181199D01*
X15060218Y-2192375D01*
X15052446Y-2204669D01*
X15046248Y-2217826D01*
X15045740Y-2219452D01*
X15043708Y-2222957D01*
X15040457Y-2225446D01*
X15036495Y-2226462D01*
X15032482Y-2225802D01*
X15029027Y-2223617D01*
X15026741Y-2220315D01*
X15025928Y-2216302D01*
X15025928Y-1835150D01*
X15025674Y-1827377D01*
X15024963Y-1819808D01*
X15023846Y-1812289D01*
X15022220Y-1804873D01*
X15020188Y-1797557D01*
X15017699Y-1790344D01*
X15014803Y-1783334D01*
X15011501Y-1776475D01*
X15007742Y-1769872D01*
X15003627Y-1763471D01*
X14999106Y-1757324D01*
X14994229Y-1751482D01*
X14988895Y-1745843D01*
X14593874Y-1350822D01*
X14591690Y-1347520D01*
X14590928Y-1343660D01*
X14590928Y-964336D01*
X14591690Y-960475D01*
X14593874Y-957173D01*
X14861794Y-689254D01*
X14872106Y-677621D01*
X14880742Y-665124D01*
X14887803Y-651662D01*
X14890496Y-644550D01*
X14892680Y-641096D01*
X14896033Y-638810D01*
X14899995Y-637997D01*
X14903957Y-638810D01*
X14907310Y-641096D01*
X14909495Y-644550D01*
X14910409Y-646988D01*
X14911069Y-650595D01*
X14911069Y-689406D01*
X14911781Y-695756D01*
X14913711Y-701192D01*
X14916810Y-706120D01*
X14920874Y-710184D01*
X14925801Y-713282D01*
X14931237Y-715213D01*
X14937587Y-715924D01*
X14960650Y-715924D01*
X14964511Y-716686D01*
X14967813Y-718870D01*
X15206116Y-957173D01*
X15208300Y-960475D01*
X15209113Y-964387D01*
X15209113Y-1659534D01*
X15210332Y-1674977D01*
X15213330Y-1689862D01*
X15218105Y-1704289D01*
X15224556Y-1718056D01*
X15232684Y-1730908D01*
X15242235Y-1742744D01*
X15253207Y-1753311D01*
X15265298Y-1762455D01*
X15278455Y-1770075D01*
X15292425Y-1776069D01*
X15307005Y-1780336D01*
X15322042Y-1782825D01*
X15337536Y-1783486D01*
X15711830Y-1776882D01*
X15726867Y-1775764D01*
X15741802Y-1772767D01*
X15756229Y-1768043D01*
X15769996Y-1761591D01*
X15782899Y-1753565D01*
X15794736Y-1744014D01*
X15805353Y-1733092D01*
X15814548Y-1721002D01*
X15822218Y-1707896D01*
X15828263Y-1693925D01*
X15832531Y-1679346D01*
X15835071Y-1664360D01*
X15835782Y-1648866D01*
X15825114Y-910894D01*
X15825825Y-906983D01*
X15828010Y-903630D01*
X15831312Y-901395D01*
X15835274Y-900633D01*
X16513657Y-900633D01*
X16517518Y-901395D01*
X16520820Y-903579D01*
X16523004Y-906881D01*
X16523817Y-910793D01*
X16523817Y-3601262D01*
X16523004Y-3605123D01*
X16520820Y-3608425D01*
X16500348Y-3628898D01*
X16496893Y-3631184D01*
X16492880Y-3631895D01*
X16200069Y-3624529D01*
X16184829Y-3625494D01*
X16169894Y-3628237D01*
X16155365Y-3632758D01*
X16141496Y-3638956D01*
X16128441Y-3646881D01*
X16118586Y-3654399D01*
X16107613Y-3664864D01*
X16097961Y-3676599D01*
X16089833Y-3689400D01*
X16083330Y-3702964D01*
X16078403Y-3717391D01*
X16075304Y-3732276D01*
X16074034Y-3747465D01*
X16074542Y-3762654D01*
X16076930Y-3777640D01*
X16081095Y-3792270D01*
X16086988Y-3806291D01*
X16094506Y-3819499D01*
X16103600Y-3831691D01*
X16114064Y-3842715D01*
X16125799Y-3852367D01*
X16138601Y-3860546D01*
X16152317Y-3867150D01*
X16166693Y-3872026D01*
X16181578Y-3875125D01*
X16197072Y-3876446D01*
G37*
G36*
X-456336Y-3862882D02*
G01*
X-456336Y-3806799D01*
X-512419Y-3806799D01*
X-511454Y-3808933D01*
X-503580Y-3821937D01*
X-494233Y-3833926D01*
X-483463Y-3844696D01*
X-471525Y-3854043D01*
X-458520Y-3861917D01*
G37*
G36*
X-343662Y-3862882D02*
G01*
X-341477Y-3861917D01*
X-328472Y-3854043D01*
X-316534Y-3844696D01*
X-305765Y-3833926D01*
X-296418Y-3821937D01*
X-288544Y-3808933D01*
X-287578Y-3806799D01*
X-343662Y-3806799D01*
G37*
G36*
X11807952Y-3787952D02*
G01*
X11869470Y-3787952D01*
X11866778Y-3782517D01*
X11858091Y-3769004D01*
X11847880Y-3756558D01*
X11836349Y-3745331D01*
X11823649Y-3735476D01*
X11809831Y-3727196D01*
X11807952Y-3726332D01*
G37*
G36*
X11618620Y-3787952D02*
G01*
X11680240Y-3787952D01*
X11680240Y-3726434D01*
X11671350Y-3731158D01*
X11658041Y-3740251D01*
X11645900Y-3750767D01*
X11635028Y-3762603D01*
X11625580Y-3775608D01*
G37*
G36*
X6920636Y-3758082D02*
G01*
X6970471Y-3758082D01*
X6970471Y-3710482D01*
X6969759Y-3704132D01*
X6967880Y-3698697D01*
X6964781Y-3693769D01*
X6960666Y-3689705D01*
X6955790Y-3686606D01*
X6950354Y-3684727D01*
X6944004Y-3684015D01*
X6920636Y-3684015D01*
G37*
G36*
X6797497Y-3758082D02*
G01*
X6847382Y-3758082D01*
X6847382Y-3684015D01*
X6824014Y-3684015D01*
X6817664Y-3684727D01*
X6812229Y-3686606D01*
X6807301Y-3689705D01*
X6803237Y-3693769D01*
X6800138Y-3698697D01*
X6798208Y-3704132D01*
X6797497Y-3710482D01*
G37*
G36*
X-512419Y-3694074D02*
G01*
X-456336Y-3694074D01*
X-456336Y-3637991D01*
X-458520Y-3638956D01*
X-471525Y-3646830D01*
X-483463Y-3656228D01*
X-494233Y-3666947D01*
X-503580Y-3678936D01*
X-511454Y-3691940D01*
G37*
G36*
X12410795Y-3555644D02*
G01*
X12422327Y-3554272D01*
X12433554Y-3551224D01*
X12444171Y-3546449D01*
X12453874Y-3540150D01*
X12462560Y-3532428D01*
X12472263Y-3520744D01*
X12475311Y-3519017D01*
X12478766Y-3518408D01*
X14680692Y-3518408D01*
X14688718Y-3517595D01*
X14695932Y-3515410D01*
X14702637Y-3511854D01*
X14708835Y-3506724D01*
X16079724Y-2135835D01*
X16084854Y-2129637D01*
X16088410Y-2122932D01*
X16090595Y-2115718D01*
X16091407Y-2107692D01*
X16091407Y-1698294D01*
X16092322Y-1694129D01*
X16094811Y-1690674D01*
X16220389Y-1578914D01*
X16223792Y-1576933D01*
X16227653Y-1576374D01*
X16231463Y-1577340D01*
X16238728Y-1580743D01*
X16252596Y-1585264D01*
X16266871Y-1587957D01*
X16281400Y-1588871D01*
X16295928Y-1587957D01*
X16310203Y-1585264D01*
X16324072Y-1580743D01*
X16337229Y-1574546D01*
X16349522Y-1566773D01*
X16360749Y-1557477D01*
X16370706Y-1546860D01*
X16379240Y-1535074D01*
X16386251Y-1522323D01*
X16391636Y-1508810D01*
X16395242Y-1494739D01*
X16397071Y-1480261D01*
X16397071Y-1465732D01*
X16395242Y-1451305D01*
X16391636Y-1437182D01*
X16386251Y-1423670D01*
X16379240Y-1410919D01*
X16370706Y-1399133D01*
X16360749Y-1388516D01*
X16349522Y-1379220D01*
X16337229Y-1371447D01*
X16324072Y-1365250D01*
X16310203Y-1360728D01*
X16295928Y-1358036D01*
X16281400Y-1357122D01*
X16266871Y-1358036D01*
X16252596Y-1360728D01*
X16238728Y-1365250D01*
X16225570Y-1371447D01*
X16213277Y-1379220D01*
X16202050Y-1388516D01*
X16192093Y-1399133D01*
X16183559Y-1410919D01*
X16176548Y-1423670D01*
X16171163Y-1437182D01*
X16167557Y-1451305D01*
X16165728Y-1465732D01*
X16165728Y-1480261D01*
X16167557Y-1494739D01*
X16172383Y-1514043D01*
X16171418Y-1518056D01*
X16168979Y-1521307D01*
X16025774Y-1648866D01*
X16020745Y-1654962D01*
X16017189Y-1661668D01*
X16015004Y-1668881D01*
X16014192Y-1676907D01*
X16014192Y-2087981D01*
X16013430Y-2091893D01*
X16011194Y-2095195D01*
X14668195Y-3438194D01*
X14664893Y-3440429D01*
X14660981Y-3441192D01*
X12478766Y-3441192D01*
X12475311Y-3440582D01*
X12472263Y-3438855D01*
X12462560Y-3427171D01*
X12453874Y-3419449D01*
X12444171Y-3413150D01*
X12439040Y-3410864D01*
X12435789Y-3408578D01*
X12433706Y-3405276D01*
X12432995Y-3401415D01*
X12433808Y-3397554D01*
X12436043Y-3394303D01*
X12439345Y-3392170D01*
X12443155Y-3391408D01*
X14604492Y-3391408D01*
X14612518Y-3390595D01*
X14619732Y-3388410D01*
X14626437Y-3384854D01*
X14632635Y-3379724D01*
X15940024Y-2072335D01*
X15945154Y-2066137D01*
X15948710Y-2059432D01*
X15950895Y-2052218D01*
X15951707Y-2044192D01*
X15951707Y-1039368D01*
X15952469Y-1035456D01*
X15954705Y-1032205D01*
X15957956Y-1029969D01*
X15961868Y-1029208D01*
X16410432Y-1029208D01*
X16414343Y-1029969D01*
X16417594Y-1032205D01*
X16419830Y-1035456D01*
X16420592Y-1039368D01*
X16420592Y-1528927D01*
X16419830Y-1532839D01*
X16417594Y-1536141D01*
X16336213Y-1617522D01*
X16332758Y-1619808D01*
X16328694Y-1620520D01*
X16324072Y-1619250D01*
X16310203Y-1614728D01*
X16295928Y-1612036D01*
X16281400Y-1611122D01*
X16266871Y-1612036D01*
X16252596Y-1614728D01*
X16238728Y-1619250D01*
X16225570Y-1625447D01*
X16213277Y-1633220D01*
X16202050Y-1642516D01*
X16192093Y-1653133D01*
X16183559Y-1664919D01*
X16176548Y-1677670D01*
X16171163Y-1691182D01*
X16167557Y-1705305D01*
X16165728Y-1719732D01*
X16165728Y-1734261D01*
X16167557Y-1748739D01*
X16171163Y-1762810D01*
X16176548Y-1776323D01*
X16183559Y-1789074D01*
X16192093Y-1800860D01*
X16202050Y-1811477D01*
X16213277Y-1820773D01*
X16225570Y-1828546D01*
X16238728Y-1834743D01*
X16252596Y-1839264D01*
X16266871Y-1841957D01*
X16281400Y-1842871D01*
X16295928Y-1841957D01*
X16310203Y-1839264D01*
X16324072Y-1834743D01*
X16337229Y-1828546D01*
X16349522Y-1820773D01*
X16360749Y-1811477D01*
X16370706Y-1800860D01*
X16379240Y-1789074D01*
X16386251Y-1776323D01*
X16391636Y-1762810D01*
X16395242Y-1748739D01*
X16397071Y-1734261D01*
X16397071Y-1719732D01*
X16395242Y-1705305D01*
X16391636Y-1691182D01*
X16388435Y-1683156D01*
X16387724Y-1679346D01*
X16388537Y-1675485D01*
X16390721Y-1672234D01*
X16486124Y-1576781D01*
X16491254Y-1570583D01*
X16494810Y-1563878D01*
X16496995Y-1556664D01*
X16497807Y-1548638D01*
X16497807Y-991108D01*
X16496995Y-983081D01*
X16494810Y-975868D01*
X16491254Y-969162D01*
X16486479Y-963320D01*
X16480637Y-958545D01*
X16473932Y-954989D01*
X16466718Y-952804D01*
X16458692Y-951992D01*
X15913607Y-951992D01*
X15905581Y-952804D01*
X15898368Y-954989D01*
X15891662Y-958545D01*
X15885820Y-963320D01*
X15881045Y-969162D01*
X15877489Y-975868D01*
X15875304Y-983081D01*
X15874492Y-991108D01*
X15874492Y-2024481D01*
X15873730Y-2028393D01*
X15871494Y-2031695D01*
X14591995Y-3311194D01*
X14588693Y-3313429D01*
X14584781Y-3314192D01*
X12339066Y-3314192D01*
X12335611Y-3313582D01*
X12332563Y-3311855D01*
X12322860Y-3300171D01*
X12314174Y-3292449D01*
X12304471Y-3286150D01*
X12293854Y-3281375D01*
X12282627Y-3278327D01*
X12271095Y-3276955D01*
X12259513Y-3277412D01*
X12248083Y-3279648D01*
X12237161Y-3283559D01*
X12226950Y-3289096D01*
X12217704Y-3296158D01*
X12209678Y-3304540D01*
X12202972Y-3314039D01*
X12197842Y-3324453D01*
X12194336Y-3335528D01*
X12192558Y-3347008D01*
X12192558Y-3358591D01*
X12194336Y-3370072D01*
X12197842Y-3381146D01*
X12202972Y-3391560D01*
X12209678Y-3401060D01*
X12217704Y-3409442D01*
X12226950Y-3416503D01*
X12237161Y-3422040D01*
X12248083Y-3425951D01*
X12259513Y-3428187D01*
X12271095Y-3428644D01*
X12282627Y-3427272D01*
X12293854Y-3424224D01*
X12304471Y-3419449D01*
X12314174Y-3413150D01*
X12322860Y-3405428D01*
X12332563Y-3393744D01*
X12335611Y-3392017D01*
X12339066Y-3391408D01*
X12372136Y-3391408D01*
X12376454Y-3392373D01*
X12379960Y-3395116D01*
X12381992Y-3399078D01*
X12382093Y-3403498D01*
X12380315Y-3407562D01*
X12376962Y-3410508D01*
X12366650Y-3416096D01*
X12357404Y-3423158D01*
X12349378Y-3431540D01*
X12342672Y-3441039D01*
X12337542Y-3451453D01*
X12334036Y-3462528D01*
X12332258Y-3474008D01*
X12332258Y-3485591D01*
X12334036Y-3497072D01*
X12337542Y-3508146D01*
X12342672Y-3518560D01*
X12349378Y-3528060D01*
X12357404Y-3536442D01*
X12366650Y-3543503D01*
X12376861Y-3549040D01*
X12387783Y-3552951D01*
X12399213Y-3555187D01*
G37*
G36*
X16256355Y-3361994D02*
G01*
X16258489Y-3361029D01*
X16271494Y-3353155D01*
X16283482Y-3343808D01*
X16294252Y-3333038D01*
X16303599Y-3321050D01*
X16311473Y-3308045D01*
X16312438Y-3305911D01*
X16256355Y-3305911D01*
G37*
G36*
X16143630Y-3361994D02*
G01*
X16143630Y-3305911D01*
X16087547Y-3305911D01*
X16088512Y-3308045D01*
X16096386Y-3321050D01*
X16105784Y-3333038D01*
X16116503Y-3343808D01*
X16128492Y-3353155D01*
X16141496Y-3361029D01*
G37*
G36*
X9403994Y-3240836D02*
G01*
X9420047Y-3240379D01*
X9435998Y-3238093D01*
X9451543Y-3233978D01*
X9466529Y-3228136D01*
X9480753Y-3220669D01*
X9494012Y-3211576D01*
X9506204Y-3201060D01*
X9517075Y-3189173D01*
X9526524Y-3176168D01*
X9534448Y-3162147D01*
X9540697Y-3147364D01*
X9545218Y-3131921D01*
X9547961Y-3116072D01*
X9548876Y-3100019D01*
X9547961Y-3083915D01*
X9545218Y-3068066D01*
X9540697Y-3052673D01*
X9534448Y-3037840D01*
X9526524Y-3023819D01*
X9517075Y-3010814D01*
X9506204Y-2998978D01*
X9494012Y-2988411D01*
X9480753Y-2979369D01*
X9466529Y-2971850D01*
X9451543Y-2966008D01*
X9435998Y-2961894D01*
X9420047Y-2959608D01*
X9403994Y-2959150D01*
X9387941Y-2960522D01*
X9372193Y-2963722D01*
X9356902Y-2968701D01*
X9342272Y-2975406D01*
X9328454Y-2983687D01*
X9315754Y-2993542D01*
X9304223Y-3004718D01*
X9294012Y-3017164D01*
X9285325Y-3030728D01*
X9278213Y-3045155D01*
X9272828Y-3060293D01*
X9269171Y-3075990D01*
X9267342Y-3091942D01*
X9267342Y-3108045D01*
X9269171Y-3124047D01*
X9272828Y-3139694D01*
X9278213Y-3154832D01*
X9285325Y-3169259D01*
X9294012Y-3182823D01*
X9304223Y-3195269D01*
X9315754Y-3206496D01*
X9328454Y-3216300D01*
X9342272Y-3224631D01*
X9356902Y-3231286D01*
X9372193Y-3236264D01*
X9387941Y-3239465D01*
G37*
G36*
X3403955Y-3240836D02*
G01*
X3420059Y-3240379D01*
X3435959Y-3238093D01*
X3451555Y-3233978D01*
X3466541Y-3228136D01*
X3480765Y-3220669D01*
X3494024Y-3211576D01*
X3506215Y-3201060D01*
X3517087Y-3189173D01*
X3526536Y-3176168D01*
X3534410Y-3162147D01*
X3540709Y-3147364D01*
X3545230Y-3131921D01*
X3547973Y-3116072D01*
X3548887Y-3100019D01*
X3547973Y-3083915D01*
X3545230Y-3068066D01*
X3540709Y-3052673D01*
X3534410Y-3037840D01*
X3526536Y-3023819D01*
X3517087Y-3010814D01*
X3506215Y-2998978D01*
X3494024Y-2988411D01*
X3480765Y-2979369D01*
X3466541Y-2971850D01*
X3451555Y-2966008D01*
X3435959Y-2961894D01*
X3420059Y-2959608D01*
X3403955Y-2959150D01*
X3387953Y-2960522D01*
X3372205Y-2963722D01*
X3356864Y-2968701D01*
X3342233Y-2975406D01*
X3328466Y-2983687D01*
X3315715Y-2993542D01*
X3304184Y-3004718D01*
X3294024Y-3017164D01*
X3285337Y-3030728D01*
X3278225Y-3045155D01*
X3272790Y-3060293D01*
X3269183Y-3075990D01*
X3267354Y-3091942D01*
X3267354Y-3108045D01*
X3269183Y-3124047D01*
X3272790Y-3139694D01*
X3278225Y-3154832D01*
X3285337Y-3169259D01*
X3294024Y-3182823D01*
X3304184Y-3195269D01*
X3315715Y-3206496D01*
X3328466Y-3216300D01*
X3342233Y-3224631D01*
X3356864Y-3231286D01*
X3372205Y-3236264D01*
X3387953Y-3239465D01*
G37*
G36*
X5404002Y-3240836D02*
G01*
X5420055Y-3240379D01*
X5435955Y-3238093D01*
X5451551Y-3233978D01*
X5466537Y-3228136D01*
X5480761Y-3220669D01*
X5494020Y-3211576D01*
X5506212Y-3201060D01*
X5517083Y-3189173D01*
X5526532Y-3176168D01*
X5534456Y-3162147D01*
X5540705Y-3147364D01*
X5545226Y-3131921D01*
X5547969Y-3116072D01*
X5548884Y-3100019D01*
X5547969Y-3083915D01*
X5545226Y-3068066D01*
X5540705Y-3052673D01*
X5534456Y-3037840D01*
X5526532Y-3023819D01*
X5517083Y-3010814D01*
X5506212Y-2998978D01*
X5494020Y-2988411D01*
X5480761Y-2979369D01*
X5466537Y-2971850D01*
X5451551Y-2966008D01*
X5435955Y-2961894D01*
X5420055Y-2959608D01*
X5404002Y-2959150D01*
X5387949Y-2960522D01*
X5372201Y-2963722D01*
X5356860Y-2968701D01*
X5342229Y-2975406D01*
X5328462Y-2983687D01*
X5315712Y-2993542D01*
X5304180Y-3004718D01*
X5294020Y-3017164D01*
X5285333Y-3030728D01*
X5278221Y-3045155D01*
X5272836Y-3060293D01*
X5269179Y-3075990D01*
X5267350Y-3091942D01*
X5267350Y-3108045D01*
X5269179Y-3124047D01*
X5272836Y-3139694D01*
X5278221Y-3154832D01*
X5285333Y-3169259D01*
X5294020Y-3182823D01*
X5304180Y-3195269D01*
X5315712Y-3206496D01*
X5328462Y-3216300D01*
X5342229Y-3224631D01*
X5356860Y-3231286D01*
X5372201Y-3236264D01*
X5387949Y-3239465D01*
G37*
G36*
X11403990Y-3240836D02*
G01*
X11420043Y-3240379D01*
X11435994Y-3238093D01*
X11451539Y-3233978D01*
X11466525Y-3228136D01*
X11480749Y-3220669D01*
X11494058Y-3211576D01*
X11506200Y-3201060D01*
X11517071Y-3189173D01*
X11526520Y-3176168D01*
X11534444Y-3162147D01*
X11540693Y-3147364D01*
X11545214Y-3131921D01*
X11547957Y-3116072D01*
X11548872Y-3100019D01*
X11547957Y-3083915D01*
X11545214Y-3068066D01*
X11540693Y-3052673D01*
X11534444Y-3037840D01*
X11526520Y-3023819D01*
X11517071Y-3010814D01*
X11506200Y-2998978D01*
X11494058Y-2988411D01*
X11480749Y-2979369D01*
X11466525Y-2971850D01*
X11451539Y-2966008D01*
X11435994Y-2961894D01*
X11420043Y-2959608D01*
X11403990Y-2959150D01*
X11387937Y-2960522D01*
X11372189Y-2963722D01*
X11356898Y-2968701D01*
X11342268Y-2975406D01*
X11328450Y-2983687D01*
X11315750Y-2993542D01*
X11304219Y-3004718D01*
X11294008Y-3017164D01*
X11285321Y-3030728D01*
X11278209Y-3045155D01*
X11272824Y-3060293D01*
X11269167Y-3075990D01*
X11267338Y-3091942D01*
X11267338Y-3108045D01*
X11269167Y-3124047D01*
X11272824Y-3139694D01*
X11278209Y-3154832D01*
X11285321Y-3169259D01*
X11294008Y-3182823D01*
X11304219Y-3195269D01*
X11315750Y-3206496D01*
X11328450Y-3216300D01*
X11342268Y-3224631D01*
X11356898Y-3231286D01*
X11372189Y-3236264D01*
X11387937Y-3239465D01*
G37*
G36*
X13403986Y-3240836D02*
G01*
X13420039Y-3240379D01*
X13435990Y-3238093D01*
X13451535Y-3233978D01*
X13466521Y-3228136D01*
X13480745Y-3220669D01*
X13494054Y-3211576D01*
X13506196Y-3201060D01*
X13517067Y-3189173D01*
X13526516Y-3176168D01*
X13534440Y-3162147D01*
X13540689Y-3147364D01*
X13545210Y-3131921D01*
X13547953Y-3116072D01*
X13548868Y-3100019D01*
X13547953Y-3083915D01*
X13545210Y-3068066D01*
X13540689Y-3052673D01*
X13534440Y-3037840D01*
X13526516Y-3023819D01*
X13517067Y-3010814D01*
X13506196Y-2998978D01*
X13494054Y-2988411D01*
X13480745Y-2979369D01*
X13466521Y-2971850D01*
X13451535Y-2966008D01*
X13435990Y-2961894D01*
X13420039Y-2959608D01*
X13403986Y-2959150D01*
X13387933Y-2960522D01*
X13372185Y-2963722D01*
X13356894Y-2968701D01*
X13342264Y-2975406D01*
X13328497Y-2983687D01*
X13315746Y-2993542D01*
X13304215Y-3004718D01*
X13294004Y-3017164D01*
X13285317Y-3030728D01*
X13278205Y-3045155D01*
X13272820Y-3060293D01*
X13269163Y-3075990D01*
X13267334Y-3091942D01*
X13267334Y-3108045D01*
X13269163Y-3124047D01*
X13272820Y-3139694D01*
X13278205Y-3154832D01*
X13285317Y-3169259D01*
X13294004Y-3182823D01*
X13304215Y-3195269D01*
X13315746Y-3206496D01*
X13328497Y-3216300D01*
X13342264Y-3224631D01*
X13356894Y-3231286D01*
X13372185Y-3236264D01*
X13387933Y-3239465D01*
G37*
G36*
X15403982Y-3240836D02*
G01*
X15420035Y-3240379D01*
X15435986Y-3238093D01*
X15451531Y-3233978D01*
X15466517Y-3228136D01*
X15480741Y-3220669D01*
X15494050Y-3211576D01*
X15506192Y-3201060D01*
X15517063Y-3189173D01*
X15526512Y-3176168D01*
X15534436Y-3162147D01*
X15540685Y-3147364D01*
X15545206Y-3131921D01*
X15547949Y-3116072D01*
X15548914Y-3100019D01*
X15547949Y-3083915D01*
X15545206Y-3068066D01*
X15540685Y-3052673D01*
X15534436Y-3037840D01*
X15526512Y-3023819D01*
X15517063Y-3010814D01*
X15506192Y-2998978D01*
X15494050Y-2988411D01*
X15480741Y-2979369D01*
X15466517Y-2971850D01*
X15451531Y-2966008D01*
X15435986Y-2961894D01*
X15420035Y-2959608D01*
X15403982Y-2959150D01*
X15387929Y-2960522D01*
X15372181Y-2963722D01*
X15356890Y-2968701D01*
X15342260Y-2975406D01*
X15328493Y-2983687D01*
X15315742Y-2993542D01*
X15304211Y-3004718D01*
X15294000Y-3017164D01*
X15285313Y-3030728D01*
X15278201Y-3045155D01*
X15272816Y-3060293D01*
X15269159Y-3075990D01*
X15267330Y-3091942D01*
X15267330Y-3108045D01*
X15269159Y-3124047D01*
X15272816Y-3139694D01*
X15278201Y-3154832D01*
X15285313Y-3169259D01*
X15294000Y-3182823D01*
X15304211Y-3195269D01*
X15315742Y-3206496D01*
X15328493Y-3216300D01*
X15342260Y-3224631D01*
X15356890Y-3231286D01*
X15372181Y-3236264D01*
X15387929Y-3239465D01*
G37*
G36*
X1403959Y-3240836D02*
G01*
X1420063Y-3240379D01*
X1435963Y-3238093D01*
X1451559Y-3233978D01*
X1466545Y-3228136D01*
X1480769Y-3220669D01*
X1494028Y-3211576D01*
X1506169Y-3201060D01*
X1517091Y-3189173D01*
X1526540Y-3176168D01*
X1534414Y-3162147D01*
X1540713Y-3147364D01*
X1545234Y-3131921D01*
X1547977Y-3116072D01*
X1548892Y-3100019D01*
X1547977Y-3083915D01*
X1545234Y-3068066D01*
X1540713Y-3052673D01*
X1534414Y-3037840D01*
X1526540Y-3023819D01*
X1517091Y-3010814D01*
X1506169Y-2998978D01*
X1494028Y-2988411D01*
X1480769Y-2979369D01*
X1466545Y-2971850D01*
X1451559Y-2966008D01*
X1435963Y-2961894D01*
X1420063Y-2959608D01*
X1403959Y-2959150D01*
X1387957Y-2960522D01*
X1372158Y-2963722D01*
X1356868Y-2968701D01*
X1342237Y-2975406D01*
X1328470Y-2983687D01*
X1315720Y-2993542D01*
X1304188Y-3004718D01*
X1294028Y-3017164D01*
X1285341Y-3030728D01*
X1278229Y-3045155D01*
X1272794Y-3060293D01*
X1269187Y-3075990D01*
X1267358Y-3091942D01*
X1267358Y-3108045D01*
X1269187Y-3124047D01*
X1272794Y-3139694D01*
X1278229Y-3154832D01*
X1285341Y-3169259D01*
X1294028Y-3182823D01*
X1304188Y-3195269D01*
X1315720Y-3206496D01*
X1328470Y-3216300D01*
X1342237Y-3224631D01*
X1356868Y-3231286D01*
X1372158Y-3236264D01*
X1387957Y-3239465D01*
G37*
G36*
X6387998Y-3240836D02*
G01*
X6404051Y-3240379D01*
X6420002Y-3238093D01*
X6435547Y-3233978D01*
X6450533Y-3228136D01*
X6464757Y-3220669D01*
X6478016Y-3211576D01*
X6490208Y-3201060D01*
X6501079Y-3189173D01*
X6510528Y-3176168D01*
X6518452Y-3162147D01*
X6524701Y-3147364D01*
X6529222Y-3131921D01*
X6531965Y-3116072D01*
X6532880Y-3100019D01*
X6531965Y-3083915D01*
X6529222Y-3068066D01*
X6524701Y-3052673D01*
X6522415Y-3047238D01*
X6521602Y-3043072D01*
X6522567Y-3038957D01*
X6525107Y-3035604D01*
X6669074Y-2910484D01*
X6673951Y-2904693D01*
X6677609Y-2898089D01*
X6679844Y-2890875D01*
X6680606Y-2885440D01*
X6683451Y-2486507D01*
X6684264Y-2482646D01*
X6686448Y-2479344D01*
X6689750Y-2477160D01*
X6693611Y-2476398D01*
X6735419Y-2476398D01*
X6741718Y-2475687D01*
X6747205Y-2473807D01*
X6752081Y-2470708D01*
X6756196Y-2466594D01*
X6759295Y-2461717D01*
X6761175Y-2456281D01*
X6761886Y-2449931D01*
X6761886Y-2366518D01*
X6762699Y-2362504D01*
X6765086Y-2359152D01*
X6768541Y-2356967D01*
X6772605Y-2356358D01*
X6776567Y-2357424D01*
X6779768Y-2359914D01*
X6781749Y-2363470D01*
X6783984Y-2368956D01*
X6784848Y-2372461D01*
X6785000Y-2375052D01*
X6787743Y-2389327D01*
X6792264Y-2403144D01*
X6798462Y-2416352D01*
X6806234Y-2428646D01*
X6815531Y-2439822D01*
X6826097Y-2449779D01*
X6837883Y-2458364D01*
X6850634Y-2465374D01*
X6864197Y-2470708D01*
X6878269Y-2474315D01*
X6892696Y-2476144D01*
X6907275Y-2476144D01*
X6921703Y-2474315D01*
X6935825Y-2470708D01*
X6949338Y-2465374D01*
X6962089Y-2458364D01*
X6973874Y-2449779D01*
X6984492Y-2439822D01*
X6993737Y-2428646D01*
X7001560Y-2416352D01*
X7007758Y-2403144D01*
X7012228Y-2389327D01*
X7014972Y-2375052D01*
X7015124Y-2372461D01*
X7015988Y-2368905D01*
X7017715Y-2365146D01*
X7022236Y-2350668D01*
X7024979Y-2335682D01*
X7025894Y-2320188D01*
X7025894Y-2260295D01*
X7026656Y-2256434D01*
X7028891Y-2253132D01*
X7032142Y-2250948D01*
X7036053Y-2250135D01*
X7102652Y-2250135D01*
X7102652Y-2177745D01*
X7091883Y-2183638D01*
X7080097Y-2192223D01*
X7069531Y-2202180D01*
X7060234Y-2213406D01*
X7052462Y-2225700D01*
X7046264Y-2238857D01*
X7045706Y-2240483D01*
X7043724Y-2243988D01*
X7040473Y-2246477D01*
X7036511Y-2247493D01*
X7032498Y-2246833D01*
X7029043Y-2244648D01*
X7026706Y-2241296D01*
X7025894Y-2237333D01*
X7025894Y-1857552D01*
X7025640Y-1849780D01*
X7024979Y-1842211D01*
X7023811Y-1834692D01*
X7022236Y-1827275D01*
X7020204Y-1819960D01*
X7017715Y-1812747D01*
X7014819Y-1805736D01*
X7011466Y-1798878D01*
X7007707Y-1792274D01*
X7003592Y-1785874D01*
X6999071Y-1779778D01*
X6994245Y-1773936D01*
X6988911Y-1768246D01*
X6593890Y-1373225D01*
X6591655Y-1369923D01*
X6590893Y-1366062D01*
X6590893Y-985367D01*
X6591655Y-981506D01*
X6593890Y-978204D01*
X6861809Y-710234D01*
X6872122Y-698652D01*
X6880758Y-686155D01*
X6887819Y-672693D01*
X6890512Y-665530D01*
X6892696Y-662127D01*
X6896049Y-659790D01*
X6900011Y-658977D01*
X6903974Y-659790D01*
X6907326Y-662127D01*
X6909511Y-665530D01*
X6910425Y-667969D01*
X6911086Y-671576D01*
X6911086Y-710438D01*
X6911797Y-716737D01*
X6913727Y-722223D01*
X6916775Y-727100D01*
X6920890Y-731215D01*
X6925767Y-734263D01*
X6931253Y-736193D01*
X6937552Y-736904D01*
X6960666Y-736904D01*
X6964527Y-737666D01*
X6967829Y-739902D01*
X7206081Y-978153D01*
X7208316Y-981456D01*
X7209078Y-985316D01*
X7209078Y-1422095D01*
X7209993Y-1437589D01*
X7212736Y-1452524D01*
X7217257Y-1467053D01*
X7223506Y-1480921D01*
X7231380Y-1493926D01*
X7240778Y-1505864D01*
X7251496Y-1516634D01*
X7263485Y-1525981D01*
X7276490Y-1533855D01*
X7290358Y-1540103D01*
X7304836Y-1544624D01*
X7319822Y-1547368D01*
X7335012Y-1548282D01*
X7350150Y-1547368D01*
X7365136Y-1544624D01*
X7379614Y-1540103D01*
X7393482Y-1533855D01*
X7406487Y-1525981D01*
X7418476Y-1516634D01*
X7429195Y-1505864D01*
X7438593Y-1493926D01*
X7446467Y-1480921D01*
X7452715Y-1467053D01*
X7457236Y-1452524D01*
X7459980Y-1437589D01*
X7460894Y-1422095D01*
X7460894Y-929132D01*
X7460640Y-921359D01*
X7459980Y-913790D01*
X7458811Y-906271D01*
X7457236Y-898855D01*
X7455204Y-891540D01*
X7452715Y-884326D01*
X7449820Y-877316D01*
X7446467Y-870458D01*
X7442708Y-863853D01*
X7438593Y-857453D01*
X7434072Y-851357D01*
X7429246Y-845515D01*
X7423912Y-839825D01*
X7145883Y-561797D01*
X7143699Y-558495D01*
X7142886Y-554634D01*
X7142886Y-531571D01*
X7142175Y-525272D01*
X7140295Y-519785D01*
X7137196Y-514908D01*
X7133132Y-510793D01*
X7128205Y-507695D01*
X7122769Y-505815D01*
X7116419Y-505104D01*
X7077608Y-505104D01*
X7074001Y-504443D01*
X7064451Y-500837D01*
X7049719Y-497179D01*
X7034631Y-495350D01*
X7019391Y-495350D01*
X7004303Y-497179D01*
X6989572Y-500837D01*
X6980021Y-504443D01*
X6976414Y-505104D01*
X6937552Y-505104D01*
X6931253Y-505815D01*
X6925767Y-507695D01*
X6920890Y-510793D01*
X6916775Y-514908D01*
X6913727Y-519785D01*
X6911797Y-525272D01*
X6911086Y-531571D01*
X6911086Y-570433D01*
X6910425Y-574040D01*
X6909511Y-576478D01*
X6907326Y-579882D01*
X6903974Y-582218D01*
X6900011Y-583031D01*
X6896049Y-582218D01*
X6892696Y-579882D01*
X6890512Y-576478D01*
X6887819Y-569315D01*
X6880758Y-555853D01*
X6872122Y-543356D01*
X6862013Y-531977D01*
X6850634Y-521919D01*
X6838137Y-513283D01*
X6824675Y-506222D01*
X6810451Y-500837D01*
X6795719Y-497179D01*
X6780631Y-495350D01*
X6765391Y-495350D01*
X6750303Y-497179D01*
X6735572Y-500837D01*
X6721348Y-506222D01*
X6707886Y-513283D01*
X6695389Y-521919D01*
X6683756Y-532180D01*
X6376060Y-839876D01*
X6370726Y-845566D01*
X6365900Y-851408D01*
X6361379Y-857503D01*
X6357264Y-863904D01*
X6353505Y-870508D01*
X6350152Y-877366D01*
X6347256Y-884377D01*
X6344767Y-891590D01*
X6342735Y-898906D01*
X6341160Y-906322D01*
X6339992Y-913841D01*
X6339332Y-921410D01*
X6339078Y-929182D01*
X6339078Y-1422247D01*
X6339332Y-1430020D01*
X6339992Y-1437589D01*
X6341160Y-1445107D01*
X6342735Y-1452524D01*
X6344767Y-1459839D01*
X6347256Y-1467053D01*
X6350152Y-1474063D01*
X6353505Y-1480921D01*
X6357264Y-1487525D01*
X6361379Y-1493926D01*
X6365900Y-1500022D01*
X6370726Y-1505864D01*
X6376060Y-1511554D01*
X6771081Y-1906574D01*
X6773316Y-1909876D01*
X6774078Y-1913737D01*
X6774078Y-2167737D01*
X6773316Y-2171649D01*
X6771081Y-2174951D01*
X6767830Y-2177135D01*
X6763918Y-2177897D01*
X6760006Y-2177135D01*
X6756755Y-2174951D01*
X6752081Y-2170277D01*
X6747205Y-2167229D01*
X6741718Y-2165299D01*
X6735419Y-2164588D01*
X6556552Y-2164588D01*
X6550253Y-2165299D01*
X6544767Y-2167229D01*
X6539890Y-2170277D01*
X6535775Y-2174392D01*
X6532727Y-2179269D01*
X6530797Y-2184755D01*
X6530085Y-2191054D01*
X6530085Y-2449931D01*
X6530797Y-2456281D01*
X6532727Y-2461717D01*
X6535775Y-2466594D01*
X6539890Y-2470708D01*
X6544767Y-2473807D01*
X6550253Y-2475687D01*
X6556552Y-2476398D01*
X6596075Y-2476398D01*
X6599986Y-2477211D01*
X6603288Y-2479395D01*
X6605473Y-2482748D01*
X6606235Y-2486660D01*
X6603644Y-2860598D01*
X6602730Y-2864764D01*
X6600139Y-2868218D01*
X6474561Y-2977184D01*
X6471056Y-2979166D01*
X6467043Y-2979674D01*
X6463182Y-2978505D01*
X6450533Y-2971850D01*
X6435547Y-2966008D01*
X6420002Y-2961894D01*
X6404051Y-2959608D01*
X6387998Y-2959150D01*
X6371945Y-2960522D01*
X6356197Y-2963722D01*
X6340906Y-2968701D01*
X6326225Y-2975406D01*
X6312458Y-2983687D01*
X6299758Y-2993542D01*
X6288176Y-3004718D01*
X6278016Y-3017164D01*
X6269329Y-3030728D01*
X6262217Y-3045155D01*
X6256832Y-3060293D01*
X6253175Y-3075990D01*
X6251346Y-3091942D01*
X6251346Y-3108045D01*
X6253175Y-3124047D01*
X6256832Y-3139694D01*
X6262217Y-3154832D01*
X6269329Y-3169259D01*
X6278016Y-3182823D01*
X6288176Y-3195269D01*
X6299758Y-3206496D01*
X6312458Y-3216300D01*
X6326225Y-3224631D01*
X6340906Y-3231286D01*
X6356197Y-3236264D01*
X6371945Y-3239465D01*
G37*
G36*
X8387994Y-3240836D02*
G01*
X8404047Y-3240379D01*
X8419998Y-3238093D01*
X8435543Y-3233978D01*
X8450529Y-3228136D01*
X8464753Y-3220669D01*
X8478012Y-3211576D01*
X8490204Y-3201060D01*
X8501075Y-3189173D01*
X8510524Y-3176168D01*
X8518448Y-3162147D01*
X8524697Y-3147364D01*
X8529218Y-3131921D01*
X8531961Y-3116072D01*
X8532876Y-3100019D01*
X8531961Y-3083915D01*
X8529218Y-3068066D01*
X8524697Y-3052673D01*
X8518448Y-3037840D01*
X8515502Y-3032607D01*
X8514232Y-3028594D01*
X8514689Y-3024378D01*
X8516823Y-3020771D01*
X8676843Y-2845816D01*
X8681669Y-2839364D01*
X8684920Y-2832557D01*
X8686850Y-2825140D01*
X8687308Y-2818790D01*
X8685479Y-2465628D01*
X8686241Y-2461717D01*
X8688425Y-2458415D01*
X8691727Y-2456180D01*
X8695639Y-2455418D01*
X8735415Y-2455418D01*
X8741765Y-2454706D01*
X8747201Y-2452776D01*
X8752128Y-2449728D01*
X8756192Y-2445613D01*
X8759291Y-2440736D01*
X8761171Y-2435250D01*
X8761882Y-2428951D01*
X8761882Y-2345537D01*
X8762746Y-2341524D01*
X8765082Y-2338171D01*
X8768537Y-2335987D01*
X8772601Y-2335377D01*
X8776563Y-2336393D01*
X8779764Y-2338933D01*
X8781745Y-2342489D01*
X8783980Y-2347976D01*
X8784844Y-2351481D01*
X8784996Y-2354021D01*
X8787739Y-2368346D01*
X8792260Y-2382164D01*
X8798458Y-2395321D01*
X8806230Y-2407615D01*
X8815527Y-2418842D01*
X8826144Y-2428798D01*
X8837879Y-2437333D01*
X8850630Y-2444343D01*
X8864193Y-2449728D01*
X8878265Y-2453335D01*
X8892692Y-2455164D01*
X8907272Y-2455164D01*
X8921699Y-2453335D01*
X8935821Y-2449728D01*
X8949334Y-2444343D01*
X8962085Y-2437333D01*
X8973870Y-2428798D01*
X8984488Y-2418842D01*
X8993733Y-2407615D01*
X9001556Y-2395321D01*
X9007754Y-2382164D01*
X9012224Y-2368346D01*
X9014968Y-2354021D01*
X9015120Y-2351430D01*
X9015984Y-2347874D01*
X9017711Y-2344166D01*
X9022232Y-2329637D01*
X9024975Y-2314702D01*
X9025890Y-2299208D01*
X9025890Y-2239314D01*
X9026652Y-2235403D01*
X9028887Y-2232152D01*
X9032138Y-2229916D01*
X9036050Y-2229154D01*
X9102648Y-2229154D01*
X9102648Y-2156764D01*
X9091879Y-2162657D01*
X9080144Y-2171192D01*
X9069527Y-2181199D01*
X9060230Y-2192375D01*
X9052458Y-2204669D01*
X9046260Y-2217826D01*
X9045702Y-2219452D01*
X9043720Y-2223008D01*
X9040469Y-2225497D01*
X9036507Y-2226462D01*
X9032494Y-2225852D01*
X9029039Y-2223668D01*
X9026702Y-2220315D01*
X9025890Y-2216353D01*
X9025890Y-1835150D01*
X9025636Y-1827377D01*
X9024975Y-1819808D01*
X9023807Y-1812289D01*
X9022232Y-1804873D01*
X9020200Y-1797557D01*
X9017711Y-1790344D01*
X9014815Y-1783334D01*
X9011462Y-1776475D01*
X9007703Y-1769872D01*
X9003588Y-1763471D01*
X8999067Y-1757324D01*
X8994241Y-1751482D01*
X8988907Y-1745843D01*
X8593886Y-1350822D01*
X8591651Y-1347520D01*
X8590889Y-1343660D01*
X8590889Y-964387D01*
X8591651Y-960475D01*
X8593886Y-957173D01*
X8861806Y-689254D01*
X8872118Y-677621D01*
X8880754Y-665124D01*
X8887815Y-651662D01*
X8890508Y-644550D01*
X8892692Y-641096D01*
X8896045Y-638810D01*
X8900007Y-637997D01*
X8903970Y-638810D01*
X8907322Y-641096D01*
X8909507Y-644550D01*
X8910421Y-646988D01*
X8911082Y-650595D01*
X8911082Y-689406D01*
X8911793Y-695756D01*
X8913723Y-701192D01*
X8916771Y-706120D01*
X8920886Y-710184D01*
X8925763Y-713282D01*
X8931249Y-715213D01*
X8937548Y-715924D01*
X8960662Y-715924D01*
X8964523Y-716686D01*
X8967825Y-718870D01*
X9206128Y-957173D01*
X9208312Y-960475D01*
X9209074Y-964336D01*
X9209074Y-1399692D01*
X9210040Y-1415186D01*
X9212783Y-1430121D01*
X9217304Y-1444650D01*
X9223502Y-1458518D01*
X9231376Y-1471523D01*
X9240774Y-1483461D01*
X9251492Y-1494231D01*
X9263481Y-1503629D01*
X9276486Y-1511452D01*
X9290354Y-1517700D01*
X9304883Y-1522222D01*
X9319818Y-1524965D01*
X9335008Y-1525879D01*
X9350146Y-1524965D01*
X9365132Y-1522222D01*
X9379610Y-1517700D01*
X9393478Y-1511452D01*
X9406483Y-1503629D01*
X9418472Y-1494231D01*
X9429242Y-1483461D01*
X9438589Y-1471523D01*
X9446463Y-1458518D01*
X9452711Y-1444650D01*
X9457232Y-1430121D01*
X9459976Y-1415186D01*
X9460890Y-1399692D01*
X9460890Y-908151D01*
X9460687Y-900379D01*
X9459976Y-892810D01*
X9458858Y-885291D01*
X9457232Y-877874D01*
X9455200Y-870508D01*
X9452711Y-863346D01*
X9449816Y-856335D01*
X9446463Y-849477D01*
X9442754Y-842873D01*
X9438589Y-836472D01*
X9434118Y-830326D01*
X9429242Y-824484D01*
X9423908Y-818845D01*
X9145879Y-540816D01*
X9143695Y-537514D01*
X9142933Y-533654D01*
X9142933Y-510590D01*
X9142171Y-504240D01*
X9140291Y-498805D01*
X9137192Y-493877D01*
X9133128Y-489813D01*
X9128201Y-486714D01*
X9122765Y-484784D01*
X9116415Y-484073D01*
X9077604Y-484073D01*
X9073997Y-483412D01*
X9064447Y-479806D01*
X9049715Y-476148D01*
X9034627Y-474319D01*
X9019387Y-474319D01*
X9004300Y-476148D01*
X8989568Y-479806D01*
X8980017Y-483412D01*
X8976410Y-484073D01*
X8937548Y-484073D01*
X8931249Y-484784D01*
X8925763Y-486714D01*
X8920886Y-489813D01*
X8916771Y-493877D01*
X8913723Y-498805D01*
X8911793Y-504240D01*
X8911082Y-510590D01*
X8911082Y-549402D01*
X8910421Y-553008D01*
X8909507Y-555447D01*
X8907322Y-558901D01*
X8903970Y-561187D01*
X8900007Y-562000D01*
X8896045Y-561187D01*
X8892692Y-558901D01*
X8890508Y-555447D01*
X8887815Y-548335D01*
X8880754Y-534873D01*
X8872118Y-522376D01*
X8862009Y-510997D01*
X8850630Y-500888D01*
X8838133Y-492251D01*
X8824671Y-485190D01*
X8810447Y-479806D01*
X8795715Y-476148D01*
X8780627Y-474319D01*
X8765387Y-474319D01*
X8750300Y-476148D01*
X8735568Y-479806D01*
X8721344Y-485190D01*
X8707882Y-492251D01*
X8695385Y-500888D01*
X8683752Y-511200D01*
X8376056Y-818896D01*
X8370773Y-824534D01*
X8365896Y-830376D01*
X8361375Y-836472D01*
X8357260Y-842873D01*
X8353501Y-849528D01*
X8350199Y-856335D01*
X8347252Y-863346D01*
X8344814Y-870559D01*
X8342731Y-877874D01*
X8341156Y-885342D01*
X8339988Y-892860D01*
X8339328Y-900430D01*
X8339074Y-908151D01*
X8339074Y-1399844D01*
X8339328Y-1407617D01*
X8339988Y-1415186D01*
X8341156Y-1422704D01*
X8342731Y-1430121D01*
X8344814Y-1437436D01*
X8347252Y-1444650D01*
X8350199Y-1451660D01*
X8353501Y-1458518D01*
X8357260Y-1465122D01*
X8361375Y-1471523D01*
X8365896Y-1477670D01*
X8370773Y-1483512D01*
X8376056Y-1489151D01*
X8771077Y-1884172D01*
X8773312Y-1887474D01*
X8774074Y-1891334D01*
X8774074Y-2146757D01*
X8773312Y-2150618D01*
X8771077Y-2153920D01*
X8767826Y-2156104D01*
X8763914Y-2156917D01*
X8760002Y-2156104D01*
X8756751Y-2153920D01*
X8752128Y-2149297D01*
X8747201Y-2146198D01*
X8741765Y-2144318D01*
X8735415Y-2143607D01*
X8556548Y-2143607D01*
X8550249Y-2144318D01*
X8544763Y-2146198D01*
X8539886Y-2149297D01*
X8535771Y-2153412D01*
X8532723Y-2158288D01*
X8530793Y-2163775D01*
X8530082Y-2170074D01*
X8530082Y-2428951D01*
X8530793Y-2435250D01*
X8532723Y-2440736D01*
X8535771Y-2445613D01*
X8539886Y-2449728D01*
X8544763Y-2452776D01*
X8550249Y-2454706D01*
X8556548Y-2455418D01*
X8598103Y-2455418D01*
X8601964Y-2456180D01*
X8605266Y-2458364D01*
X8607450Y-2461666D01*
X8608263Y-2465527D01*
X8609990Y-2800502D01*
X8609330Y-2804210D01*
X8607348Y-2807411D01*
X8459927Y-2968548D01*
X8456676Y-2970936D01*
X8452713Y-2971850D01*
X8448751Y-2971139D01*
X8435543Y-2966008D01*
X8419998Y-2961894D01*
X8404047Y-2959608D01*
X8387994Y-2959150D01*
X8371941Y-2960522D01*
X8356193Y-2963722D01*
X8340902Y-2968701D01*
X8326272Y-2975406D01*
X8312454Y-2983687D01*
X8299754Y-2993542D01*
X8288223Y-3004718D01*
X8278012Y-3017164D01*
X8269325Y-3030728D01*
X8262213Y-3045155D01*
X8256828Y-3060293D01*
X8253171Y-3075990D01*
X8251342Y-3091942D01*
X8251342Y-3108045D01*
X8253171Y-3124047D01*
X8256828Y-3139694D01*
X8262213Y-3154832D01*
X8269325Y-3169259D01*
X8278012Y-3182823D01*
X8288223Y-3195269D01*
X8299754Y-3206496D01*
X8312454Y-3216300D01*
X8326272Y-3224631D01*
X8340902Y-3231286D01*
X8356193Y-3236264D01*
X8371941Y-3239465D01*
G37*
G36*
X10387990Y-3240836D02*
G01*
X10404043Y-3240379D01*
X10419994Y-3238093D01*
X10435539Y-3233978D01*
X10450525Y-3228136D01*
X10464749Y-3220669D01*
X10478058Y-3211576D01*
X10490200Y-3201060D01*
X10501071Y-3189173D01*
X10510520Y-3176168D01*
X10518444Y-3162147D01*
X10524693Y-3147364D01*
X10529214Y-3131921D01*
X10531957Y-3116072D01*
X10532872Y-3100019D01*
X10531957Y-3083915D01*
X10529214Y-3068066D01*
X10524693Y-3052673D01*
X10518444Y-3037840D01*
X10510469Y-3023768D01*
X10508742Y-3019755D01*
X10508792Y-3015437D01*
X10510723Y-3011474D01*
X10674451Y-2803093D01*
X10678109Y-2796438D01*
X10680395Y-2789224D01*
X10681106Y-2784144D01*
X10683443Y-2465476D01*
X10684256Y-2461615D01*
X10686440Y-2458364D01*
X10689742Y-2456180D01*
X10693603Y-2455418D01*
X10735411Y-2455418D01*
X10741761Y-2454706D01*
X10747197Y-2452776D01*
X10752124Y-2449728D01*
X10756188Y-2445613D01*
X10759287Y-2440736D01*
X10761167Y-2435250D01*
X10761878Y-2428951D01*
X10761878Y-2345486D01*
X10762742Y-2341473D01*
X10765078Y-2338070D01*
X10768533Y-2335936D01*
X10772597Y-2335326D01*
X10776559Y-2336342D01*
X10779760Y-2338882D01*
X10781741Y-2342438D01*
X10783976Y-2347874D01*
X10784840Y-2351430D01*
X10785043Y-2354021D01*
X10787735Y-2368346D01*
X10792256Y-2382164D01*
X10798454Y-2395321D01*
X10806226Y-2407615D01*
X10815523Y-2418842D01*
X10826140Y-2428798D01*
X10837875Y-2437333D01*
X10850626Y-2444343D01*
X10864189Y-2449728D01*
X10878261Y-2453335D01*
X10892739Y-2455164D01*
X10907268Y-2455164D01*
X10921695Y-2453335D01*
X10935817Y-2449728D01*
X10949330Y-2444343D01*
X10962081Y-2437333D01*
X10973866Y-2428798D01*
X10984484Y-2418842D01*
X10993729Y-2407615D01*
X11001552Y-2395321D01*
X11007750Y-2382164D01*
X11012220Y-2368346D01*
X11014964Y-2354021D01*
X11015116Y-2351481D01*
X11015980Y-2347976D01*
X11017707Y-2344166D01*
X11022228Y-2329637D01*
X11024971Y-2314702D01*
X11025936Y-2299208D01*
X11025936Y-2239314D01*
X11026698Y-2235403D01*
X11028883Y-2232152D01*
X11032185Y-2229916D01*
X11036096Y-2229154D01*
X11102644Y-2229154D01*
X11102644Y-2156764D01*
X11091875Y-2162657D01*
X11080140Y-2171192D01*
X11069523Y-2181199D01*
X11060226Y-2192375D01*
X11052454Y-2204669D01*
X11046256Y-2217826D01*
X11045748Y-2219401D01*
X11043716Y-2222957D01*
X11040465Y-2225446D01*
X11036503Y-2226411D01*
X11032490Y-2225802D01*
X11029035Y-2223617D01*
X11026749Y-2220264D01*
X11025936Y-2216251D01*
X11025936Y-1835150D01*
X11025682Y-1827428D01*
X11024971Y-1819808D01*
X11023854Y-1812289D01*
X11022228Y-1804873D01*
X11020196Y-1797557D01*
X11017707Y-1790344D01*
X11014811Y-1783334D01*
X11011509Y-1776475D01*
X11007750Y-1769872D01*
X11003635Y-1763471D01*
X10999114Y-1757375D01*
X10994237Y-1751533D01*
X10988903Y-1745894D01*
X10593882Y-1350822D01*
X10591698Y-1347520D01*
X10590885Y-1343660D01*
X10590885Y-964387D01*
X10591698Y-960475D01*
X10593882Y-957173D01*
X10861802Y-689254D01*
X10872114Y-677621D01*
X10880750Y-665124D01*
X10887811Y-651662D01*
X10890504Y-644550D01*
X10892688Y-641096D01*
X10896041Y-638810D01*
X10900003Y-637997D01*
X10903966Y-638810D01*
X10907318Y-641096D01*
X10909503Y-644550D01*
X10910417Y-646988D01*
X10911078Y-650595D01*
X10911078Y-689406D01*
X10911789Y-695756D01*
X10913719Y-701192D01*
X10916818Y-706120D01*
X10920882Y-710184D01*
X10925810Y-713282D01*
X10931245Y-715213D01*
X10937595Y-715924D01*
X10960658Y-715924D01*
X10964519Y-716686D01*
X10967821Y-718870D01*
X11206124Y-957173D01*
X11208308Y-960475D01*
X11209070Y-964336D01*
X11209070Y-1399692D01*
X11210036Y-1415186D01*
X11212779Y-1430121D01*
X11217300Y-1444650D01*
X11223548Y-1458518D01*
X11231372Y-1471523D01*
X11240770Y-1483461D01*
X11251539Y-1494231D01*
X11263477Y-1503629D01*
X11276482Y-1511452D01*
X11290350Y-1517700D01*
X11304879Y-1522222D01*
X11319814Y-1524965D01*
X11335004Y-1525879D01*
X11350193Y-1524965D01*
X11365128Y-1522222D01*
X11379657Y-1517700D01*
X11393525Y-1511452D01*
X11406530Y-1503629D01*
X11418468Y-1494231D01*
X11429238Y-1483461D01*
X11438585Y-1471523D01*
X11446459Y-1458518D01*
X11452707Y-1444650D01*
X11457228Y-1430121D01*
X11459972Y-1415186D01*
X11460886Y-1399692D01*
X11460886Y-908151D01*
X11460683Y-900379D01*
X11459972Y-892810D01*
X11458854Y-885291D01*
X11457228Y-877874D01*
X11455196Y-870559D01*
X11452707Y-863346D01*
X11449812Y-856335D01*
X11446459Y-849477D01*
X11442750Y-842873D01*
X11438636Y-836472D01*
X11434114Y-830326D01*
X11429238Y-824484D01*
X11423904Y-818845D01*
X11145875Y-540816D01*
X11143691Y-537514D01*
X11142929Y-533654D01*
X11142929Y-510590D01*
X11142218Y-504240D01*
X11140287Y-498805D01*
X11137188Y-493877D01*
X11133124Y-489813D01*
X11128197Y-486714D01*
X11122761Y-484784D01*
X11116411Y-484073D01*
X11077600Y-484073D01*
X11073993Y-483412D01*
X11064443Y-479806D01*
X11049711Y-476148D01*
X11034623Y-474319D01*
X11019383Y-474319D01*
X11004296Y-476148D01*
X10989564Y-479806D01*
X10980013Y-483412D01*
X10976406Y-484073D01*
X10937595Y-484073D01*
X10931245Y-484784D01*
X10925810Y-486714D01*
X10920882Y-489813D01*
X10916818Y-493877D01*
X10913719Y-498805D01*
X10911789Y-504240D01*
X10911078Y-510590D01*
X10911078Y-549402D01*
X10910417Y-553008D01*
X10909503Y-555447D01*
X10907318Y-558901D01*
X10903966Y-561187D01*
X10900003Y-562000D01*
X10896041Y-561187D01*
X10892688Y-558901D01*
X10890504Y-555447D01*
X10887811Y-548335D01*
X10880750Y-534873D01*
X10872114Y-522376D01*
X10862005Y-510997D01*
X10850626Y-500888D01*
X10838129Y-492251D01*
X10824667Y-485190D01*
X10810443Y-479806D01*
X10795711Y-476148D01*
X10780623Y-474319D01*
X10765383Y-474319D01*
X10750296Y-476148D01*
X10735564Y-479806D01*
X10721340Y-485190D01*
X10707878Y-492251D01*
X10695381Y-500888D01*
X10683748Y-511200D01*
X10376052Y-818845D01*
X10370769Y-824534D01*
X10365892Y-830376D01*
X10361371Y-836472D01*
X10357256Y-842873D01*
X10353497Y-849477D01*
X10350195Y-856335D01*
X10347299Y-863346D01*
X10344810Y-870559D01*
X10342778Y-877874D01*
X10341152Y-885291D01*
X10340035Y-892810D01*
X10339324Y-900379D01*
X10339070Y-908151D01*
X10339070Y-1399844D01*
X10339324Y-1407617D01*
X10340035Y-1415186D01*
X10341152Y-1422704D01*
X10342778Y-1430121D01*
X10344810Y-1437436D01*
X10347299Y-1444650D01*
X10350195Y-1451660D01*
X10353497Y-1458518D01*
X10357256Y-1465122D01*
X10361371Y-1471523D01*
X10365892Y-1477670D01*
X10370769Y-1483512D01*
X10376052Y-1489151D01*
X10771124Y-1884172D01*
X10773308Y-1887474D01*
X10774121Y-1891385D01*
X10774121Y-2146757D01*
X10773308Y-2150668D01*
X10771124Y-2153920D01*
X10767822Y-2156155D01*
X10763961Y-2156917D01*
X10760049Y-2156155D01*
X10756747Y-2153920D01*
X10752124Y-2149297D01*
X10747197Y-2146198D01*
X10741761Y-2144318D01*
X10735411Y-2143607D01*
X10556544Y-2143607D01*
X10550245Y-2144318D01*
X10544759Y-2146198D01*
X10539882Y-2149297D01*
X10535767Y-2153412D01*
X10532719Y-2158288D01*
X10530789Y-2163775D01*
X10530078Y-2170074D01*
X10530078Y-2428951D01*
X10530789Y-2435250D01*
X10532719Y-2440736D01*
X10535767Y-2445613D01*
X10539882Y-2449728D01*
X10544759Y-2452776D01*
X10550245Y-2454706D01*
X10556544Y-2455418D01*
X10596067Y-2455418D01*
X10599978Y-2456180D01*
X10603280Y-2458415D01*
X10605465Y-2461717D01*
X10606227Y-2465628D01*
X10604093Y-2764332D01*
X10603534Y-2767634D01*
X10601960Y-2770530D01*
X10449915Y-2963875D01*
X10446613Y-2966618D01*
X10442498Y-2967736D01*
X10438231Y-2967075D01*
X10435539Y-2966008D01*
X10419994Y-2961894D01*
X10404043Y-2959608D01*
X10387990Y-2959150D01*
X10371937Y-2960522D01*
X10356189Y-2963722D01*
X10340898Y-2968701D01*
X10326268Y-2975406D01*
X10312450Y-2983687D01*
X10299750Y-2993542D01*
X10288219Y-3004718D01*
X10278008Y-3017164D01*
X10269321Y-3030728D01*
X10262209Y-3045155D01*
X10256824Y-3060293D01*
X10253167Y-3075990D01*
X10251338Y-3091942D01*
X10251338Y-3108045D01*
X10253167Y-3124047D01*
X10256824Y-3139694D01*
X10262209Y-3154832D01*
X10269321Y-3169259D01*
X10278008Y-3182823D01*
X10288219Y-3195269D01*
X10299750Y-3206496D01*
X10312450Y-3216300D01*
X10326268Y-3224631D01*
X10340898Y-3231286D01*
X10356189Y-3236264D01*
X10371937Y-3239465D01*
G37*
G36*
X12387986Y-3240836D02*
G01*
X12404039Y-3240379D01*
X12419990Y-3238093D01*
X12435535Y-3233978D01*
X12450521Y-3228136D01*
X12464745Y-3220669D01*
X12478054Y-3211576D01*
X12490196Y-3201060D01*
X12501067Y-3189173D01*
X12510516Y-3176168D01*
X12518440Y-3162147D01*
X12524689Y-3147364D01*
X12529210Y-3131921D01*
X12531953Y-3116072D01*
X12532868Y-3100019D01*
X12531953Y-3083915D01*
X12529210Y-3068066D01*
X12524689Y-3052673D01*
X12519964Y-3041497D01*
X12519202Y-3037484D01*
X12520015Y-3033471D01*
X12522352Y-3030118D01*
X12675616Y-2885643D01*
X12681407Y-2878734D01*
X12684912Y-2872028D01*
X12687046Y-2864815D01*
X12687808Y-2856788D01*
X12685471Y-2465628D01*
X12686233Y-2461717D01*
X12688468Y-2458415D01*
X12691770Y-2456180D01*
X12695631Y-2455418D01*
X12735407Y-2455418D01*
X12741757Y-2454706D01*
X12747193Y-2452776D01*
X12752120Y-2449728D01*
X12756184Y-2445613D01*
X12759283Y-2440736D01*
X12761163Y-2435250D01*
X12761925Y-2428951D01*
X12761925Y-2345486D01*
X12762738Y-2341473D01*
X12765074Y-2338120D01*
X12768529Y-2335936D01*
X12772593Y-2335326D01*
X12776555Y-2336342D01*
X12779756Y-2338882D01*
X12781737Y-2342438D01*
X12783972Y-2347925D01*
X12784836Y-2351430D01*
X12785039Y-2354021D01*
X12787731Y-2368346D01*
X12792252Y-2382164D01*
X12798450Y-2395321D01*
X12806222Y-2407615D01*
X12815519Y-2418842D01*
X12826136Y-2428798D01*
X12837871Y-2437333D01*
X12850672Y-2444343D01*
X12864185Y-2449728D01*
X12878257Y-2453335D01*
X12892735Y-2455164D01*
X12907264Y-2455164D01*
X12921691Y-2453335D01*
X12935813Y-2449728D01*
X12949326Y-2444343D01*
X12962077Y-2437333D01*
X12973862Y-2428798D01*
X12984480Y-2418842D01*
X12993725Y-2407615D01*
X13001548Y-2395321D01*
X13007746Y-2382164D01*
X13012216Y-2368346D01*
X13014960Y-2354021D01*
X13015112Y-2351481D01*
X13016026Y-2347925D01*
X13017703Y-2344166D01*
X13022224Y-2329637D01*
X13024967Y-2314702D01*
X13025932Y-2299208D01*
X13025932Y-2239314D01*
X13026694Y-2235403D01*
X13028879Y-2232152D01*
X13032181Y-2229916D01*
X13036092Y-2229154D01*
X13102640Y-2229154D01*
X13102640Y-2156764D01*
X13091871Y-2162657D01*
X13080136Y-2171192D01*
X13069519Y-2181199D01*
X13060222Y-2192375D01*
X13052450Y-2204669D01*
X13046252Y-2217826D01*
X13045744Y-2219401D01*
X13043712Y-2222957D01*
X13040461Y-2225446D01*
X13036499Y-2226411D01*
X13032486Y-2225802D01*
X13029031Y-2223617D01*
X13026745Y-2220264D01*
X13025932Y-2216302D01*
X13025932Y-1835150D01*
X13025678Y-1827377D01*
X13024967Y-1819808D01*
X13023850Y-1812289D01*
X13022224Y-1804873D01*
X13020192Y-1797557D01*
X13017703Y-1790344D01*
X13014807Y-1783334D01*
X13011505Y-1776475D01*
X13007746Y-1769872D01*
X13003631Y-1763471D01*
X12999110Y-1757375D01*
X12994233Y-1751533D01*
X12988899Y-1745843D01*
X12593878Y-1350822D01*
X12591694Y-1347520D01*
X12590932Y-1343660D01*
X12590932Y-964336D01*
X12591694Y-960475D01*
X12593878Y-957173D01*
X12861798Y-689254D01*
X12872110Y-677621D01*
X12880746Y-665124D01*
X12887807Y-651662D01*
X12890500Y-644550D01*
X12892684Y-641096D01*
X12896037Y-638810D01*
X12899999Y-637997D01*
X12903962Y-638810D01*
X12907314Y-641096D01*
X12909499Y-644550D01*
X12910413Y-646988D01*
X12911074Y-650595D01*
X12911074Y-689406D01*
X12911785Y-695756D01*
X12913715Y-701192D01*
X12916814Y-706120D01*
X12920878Y-710184D01*
X12925806Y-713282D01*
X12931241Y-715213D01*
X12937591Y-715924D01*
X12960654Y-715924D01*
X12964515Y-716686D01*
X12967817Y-718870D01*
X13206120Y-957173D01*
X13208304Y-960475D01*
X13209117Y-964336D01*
X13209117Y-1399692D01*
X13210032Y-1415186D01*
X13212775Y-1430121D01*
X13217296Y-1444650D01*
X13223544Y-1458518D01*
X13231418Y-1471523D01*
X13240766Y-1483461D01*
X13251535Y-1494231D01*
X13263473Y-1503629D01*
X13276478Y-1511452D01*
X13290346Y-1517700D01*
X13304875Y-1522222D01*
X13319810Y-1524965D01*
X13335000Y-1525879D01*
X13350189Y-1524965D01*
X13365124Y-1522222D01*
X13379653Y-1517700D01*
X13393521Y-1511452D01*
X13406526Y-1503629D01*
X13418464Y-1494231D01*
X13429234Y-1483461D01*
X13438581Y-1471523D01*
X13446455Y-1458518D01*
X13452703Y-1444650D01*
X13457224Y-1430121D01*
X13459968Y-1415186D01*
X13460933Y-1399692D01*
X13460933Y-908151D01*
X13460679Y-900379D01*
X13459968Y-892810D01*
X13458850Y-885291D01*
X13457224Y-877874D01*
X13455192Y-870559D01*
X13452703Y-863346D01*
X13449807Y-856335D01*
X13446506Y-849477D01*
X13442746Y-842873D01*
X13438632Y-836472D01*
X13434110Y-830376D01*
X13429234Y-824534D01*
X13423900Y-818845D01*
X13145871Y-540816D01*
X13143687Y-537514D01*
X13142925Y-533654D01*
X13142925Y-510590D01*
X13142213Y-504240D01*
X13140283Y-498805D01*
X13137184Y-493877D01*
X13133120Y-489813D01*
X13128193Y-486714D01*
X13122757Y-484784D01*
X13116407Y-484073D01*
X13077596Y-484073D01*
X13073989Y-483412D01*
X13064439Y-479806D01*
X13049707Y-476148D01*
X13034619Y-474319D01*
X13019379Y-474319D01*
X13004292Y-476148D01*
X12989560Y-479806D01*
X12980009Y-483412D01*
X12976402Y-484073D01*
X12937591Y-484073D01*
X12931241Y-484784D01*
X12925806Y-486714D01*
X12920878Y-489813D01*
X12916814Y-493877D01*
X12913715Y-498805D01*
X12911785Y-504240D01*
X12911074Y-510590D01*
X12911074Y-549402D01*
X12910413Y-553008D01*
X12909499Y-555447D01*
X12907314Y-558901D01*
X12903962Y-561187D01*
X12899999Y-562000D01*
X12896037Y-561187D01*
X12892684Y-558901D01*
X12890500Y-555447D01*
X12887807Y-548335D01*
X12880746Y-534873D01*
X12872110Y-522376D01*
X12862001Y-510997D01*
X12850622Y-500888D01*
X12838125Y-492251D01*
X12824663Y-485190D01*
X12810439Y-479806D01*
X12795707Y-476148D01*
X12780619Y-474319D01*
X12765379Y-474319D01*
X12750292Y-476148D01*
X12735560Y-479806D01*
X12721336Y-485190D01*
X12707874Y-492251D01*
X12695377Y-500888D01*
X12683744Y-511200D01*
X12376099Y-818845D01*
X12370765Y-824534D01*
X12365888Y-830376D01*
X12361367Y-836472D01*
X12357252Y-842873D01*
X12353493Y-849477D01*
X12350191Y-856335D01*
X12347295Y-863346D01*
X12344806Y-870559D01*
X12342774Y-877874D01*
X12341148Y-885291D01*
X12340031Y-892810D01*
X12339320Y-900379D01*
X12339116Y-908151D01*
X12339116Y-1399844D01*
X12339320Y-1407617D01*
X12340031Y-1415186D01*
X12341148Y-1422704D01*
X12342774Y-1430121D01*
X12344806Y-1437436D01*
X12347295Y-1444650D01*
X12350191Y-1451660D01*
X12353493Y-1458518D01*
X12357252Y-1465122D01*
X12361367Y-1471523D01*
X12365888Y-1477670D01*
X12370765Y-1483512D01*
X12376099Y-1489151D01*
X12771120Y-1884172D01*
X12773304Y-1887474D01*
X12774117Y-1891385D01*
X12774117Y-2146757D01*
X12773304Y-2150668D01*
X12771120Y-2153920D01*
X12767818Y-2156155D01*
X12763957Y-2156917D01*
X12760045Y-2156155D01*
X12756743Y-2153920D01*
X12752120Y-2149297D01*
X12747193Y-2146198D01*
X12741757Y-2144318D01*
X12735407Y-2143607D01*
X12556540Y-2143607D01*
X12550241Y-2144318D01*
X12544755Y-2146198D01*
X12539878Y-2149297D01*
X12535763Y-2153412D01*
X12532715Y-2158288D01*
X12530785Y-2163775D01*
X12530074Y-2170074D01*
X12530074Y-2428951D01*
X12530785Y-2435250D01*
X12532715Y-2440736D01*
X12535763Y-2445613D01*
X12539878Y-2449728D01*
X12544755Y-2452776D01*
X12550241Y-2454706D01*
X12556540Y-2455418D01*
X12598095Y-2455418D01*
X12602006Y-2456180D01*
X12605258Y-2458364D01*
X12607493Y-2461666D01*
X12608255Y-2465527D01*
X12610490Y-2836519D01*
X12609626Y-2840583D01*
X12607290Y-2843987D01*
X12469368Y-2973984D01*
X12465812Y-2976168D01*
X12461646Y-2976727D01*
X12457633Y-2975610D01*
X12450521Y-2971850D01*
X12435535Y-2966008D01*
X12419990Y-2961894D01*
X12404039Y-2959608D01*
X12387986Y-2959150D01*
X12371933Y-2960522D01*
X12356185Y-2963722D01*
X12340894Y-2968701D01*
X12326264Y-2975406D01*
X12312497Y-2983687D01*
X12299746Y-2993542D01*
X12288215Y-3004718D01*
X12278004Y-3017164D01*
X12269317Y-3030728D01*
X12262205Y-3045155D01*
X12256820Y-3060293D01*
X12253163Y-3075990D01*
X12251334Y-3091942D01*
X12251334Y-3108045D01*
X12253163Y-3124047D01*
X12256820Y-3139694D01*
X12262205Y-3154832D01*
X12269317Y-3169259D01*
X12278004Y-3182823D01*
X12288215Y-3195269D01*
X12299746Y-3206496D01*
X12312497Y-3216300D01*
X12326264Y-3224631D01*
X12340894Y-3231286D01*
X12356185Y-3236264D01*
X12371933Y-3239465D01*
G37*
G36*
X2387955Y-3240836D02*
G01*
X2404059Y-3240379D01*
X2419959Y-3238093D01*
X2435555Y-3233978D01*
X2450541Y-3228136D01*
X2464765Y-3220669D01*
X2478024Y-3211576D01*
X2490216Y-3201060D01*
X2501087Y-3189173D01*
X2510536Y-3176168D01*
X2518410Y-3162147D01*
X2524709Y-3147364D01*
X2529230Y-3131921D01*
X2531973Y-3116072D01*
X2532888Y-3100019D01*
X2531973Y-3083915D01*
X2529230Y-3068066D01*
X2524709Y-3052673D01*
X2519070Y-3039364D01*
X2518308Y-3035401D01*
X2519070Y-3031490D01*
X2521356Y-3028137D01*
X2668168Y-2885541D01*
X2673350Y-2879394D01*
X2677007Y-2872790D01*
X2679293Y-2865577D01*
X2680208Y-2857296D01*
X2683306Y-2465476D01*
X2684068Y-2461615D01*
X2686304Y-2458364D01*
X2689606Y-2456180D01*
X2693466Y-2455418D01*
X2735427Y-2455418D01*
X2741726Y-2454706D01*
X2747213Y-2452776D01*
X2752090Y-2449728D01*
X2756204Y-2445613D01*
X2759252Y-2440736D01*
X2761183Y-2435250D01*
X2761894Y-2428951D01*
X2761894Y-2345486D01*
X2762707Y-2341473D01*
X2765044Y-2338120D01*
X2768549Y-2335936D01*
X2772562Y-2335326D01*
X2776524Y-2336393D01*
X2779776Y-2338882D01*
X2781757Y-2342489D01*
X2783992Y-2347925D01*
X2784856Y-2351430D01*
X2785008Y-2354021D01*
X2787751Y-2368346D01*
X2792222Y-2382164D01*
X2798419Y-2395321D01*
X2806242Y-2407615D01*
X2815488Y-2418842D01*
X2826105Y-2428798D01*
X2837891Y-2437333D01*
X2850642Y-2444343D01*
X2864205Y-2449728D01*
X2878277Y-2453335D01*
X2892704Y-2455164D01*
X2907284Y-2455164D01*
X2921711Y-2453335D01*
X2935782Y-2449728D01*
X2949346Y-2444343D01*
X2962097Y-2437333D01*
X2973882Y-2428798D01*
X2984449Y-2418842D01*
X2993745Y-2407615D01*
X3001568Y-2395321D01*
X3007766Y-2382164D01*
X3012236Y-2368346D01*
X3014980Y-2354021D01*
X3015132Y-2351481D01*
X3015996Y-2347925D01*
X3017723Y-2344166D01*
X3022244Y-2329637D01*
X3024987Y-2314702D01*
X3025902Y-2299208D01*
X3025902Y-2239314D01*
X3026664Y-2235403D01*
X3028899Y-2232152D01*
X3032150Y-2229916D01*
X3036062Y-2229154D01*
X3102660Y-2229154D01*
X3102660Y-2156764D01*
X3091891Y-2162657D01*
X3080105Y-2171192D01*
X3069488Y-2181199D01*
X3060242Y-2192375D01*
X3052419Y-2204669D01*
X3046222Y-2217826D01*
X3045714Y-2219452D01*
X3043732Y-2222957D01*
X3040481Y-2225446D01*
X3036519Y-2226462D01*
X3032506Y-2225802D01*
X3029051Y-2223617D01*
X3026714Y-2220315D01*
X3025902Y-2216302D01*
X3025902Y-1835150D01*
X3025648Y-1827377D01*
X3024987Y-1819808D01*
X3023819Y-1812289D01*
X3022244Y-1804873D01*
X3020212Y-1797557D01*
X3017723Y-1790344D01*
X3014827Y-1783334D01*
X3011474Y-1776475D01*
X3007715Y-1769872D01*
X3003600Y-1763471D01*
X2999079Y-1757324D01*
X2994253Y-1751482D01*
X2988919Y-1745843D01*
X2593898Y-1350822D01*
X2591663Y-1347520D01*
X2590901Y-1343660D01*
X2590901Y-964336D01*
X2591663Y-960475D01*
X2593898Y-957173D01*
X2861818Y-689254D01*
X2872079Y-677621D01*
X2880715Y-665124D01*
X2887776Y-651662D01*
X2890469Y-644550D01*
X2892653Y-641096D01*
X2896006Y-638810D01*
X2900019Y-637997D01*
X2903982Y-638810D01*
X2907334Y-641096D01*
X2909519Y-644550D01*
X2910433Y-646988D01*
X2911094Y-650595D01*
X2911094Y-689406D01*
X2911805Y-695756D01*
X2913735Y-701192D01*
X2916783Y-706120D01*
X2920898Y-710184D01*
X2925775Y-713282D01*
X2931261Y-715213D01*
X2937560Y-715924D01*
X2960624Y-715924D01*
X2964535Y-716686D01*
X2967837Y-718870D01*
X3206140Y-957173D01*
X3208324Y-960475D01*
X3209086Y-964387D01*
X3209086Y-1399692D01*
X3210052Y-1415186D01*
X3212795Y-1430121D01*
X3217316Y-1444650D01*
X3223514Y-1458518D01*
X3231388Y-1471523D01*
X3240786Y-1483461D01*
X3251504Y-1494231D01*
X3263493Y-1503629D01*
X3276498Y-1511452D01*
X3290366Y-1517700D01*
X3304895Y-1522222D01*
X3319830Y-1524965D01*
X3335020Y-1525879D01*
X3350158Y-1524965D01*
X3365144Y-1522222D01*
X3379622Y-1517700D01*
X3393490Y-1511452D01*
X3406495Y-1503629D01*
X3418484Y-1494231D01*
X3429254Y-1483461D01*
X3438601Y-1471523D01*
X3446475Y-1458518D01*
X3452723Y-1444650D01*
X3457244Y-1430121D01*
X3459987Y-1415186D01*
X3460902Y-1399692D01*
X3460902Y-908151D01*
X3460699Y-900430D01*
X3459987Y-892810D01*
X3458870Y-885291D01*
X3457244Y-877874D01*
X3455212Y-870559D01*
X3452723Y-863346D01*
X3449828Y-856335D01*
X3446475Y-849477D01*
X3442766Y-842873D01*
X3438601Y-836472D01*
X3434130Y-830376D01*
X3429254Y-824534D01*
X3423920Y-818896D01*
X3145891Y-540816D01*
X3143656Y-537514D01*
X3142894Y-533654D01*
X3142894Y-510590D01*
X3142183Y-504240D01*
X3140303Y-498805D01*
X3137204Y-493877D01*
X3133090Y-489813D01*
X3128213Y-486714D01*
X3122726Y-484784D01*
X3116427Y-484073D01*
X3077616Y-484073D01*
X3074009Y-483412D01*
X3064459Y-479806D01*
X3049676Y-476148D01*
X3034588Y-474319D01*
X3019399Y-474319D01*
X3004312Y-476148D01*
X2989529Y-479806D01*
X2979978Y-483412D01*
X2976372Y-484073D01*
X2937560Y-484073D01*
X2931261Y-484784D01*
X2925775Y-486714D01*
X2920898Y-489813D01*
X2916783Y-493877D01*
X2913735Y-498805D01*
X2911805Y-504240D01*
X2911094Y-510590D01*
X2911094Y-549402D01*
X2910433Y-553008D01*
X2909519Y-555447D01*
X2907334Y-558901D01*
X2903982Y-561187D01*
X2900019Y-562000D01*
X2896006Y-561187D01*
X2892653Y-558901D01*
X2890469Y-555447D01*
X2887776Y-548335D01*
X2880715Y-534873D01*
X2872079Y-522376D01*
X2862021Y-510997D01*
X2850642Y-500888D01*
X2838145Y-492251D01*
X2824683Y-485190D01*
X2810459Y-479806D01*
X2795676Y-476148D01*
X2780588Y-474319D01*
X2765399Y-474319D01*
X2750312Y-476148D01*
X2735529Y-479806D01*
X2721305Y-485190D01*
X2707843Y-492251D01*
X2695346Y-500888D01*
X2683764Y-511200D01*
X2376068Y-818845D01*
X2370785Y-824484D01*
X2365908Y-830326D01*
X2361387Y-836472D01*
X2357272Y-842873D01*
X2353513Y-849477D01*
X2350211Y-856335D01*
X2347264Y-863346D01*
X2344826Y-870508D01*
X2342743Y-877874D01*
X2341168Y-885291D01*
X2340000Y-892810D01*
X2339340Y-900379D01*
X2339086Y-908151D01*
X2339086Y-1399844D01*
X2339340Y-1407617D01*
X2340000Y-1415186D01*
X2341168Y-1422704D01*
X2342743Y-1430121D01*
X2344826Y-1437436D01*
X2347264Y-1444650D01*
X2350211Y-1451660D01*
X2353513Y-1458518D01*
X2357272Y-1465122D01*
X2361387Y-1471523D01*
X2365908Y-1477670D01*
X2370785Y-1483512D01*
X2376068Y-1489151D01*
X2771089Y-1884172D01*
X2773324Y-1887474D01*
X2774086Y-1891334D01*
X2774086Y-2146757D01*
X2773324Y-2150618D01*
X2771089Y-2153920D01*
X2767838Y-2156155D01*
X2763926Y-2156917D01*
X2760014Y-2156155D01*
X2756763Y-2153920D01*
X2752090Y-2149297D01*
X2747213Y-2146198D01*
X2741726Y-2144318D01*
X2735427Y-2143607D01*
X2556560Y-2143607D01*
X2550261Y-2144318D01*
X2544775Y-2146198D01*
X2539898Y-2149297D01*
X2535783Y-2153412D01*
X2532684Y-2158288D01*
X2530805Y-2163775D01*
X2530094Y-2170074D01*
X2530094Y-2428951D01*
X2530805Y-2435250D01*
X2532684Y-2440736D01*
X2535783Y-2445613D01*
X2539898Y-2449728D01*
X2544775Y-2452776D01*
X2550261Y-2454706D01*
X2556560Y-2455418D01*
X2595930Y-2455418D01*
X2599842Y-2456180D01*
X2603144Y-2458415D01*
X2605328Y-2461717D01*
X2606090Y-2465628D01*
X2603144Y-2836824D01*
X2602331Y-2840736D01*
X2600096Y-2844038D01*
X2467457Y-2972866D01*
X2463901Y-2975102D01*
X2459736Y-2975711D01*
X2455672Y-2974543D01*
X2450541Y-2971850D01*
X2435555Y-2966008D01*
X2419959Y-2961894D01*
X2404059Y-2959608D01*
X2387955Y-2959150D01*
X2371953Y-2960522D01*
X2356205Y-2963722D01*
X2340864Y-2968701D01*
X2326233Y-2975406D01*
X2312466Y-2983687D01*
X2299716Y-2993542D01*
X2288184Y-3004718D01*
X2278024Y-3017164D01*
X2269337Y-3030728D01*
X2262225Y-3045155D01*
X2256790Y-3060293D01*
X2253183Y-3075990D01*
X2251354Y-3091942D01*
X2251354Y-3108045D01*
X2253183Y-3124047D01*
X2256790Y-3139694D01*
X2262225Y-3154832D01*
X2269337Y-3169259D01*
X2278024Y-3182823D01*
X2288184Y-3195269D01*
X2299716Y-3206496D01*
X2312466Y-3216300D01*
X2326233Y-3224631D01*
X2340864Y-3231286D01*
X2356205Y-3236264D01*
X2371953Y-3239465D01*
G37*
G36*
X4388002Y-3240836D02*
G01*
X4404055Y-3240379D01*
X4419955Y-3238093D01*
X4435551Y-3233978D01*
X4450537Y-3228136D01*
X4464761Y-3220669D01*
X4478020Y-3211576D01*
X4490212Y-3201060D01*
X4501083Y-3189173D01*
X4510532Y-3176168D01*
X4518456Y-3162147D01*
X4524705Y-3147364D01*
X4529226Y-3131921D01*
X4531969Y-3116072D01*
X4532884Y-3100019D01*
X4531969Y-3083915D01*
X4529226Y-3068066D01*
X4524705Y-3052673D01*
X4518355Y-3037636D01*
X4517542Y-3033725D01*
X4518304Y-3029813D01*
X4520539Y-3026460D01*
X4662424Y-2885186D01*
X4667148Y-2879547D01*
X4670856Y-2872943D01*
X4673193Y-2865729D01*
X4674108Y-2857703D01*
X4681474Y-2465374D01*
X4682337Y-2461564D01*
X4684522Y-2458313D01*
X4687824Y-2456180D01*
X4691634Y-2455418D01*
X4735423Y-2455418D01*
X4741722Y-2454706D01*
X4747209Y-2452776D01*
X4752086Y-2449728D01*
X4756200Y-2445613D01*
X4759299Y-2440736D01*
X4761179Y-2435250D01*
X4761890Y-2428951D01*
X4761890Y-2345486D01*
X4762703Y-2341473D01*
X4765040Y-2338120D01*
X4768545Y-2335987D01*
X4772609Y-2335377D01*
X4776571Y-2336393D01*
X4779772Y-2338882D01*
X4781753Y-2342489D01*
X4783988Y-2347925D01*
X4784852Y-2351481D01*
X4785004Y-2354021D01*
X4787747Y-2368346D01*
X4792218Y-2382164D01*
X4798415Y-2395321D01*
X4806238Y-2407615D01*
X4815535Y-2418842D01*
X4826101Y-2428798D01*
X4837887Y-2437333D01*
X4850638Y-2444343D01*
X4864201Y-2449728D01*
X4878273Y-2453335D01*
X4892700Y-2455164D01*
X4907280Y-2455164D01*
X4921707Y-2453335D01*
X4935778Y-2449728D01*
X4949342Y-2444343D01*
X4962093Y-2437333D01*
X4973878Y-2428798D01*
X4984496Y-2418842D01*
X4993741Y-2407615D01*
X5001564Y-2395321D01*
X5007762Y-2382164D01*
X5012232Y-2368346D01*
X5014976Y-2354021D01*
X5015128Y-2351430D01*
X5015992Y-2347925D01*
X5017719Y-2344166D01*
X5022240Y-2329637D01*
X5024983Y-2314702D01*
X5025898Y-2299208D01*
X5025898Y-2239314D01*
X5026660Y-2235403D01*
X5028895Y-2232152D01*
X5032146Y-2229916D01*
X5036058Y-2229154D01*
X5102656Y-2229154D01*
X5102656Y-2156764D01*
X5091887Y-2162657D01*
X5080101Y-2171192D01*
X5069535Y-2181199D01*
X5060238Y-2192375D01*
X5052415Y-2204669D01*
X5046218Y-2217826D01*
X5045710Y-2219452D01*
X5043728Y-2223008D01*
X5040477Y-2225446D01*
X5036515Y-2226462D01*
X5032502Y-2225802D01*
X5029047Y-2223668D01*
X5026710Y-2220315D01*
X5025898Y-2216302D01*
X5025898Y-1835150D01*
X5025644Y-1827377D01*
X5024983Y-1819808D01*
X5023815Y-1812289D01*
X5022240Y-1804873D01*
X5020208Y-1797507D01*
X5017719Y-1790344D01*
X5014823Y-1783334D01*
X5011470Y-1776475D01*
X5007711Y-1769872D01*
X5003596Y-1763471D01*
X4999075Y-1757324D01*
X4994249Y-1751482D01*
X4988915Y-1745843D01*
X4593894Y-1350822D01*
X4591710Y-1347520D01*
X4590897Y-1343660D01*
X4590897Y-964336D01*
X4591710Y-960475D01*
X4593894Y-957173D01*
X4861814Y-689254D01*
X4872075Y-677621D01*
X4880711Y-665124D01*
X4887772Y-651662D01*
X4890465Y-644550D01*
X4892649Y-641096D01*
X4896002Y-638810D01*
X4900015Y-637997D01*
X4903978Y-638810D01*
X4907330Y-641096D01*
X4909515Y-644550D01*
X4910429Y-647039D01*
X4911090Y-650646D01*
X4911090Y-689406D01*
X4911801Y-695756D01*
X4913731Y-701192D01*
X4916779Y-706120D01*
X4920894Y-710184D01*
X4925771Y-713282D01*
X4931257Y-715213D01*
X4937556Y-715924D01*
X4960620Y-715924D01*
X4964531Y-716686D01*
X4967833Y-718870D01*
X5206136Y-957173D01*
X5208320Y-960475D01*
X5209082Y-964387D01*
X5209082Y-1399692D01*
X5210048Y-1415186D01*
X5212791Y-1430121D01*
X5217312Y-1444650D01*
X5223560Y-1458518D01*
X5231384Y-1471523D01*
X5240782Y-1483461D01*
X5251551Y-1494231D01*
X5263489Y-1503629D01*
X5276494Y-1511452D01*
X5290362Y-1517700D01*
X5304891Y-1522222D01*
X5319826Y-1524965D01*
X5335016Y-1525879D01*
X5350205Y-1524965D01*
X5365140Y-1522222D01*
X5379669Y-1517700D01*
X5393537Y-1511452D01*
X5406542Y-1503629D01*
X5418480Y-1494231D01*
X5429250Y-1483461D01*
X5438597Y-1471523D01*
X5446471Y-1458518D01*
X5452719Y-1444650D01*
X5457240Y-1430121D01*
X5459984Y-1415186D01*
X5460898Y-1399692D01*
X5460898Y-908151D01*
X5460695Y-900430D01*
X5459984Y-892860D01*
X5458866Y-885342D01*
X5457240Y-877874D01*
X5455208Y-870559D01*
X5452719Y-863396D01*
X5449824Y-856335D01*
X5446471Y-849528D01*
X5442762Y-842873D01*
X5438648Y-836523D01*
X5434126Y-830376D01*
X5429250Y-824534D01*
X5423916Y-818896D01*
X5145887Y-540816D01*
X5143703Y-537514D01*
X5142890Y-533654D01*
X5142890Y-510590D01*
X5142179Y-504240D01*
X5140299Y-498805D01*
X5137200Y-493877D01*
X5133136Y-489813D01*
X5128209Y-486714D01*
X5122773Y-484784D01*
X5116423Y-484073D01*
X5077612Y-484073D01*
X5074005Y-483412D01*
X5064455Y-479806D01*
X5049672Y-476148D01*
X5034584Y-474319D01*
X5019395Y-474319D01*
X5004308Y-476148D01*
X4989525Y-479806D01*
X4979974Y-483412D01*
X4976368Y-484073D01*
X4937556Y-484073D01*
X4931257Y-484784D01*
X4925771Y-486714D01*
X4920894Y-489813D01*
X4916779Y-493877D01*
X4913731Y-498805D01*
X4911801Y-504240D01*
X4911090Y-510590D01*
X4911090Y-549351D01*
X4910429Y-552958D01*
X4909515Y-555447D01*
X4907330Y-558901D01*
X4903978Y-561187D01*
X4900015Y-562000D01*
X4896002Y-561187D01*
X4892649Y-558901D01*
X4890465Y-555447D01*
X4887772Y-548335D01*
X4880711Y-534873D01*
X4872075Y-522376D01*
X4862017Y-510997D01*
X4850638Y-500888D01*
X4838141Y-492251D01*
X4824679Y-485190D01*
X4810455Y-479806D01*
X4795672Y-476148D01*
X4780584Y-474319D01*
X4765395Y-474319D01*
X4750308Y-476148D01*
X4735525Y-479806D01*
X4721301Y-485190D01*
X4707839Y-492251D01*
X4695342Y-500888D01*
X4683760Y-511200D01*
X4376064Y-818845D01*
X4370781Y-824484D01*
X4365904Y-830326D01*
X4361383Y-836472D01*
X4357268Y-842822D01*
X4353509Y-849477D01*
X4350207Y-856284D01*
X4347311Y-863346D01*
X4344822Y-870508D01*
X4342790Y-877824D01*
X4341164Y-885291D01*
X4340047Y-892810D01*
X4339336Y-900379D01*
X4339082Y-908151D01*
X4339082Y-1399844D01*
X4339336Y-1407617D01*
X4340047Y-1415186D01*
X4341164Y-1422704D01*
X4342790Y-1430121D01*
X4344822Y-1437436D01*
X4347311Y-1444650D01*
X4350207Y-1451660D01*
X4353509Y-1458518D01*
X4357268Y-1465122D01*
X4361383Y-1471523D01*
X4365904Y-1477670D01*
X4370781Y-1483512D01*
X4376064Y-1489151D01*
X4771085Y-1884172D01*
X4773320Y-1887474D01*
X4774082Y-1891334D01*
X4774082Y-2146757D01*
X4773320Y-2150618D01*
X4771085Y-2153920D01*
X4767834Y-2156155D01*
X4763922Y-2156917D01*
X4760010Y-2156155D01*
X4756759Y-2153920D01*
X4752086Y-2149297D01*
X4747209Y-2146198D01*
X4741722Y-2144318D01*
X4735423Y-2143607D01*
X4556556Y-2143607D01*
X4550257Y-2144318D01*
X4544771Y-2146198D01*
X4539894Y-2149297D01*
X4535779Y-2153412D01*
X4532731Y-2158288D01*
X4530801Y-2163775D01*
X4530090Y-2170074D01*
X4530090Y-2428951D01*
X4530801Y-2435250D01*
X4532731Y-2440736D01*
X4535779Y-2445613D01*
X4539894Y-2449728D01*
X4544771Y-2452776D01*
X4550257Y-2454706D01*
X4556556Y-2455418D01*
X4594098Y-2455418D01*
X4598009Y-2456180D01*
X4601362Y-2458466D01*
X4603546Y-2461818D01*
X4604258Y-2465781D01*
X4597247Y-2837078D01*
X4596434Y-2840837D01*
X4594301Y-2844038D01*
X4465929Y-2971901D01*
X4462322Y-2974187D01*
X4458106Y-2974848D01*
X4453991Y-2973679D01*
X4450537Y-2971850D01*
X4435551Y-2966008D01*
X4419955Y-2961894D01*
X4404055Y-2959608D01*
X4388002Y-2959150D01*
X4371949Y-2960522D01*
X4356201Y-2963722D01*
X4340860Y-2968701D01*
X4326229Y-2975406D01*
X4312462Y-2983687D01*
X4299712Y-2993542D01*
X4288180Y-3004718D01*
X4278020Y-3017164D01*
X4269333Y-3030728D01*
X4262221Y-3045155D01*
X4256836Y-3060293D01*
X4253179Y-3075990D01*
X4251350Y-3091942D01*
X4251350Y-3108045D01*
X4253179Y-3124047D01*
X4256836Y-3139694D01*
X4262221Y-3154832D01*
X4269333Y-3169259D01*
X4278020Y-3182823D01*
X4288180Y-3195269D01*
X4299712Y-3206496D01*
X4312462Y-3216300D01*
X4326229Y-3224631D01*
X4340860Y-3231286D01*
X4356201Y-3236264D01*
X4371949Y-3239465D01*
G37*
G36*
X16087547Y-3193186D02*
G01*
X16143630Y-3193186D01*
X16143630Y-3137103D01*
X16141496Y-3138068D01*
X16128492Y-3145942D01*
X16116503Y-3155340D01*
X16105784Y-3166059D01*
X16096386Y-3178048D01*
X16088512Y-3191052D01*
G37*
G36*
X16256355Y-3193186D02*
G01*
X16312438Y-3193186D01*
X16311473Y-3191052D01*
X16303599Y-3178048D01*
X16294252Y-3166059D01*
X16283482Y-3155340D01*
X16271494Y-3145942D01*
X16258489Y-3138068D01*
X16256355Y-3137103D01*
G37*
G36*
X7205319Y-2465273D02*
G01*
X7216089Y-2459329D01*
X7227874Y-2450795D01*
X7238492Y-2440838D01*
X7247737Y-2429611D01*
X7255560Y-2417318D01*
X7261758Y-2404160D01*
X7265416Y-2392832D01*
X7205319Y-2392832D01*
G37*
G36*
X7102652Y-2465273D02*
G01*
X7102652Y-2392832D01*
X7042556Y-2392832D01*
X7046264Y-2404160D01*
X7052462Y-2417318D01*
X7060234Y-2429611D01*
X7069531Y-2440838D01*
X7080097Y-2450795D01*
X7091883Y-2459329D01*
G37*
G36*
X9102648Y-2444242D02*
G01*
X9102648Y-2371852D01*
X9042552Y-2371852D01*
X9046260Y-2383180D01*
X9052458Y-2396337D01*
X9060230Y-2408631D01*
X9069527Y-2419858D01*
X9080144Y-2429814D01*
X9091879Y-2438349D01*
G37*
G36*
X13102640Y-2444242D02*
G01*
X13102640Y-2371852D01*
X13042544Y-2371852D01*
X13046252Y-2383180D01*
X13052450Y-2396337D01*
X13060222Y-2408631D01*
X13069519Y-2419858D01*
X13080136Y-2429814D01*
X13091871Y-2438349D01*
G37*
G36*
X3102660Y-2444242D02*
G01*
X3102660Y-2371852D01*
X3042564Y-2371852D01*
X3046222Y-2383180D01*
X3052419Y-2396337D01*
X3060242Y-2408631D01*
X3069488Y-2419858D01*
X3080105Y-2429814D01*
X3091891Y-2438349D01*
G37*
G36*
X5205323Y-2444242D02*
G01*
X5216093Y-2438349D01*
X5227878Y-2429814D01*
X5238496Y-2419858D01*
X5247741Y-2408631D01*
X5255564Y-2396337D01*
X5261762Y-2383180D01*
X5265420Y-2371852D01*
X5205323Y-2371852D01*
G37*
G36*
X15102636Y-2444242D02*
G01*
X15102636Y-2371852D01*
X15042591Y-2371852D01*
X15046248Y-2383180D01*
X15052446Y-2396337D01*
X15060218Y-2408631D01*
X15069515Y-2419858D01*
X15080132Y-2429814D01*
X15091918Y-2438349D01*
G37*
G36*
X3205327Y-2444242D02*
G01*
X3216097Y-2438349D01*
X3227882Y-2429814D01*
X3238449Y-2419858D01*
X3247745Y-2408631D01*
X3255568Y-2396337D01*
X3261766Y-2383180D01*
X3265424Y-2371852D01*
X3205327Y-2371852D01*
G37*
G36*
X5102656Y-2444242D02*
G01*
X5102656Y-2371852D01*
X5042560Y-2371852D01*
X5046218Y-2383180D01*
X5052415Y-2396337D01*
X5060238Y-2408631D01*
X5069535Y-2419858D01*
X5080101Y-2429814D01*
X5091887Y-2438349D01*
G37*
G36*
X9205366Y-2444242D02*
G01*
X9216085Y-2438349D01*
X9227870Y-2429814D01*
X9238488Y-2419858D01*
X9247733Y-2408631D01*
X9255556Y-2396337D01*
X9261754Y-2383180D01*
X9265412Y-2371852D01*
X9205366Y-2371852D01*
G37*
G36*
X15205354Y-2444242D02*
G01*
X15216073Y-2438349D01*
X15227858Y-2429814D01*
X15238476Y-2419858D01*
X15247772Y-2408631D01*
X15255544Y-2396337D01*
X15261742Y-2383180D01*
X15265400Y-2371852D01*
X15205354Y-2371852D01*
G37*
G36*
X11205362Y-2444242D02*
G01*
X11216081Y-2438349D01*
X11227866Y-2429814D01*
X11238484Y-2419858D01*
X11247729Y-2408631D01*
X11255552Y-2396337D01*
X11261750Y-2383180D01*
X11265408Y-2371852D01*
X11205362Y-2371852D01*
G37*
G36*
X11102644Y-2444242D02*
G01*
X11102644Y-2371852D01*
X11042548Y-2371852D01*
X11046256Y-2383180D01*
X11052454Y-2396337D01*
X11060226Y-2408631D01*
X11069523Y-2419858D01*
X11080140Y-2429814D01*
X11091875Y-2438349D01*
G37*
G36*
X13205358Y-2444242D02*
G01*
X13216077Y-2438349D01*
X13227862Y-2429814D01*
X13238480Y-2419858D01*
X13247725Y-2408631D01*
X13255548Y-2396337D01*
X13261746Y-2383180D01*
X13265404Y-2371852D01*
X13205358Y-2371852D01*
G37*
G36*
X7205319Y-2250135D02*
G01*
X7265416Y-2250135D01*
X7261758Y-2238857D01*
X7255560Y-2225700D01*
X7247737Y-2213406D01*
X7238492Y-2202180D01*
X7227874Y-2192223D01*
X7216089Y-2183638D01*
X7205319Y-2177745D01*
G37*
G36*
X3205327Y-2229154D02*
G01*
X3265424Y-2229154D01*
X3261766Y-2217826D01*
X3255568Y-2204669D01*
X3247745Y-2192375D01*
X3238449Y-2181199D01*
X3227882Y-2171192D01*
X3216097Y-2162657D01*
X3205327Y-2156764D01*
G37*
G36*
X5205323Y-2229154D02*
G01*
X5265420Y-2229154D01*
X5261762Y-2217826D01*
X5255564Y-2204669D01*
X5247741Y-2192375D01*
X5238496Y-2181199D01*
X5227878Y-2171192D01*
X5216093Y-2162657D01*
X5205323Y-2156764D01*
G37*
G36*
X9205366Y-2229154D02*
G01*
X9265412Y-2229154D01*
X9261754Y-2217826D01*
X9255556Y-2204669D01*
X9247733Y-2192375D01*
X9238488Y-2181199D01*
X9227870Y-2171192D01*
X9216085Y-2162657D01*
X9205366Y-2156764D01*
G37*
G36*
X11205362Y-2229154D02*
G01*
X11265408Y-2229154D01*
X11261750Y-2217826D01*
X11255552Y-2204669D01*
X11247729Y-2192375D01*
X11238484Y-2181199D01*
X11227866Y-2171192D01*
X11216081Y-2162657D01*
X11205362Y-2156764D01*
G37*
G36*
X15205354Y-2229154D02*
G01*
X15265400Y-2229154D01*
X15261742Y-2217826D01*
X15255544Y-2204669D01*
X15247772Y-2192375D01*
X15238476Y-2181199D01*
X15227858Y-2171192D01*
X15216073Y-2162657D01*
X15205354Y-2156764D01*
G37*
G36*
X13205358Y-2229154D02*
G01*
X13265404Y-2229154D01*
X13261746Y-2217826D01*
X13255548Y-2204669D01*
X13247725Y-2192375D01*
X13238480Y-2181199D01*
X13227862Y-2171192D01*
X13216077Y-2162657D01*
X13205358Y-2156764D01*
G37*
G36*
X-399999Y-1842871D02*
G01*
X-385470Y-1841957D01*
X-371195Y-1839264D01*
X-357327Y-1834743D01*
X-344170Y-1828546D01*
X-331876Y-1820773D01*
X-320649Y-1811477D01*
X-310692Y-1800860D01*
X-302158Y-1789074D01*
X-295148Y-1776323D01*
X-289763Y-1762810D01*
X-286156Y-1748739D01*
X-284327Y-1734261D01*
X-284327Y-1719732D01*
X-286156Y-1705305D01*
X-289763Y-1691182D01*
X-295148Y-1677670D01*
X-302158Y-1664919D01*
X-310692Y-1653133D01*
X-320649Y-1642516D01*
X-331876Y-1633220D01*
X-344170Y-1625447D01*
X-357327Y-1619250D01*
X-371195Y-1614728D01*
X-385470Y-1612036D01*
X-399999Y-1611122D01*
X-414528Y-1612036D01*
X-428802Y-1614728D01*
X-442671Y-1619250D01*
X-455828Y-1625447D01*
X-468122Y-1633220D01*
X-479348Y-1642516D01*
X-489305Y-1653133D01*
X-497840Y-1664919D01*
X-504850Y-1677670D01*
X-510235Y-1691182D01*
X-513842Y-1705305D01*
X-515670Y-1719732D01*
X-515670Y-1734261D01*
X-513842Y-1748739D01*
X-510235Y-1762810D01*
X-504850Y-1776323D01*
X-497840Y-1789074D01*
X-489305Y-1800860D01*
X-479348Y-1811477D01*
X-468122Y-1820773D01*
X-455828Y-1828546D01*
X-442671Y-1834743D01*
X-428802Y-1839264D01*
X-414528Y-1841957D01*
G37*
G36*
X-451358Y-1322679D02*
G01*
X-451358Y-1270355D01*
X-503732Y-1270355D01*
X-497840Y-1281074D01*
X-489305Y-1292860D01*
X-479348Y-1303477D01*
X-468122Y-1312773D01*
X-455828Y-1320546D01*
G37*
G36*
X-348640Y-1322679D02*
G01*
X-344170Y-1320546D01*
X-331876Y-1312773D01*
X-320649Y-1303477D01*
X-310692Y-1292860D01*
X-302158Y-1281074D01*
X-296265Y-1270355D01*
X-348640Y-1270355D01*
G37*
G36*
X16332758Y-1322679D02*
G01*
X16337229Y-1320546D01*
X16349522Y-1312773D01*
X16360749Y-1303477D01*
X16370706Y-1292860D01*
X16379240Y-1281074D01*
X16385133Y-1270355D01*
X16332758Y-1270355D01*
G37*
G36*
X16230041Y-1322679D02*
G01*
X16230041Y-1270355D01*
X16177666Y-1270355D01*
X16183559Y-1281074D01*
X16192093Y-1292860D01*
X16202050Y-1303477D01*
X16213277Y-1312773D01*
X16225570Y-1320546D01*
G37*
G36*
X-503732Y-1167638D02*
G01*
X-451358Y-1167638D01*
X-451358Y-1115314D01*
X-455828Y-1117447D01*
X-468122Y-1125220D01*
X-479348Y-1134516D01*
X-489305Y-1145133D01*
X-497840Y-1156919D01*
G37*
G36*
X-348640Y-1167638D02*
G01*
X-296265Y-1167638D01*
X-302158Y-1156919D01*
X-310692Y-1145133D01*
X-320649Y-1134516D01*
X-331876Y-1125220D01*
X-344170Y-1117447D01*
X-348640Y-1115314D01*
G37*
G36*
X16177666Y-1167638D02*
G01*
X16230041Y-1167638D01*
X16230041Y-1115314D01*
X16225570Y-1117447D01*
X16213277Y-1125220D01*
X16202050Y-1134516D01*
X16192093Y-1145133D01*
X16183559Y-1156919D01*
G37*
G36*
X16332758Y-1167638D02*
G01*
X16385133Y-1167638D01*
X16379240Y-1156919D01*
X16370706Y-1145133D01*
X16360749Y-1134516D01*
X16349522Y-1125220D01*
X16337229Y-1117447D01*
X16332758Y-1115314D01*
G37*
G36*
X16490594Y-585673D02*
G01*
X16509390Y-585673D01*
X16528135Y-583742D01*
X16546576Y-579983D01*
X16564559Y-574344D01*
X16581882Y-566877D01*
X16598341Y-557733D01*
X16613784Y-547014D01*
X16628059Y-534720D01*
X16641063Y-521106D01*
X16652544Y-506171D01*
X16662552Y-490220D01*
X16670832Y-473303D01*
X16677386Y-455625D01*
X16682059Y-437438D01*
X16684955Y-418795D01*
X16685869Y-399999D01*
X16684955Y-381203D01*
X16682059Y-362559D01*
X16677386Y-344373D01*
X16670832Y-326694D01*
X16662552Y-309778D01*
X16652544Y-293827D01*
X16641063Y-278892D01*
X16628059Y-265277D01*
X16613784Y-252984D01*
X16598341Y-242265D01*
X16581882Y-233121D01*
X16564559Y-225653D01*
X16546576Y-220014D01*
X16528135Y-216255D01*
X16509390Y-214325D01*
X16490594Y-214325D01*
X16471849Y-216255D01*
X16453408Y-220014D01*
X16435425Y-225653D01*
X16418102Y-233121D01*
X16401643Y-242265D01*
X16386200Y-252984D01*
X16371925Y-265277D01*
X16358920Y-278892D01*
X16347440Y-293827D01*
X16337432Y-309778D01*
X16329151Y-326694D01*
X16322598Y-344373D01*
X16317925Y-362559D01*
X16315029Y-381203D01*
X16314115Y-399999D01*
X16315029Y-418795D01*
X16317925Y-437438D01*
X16322598Y-455625D01*
X16329151Y-473303D01*
X16337432Y-490220D01*
X16347440Y-506171D01*
X16358920Y-521106D01*
X16371925Y-534720D01*
X16386200Y-547014D01*
X16401643Y-557733D01*
X16418102Y-566877D01*
X16435425Y-574344D01*
X16453408Y-579983D01*
X16471849Y-583742D01*
G37*
G36*
X-766724Y-585673D02*
G01*
X-747877Y-585673D01*
X-729132Y-583742D01*
X-710692Y-579983D01*
X-692759Y-574344D01*
X-675436Y-566877D01*
X-658977Y-557733D01*
X-643534Y-547014D01*
X-629208Y-534720D01*
X-616254Y-521106D01*
X-604723Y-506171D01*
X-594766Y-490220D01*
X-586486Y-473303D01*
X-579932Y-455625D01*
X-575208Y-437438D01*
X-572363Y-418795D01*
X-571398Y-399999D01*
X-572363Y-381203D01*
X-575208Y-362559D01*
X-579932Y-344373D01*
X-586486Y-326694D01*
X-594766Y-309778D01*
X-604723Y-293827D01*
X-616254Y-278892D01*
X-629208Y-265277D01*
X-643534Y-252984D01*
X-658977Y-242265D01*
X-675436Y-233121D01*
X-692759Y-225653D01*
X-710692Y-220014D01*
X-729132Y-216255D01*
X-747877Y-214325D01*
X-766724Y-214325D01*
X-785469Y-216255D01*
X-803910Y-220014D01*
X-821842Y-225653D01*
X-839165Y-233121D01*
X-855624Y-242265D01*
X-871067Y-252984D01*
X-885393Y-265277D01*
X-898347Y-278892D01*
X-909878Y-293827D01*
X-919835Y-309778D01*
X-928116Y-326694D01*
X-934669Y-344373D01*
X-939393Y-362559D01*
X-942238Y-381203D01*
X-943203Y-399999D01*
X-942238Y-418795D01*
X-939393Y-437438D01*
X-934669Y-455625D01*
X-928116Y-473303D01*
X-919835Y-490220D01*
X-909878Y-506171D01*
X-898347Y-521106D01*
X-885393Y-534720D01*
X-871067Y-547014D01*
X-855624Y-557733D01*
X-839165Y-566877D01*
X-821842Y-574344D01*
X-803910Y-579983D01*
X-785469Y-583742D01*
G37*

%LPD*%
G36*
X543255Y-3110077D02*
G01*
X539445Y-3109417D01*
X536143Y-3107385D01*
X533857Y-3104235D01*
X532942Y-3100476D01*
X531977Y-3083915D01*
X529234Y-3068066D01*
X524713Y-3052673D01*
X518261Y-3037484D01*
X517499Y-3033572D01*
X518261Y-3029661D01*
X520446Y-3026308D01*
X674624Y-2872486D01*
X679754Y-2866237D01*
X683310Y-2859582D01*
X685495Y-2852369D01*
X686308Y-2844190D01*
X685139Y-2465628D01*
X685901Y-2461717D01*
X688086Y-2458415D01*
X691388Y-2456180D01*
X695299Y-2455418D01*
X735431Y-2455418D01*
X741730Y-2454706D01*
X747217Y-2452776D01*
X752094Y-2449728D01*
X756208Y-2445613D01*
X759256Y-2440736D01*
X761187Y-2435250D01*
X761898Y-2428951D01*
X761898Y-2345537D01*
X762660Y-2341676D01*
X764895Y-2338374D01*
X768197Y-2336139D01*
X772109Y-2335377D01*
X775970Y-2336190D01*
X779272Y-2338425D01*
X781456Y-2341727D01*
X784098Y-2348179D01*
X784860Y-2351430D01*
X785012Y-2354021D01*
X787755Y-2368346D01*
X792226Y-2382164D01*
X798423Y-2395321D01*
X806246Y-2407615D01*
X815492Y-2418842D01*
X826109Y-2428798D01*
X837895Y-2437333D01*
X850646Y-2444343D01*
X864158Y-2449728D01*
X878281Y-2453335D01*
X892708Y-2455164D01*
X907287Y-2455164D01*
X921715Y-2453335D01*
X935786Y-2449728D01*
X949350Y-2444343D01*
X962101Y-2437333D01*
X973886Y-2428798D01*
X984453Y-2418842D01*
X993749Y-2407615D01*
X1001521Y-2395321D01*
X1007719Y-2382164D01*
X1012240Y-2368346D01*
X1014984Y-2354021D01*
X1015136Y-2351532D01*
X1016000Y-2347925D01*
X1017524Y-2344572D01*
X1022096Y-2330094D01*
X1024890Y-2315159D01*
X1025906Y-2299665D01*
X1026109Y-2239264D01*
X1026921Y-2235403D01*
X1029106Y-2232101D01*
X1032408Y-2229916D01*
X1036269Y-2229154D01*
X1102664Y-2229154D01*
X1102664Y-2156764D01*
X1091895Y-2162657D01*
X1080109Y-2171192D01*
X1069492Y-2181199D01*
X1060246Y-2192375D01*
X1052423Y-2204669D01*
X1046022Y-2218486D01*
X1044041Y-2221992D01*
X1040790Y-2224481D01*
X1036828Y-2225497D01*
X1032814Y-2224836D01*
X1029360Y-2222652D01*
X1027023Y-2219299D01*
X1026210Y-2215286D01*
X1027582Y-1842109D01*
X1027430Y-1834591D01*
X1026718Y-1826768D01*
X1025652Y-1819503D01*
X1024077Y-1811832D01*
X1022096Y-1804720D01*
X1019606Y-1797304D01*
X1016812Y-1790446D01*
X1013409Y-1783384D01*
X1009802Y-1776984D01*
X1005586Y-1770380D01*
X1001217Y-1764385D01*
X996238Y-1758340D01*
X991108Y-1752854D01*
X593852Y-1351229D01*
X591667Y-1347927D01*
X590905Y-1344066D01*
X590905Y-964336D01*
X591667Y-960475D01*
X593902Y-957173D01*
X861821Y-689254D01*
X872083Y-677621D01*
X880719Y-665124D01*
X887780Y-651662D01*
X890473Y-644601D01*
X892657Y-641197D01*
X896010Y-638860D01*
X899972Y-638048D01*
X903935Y-638860D01*
X907287Y-641197D01*
X909472Y-644601D01*
X910437Y-647141D01*
X911098Y-650748D01*
X911098Y-689406D01*
X911809Y-695756D01*
X913739Y-701192D01*
X916787Y-706120D01*
X920902Y-710184D01*
X925779Y-713282D01*
X931265Y-715213D01*
X937564Y-715924D01*
X960628Y-715924D01*
X964488Y-716686D01*
X967790Y-718870D01*
X1206144Y-957224D01*
X1208328Y-960526D01*
X1209141Y-964387D01*
X1209141Y-1588871D01*
X1209344Y-1596644D01*
X1210056Y-1604213D01*
X1211173Y-1611731D01*
X1212799Y-1619148D01*
X1214831Y-1626463D01*
X1217320Y-1633677D01*
X1220216Y-1640687D01*
X1223518Y-1647545D01*
X1227277Y-1654149D01*
X1231392Y-1660550D01*
X1235913Y-1666646D01*
X1240790Y-1672488D01*
X1246124Y-1678178D01*
X1344320Y-1776374D01*
X1346504Y-1779676D01*
X1347317Y-1783537D01*
X1347317Y-2305862D01*
X1346504Y-2309723D01*
X1344320Y-2313025D01*
X1284478Y-2372868D01*
X1280871Y-2375204D01*
X1276604Y-2375814D01*
X1272489Y-2374646D01*
X1269187Y-2371852D01*
X1205331Y-2371852D01*
X1205331Y-2447798D01*
X1204569Y-2451658D01*
X1202385Y-2454960D01*
X550265Y-3107080D01*
X547065Y-3109264D01*
G37*

%LPC*%
G36*
X1102664Y-2444242D02*
G01*
X1102664Y-2371852D01*
X1042568Y-2371852D01*
X1046226Y-2383180D01*
X1052423Y-2396337D01*
X1060246Y-2408631D01*
X1069492Y-2419858D01*
X1080109Y-2429814D01*
X1091895Y-2438349D01*
G37*
G36*
X1205331Y-2229154D02*
G01*
X1265428Y-2229154D01*
X1261719Y-2217826D01*
X1255522Y-2204669D01*
X1247749Y-2192375D01*
X1238453Y-2181199D01*
X1227886Y-2171192D01*
X1216101Y-2162657D01*
X1205331Y-2156764D01*
G37*

%LPD*%
D11*
X-400050Y-3249676D02*
G01*
X-233171Y-3416300D01*
X419100Y-3416300D01*
X1473200Y-2362200D01*
X1473200Y-1727200D01*
X1335023Y-1589023D01*
X1335023Y-1400047D01*
X8464991Y-1400002D02*
G01*
X8464991Y-908014D01*
X8773007Y-599998D01*
X2899994Y-2299512D02*
G01*
X2899994Y-1834992D01*
X2465003Y-1400002D01*
D10*
X5219700Y-3670300D02*
G01*
X5334000Y-3556000D01*
X7277100Y-3556000D01*
X4597400Y-3692006D02*
G01*
X4860406Y-3429000D01*
X7289800Y-3429000D01*
X8915999Y-4581006D02*
G01*
X9026606Y-4470400D01*
X9537700Y-4470400D01*
X5219700Y-4686300D02*
G01*
X5321300Y-4787900D01*
X8801100Y-4787900D01*
X8915999Y-4673000D01*
X8915999Y-4581006D01*
D11*
X15026995Y-599998D02*
G01*
X15335006Y-908009D01*
X15335006Y-1400002D01*
X13026999Y-599998D02*
G01*
X13335000Y-907999D01*
X13335000Y-1400002D01*
X11027003Y-599998D02*
G01*
X11334998Y-907994D01*
X11334998Y-1400002D01*
X9027007Y-599998D02*
G01*
X9334992Y-907983D01*
X9334992Y-1400002D01*
X7027011Y-621004D02*
G01*
X7334986Y-928979D01*
X7334986Y-1422400D01*
X6464985Y-1422400D02*
G01*
X6464985Y-929030D01*
X6773011Y-621004D01*
X6899986Y-2320518D02*
G01*
X6899986Y-1857400D01*
X6464985Y-1422400D01*
X8899982Y-2299512D02*
G01*
X8899982Y-1834992D01*
X8464991Y-1400002D01*
X10464998Y-1400002D02*
G01*
X10464998Y-908004D01*
X10773003Y-599998D01*
X10900003Y-2299512D02*
G01*
X10900003Y-1835007D01*
X10464998Y-1400002D01*
X12464999Y-1400002D02*
G01*
X12464999Y-907999D01*
X12772999Y-599998D01*
X12899999Y-2299512D02*
G01*
X12899999Y-1835002D01*
X12464999Y-1400002D01*
X14465005Y-1400002D02*
G01*
X14465005Y-907989D01*
X14772995Y-599998D01*
D10*
X9537700Y-4216400D02*
G01*
X9537700Y-4470400D01*
X9537700Y-3962400D02*
G01*
X9537700Y-4216400D01*
X4597400Y-4708006D02*
G01*
X5197993Y-4708006D01*
X5219700Y-4686300D01*
D11*
X2465003Y-1400002D02*
G01*
X2465003Y-907989D01*
X2772994Y-599998D01*
X3026994Y-599998D02*
G01*
X3335004Y-908009D01*
X3335004Y-1400002D01*
X4465010Y-1400002D02*
G01*
X4465010Y-907978D01*
X4772990Y-599998D01*
X4899990Y-2299512D02*
G01*
X4899990Y-1834982D01*
X4465010Y-1400002D01*
X5026990Y-599998D02*
G01*
X5335010Y-908019D01*
X5335010Y-1400002D01*
X465002Y-1400002D02*
G01*
X465002Y-907994D01*
X772998Y-599998D01*
X899998Y-2299512D02*
G01*
X901700Y-1841500D01*
X465002Y-1400002D01*
X1026921Y-599947D02*
G01*
X1335023Y-908050D01*
X1335023Y-1400047D01*
D10*
X10299700Y-4470400D02*
G01*
X9639300Y-3822700D01*
X9601200Y-3822700D01*
X9588500Y-3822700D01*
X9398000Y-3822700D01*
X8991600Y-4229100D01*
X8953500Y-4229100D01*
X8915400Y-4191000D01*
X8064500Y-4191000D01*
X7899999Y-4026499D01*
X7899999Y-3819006D01*
X8392007Y-3099993D02*
G01*
X8648700Y-2819400D01*
X8645982Y-2299512D01*
X10392003Y-3099993D02*
G01*
X10642600Y-2781300D01*
X10646003Y-2299512D01*
D11*
X14899995Y-2299512D02*
G01*
X14899995Y-1834992D01*
X14465005Y-1400002D01*
D10*
X7408011Y-3099998D02*
G01*
X7772400Y-3454400D01*
X7772400Y-4076700D01*
X7645999Y-4203100D01*
X7645999Y-4581006D01*
X6392011Y-3099998D02*
G01*
X6642100Y-2882900D01*
X6645986Y-2320518D01*
X4391990Y-3099993D02*
G01*
X4635500Y-2857500D01*
X4645990Y-2299512D01*
X2391994Y-3099993D02*
G01*
X2641600Y-2857500D01*
X2645994Y-2299512D01*
X391998Y-3099993D02*
G01*
X647700Y-2844800D01*
X645998Y-2299512D01*
X14391995Y-3099993D02*
G01*
X14391995Y-3099993D01*
X14630400Y-2908300D01*
X14645893Y-2299462D01*
X12391999Y-3099993D02*
G01*
X12649200Y-2857500D01*
X12645897Y-2299462D01*
X10728096Y-4550308D02*
G01*
X10728096Y-4550308D01*
X10299700Y-4470400D01*
X10299700Y-4216400D02*
G01*
X10299700Y-4216400D01*
X10715396Y-4207408D01*
X10299700Y-3962400D02*
G01*
X10299700Y-3962400D01*
X10728096Y-3851808D01*
X-400050Y-1472945D02*
G01*
X-190500Y-1682495D01*
X-190500Y-2438400D01*
X-596900Y-2844800D01*
X-596900Y-3302000D01*
X-207010Y-3691889D01*
X4597400Y-3691889D01*
X-400050Y-1980945D02*
G01*
X-660400Y-2241295D01*
X-660400Y-4013200D01*
X34289Y-4707889D01*
X4597400Y-4707889D01*
X9537700Y-3962400D02*
G01*
X10401300Y-4826000D01*
X13982700Y-4826000D01*
X16281400Y-2527300D01*
X16281400Y-1980991D01*
X12407900Y-3479800D02*
G01*
X14681200Y-3479800D01*
X16052800Y-2108200D01*
X16052800Y-1676400D01*
X16281400Y-1472945D01*
X12268200Y-3352800D02*
G01*
X14605000Y-3352800D01*
X15913100Y-2044700D01*
X15913100Y-990600D01*
X16459200Y-990600D01*
X16459200Y-1549145D01*
X16281400Y-1726945D01*
D11*
X16199866Y-3750563D02*
G01*
X16548100Y-3759200D01*
X16649700Y-3657600D01*
X16649700Y-774700D01*
X15697200Y-774700D01*
X15709900Y-1651000D01*
X15334995Y-1657604D01*
X15334995Y-1399286D01*
D10*
X10299700Y-4216400D02*
G01*
X9791700Y-3708400D01*
X9296400Y-3708400D01*
X8953500Y-4051300D01*
X8386318Y-4051300D01*
X8153908Y-3818889D01*
X8407908Y-3818889D02*
G01*
X8632952Y-3594100D01*
X10083800Y-3594100D01*
X10299700Y-3810000D01*
X10299700Y-3962400D01*
D11*
G01*
X-399999Y-3249548D03*
G01*
X-399999Y-3750437D03*
G01*
X16199993Y-3750437D03*
G01*
X16199993Y-3249548D03*
D13*
G01*
X1334998Y-1399997D03*
G01*
X464997Y-1399997D03*
G01*
X3334994Y-1399997D03*
G01*
X2464993Y-1399997D03*
G01*
X5335015Y-1399997D03*
G01*
X4465015Y-1399997D03*
G01*
X7334986Y-1422400D03*
G01*
X6464985Y-1422400D03*
G01*
X9334982Y-1399997D03*
G01*
X8464981Y-1399997D03*
G01*
X11335004Y-1399997D03*
G01*
X10465003Y-1399997D03*
G01*
X13335000Y-1399997D03*
G01*
X12464999Y-1399997D03*
G01*
X15334995Y-1399997D03*
G01*
X14464995Y-1399997D03*
G36*
X555993Y-2169505D02*
G01*
X735992Y-2169505D01*
X735992Y-2429504D01*
X555993Y-2429504D01*
G37*
G36*
X2555991Y-2169505D02*
G01*
X2735991Y-2169505D01*
X2735991Y-2429504D01*
X2555991Y-2429504D01*
G37*
G36*
X4555992Y-2169505D02*
G01*
X4735992Y-2169505D01*
X4735992Y-2429504D01*
X4555992Y-2429504D01*
G37*
G36*
X6555991Y-2190506D02*
G01*
X6735991Y-2190506D01*
X6735991Y-2450505D01*
X6555991Y-2450505D01*
G37*
G36*
X8555992Y-2169505D02*
G01*
X8735992Y-2169505D01*
X8735992Y-2429504D01*
X8555992Y-2429504D01*
G37*
G36*
X10555993Y-2169505D02*
G01*
X10735993Y-2169505D01*
X10735993Y-2429504D01*
X10555993Y-2429504D01*
G37*
G36*
X12555992Y-2169505D02*
G01*
X12735991Y-2169505D01*
X12735991Y-2429504D01*
X12555992Y-2429504D01*
G37*
G36*
X14555993Y-2169505D02*
G01*
X14735992Y-2169505D01*
X14735992Y-2429504D01*
X14555993Y-2429504D01*
G37*
G01*
X9537700Y-4216400D03*
G01*
X9537700Y-3962400D03*
G01*
X10299700Y-4470400D03*
G01*
X10299700Y-4216400D03*
G01*
X10299700Y-3962400D03*
G01*
X9537700Y-4470400D03*
D15*
G01*
X-399999Y-1980996D03*
D13*
G01*
X-399999Y-1726996D03*
G01*
X-399999Y-1472996D03*
G01*
X-399999Y-1218996D03*
D15*
G01*
X16281400Y-1980996D03*
D13*
G01*
X16281400Y-1726996D03*
G01*
X16281400Y-1472996D03*
G01*
X16281400Y-1218996D03*
D15*
G01*
X1026998Y-599998D03*
D13*
G01*
X772998Y-599998D03*
D15*
G01*
X3026994Y-599998D03*
D13*
G01*
X2772994Y-599998D03*
D15*
G01*
X5026990Y-599998D03*
D13*
G01*
X4772990Y-599998D03*
D15*
G01*
X7027011Y-621004D03*
D13*
G01*
X6773011Y-621004D03*
D15*
G01*
X9027007Y-599998D03*
D13*
G01*
X8773007Y-599998D03*
D15*
G01*
X11027003Y-599998D03*
D13*
G01*
X10773003Y-599998D03*
D15*
G01*
X13026999Y-599998D03*
D13*
G01*
X12772999Y-599998D03*
D15*
G01*
X15026995Y-599998D03*
D13*
G01*
X14772995Y-599998D03*
D16*
G01*
X8916009Y-3818991D03*
G01*
X8662009Y-3818991D03*
G01*
X7392009Y-3818991D03*
G01*
X7138009Y-3818991D03*
G01*
X8408009Y-3818991D03*
G01*
X8154009Y-3818991D03*
G01*
X7646009Y-3818991D03*
G01*
X7900009Y-3818991D03*
G01*
X6884009Y-3818991D03*
G01*
X6884009Y-4580991D03*
G01*
X7138009Y-4580991D03*
G01*
X7392009Y-4580991D03*
G01*
X7646009Y-4580991D03*
G01*
X7900009Y-4580991D03*
G01*
X8154009Y-4580991D03*
G01*
X8408009Y-4580991D03*
G01*
X8662009Y-4580991D03*
G01*
X8916009Y-4580991D03*
D17*
G01*
X391998Y-3099993D03*
G01*
X1407998Y-3099993D03*
G01*
X2391994Y-3099993D03*
G01*
X3407994Y-3099993D03*
G01*
X4391990Y-3099993D03*
G01*
X5407990Y-3099993D03*
G01*
X6392011Y-3099993D03*
G01*
X7408011Y-3099993D03*
G01*
X8392007Y-3099993D03*
G01*
X9408007Y-3099993D03*
G01*
X10392003Y-3099993D03*
G01*
X11408003Y-3099993D03*
G01*
X12391999Y-3099993D03*
G01*
X13407999Y-3099993D03*
G01*
X14391995Y-3099993D03*
G01*
X15407995Y-3099993D03*
G01*
X11744096Y-4550308D03*
G01*
X10728096Y-4550308D03*
G01*
X11731396Y-4207408D03*
G01*
X10715396Y-4207408D03*
G01*
X11744096Y-3851808D03*
G01*
X10728096Y-3851808D03*
G01*
X4597400Y-3692017D03*
G01*
X4597400Y-4708017D03*
G01*
X5219700Y-3670300D03*
G01*
X5219700Y-4686300D03*
D12*
G01*
X7289800Y-3429000D03*
G01*
X12268200Y-3352800D03*
G01*
X7277100Y-3556000D03*
G01*
X12407900Y-3479800D03*
D13*
X899998Y-2259512D02*
G01*
X899998Y-2339512D01*
X1154023Y-2260503D02*
G01*
X1154023Y-2340503D01*
X2899994Y-2259512D02*
G01*
X2899994Y-2339512D01*
X3154019Y-2260503D02*
G01*
X3154019Y-2340503D01*
X4899990Y-2259512D02*
G01*
X4899990Y-2339512D01*
X5154015Y-2260503D02*
G01*
X5154015Y-2340503D01*
X6899986Y-2280518D02*
G01*
X6899986Y-2360518D01*
X7154011Y-2281509D02*
G01*
X7154011Y-2361509D01*
X8899982Y-2259512D02*
G01*
X8899982Y-2339512D01*
X9154007Y-2260503D02*
G01*
X9154007Y-2340503D01*
X10900003Y-2259512D02*
G01*
X10900003Y-2339512D01*
X11154029Y-2260503D02*
G01*
X11154029Y-2340503D01*
X12899999Y-2259512D02*
G01*
X12899999Y-2339512D01*
X13154025Y-2260503D02*
G01*
X13154025Y-2340503D01*
X14899995Y-2259512D02*
G01*
X14899995Y-2339512D01*
X15154020Y-2260503D02*
G01*
X15154020Y-2340503D01*
M02*
