G04 Layer: TopSilkLayer*
G04 EasyEDA v6.4.25, 2021-12-20T13:39:12+01:00*
G04 63a1d32c011d494aaade838ba407243e,51d3ad7738a14b0e94bcfea3d2f56fdc,10*
G04 Gerber Generator version 0.2*
G04 Scale: 100 percent, Rotated: No, Reflected: No *
G04 Dimensions in millimeters *
G04 leading zeros omitted , absolute positions ,4 integer and 5 decimal *
%FSLAX45Y45*%
%MOMM*%

%ADD10C,0.2540*%
%ADD18C,0.1500*%
%ADD19C,0.4000*%
%ADD20C,0.4030*%
%ADD21C,0.2000*%
%ADD22C,0.1524*%

%LPD*%
D20*
X16783811Y-3882897D02*
G01*
X16783811Y-3719321D01*
X16865600Y-3801110D02*
G01*
X16702024Y-3801110D01*
X16865600Y-3197860D02*
G01*
X16702024Y-3197860D01*
D21*
X15622777Y-1218692D02*
G01*
X15617443Y-1208278D01*
X15607029Y-1197863D01*
X15596870Y-1192784D01*
X15576041Y-1192784D01*
X15565627Y-1197863D01*
X15555213Y-1208278D01*
X15549879Y-1218692D01*
X15544800Y-1234439D01*
X15544800Y-1260347D01*
X15549879Y-1275842D01*
X15555213Y-1286255D01*
X15565627Y-1296670D01*
X15576041Y-1301750D01*
X15596870Y-1301750D01*
X15607029Y-1296670D01*
X15617443Y-1286255D01*
X15622777Y-1275842D01*
X15622777Y-1260347D01*
X15596870Y-1260347D02*
G01*
X15622777Y-1260347D01*
X15657068Y-1192784D02*
G01*
X15657068Y-1301750D01*
X15657068Y-1192784D02*
G01*
X15729711Y-1301750D01*
X15729711Y-1192784D02*
G01*
X15729711Y-1301750D01*
X15764002Y-1192784D02*
G01*
X15764002Y-1301750D01*
X15764002Y-1192784D02*
G01*
X15800324Y-1192784D01*
X15816072Y-1197863D01*
X15826486Y-1208278D01*
X15831566Y-1218692D01*
X15836900Y-1234439D01*
X15836900Y-1260347D01*
X15831566Y-1275842D01*
X15826486Y-1286255D01*
X15816072Y-1296670D01*
X15800324Y-1301750D01*
X15764002Y-1301750D01*
X15617443Y-1424178D02*
G01*
X15607029Y-1413763D01*
X15591536Y-1408684D01*
X15570708Y-1408684D01*
X15555213Y-1413763D01*
X15544800Y-1424178D01*
X15544800Y-1434592D01*
X15549879Y-1445005D01*
X15555213Y-1450339D01*
X15565627Y-1455420D01*
X15596870Y-1465834D01*
X15607029Y-1470913D01*
X15612363Y-1476247D01*
X15617443Y-1486662D01*
X15617443Y-1502155D01*
X15607029Y-1512570D01*
X15591536Y-1517650D01*
X15570708Y-1517650D01*
X15555213Y-1512570D01*
X15544800Y-1502155D01*
X15651734Y-1408684D02*
G01*
X15651734Y-1517650D01*
X15651734Y-1408684D02*
G01*
X15688309Y-1408684D01*
X15703804Y-1413763D01*
X15714218Y-1424178D01*
X15719297Y-1434592D01*
X15724631Y-1450339D01*
X15724631Y-1476247D01*
X15719297Y-1491742D01*
X15714218Y-1502155D01*
X15703804Y-1512570D01*
X15688309Y-1517650D01*
X15651734Y-1517650D01*
X15800324Y-1408684D02*
G01*
X15758922Y-1517650D01*
X15800324Y-1408684D02*
G01*
X15841979Y-1517650D01*
X15774416Y-1481328D02*
G01*
X15826486Y-1481328D01*
X15617443Y-1640078D02*
G01*
X15607029Y-1629663D01*
X15591536Y-1624584D01*
X15570708Y-1624584D01*
X15555213Y-1629663D01*
X15544800Y-1640078D01*
X15544800Y-1650492D01*
X15549879Y-1660905D01*
X15555213Y-1666239D01*
X15565627Y-1671320D01*
X15596870Y-1681734D01*
X15607029Y-1686813D01*
X15612363Y-1692147D01*
X15617443Y-1702562D01*
X15617443Y-1718055D01*
X15607029Y-1728470D01*
X15591536Y-1733550D01*
X15570708Y-1733550D01*
X15555213Y-1728470D01*
X15544800Y-1718055D01*
X15729711Y-1650492D02*
G01*
X15724631Y-1640078D01*
X15714218Y-1629663D01*
X15703804Y-1624584D01*
X15682975Y-1624584D01*
X15672561Y-1629663D01*
X15662147Y-1640078D01*
X15657068Y-1650492D01*
X15651734Y-1666239D01*
X15651734Y-1692147D01*
X15657068Y-1707642D01*
X15662147Y-1718055D01*
X15672561Y-1728470D01*
X15682975Y-1733550D01*
X15703804Y-1733550D01*
X15714218Y-1728470D01*
X15724631Y-1718055D01*
X15729711Y-1707642D01*
X15764002Y-1624584D02*
G01*
X15764002Y-1733550D01*
X15764002Y-1733550D02*
G01*
X15826486Y-1733550D01*
X15607029Y-1840484D02*
G01*
X15555213Y-1840484D01*
X15549879Y-1887220D01*
X15555213Y-1882139D01*
X15570708Y-1876805D01*
X15586456Y-1876805D01*
X15601950Y-1882139D01*
X15612363Y-1892300D01*
X15617443Y-1908047D01*
X15617443Y-1918462D01*
X15612363Y-1933955D01*
X15601950Y-1944370D01*
X15586456Y-1949450D01*
X15570708Y-1949450D01*
X15555213Y-1944370D01*
X15549879Y-1939289D01*
X15544800Y-1928876D01*
X15651734Y-1840484D02*
G01*
X15693390Y-1949450D01*
X15735045Y-1840484D02*
G01*
X15693390Y-1949450D01*
X-10921Y-1332992D02*
G01*
X-16255Y-1322578D01*
X-26670Y-1312163D01*
X-36829Y-1307084D01*
X-57657Y-1307084D01*
X-68071Y-1312163D01*
X-78486Y-1322578D01*
X-83820Y-1332992D01*
X-88900Y-1348739D01*
X-88900Y-1374647D01*
X-83820Y-1390142D01*
X-78486Y-1400555D01*
X-68071Y-1410970D01*
X-57657Y-1416050D01*
X-36829Y-1416050D01*
X-26670Y-1410970D01*
X-16255Y-1400555D01*
X-10921Y-1390142D01*
X-10921Y-1374647D01*
X-36829Y-1374647D02*
G01*
X-10921Y-1374647D01*
X23368Y-1307084D02*
G01*
X23368Y-1416050D01*
X23368Y-1307084D02*
G01*
X96012Y-1416050D01*
X96012Y-1307084D02*
G01*
X96012Y-1416050D01*
X130302Y-1307084D02*
G01*
X130302Y-1416050D01*
X130302Y-1307084D02*
G01*
X166623Y-1307084D01*
X182371Y-1312163D01*
X192786Y-1322578D01*
X197865Y-1332992D01*
X203200Y-1348739D01*
X203200Y-1374647D01*
X197865Y-1390142D01*
X192786Y-1400555D01*
X182371Y-1410970D01*
X166623Y-1416050D01*
X130302Y-1416050D01*
X-16255Y-1538478D02*
G01*
X-26670Y-1528063D01*
X-42163Y-1522984D01*
X-62992Y-1522984D01*
X-78486Y-1528063D01*
X-88900Y-1538478D01*
X-88900Y-1548892D01*
X-83820Y-1559305D01*
X-78486Y-1564639D01*
X-68071Y-1569720D01*
X-36829Y-1580134D01*
X-26670Y-1585213D01*
X-21336Y-1590547D01*
X-16255Y-1600962D01*
X-16255Y-1616455D01*
X-26670Y-1626870D01*
X-42163Y-1631950D01*
X-62992Y-1631950D01*
X-78486Y-1626870D01*
X-88900Y-1616455D01*
X18034Y-1522984D02*
G01*
X18034Y-1631950D01*
X18034Y-1522984D02*
G01*
X54610Y-1522984D01*
X70104Y-1528063D01*
X80518Y-1538478D01*
X85597Y-1548892D01*
X90931Y-1564639D01*
X90931Y-1590547D01*
X85597Y-1606042D01*
X80518Y-1616455D01*
X70104Y-1626870D01*
X54610Y-1631950D01*
X18034Y-1631950D01*
X166623Y-1522984D02*
G01*
X125221Y-1631950D01*
X166623Y-1522984D02*
G01*
X208279Y-1631950D01*
X140715Y-1595628D02*
G01*
X192786Y-1595628D01*
X-16255Y-1754378D02*
G01*
X-26670Y-1743963D01*
X-42163Y-1738884D01*
X-62992Y-1738884D01*
X-78486Y-1743963D01*
X-88900Y-1754378D01*
X-88900Y-1764792D01*
X-83820Y-1775205D01*
X-78486Y-1780539D01*
X-68071Y-1785620D01*
X-36829Y-1796034D01*
X-26670Y-1801113D01*
X-21336Y-1806447D01*
X-16255Y-1816862D01*
X-16255Y-1832355D01*
X-26670Y-1842770D01*
X-42163Y-1847850D01*
X-62992Y-1847850D01*
X-78486Y-1842770D01*
X-88900Y-1832355D01*
X96012Y-1764792D02*
G01*
X90931Y-1754378D01*
X80518Y-1743963D01*
X70104Y-1738884D01*
X49276Y-1738884D01*
X38862Y-1743963D01*
X28447Y-1754378D01*
X23368Y-1764792D01*
X18034Y-1780539D01*
X18034Y-1806447D01*
X23368Y-1821942D01*
X28447Y-1832355D01*
X38862Y-1842770D01*
X49276Y-1847850D01*
X70104Y-1847850D01*
X80518Y-1842770D01*
X90931Y-1832355D01*
X96012Y-1821942D01*
X130302Y-1738884D02*
G01*
X130302Y-1847850D01*
X130302Y-1847850D02*
G01*
X192786Y-1847850D01*
X-26670Y-1954784D02*
G01*
X-78486Y-1954784D01*
X-83820Y-2001520D01*
X-78486Y-1996439D01*
X-62992Y-1991105D01*
X-47244Y-1991105D01*
X-31750Y-1996439D01*
X-21336Y-2006600D01*
X-16255Y-2022347D01*
X-16255Y-2032762D01*
X-21336Y-2048255D01*
X-31750Y-2058670D01*
X-47244Y-2063750D01*
X-62992Y-2063750D01*
X-78486Y-2058670D01*
X-83820Y-2053589D01*
X-88900Y-2043176D01*
X18034Y-1954784D02*
G01*
X59689Y-2063750D01*
X101345Y-1954784D02*
G01*
X59689Y-2063750D01*
D20*
X-972312Y-3114802D02*
G01*
X-972312Y-3278378D01*
X-1054100Y-3196589D02*
G01*
X-890523Y-3196589D01*
X-1054100Y-3799839D02*
G01*
X-890523Y-3799839D01*
D21*
X279400Y-3910584D02*
G01*
X305307Y-4019550D01*
X331470Y-3910584D02*
G01*
X305307Y-4019550D01*
X331470Y-3910584D02*
G01*
X357378Y-4019550D01*
X383286Y-3910584D02*
G01*
X357378Y-4019550D01*
X417576Y-3910584D02*
G01*
X417576Y-3988562D01*
X422910Y-4004055D01*
X433070Y-4014470D01*
X448818Y-4019550D01*
X459231Y-4019550D01*
X474726Y-4014470D01*
X485139Y-4004055D01*
X490220Y-3988562D01*
X490220Y-3910584D01*
X524510Y-3910584D02*
G01*
X524510Y-4019550D01*
X524510Y-3910584D02*
G01*
X566165Y-4019550D01*
X607821Y-3910584D02*
G01*
X566165Y-4019550D01*
X607821Y-3910584D02*
G01*
X607821Y-4019550D01*
X714755Y-3926078D02*
G01*
X704342Y-3915663D01*
X688847Y-3910584D01*
X668020Y-3910584D01*
X652526Y-3915663D01*
X642112Y-3926078D01*
X642112Y-3936492D01*
X647192Y-3946905D01*
X652526Y-3952239D01*
X662939Y-3957320D01*
X693928Y-3967734D01*
X704342Y-3972813D01*
X709676Y-3978147D01*
X714755Y-3988562D01*
X714755Y-4004055D01*
X704342Y-4014470D01*
X688847Y-4019550D01*
X668020Y-4019550D01*
X652526Y-4014470D01*
X642112Y-4004055D01*
X865378Y-3910584D02*
G01*
X865378Y-4019550D01*
X829055Y-3910584D02*
G01*
X901700Y-3910584D01*
X935989Y-3910584D02*
G01*
X935989Y-4019550D01*
X935989Y-4019550D02*
G01*
X998473Y-4019550D01*
X1032763Y-3910584D02*
G01*
X1032763Y-4019550D01*
X1032763Y-4019550D02*
G01*
X1094994Y-4019550D01*
X1209294Y-3910584D02*
G01*
X1250950Y-4019550D01*
X1292605Y-3910584D02*
G01*
X1250950Y-4019550D01*
X1357884Y-3910584D02*
G01*
X1342389Y-3915663D01*
X1331976Y-3931412D01*
X1326895Y-3957320D01*
X1326895Y-3972813D01*
X1331976Y-3998976D01*
X1342389Y-4014470D01*
X1357884Y-4019550D01*
X1368297Y-4019550D01*
X1384045Y-4014470D01*
X1394460Y-3998976D01*
X1399539Y-3972813D01*
X1399539Y-3957320D01*
X1394460Y-3931412D01*
X1384045Y-3915663D01*
X1368297Y-3910584D01*
X1357884Y-3910584D01*
X1438910Y-3993642D02*
G01*
X1433829Y-3998976D01*
X1438910Y-4004055D01*
X1444244Y-3998976D01*
X1438910Y-3993642D01*
X1478534Y-3931412D02*
G01*
X1488947Y-3926078D01*
X1504442Y-3910584D01*
X1504442Y-4019550D01*
X279400Y-4126484D02*
G01*
X279400Y-4235450D01*
X279400Y-4126484D02*
G01*
X326136Y-4126484D01*
X341629Y-4131563D01*
X346963Y-4136897D01*
X352044Y-4147312D01*
X352044Y-4157726D01*
X346963Y-4168139D01*
X341629Y-4173220D01*
X326136Y-4178300D01*
X279400Y-4178300D01*
X315721Y-4178300D02*
G01*
X352044Y-4235450D01*
X427989Y-4126484D02*
G01*
X386334Y-4235450D01*
X427989Y-4126484D02*
G01*
X469645Y-4235450D01*
X402081Y-4199128D02*
G01*
X453897Y-4199128D01*
X503936Y-4126484D02*
G01*
X503936Y-4235450D01*
X503936Y-4126484D02*
G01*
X550671Y-4126484D01*
X566165Y-4131563D01*
X571500Y-4136897D01*
X576579Y-4147312D01*
X576579Y-4162805D01*
X571500Y-4173220D01*
X566165Y-4178300D01*
X550671Y-4183634D01*
X503936Y-4183634D01*
X610870Y-4126484D02*
G01*
X610870Y-4235450D01*
X610870Y-4235450D02*
G01*
X673100Y-4235450D01*
X749045Y-4126484D02*
G01*
X707389Y-4235450D01*
X749045Y-4126484D02*
G01*
X790702Y-4235450D01*
X723137Y-4199128D02*
G01*
X774954Y-4199128D01*
X824992Y-4126484D02*
G01*
X824992Y-4235450D01*
X824992Y-4126484D02*
G01*
X871728Y-4126484D01*
X887221Y-4131563D01*
X892555Y-4136897D01*
X897636Y-4147312D01*
X897636Y-4157726D01*
X892555Y-4168139D01*
X887221Y-4173220D01*
X871728Y-4178300D01*
X824992Y-4178300D02*
G01*
X871728Y-4178300D01*
X887221Y-4183634D01*
X892555Y-4188713D01*
X897636Y-4199128D01*
X897636Y-4214876D01*
X892555Y-4225289D01*
X887221Y-4230370D01*
X871728Y-4235450D01*
X824992Y-4235450D01*
X1011936Y-4126484D02*
G01*
X1011936Y-4235450D01*
X1011936Y-4126484D02*
G01*
X1048257Y-4126484D01*
X1064005Y-4131563D01*
X1074420Y-4141978D01*
X1079500Y-4152392D01*
X1084579Y-4168139D01*
X1084579Y-4194047D01*
X1079500Y-4209542D01*
X1074420Y-4219955D01*
X1064005Y-4230370D01*
X1048257Y-4235450D01*
X1011936Y-4235450D01*
X1118870Y-4272026D02*
G01*
X1212595Y-4272026D01*
X1288287Y-4126484D02*
G01*
X1246886Y-4235450D01*
X1288287Y-4126484D02*
G01*
X1329944Y-4235450D01*
X1262379Y-4199128D02*
G01*
X1314450Y-4199128D01*
X1364234Y-4126484D02*
G01*
X1364234Y-4235450D01*
X1364234Y-4126484D02*
G01*
X1410970Y-4126484D01*
X1426463Y-4131563D01*
X1431797Y-4136897D01*
X1436878Y-4147312D01*
X1436878Y-4157726D01*
X1431797Y-4168139D01*
X1426463Y-4173220D01*
X1410970Y-4178300D01*
X1364234Y-4178300D01*
X1400555Y-4178300D02*
G01*
X1436878Y-4235450D01*
X1549145Y-4152392D02*
G01*
X1544065Y-4141978D01*
X1533652Y-4131563D01*
X1523237Y-4126484D01*
X1502410Y-4126484D01*
X1491995Y-4131563D01*
X1481581Y-4141978D01*
X1476502Y-4152392D01*
X1471168Y-4168139D01*
X1471168Y-4194047D01*
X1476502Y-4209542D01*
X1481581Y-4219955D01*
X1491995Y-4230370D01*
X1502410Y-4235450D01*
X1523237Y-4235450D01*
X1533652Y-4230370D01*
X1544065Y-4219955D01*
X1549145Y-4209542D01*
X1583436Y-4126484D02*
G01*
X1583436Y-4235450D01*
X1656079Y-4126484D02*
G01*
X1656079Y-4235450D01*
X1583436Y-4178300D02*
G01*
X1656079Y-4178300D01*
X1770379Y-4126484D02*
G01*
X1770379Y-4235450D01*
X1770379Y-4126484D02*
G01*
X1837944Y-4126484D01*
X1770379Y-4178300D02*
G01*
X1812036Y-4178300D01*
X1770379Y-4235450D02*
G01*
X1837944Y-4235450D01*
X1908810Y-4126484D02*
G01*
X1908810Y-4235450D01*
X1872234Y-4126484D02*
G01*
X1945131Y-4126484D01*
X1979422Y-4126484D02*
G01*
X1979422Y-4235450D01*
X2052065Y-4126484D02*
G01*
X2052065Y-4235450D01*
X1979422Y-4178300D02*
G01*
X2052065Y-4178300D01*
X2159000Y-4126484D02*
G01*
X2086356Y-4235450D01*
X2086356Y-4126484D02*
G01*
X2159000Y-4126484D01*
X2086356Y-4235450D02*
G01*
X2159000Y-4235450D01*
X279400Y-4378705D02*
G01*
X300228Y-4451350D01*
X321055Y-4378705D02*
G01*
X300228Y-4451350D01*
X321055Y-4378705D02*
G01*
X341629Y-4451350D01*
X362457Y-4378705D02*
G01*
X341629Y-4451350D01*
X396747Y-4378705D02*
G01*
X417576Y-4451350D01*
X438404Y-4378705D02*
G01*
X417576Y-4451350D01*
X438404Y-4378705D02*
G01*
X459231Y-4451350D01*
X480060Y-4378705D02*
G01*
X459231Y-4451350D01*
X514350Y-4378705D02*
G01*
X534923Y-4451350D01*
X555752Y-4378705D02*
G01*
X534923Y-4451350D01*
X555752Y-4378705D02*
G01*
X576579Y-4451350D01*
X597407Y-4378705D02*
G01*
X576579Y-4451350D01*
X636778Y-4425442D02*
G01*
X631697Y-4430776D01*
X636778Y-4435855D01*
X642112Y-4430776D01*
X636778Y-4425442D01*
X676402Y-4378705D02*
G01*
X676402Y-4451350D01*
X676402Y-4409947D02*
G01*
X681481Y-4394200D01*
X691895Y-4384039D01*
X702310Y-4378705D01*
X717804Y-4378705D01*
X814578Y-4378705D02*
G01*
X814578Y-4451350D01*
X814578Y-4394200D02*
G01*
X804163Y-4384039D01*
X793750Y-4378705D01*
X778255Y-4378705D01*
X767842Y-4384039D01*
X757428Y-4394200D01*
X752094Y-4409947D01*
X752094Y-4420362D01*
X757428Y-4435855D01*
X767842Y-4446270D01*
X778255Y-4451350D01*
X793750Y-4451350D01*
X804163Y-4446270D01*
X814578Y-4435855D01*
X848868Y-4378705D02*
G01*
X848868Y-4487926D01*
X848868Y-4394200D02*
G01*
X859281Y-4384039D01*
X869695Y-4378705D01*
X885189Y-4378705D01*
X895604Y-4384039D01*
X906018Y-4394200D01*
X911097Y-4409947D01*
X911097Y-4420362D01*
X906018Y-4435855D01*
X895604Y-4446270D01*
X885189Y-4451350D01*
X869695Y-4451350D01*
X859281Y-4446270D01*
X848868Y-4435855D01*
X945387Y-4342384D02*
G01*
X945387Y-4451350D01*
X1042162Y-4378705D02*
G01*
X1042162Y-4451350D01*
X1042162Y-4394200D02*
G01*
X1031747Y-4384039D01*
X1021334Y-4378705D01*
X1005839Y-4378705D01*
X995426Y-4384039D01*
X985012Y-4394200D01*
X979678Y-4409947D01*
X979678Y-4420362D01*
X985012Y-4435855D01*
X995426Y-4446270D01*
X1005839Y-4451350D01*
X1021334Y-4451350D01*
X1031747Y-4446270D01*
X1042162Y-4435855D01*
X1076452Y-4342384D02*
G01*
X1076452Y-4451350D01*
X1076452Y-4394200D02*
G01*
X1086865Y-4384039D01*
X1097279Y-4378705D01*
X1112773Y-4378705D01*
X1123187Y-4384039D01*
X1133602Y-4394200D01*
X1138681Y-4409947D01*
X1138681Y-4420362D01*
X1133602Y-4435855D01*
X1123187Y-4446270D01*
X1112773Y-4451350D01*
X1097279Y-4451350D01*
X1086865Y-4446270D01*
X1076452Y-4435855D01*
X1178305Y-4425442D02*
G01*
X1172971Y-4430776D01*
X1178305Y-4435855D01*
X1183386Y-4430776D01*
X1178305Y-4425442D01*
X1280160Y-4378705D02*
G01*
X1280160Y-4451350D01*
X1280160Y-4394200D02*
G01*
X1269745Y-4384039D01*
X1259331Y-4378705D01*
X1243584Y-4378705D01*
X1233170Y-4384039D01*
X1223010Y-4394200D01*
X1217676Y-4409947D01*
X1217676Y-4420362D01*
X1223010Y-4435855D01*
X1233170Y-4446270D01*
X1243584Y-4451350D01*
X1259331Y-4451350D01*
X1269745Y-4446270D01*
X1280160Y-4435855D01*
X1314450Y-4378705D02*
G01*
X1314450Y-4451350D01*
X1314450Y-4409947D02*
G01*
X1319529Y-4394200D01*
X1329944Y-4384039D01*
X1340357Y-4378705D01*
X1355852Y-4378705D01*
X1452626Y-4394200D02*
G01*
X1442212Y-4384039D01*
X1431797Y-4378705D01*
X1416050Y-4378705D01*
X1405889Y-4384039D01*
X1395476Y-4394200D01*
X1390142Y-4409947D01*
X1390142Y-4420362D01*
X1395476Y-4435855D01*
X1405889Y-4446270D01*
X1416050Y-4451350D01*
X1431797Y-4451350D01*
X1442212Y-4446270D01*
X1452626Y-4435855D01*
X1486915Y-4342384D02*
G01*
X1486915Y-4451350D01*
X1486915Y-4399534D02*
G01*
X1502410Y-4384039D01*
X1512823Y-4378705D01*
X1528318Y-4378705D01*
X1538731Y-4384039D01*
X1544065Y-4399534D01*
X1544065Y-4451350D01*
X1583436Y-4425442D02*
G01*
X1578355Y-4430776D01*
X1583436Y-4435855D01*
X1588770Y-4430776D01*
X1583436Y-4425442D01*
X1623060Y-4409947D02*
G01*
X1685289Y-4409947D01*
X1685289Y-4399534D01*
X1680210Y-4389120D01*
X1674876Y-4384039D01*
X1664462Y-4378705D01*
X1648968Y-4378705D01*
X1638554Y-4384039D01*
X1628139Y-4394200D01*
X1623060Y-4409947D01*
X1623060Y-4420362D01*
X1628139Y-4435855D01*
X1638554Y-4446270D01*
X1648968Y-4451350D01*
X1664462Y-4451350D01*
X1674876Y-4446270D01*
X1685289Y-4435855D01*
X1735073Y-4342384D02*
G01*
X1735073Y-4430776D01*
X1740407Y-4446270D01*
X1750821Y-4451350D01*
X1761236Y-4451350D01*
X1719579Y-4378705D02*
G01*
X1755902Y-4378705D01*
X1795526Y-4342384D02*
G01*
X1795526Y-4451350D01*
X1795526Y-4399534D02*
G01*
X1811020Y-4384039D01*
X1821434Y-4378705D01*
X1836928Y-4378705D01*
X1847342Y-4384039D01*
X1852676Y-4399534D01*
X1852676Y-4451350D01*
X1944115Y-4378705D02*
G01*
X1886965Y-4451350D01*
X1886965Y-4378705D02*
G01*
X1944115Y-4378705D01*
X1886965Y-4451350D02*
G01*
X1944115Y-4451350D01*
X1983486Y-4425442D02*
G01*
X1978406Y-4430776D01*
X1983486Y-4435855D01*
X1988820Y-4430776D01*
X1983486Y-4425442D01*
X2085340Y-4394200D02*
G01*
X2074925Y-4384039D01*
X2064511Y-4378705D01*
X2049018Y-4378705D01*
X2038604Y-4384039D01*
X2028190Y-4394200D01*
X2023109Y-4409947D01*
X2023109Y-4420362D01*
X2028190Y-4435855D01*
X2038604Y-4446270D01*
X2049018Y-4451350D01*
X2064511Y-4451350D01*
X2074925Y-4446270D01*
X2085340Y-4435855D01*
X2119629Y-4342384D02*
G01*
X2119629Y-4451350D01*
X2119629Y-4399534D02*
G01*
X2135124Y-4384039D01*
X2145538Y-4378705D01*
X2161286Y-4378705D01*
X2171700Y-4384039D01*
X2176779Y-4399534D01*
X2176779Y-4451350D01*
D22*
X166080Y-3262406D02*
G01*
X171414Y-3272820D01*
X186908Y-3288314D01*
X77942Y-3288314D01*
X161000Y-3327938D02*
G01*
X166080Y-3327938D01*
X176494Y-3333018D01*
X181828Y-3338352D01*
X186908Y-3348766D01*
X186908Y-3369340D01*
X181828Y-3379754D01*
X176494Y-3385088D01*
X166080Y-3390168D01*
X155666Y-3390168D01*
X145252Y-3385088D01*
X129758Y-3374674D01*
X77942Y-3322604D01*
X77942Y-3395502D01*
X186908Y-3429792D02*
G01*
X77942Y-3471194D01*
X186908Y-3512850D02*
G01*
X77942Y-3471194D01*
X41366Y-3547140D02*
G01*
X41366Y-3640612D01*
X186908Y-3674902D02*
G01*
X77942Y-3674902D01*
X186908Y-3709192D02*
G01*
X77942Y-3709192D01*
X186908Y-3709192D02*
G01*
X77942Y-3781836D01*
X186908Y-3781836D02*
G01*
X77942Y-3781836D01*
X15594619Y-3846601D02*
G01*
X15589285Y-3836187D01*
X15573791Y-3820693D01*
X15682757Y-3820693D01*
X15599699Y-3781069D02*
G01*
X15594619Y-3781069D01*
X15584205Y-3775989D01*
X15578871Y-3770655D01*
X15573791Y-3760241D01*
X15573791Y-3739667D01*
X15578871Y-3729253D01*
X15584205Y-3723919D01*
X15594619Y-3718839D01*
X15605033Y-3718839D01*
X15615447Y-3723919D01*
X15630941Y-3734333D01*
X15682757Y-3786403D01*
X15682757Y-3713505D01*
X15573791Y-3679215D02*
G01*
X15682757Y-3637813D01*
X15573791Y-3596157D02*
G01*
X15682757Y-3637813D01*
X15719333Y-3561867D02*
G01*
X15719333Y-3468395D01*
X15573791Y-3402863D02*
G01*
X15578871Y-3413277D01*
X15589285Y-3423691D01*
X15599699Y-3428771D01*
X15615447Y-3434105D01*
X15641355Y-3434105D01*
X15656849Y-3428771D01*
X15667263Y-3423691D01*
X15677677Y-3413277D01*
X15682757Y-3402863D01*
X15682757Y-3382035D01*
X15677677Y-3371621D01*
X15667263Y-3361461D01*
X15656849Y-3356127D01*
X15641355Y-3351047D01*
X15615447Y-3351047D01*
X15599699Y-3356127D01*
X15589285Y-3361461D01*
X15578871Y-3371621D01*
X15573791Y-3382035D01*
X15573791Y-3402863D01*
X15573791Y-3316757D02*
G01*
X15651769Y-3316757D01*
X15667263Y-3311423D01*
X15677677Y-3301009D01*
X15682757Y-3285515D01*
X15682757Y-3275101D01*
X15677677Y-3259607D01*
X15667263Y-3249193D01*
X15651769Y-3243859D01*
X15573791Y-3243859D01*
X15573791Y-3173247D02*
G01*
X15682757Y-3173247D01*
X15573791Y-3209569D02*
G01*
X15573791Y-3136925D01*
X14906350Y-1794715D02*
G01*
X14906350Y-1685749D01*
X14906350Y-1794715D02*
G01*
X14870028Y-1794715D01*
X14854280Y-1789635D01*
X14844120Y-1779221D01*
X14838786Y-1768807D01*
X14833706Y-1753059D01*
X14833706Y-1727151D01*
X14838786Y-1711657D01*
X14844120Y-1701243D01*
X14854280Y-1690829D01*
X14870028Y-1685749D01*
X14906350Y-1685749D01*
X14726518Y-1794715D02*
G01*
X14778588Y-1685749D01*
X14799416Y-1794715D02*
G01*
X14726518Y-1794715D01*
X9257284Y-4555744D02*
G01*
X9366250Y-4597400D01*
X9257284Y-4555744D02*
G01*
X9366250Y-4514342D01*
X9329927Y-4581905D02*
G01*
X9329927Y-4529836D01*
X9257284Y-4480052D02*
G01*
X9366250Y-4480052D01*
X9257284Y-4480052D02*
G01*
X9257284Y-4443729D01*
X9262363Y-4427981D01*
X9272777Y-4417568D01*
X9283191Y-4412487D01*
X9298940Y-4407154D01*
X9324847Y-4407154D01*
X9340341Y-4412487D01*
X9350756Y-4417568D01*
X9361170Y-4427981D01*
X9366250Y-4443729D01*
X9366250Y-4480052D01*
X9257284Y-4372863D02*
G01*
X9366250Y-4372863D01*
X9257284Y-4372863D02*
G01*
X9257284Y-4336542D01*
X9262363Y-4321047D01*
X9272777Y-4310634D01*
X9283191Y-4305300D01*
X9298940Y-4300220D01*
X9324847Y-4300220D01*
X9340341Y-4305300D01*
X9350756Y-4310634D01*
X9361170Y-4321047D01*
X9366250Y-4336542D01*
X9366250Y-4372863D01*
X9257284Y-4265929D02*
G01*
X9366250Y-4265929D01*
X9257284Y-4265929D02*
G01*
X9257284Y-4219194D01*
X9262363Y-4203700D01*
X9267697Y-4198365D01*
X9278111Y-4193286D01*
X9288525Y-4193286D01*
X9298940Y-4198365D01*
X9304020Y-4203700D01*
X9309100Y-4219194D01*
X9309100Y-4265929D01*
X9309100Y-4229607D02*
G01*
X9366250Y-4193286D01*
X9257284Y-4158995D02*
G01*
X9366250Y-4158995D01*
X9257284Y-4158995D02*
G01*
X9257284Y-4091431D01*
X9309100Y-4158995D02*
G01*
X9309100Y-4117339D01*
X9366250Y-4158995D02*
G01*
X9366250Y-4091431D01*
X9272777Y-3984244D02*
G01*
X9262363Y-3994657D01*
X9257284Y-4010405D01*
X9257284Y-4030979D01*
X9262363Y-4046728D01*
X9272777Y-4057142D01*
X9283191Y-4057142D01*
X9293606Y-4051807D01*
X9298940Y-4046728D01*
X9304020Y-4036313D01*
X9314434Y-4005071D01*
X9319513Y-3994657D01*
X9324847Y-3989578D01*
X9335261Y-3984244D01*
X9350756Y-3984244D01*
X9361170Y-3994657D01*
X9366250Y-4010405D01*
X9366250Y-4030979D01*
X9361170Y-4046728D01*
X9350756Y-4057142D01*
X9272777Y-3877310D02*
G01*
X9262363Y-3887723D01*
X9257284Y-3903218D01*
X9257284Y-3924045D01*
X9262363Y-3939539D01*
X9272777Y-3949954D01*
X9283191Y-3949954D01*
X9293606Y-3944873D01*
X9298940Y-3939539D01*
X9304020Y-3929379D01*
X9314434Y-3898137D01*
X9319513Y-3887723D01*
X9324847Y-3882389D01*
X9335261Y-3877310D01*
X9350756Y-3877310D01*
X9361170Y-3887723D01*
X9366250Y-3903218D01*
X9366250Y-3924045D01*
X9361170Y-3939539D01*
X9350756Y-3949954D01*
X-964211Y-1870410D02*
G01*
X-855245Y-1870410D01*
X-938303Y-1831040D02*
G01*
X-943383Y-1831040D01*
X-953797Y-1825706D01*
X-959131Y-1820626D01*
X-964211Y-1810212D01*
X-964211Y-1789384D01*
X-959131Y-1778970D01*
X-953797Y-1773890D01*
X-943383Y-1768556D01*
X-932969Y-1768556D01*
X-922555Y-1773890D01*
X-907061Y-1784050D01*
X-855245Y-1836120D01*
X-855245Y-1763476D01*
X-938303Y-1651208D02*
G01*
X-948717Y-1656288D01*
X-959131Y-1666702D01*
X-964211Y-1677116D01*
X-964211Y-1697944D01*
X-959131Y-1708358D01*
X-948717Y-1718772D01*
X-938303Y-1723852D01*
X-922555Y-1729186D01*
X-896647Y-1729186D01*
X-881153Y-1723852D01*
X-870739Y-1718772D01*
X-860325Y-1708358D01*
X-855245Y-1697944D01*
X-855245Y-1677116D01*
X-860325Y-1666702D01*
X-870739Y-1656288D01*
X-881153Y-1651208D01*
X-818669Y-1616918D02*
G01*
X-818669Y-1523446D01*
X-964211Y-1489156D02*
G01*
X-855245Y-1489156D01*
X-964211Y-1454866D02*
G01*
X-855245Y-1454866D01*
X-964211Y-1454866D02*
G01*
X-855245Y-1381968D01*
X-964211Y-1381968D02*
G01*
X-855245Y-1381968D01*
X16717411Y-1286192D02*
G01*
X16608445Y-1286192D01*
X16691503Y-1325562D02*
G01*
X16696583Y-1325562D01*
X16706997Y-1330896D01*
X16712331Y-1335976D01*
X16717411Y-1346390D01*
X16717411Y-1367218D01*
X16712331Y-1377632D01*
X16706997Y-1382712D01*
X16696583Y-1388046D01*
X16686169Y-1388046D01*
X16675755Y-1382712D01*
X16660261Y-1372552D01*
X16608445Y-1320482D01*
X16608445Y-1393126D01*
X16691503Y-1505394D02*
G01*
X16701917Y-1500314D01*
X16712331Y-1489900D01*
X16717411Y-1479486D01*
X16717411Y-1458658D01*
X16712331Y-1448244D01*
X16701917Y-1437830D01*
X16691503Y-1432750D01*
X16675755Y-1427416D01*
X16649847Y-1427416D01*
X16634353Y-1432750D01*
X16623939Y-1437830D01*
X16613525Y-1448244D01*
X16608445Y-1458658D01*
X16608445Y-1479486D01*
X16613525Y-1489900D01*
X16623939Y-1500314D01*
X16634353Y-1505394D01*
X16571869Y-1539684D02*
G01*
X16571869Y-1633156D01*
X16717411Y-1698688D02*
G01*
X16712331Y-1688274D01*
X16701917Y-1677860D01*
X16691503Y-1672780D01*
X16675755Y-1667446D01*
X16649847Y-1667446D01*
X16634353Y-1672780D01*
X16623939Y-1677860D01*
X16613525Y-1688274D01*
X16608445Y-1698688D01*
X16608445Y-1719516D01*
X16613525Y-1729930D01*
X16623939Y-1740344D01*
X16634353Y-1745424D01*
X16649847Y-1750758D01*
X16675755Y-1750758D01*
X16691503Y-1745424D01*
X16701917Y-1740344D01*
X16712331Y-1729930D01*
X16717411Y-1719516D01*
X16717411Y-1698688D01*
X16717411Y-1785048D02*
G01*
X16639433Y-1785048D01*
X16623939Y-1790128D01*
X16613525Y-1800542D01*
X16608445Y-1816036D01*
X16608445Y-1826450D01*
X16613525Y-1842198D01*
X16623939Y-1852612D01*
X16639433Y-1857692D01*
X16717411Y-1857692D01*
X16717411Y-1928304D02*
G01*
X16608445Y-1928304D01*
X16717411Y-1891982D02*
G01*
X16717411Y-1964626D01*
X584202Y-62484D02*
G01*
X584202Y-171450D01*
X584202Y-171450D02*
G01*
X646432Y-171450D01*
X711964Y-62484D02*
G01*
X701550Y-67563D01*
X691136Y-77978D01*
X686056Y-88392D01*
X680722Y-104139D01*
X680722Y-130047D01*
X686056Y-145542D01*
X691136Y-155955D01*
X701550Y-166370D01*
X711964Y-171450D01*
X732792Y-171450D01*
X743206Y-166370D01*
X753620Y-155955D01*
X758700Y-145542D01*
X764034Y-130047D01*
X764034Y-104139D01*
X758700Y-88392D01*
X753620Y-77978D01*
X743206Y-67563D01*
X732792Y-62484D01*
X711964Y-62484D01*
X876302Y-88392D02*
G01*
X870968Y-77978D01*
X860554Y-67563D01*
X850140Y-62484D01*
X829312Y-62484D01*
X819152Y-67563D01*
X808738Y-77978D01*
X803404Y-88392D01*
X798324Y-104139D01*
X798324Y-130047D01*
X803404Y-145542D01*
X808738Y-155955D01*
X819152Y-166370D01*
X829312Y-171450D01*
X850140Y-171450D01*
X860554Y-166370D01*
X870968Y-155955D01*
X876302Y-145542D01*
X910592Y-62484D02*
G01*
X910592Y-171450D01*
X983236Y-62484D02*
G01*
X910592Y-135128D01*
X936500Y-109220D02*
G01*
X983236Y-171450D01*
X1017526Y-208026D02*
G01*
X1110998Y-208026D01*
X1176530Y-62484D02*
G01*
X1160782Y-67563D01*
X1150622Y-83312D01*
X1145288Y-109220D01*
X1145288Y-124713D01*
X1150622Y-150876D01*
X1160782Y-166370D01*
X1176530Y-171450D01*
X1186944Y-171450D01*
X1202438Y-166370D01*
X1212852Y-150876D01*
X1217932Y-124713D01*
X1217932Y-109220D01*
X1212852Y-83312D01*
X1202438Y-67563D01*
X1186944Y-62484D01*
X1176530Y-62484D01*
X2628905Y-62484D02*
G01*
X2628905Y-171450D01*
X2628905Y-171450D02*
G01*
X2691135Y-171450D01*
X2756667Y-62484D02*
G01*
X2746253Y-67563D01*
X2735839Y-77978D01*
X2730759Y-88392D01*
X2725425Y-104139D01*
X2725425Y-130047D01*
X2730759Y-145542D01*
X2735839Y-155955D01*
X2746253Y-166370D01*
X2756667Y-171450D01*
X2777495Y-171450D01*
X2787909Y-166370D01*
X2798323Y-155955D01*
X2803403Y-145542D01*
X2808737Y-130047D01*
X2808737Y-104139D01*
X2803403Y-88392D01*
X2798323Y-77978D01*
X2787909Y-67563D01*
X2777495Y-62484D01*
X2756667Y-62484D01*
X2921005Y-88392D02*
G01*
X2915671Y-77978D01*
X2905257Y-67563D01*
X2894843Y-62484D01*
X2874015Y-62484D01*
X2863855Y-67563D01*
X2853441Y-77978D01*
X2848107Y-88392D01*
X2843027Y-104139D01*
X2843027Y-130047D01*
X2848107Y-145542D01*
X2853441Y-155955D01*
X2863855Y-166370D01*
X2874015Y-171450D01*
X2894843Y-171450D01*
X2905257Y-166370D01*
X2915671Y-155955D01*
X2921005Y-145542D01*
X2955295Y-62484D02*
G01*
X2955295Y-171450D01*
X3027939Y-62484D02*
G01*
X2955295Y-135128D01*
X2981203Y-109220D02*
G01*
X3027939Y-171450D01*
X3062229Y-208026D02*
G01*
X3155701Y-208026D01*
X3189991Y-83312D02*
G01*
X3200405Y-77978D01*
X3215899Y-62484D01*
X3215899Y-171450D01*
X4584710Y-62484D02*
G01*
X4584710Y-171450D01*
X4584710Y-171450D02*
G01*
X4646940Y-171450D01*
X4712472Y-62484D02*
G01*
X4702058Y-67563D01*
X4691644Y-77978D01*
X4686564Y-88392D01*
X4681230Y-104139D01*
X4681230Y-130047D01*
X4686564Y-145542D01*
X4691644Y-155955D01*
X4702058Y-166370D01*
X4712472Y-171450D01*
X4733300Y-171450D01*
X4743714Y-166370D01*
X4754128Y-155955D01*
X4759208Y-145542D01*
X4764542Y-130047D01*
X4764542Y-104139D01*
X4759208Y-88392D01*
X4754128Y-77978D01*
X4743714Y-67563D01*
X4733300Y-62484D01*
X4712472Y-62484D01*
X4876810Y-88392D02*
G01*
X4871476Y-77978D01*
X4861062Y-67563D01*
X4850648Y-62484D01*
X4829820Y-62484D01*
X4819660Y-67563D01*
X4809246Y-77978D01*
X4803912Y-88392D01*
X4798832Y-104139D01*
X4798832Y-130047D01*
X4803912Y-145542D01*
X4809246Y-155955D01*
X4819660Y-166370D01*
X4829820Y-171450D01*
X4850648Y-171450D01*
X4861062Y-166370D01*
X4871476Y-155955D01*
X4876810Y-145542D01*
X4911100Y-62484D02*
G01*
X4911100Y-171450D01*
X4983744Y-62484D02*
G01*
X4911100Y-135128D01*
X4937008Y-109220D02*
G01*
X4983744Y-171450D01*
X5018034Y-208026D02*
G01*
X5111506Y-208026D01*
X5151130Y-88392D02*
G01*
X5151130Y-83312D01*
X5156210Y-72897D01*
X5161290Y-67563D01*
X5171704Y-62484D01*
X5192532Y-62484D01*
X5202946Y-67563D01*
X5208280Y-72897D01*
X5213360Y-83312D01*
X5213360Y-93726D01*
X5208280Y-104139D01*
X5197866Y-119634D01*
X5145796Y-171450D01*
X5218440Y-171450D01*
X6578587Y-75178D02*
G01*
X6578587Y-184144D01*
X6578587Y-184144D02*
G01*
X6640817Y-184144D01*
X6706349Y-75178D02*
G01*
X6695935Y-80258D01*
X6685521Y-90672D01*
X6680441Y-101086D01*
X6675107Y-116834D01*
X6675107Y-142742D01*
X6680441Y-158236D01*
X6685521Y-168650D01*
X6695935Y-179064D01*
X6706349Y-184144D01*
X6727177Y-184144D01*
X6737591Y-179064D01*
X6748005Y-168650D01*
X6753085Y-158236D01*
X6758419Y-142742D01*
X6758419Y-116834D01*
X6753085Y-101086D01*
X6748005Y-90672D01*
X6737591Y-80258D01*
X6727177Y-75178D01*
X6706349Y-75178D01*
X6870687Y-101086D02*
G01*
X6865353Y-90672D01*
X6854939Y-80258D01*
X6844525Y-75178D01*
X6823697Y-75178D01*
X6813537Y-80258D01*
X6803123Y-90672D01*
X6797789Y-101086D01*
X6792709Y-116834D01*
X6792709Y-142742D01*
X6797789Y-158236D01*
X6803123Y-168650D01*
X6813537Y-179064D01*
X6823697Y-184144D01*
X6844525Y-184144D01*
X6854939Y-179064D01*
X6865353Y-168650D01*
X6870687Y-158236D01*
X6904977Y-75178D02*
G01*
X6904977Y-184144D01*
X6977621Y-75178D02*
G01*
X6904977Y-147822D01*
X6930885Y-121914D02*
G01*
X6977621Y-184144D01*
X7011911Y-220720D02*
G01*
X7105383Y-220720D01*
X7150087Y-75178D02*
G01*
X7207237Y-75178D01*
X7175995Y-116834D01*
X7191743Y-116834D01*
X7202157Y-121914D01*
X7207237Y-126994D01*
X7212317Y-142742D01*
X7212317Y-153156D01*
X7207237Y-168650D01*
X7196823Y-179064D01*
X7181329Y-184144D01*
X7165581Y-184144D01*
X7150087Y-179064D01*
X7145007Y-173984D01*
X7139673Y-163570D01*
X8585192Y-62484D02*
G01*
X8585192Y-171450D01*
X8585192Y-171450D02*
G01*
X8647422Y-171450D01*
X8712954Y-62484D02*
G01*
X8702540Y-67563D01*
X8692126Y-77978D01*
X8687046Y-88392D01*
X8681712Y-104139D01*
X8681712Y-130047D01*
X8687046Y-145542D01*
X8692126Y-155955D01*
X8702540Y-166370D01*
X8712954Y-171450D01*
X8733782Y-171450D01*
X8744196Y-166370D01*
X8754610Y-155955D01*
X8759690Y-145542D01*
X8765024Y-130047D01*
X8765024Y-104139D01*
X8759690Y-88392D01*
X8754610Y-77978D01*
X8744196Y-67563D01*
X8733782Y-62484D01*
X8712954Y-62484D01*
X8877292Y-88392D02*
G01*
X8871958Y-77978D01*
X8861544Y-67563D01*
X8851130Y-62484D01*
X8830302Y-62484D01*
X8820142Y-67563D01*
X8809728Y-77978D01*
X8804394Y-88392D01*
X8799314Y-104139D01*
X8799314Y-130047D01*
X8804394Y-145542D01*
X8809728Y-155955D01*
X8820142Y-166370D01*
X8830302Y-171450D01*
X8851130Y-171450D01*
X8861544Y-166370D01*
X8871958Y-155955D01*
X8877292Y-145542D01*
X8911582Y-62484D02*
G01*
X8911582Y-171450D01*
X8984226Y-62484D02*
G01*
X8911582Y-135128D01*
X8937490Y-109220D02*
G01*
X8984226Y-171450D01*
X9018516Y-208026D02*
G01*
X9111988Y-208026D01*
X9198348Y-62484D02*
G01*
X9146278Y-135128D01*
X9224256Y-135128D01*
X9198348Y-62484D02*
G01*
X9198348Y-171450D01*
X10591797Y-62484D02*
G01*
X10591797Y-171450D01*
X10591797Y-171450D02*
G01*
X10654027Y-171450D01*
X10719559Y-62484D02*
G01*
X10709145Y-67563D01*
X10698731Y-77978D01*
X10693651Y-88392D01*
X10688317Y-104139D01*
X10688317Y-130047D01*
X10693651Y-145542D01*
X10698731Y-155955D01*
X10709145Y-166370D01*
X10719559Y-171450D01*
X10740387Y-171450D01*
X10750801Y-166370D01*
X10761215Y-155955D01*
X10766295Y-145542D01*
X10771629Y-130047D01*
X10771629Y-104139D01*
X10766295Y-88392D01*
X10761215Y-77978D01*
X10750801Y-67563D01*
X10740387Y-62484D01*
X10719559Y-62484D01*
X10883897Y-88392D02*
G01*
X10878563Y-77978D01*
X10868149Y-67563D01*
X10857735Y-62484D01*
X10836907Y-62484D01*
X10826747Y-67563D01*
X10816333Y-77978D01*
X10810999Y-88392D01*
X10805919Y-104139D01*
X10805919Y-130047D01*
X10810999Y-145542D01*
X10816333Y-155955D01*
X10826747Y-166370D01*
X10836907Y-171450D01*
X10857735Y-171450D01*
X10868149Y-166370D01*
X10878563Y-155955D01*
X10883897Y-145542D01*
X10918187Y-62484D02*
G01*
X10918187Y-171450D01*
X10990831Y-62484D02*
G01*
X10918187Y-135128D01*
X10944095Y-109220D02*
G01*
X10990831Y-171450D01*
X11025121Y-208026D02*
G01*
X11118593Y-208026D01*
X11215367Y-62484D02*
G01*
X11163297Y-62484D01*
X11158217Y-109220D01*
X11163297Y-104139D01*
X11178791Y-98805D01*
X11194539Y-98805D01*
X11210033Y-104139D01*
X11220447Y-114300D01*
X11225527Y-130047D01*
X11225527Y-140462D01*
X11220447Y-155955D01*
X11210033Y-166370D01*
X11194539Y-171450D01*
X11178791Y-171450D01*
X11163297Y-166370D01*
X11158217Y-161289D01*
X11152883Y-150876D01*
X12598400Y-62484D02*
G01*
X12598400Y-171450D01*
X12598400Y-171450D02*
G01*
X12660629Y-171450D01*
X12726161Y-62484D02*
G01*
X12715747Y-67563D01*
X12705334Y-77978D01*
X12700254Y-88392D01*
X12694920Y-104139D01*
X12694920Y-130047D01*
X12700254Y-145542D01*
X12705334Y-155955D01*
X12715747Y-166370D01*
X12726161Y-171450D01*
X12746990Y-171450D01*
X12757404Y-166370D01*
X12767818Y-155955D01*
X12772897Y-145542D01*
X12778231Y-130047D01*
X12778231Y-104139D01*
X12772897Y-88392D01*
X12767818Y-77978D01*
X12757404Y-67563D01*
X12746990Y-62484D01*
X12726161Y-62484D01*
X12890500Y-88392D02*
G01*
X12885165Y-77978D01*
X12874752Y-67563D01*
X12864338Y-62484D01*
X12843509Y-62484D01*
X12833350Y-67563D01*
X12822936Y-77978D01*
X12817602Y-88392D01*
X12812522Y-104139D01*
X12812522Y-130047D01*
X12817602Y-145542D01*
X12822936Y-155955D01*
X12833350Y-166370D01*
X12843509Y-171450D01*
X12864338Y-171450D01*
X12874752Y-166370D01*
X12885165Y-155955D01*
X12890500Y-145542D01*
X12924790Y-62484D02*
G01*
X12924790Y-171450D01*
X12997434Y-62484D02*
G01*
X12924790Y-135128D01*
X12950697Y-109220D02*
G01*
X12997434Y-171450D01*
X13031724Y-208026D02*
G01*
X13125195Y-208026D01*
X13221970Y-77978D02*
G01*
X13216636Y-67563D01*
X13201141Y-62484D01*
X13190727Y-62484D01*
X13174979Y-67563D01*
X13164820Y-83312D01*
X13159486Y-109220D01*
X13159486Y-135128D01*
X13164820Y-155955D01*
X13174979Y-166370D01*
X13190727Y-171450D01*
X13195808Y-171450D01*
X13211556Y-166370D01*
X13221970Y-155955D01*
X13227050Y-140462D01*
X13227050Y-135128D01*
X13221970Y-119634D01*
X13211556Y-109220D01*
X13195808Y-104139D01*
X13190727Y-104139D01*
X13174979Y-109220D01*
X13164820Y-119634D01*
X13159486Y-135128D01*
X14579605Y-62484D02*
G01*
X14579605Y-171450D01*
X14579605Y-171450D02*
G01*
X14641835Y-171450D01*
X14707367Y-62484D02*
G01*
X14696953Y-67563D01*
X14686539Y-77978D01*
X14681459Y-88392D01*
X14676125Y-104139D01*
X14676125Y-130047D01*
X14681459Y-145542D01*
X14686539Y-155955D01*
X14696953Y-166370D01*
X14707367Y-171450D01*
X14728195Y-171450D01*
X14738609Y-166370D01*
X14749023Y-155955D01*
X14754103Y-145542D01*
X14759437Y-130047D01*
X14759437Y-104139D01*
X14754103Y-88392D01*
X14749023Y-77978D01*
X14738609Y-67563D01*
X14728195Y-62484D01*
X14707367Y-62484D01*
X14871705Y-88392D02*
G01*
X14866371Y-77978D01*
X14855957Y-67563D01*
X14845543Y-62484D01*
X14824715Y-62484D01*
X14814555Y-67563D01*
X14804141Y-77978D01*
X14798807Y-88392D01*
X14793727Y-104139D01*
X14793727Y-130047D01*
X14798807Y-145542D01*
X14804141Y-155955D01*
X14814555Y-166370D01*
X14824715Y-171450D01*
X14845543Y-171450D01*
X14855957Y-166370D01*
X14866371Y-155955D01*
X14871705Y-145542D01*
X14905995Y-62484D02*
G01*
X14905995Y-171450D01*
X14978639Y-62484D02*
G01*
X14905995Y-135128D01*
X14931903Y-109220D02*
G01*
X14978639Y-171450D01*
X15012929Y-208026D02*
G01*
X15106401Y-208026D01*
X15213335Y-62484D02*
G01*
X15161519Y-171450D01*
X15140691Y-62484D02*
G01*
X15213335Y-62484D01*
X7467600Y-4164591D02*
G01*
X7467600Y-4273557D01*
X7467600Y-4164591D02*
G01*
X7509256Y-4273557D01*
X7550658Y-4164591D02*
G01*
X7509256Y-4273557D01*
X7550658Y-4164591D02*
G01*
X7550658Y-4273557D01*
X7662925Y-4190499D02*
G01*
X7657845Y-4180085D01*
X7647431Y-4169671D01*
X7637018Y-4164591D01*
X7616190Y-4164591D01*
X7605775Y-4169671D01*
X7595361Y-4180085D01*
X7590281Y-4190499D01*
X7584947Y-4206247D01*
X7584947Y-4232155D01*
X7590281Y-4247649D01*
X7595361Y-4258063D01*
X7605775Y-4268477D01*
X7616190Y-4273557D01*
X7637018Y-4273557D01*
X7647431Y-4268477D01*
X7657845Y-4258063D01*
X7662925Y-4247649D01*
X7697215Y-4164591D02*
G01*
X7697215Y-4273557D01*
X7697215Y-4164591D02*
G01*
X7743952Y-4164591D01*
X7759700Y-4169671D01*
X7764779Y-4175005D01*
X7769859Y-4185419D01*
X7769859Y-4200913D01*
X7764779Y-4211327D01*
X7759700Y-4216407D01*
X7743952Y-4221741D01*
X7697215Y-4221741D01*
X7809484Y-4190499D02*
G01*
X7809484Y-4185419D01*
X7814563Y-4175005D01*
X7819897Y-4169671D01*
X7830311Y-4164591D01*
X7851140Y-4164591D01*
X7861300Y-4169671D01*
X7866634Y-4175005D01*
X7871713Y-4185419D01*
X7871713Y-4195833D01*
X7866634Y-4206247D01*
X7856220Y-4221741D01*
X7804150Y-4273557D01*
X7877047Y-4273557D01*
X7921752Y-4164591D02*
G01*
X7978902Y-4164591D01*
X7947659Y-4206247D01*
X7963154Y-4206247D01*
X7973568Y-4211327D01*
X7978902Y-4216407D01*
X7983981Y-4232155D01*
X7983981Y-4242569D01*
X7978902Y-4258063D01*
X7968488Y-4268477D01*
X7952740Y-4273557D01*
X7937245Y-4273557D01*
X7921752Y-4268477D01*
X7916418Y-4263397D01*
X7911338Y-4252983D01*
X8049513Y-4164591D02*
G01*
X8034020Y-4169671D01*
X8023606Y-4185419D01*
X8018272Y-4211327D01*
X8018272Y-4226821D01*
X8023606Y-4252983D01*
X8034020Y-4268477D01*
X8049513Y-4273557D01*
X8059927Y-4273557D01*
X8075422Y-4268477D01*
X8085836Y-4252983D01*
X8091170Y-4226821D01*
X8091170Y-4211327D01*
X8085836Y-4185419D01*
X8075422Y-4169671D01*
X8059927Y-4164591D01*
X8049513Y-4164591D01*
X8156447Y-4164591D02*
G01*
X8140954Y-4169671D01*
X8130540Y-4185419D01*
X8125459Y-4211327D01*
X8125459Y-4226821D01*
X8130540Y-4252983D01*
X8140954Y-4268477D01*
X8156447Y-4273557D01*
X8166861Y-4273557D01*
X8182609Y-4268477D01*
X8192770Y-4252983D01*
X8198104Y-4226821D01*
X8198104Y-4211327D01*
X8192770Y-4185419D01*
X8182609Y-4169671D01*
X8166861Y-4164591D01*
X8156447Y-4164591D01*
X8258302Y-4164591D02*
G01*
X8242808Y-4169671D01*
X8237474Y-4180085D01*
X8237474Y-4190499D01*
X8242808Y-4200913D01*
X8253222Y-4206247D01*
X8274050Y-4211327D01*
X8289543Y-4216407D01*
X8299958Y-4226821D01*
X8305038Y-4237235D01*
X8305038Y-4252983D01*
X8299958Y-4263397D01*
X8294624Y-4268477D01*
X8279129Y-4273557D01*
X8258302Y-4273557D01*
X8242808Y-4268477D01*
X8237474Y-4263397D01*
X8232393Y-4252983D01*
X8232393Y-4237235D01*
X8237474Y-4226821D01*
X8247888Y-4216407D01*
X8263636Y-4211327D01*
X8284209Y-4206247D01*
X8294624Y-4200913D01*
X8299958Y-4190499D01*
X8299958Y-4180085D01*
X8294624Y-4169671D01*
X8279129Y-4164591D01*
X8258302Y-4164591D01*
X8339327Y-4164591D02*
G01*
X8339327Y-4273557D01*
X8339327Y-4164591D02*
G01*
X8386063Y-4164591D01*
X8401811Y-4169671D01*
X8406891Y-4175005D01*
X8412225Y-4185419D01*
X8412225Y-4200913D01*
X8406891Y-4211327D01*
X8401811Y-4216407D01*
X8386063Y-4221741D01*
X8339327Y-4221741D01*
X754379Y-3069691D02*
G01*
X754379Y-3064611D01*
X759713Y-3054197D01*
X764794Y-3048863D01*
X775207Y-3043783D01*
X796036Y-3043783D01*
X806450Y-3048863D01*
X811529Y-3054197D01*
X816863Y-3064611D01*
X816863Y-3075025D01*
X811529Y-3085439D01*
X801370Y-3100933D01*
X749300Y-3152749D01*
X821944Y-3152749D01*
X861568Y-3126841D02*
G01*
X856234Y-3132175D01*
X861568Y-3137255D01*
X866647Y-3132175D01*
X861568Y-3126841D01*
X906271Y-3069691D02*
G01*
X906271Y-3064611D01*
X911352Y-3054197D01*
X916686Y-3048863D01*
X927100Y-3043783D01*
X947673Y-3043783D01*
X958087Y-3048863D01*
X963421Y-3054197D01*
X968502Y-3064611D01*
X968502Y-3075025D01*
X963421Y-3085439D01*
X953007Y-3100933D01*
X900937Y-3152749D01*
X973836Y-3152749D01*
X1008126Y-3043783D02*
G01*
X1008126Y-3152749D01*
X1080770Y-3043783D02*
G01*
X1008126Y-3116427D01*
X1034034Y-3090519D02*
G01*
X1080770Y-3152749D01*
X2748279Y-3069691D02*
G01*
X2748279Y-3064611D01*
X2753613Y-3054197D01*
X2758693Y-3048863D01*
X2769108Y-3043783D01*
X2789936Y-3043783D01*
X2800350Y-3048863D01*
X2805429Y-3054197D01*
X2810763Y-3064611D01*
X2810763Y-3075025D01*
X2805429Y-3085439D01*
X2795270Y-3100933D01*
X2743200Y-3152749D01*
X2815843Y-3152749D01*
X2855468Y-3126841D02*
G01*
X2850134Y-3132175D01*
X2855468Y-3137255D01*
X2860547Y-3132175D01*
X2855468Y-3126841D01*
X2900172Y-3069691D02*
G01*
X2900172Y-3064611D01*
X2905252Y-3054197D01*
X2910586Y-3048863D01*
X2921000Y-3043783D01*
X2941574Y-3043783D01*
X2951988Y-3048863D01*
X2957322Y-3054197D01*
X2962402Y-3064611D01*
X2962402Y-3075025D01*
X2957322Y-3085439D01*
X2946908Y-3100933D01*
X2894838Y-3152749D01*
X2967736Y-3152749D01*
X3002025Y-3043783D02*
G01*
X3002025Y-3152749D01*
X3074670Y-3043783D02*
G01*
X3002025Y-3116427D01*
X3027934Y-3090519D02*
G01*
X3074670Y-3152749D01*
X4742179Y-3069691D02*
G01*
X4742179Y-3064611D01*
X4747513Y-3054197D01*
X4752593Y-3048863D01*
X4763008Y-3043783D01*
X4783836Y-3043783D01*
X4794250Y-3048863D01*
X4799329Y-3054197D01*
X4804663Y-3064611D01*
X4804663Y-3075025D01*
X4799329Y-3085439D01*
X4789170Y-3100933D01*
X4737100Y-3152749D01*
X4809743Y-3152749D01*
X4849368Y-3126841D02*
G01*
X4844034Y-3132175D01*
X4849368Y-3137255D01*
X4854447Y-3132175D01*
X4849368Y-3126841D01*
X4894072Y-3069691D02*
G01*
X4894072Y-3064611D01*
X4899152Y-3054197D01*
X4904486Y-3048863D01*
X4914900Y-3043783D01*
X4935474Y-3043783D01*
X4945888Y-3048863D01*
X4951222Y-3054197D01*
X4956302Y-3064611D01*
X4956302Y-3075025D01*
X4951222Y-3085439D01*
X4940808Y-3100933D01*
X4888738Y-3152749D01*
X4961636Y-3152749D01*
X4995925Y-3043783D02*
G01*
X4995925Y-3152749D01*
X5068570Y-3043783D02*
G01*
X4995925Y-3116427D01*
X5021834Y-3090519D02*
G01*
X5068570Y-3152749D01*
X6748779Y-3074090D02*
G01*
X6748779Y-3069010D01*
X6754113Y-3058596D01*
X6759193Y-3053262D01*
X6769608Y-3048182D01*
X6790436Y-3048182D01*
X6800850Y-3053262D01*
X6805929Y-3058596D01*
X6811263Y-3069010D01*
X6811263Y-3079424D01*
X6805929Y-3089838D01*
X6795770Y-3105332D01*
X6743700Y-3157148D01*
X6816343Y-3157148D01*
X6855968Y-3131240D02*
G01*
X6850634Y-3136574D01*
X6855968Y-3141654D01*
X6861047Y-3136574D01*
X6855968Y-3131240D01*
X6900672Y-3074090D02*
G01*
X6900672Y-3069010D01*
X6905752Y-3058596D01*
X6911086Y-3053262D01*
X6921500Y-3048182D01*
X6942074Y-3048182D01*
X6952488Y-3053262D01*
X6957822Y-3058596D01*
X6962902Y-3069010D01*
X6962902Y-3079424D01*
X6957822Y-3089838D01*
X6947408Y-3105332D01*
X6895338Y-3157148D01*
X6968236Y-3157148D01*
X7002525Y-3048182D02*
G01*
X7002525Y-3157148D01*
X7075170Y-3048182D02*
G01*
X7002525Y-3120826D01*
X7028434Y-3094918D02*
G01*
X7075170Y-3157148D01*
X8729979Y-3069691D02*
G01*
X8729979Y-3064611D01*
X8735313Y-3054197D01*
X8740393Y-3048863D01*
X8750808Y-3043783D01*
X8771636Y-3043783D01*
X8782050Y-3048863D01*
X8787129Y-3054197D01*
X8792463Y-3064611D01*
X8792463Y-3075025D01*
X8787129Y-3085439D01*
X8776970Y-3100933D01*
X8724900Y-3152749D01*
X8797543Y-3152749D01*
X8837168Y-3126841D02*
G01*
X8831834Y-3132175D01*
X8837168Y-3137255D01*
X8842247Y-3132175D01*
X8837168Y-3126841D01*
X8881872Y-3069691D02*
G01*
X8881872Y-3064611D01*
X8886952Y-3054197D01*
X8892286Y-3048863D01*
X8902700Y-3043783D01*
X8923274Y-3043783D01*
X8933688Y-3048863D01*
X8939022Y-3054197D01*
X8944102Y-3064611D01*
X8944102Y-3075025D01*
X8939022Y-3085439D01*
X8928608Y-3100933D01*
X8876538Y-3152749D01*
X8949436Y-3152749D01*
X8983725Y-3043783D02*
G01*
X8983725Y-3152749D01*
X9056370Y-3043783D02*
G01*
X8983725Y-3116427D01*
X9009634Y-3090519D02*
G01*
X9056370Y-3152749D01*
X10736579Y-3069691D02*
G01*
X10736579Y-3064611D01*
X10741913Y-3054197D01*
X10746993Y-3048863D01*
X10757408Y-3043783D01*
X10778236Y-3043783D01*
X10788650Y-3048863D01*
X10793729Y-3054197D01*
X10799063Y-3064611D01*
X10799063Y-3075025D01*
X10793729Y-3085439D01*
X10783570Y-3100933D01*
X10731500Y-3152749D01*
X10804143Y-3152749D01*
X10843768Y-3126841D02*
G01*
X10838434Y-3132175D01*
X10843768Y-3137255D01*
X10848847Y-3132175D01*
X10843768Y-3126841D01*
X10888472Y-3069691D02*
G01*
X10888472Y-3064611D01*
X10893552Y-3054197D01*
X10898886Y-3048863D01*
X10909300Y-3043783D01*
X10929874Y-3043783D01*
X10940288Y-3048863D01*
X10945622Y-3054197D01*
X10950702Y-3064611D01*
X10950702Y-3075025D01*
X10945622Y-3085439D01*
X10935208Y-3100933D01*
X10883138Y-3152749D01*
X10956036Y-3152749D01*
X10990325Y-3043783D02*
G01*
X10990325Y-3152749D01*
X11062970Y-3043783D02*
G01*
X10990325Y-3116427D01*
X11016234Y-3090519D02*
G01*
X11062970Y-3152749D01*
X12743179Y-3069691D02*
G01*
X12743179Y-3064611D01*
X12748513Y-3054197D01*
X12753593Y-3048863D01*
X12764008Y-3043783D01*
X12784836Y-3043783D01*
X12795250Y-3048863D01*
X12800329Y-3054197D01*
X12805663Y-3064611D01*
X12805663Y-3075025D01*
X12800329Y-3085439D01*
X12790170Y-3100933D01*
X12738100Y-3152749D01*
X12810743Y-3152749D01*
X12850368Y-3126841D02*
G01*
X12845034Y-3132175D01*
X12850368Y-3137255D01*
X12855447Y-3132175D01*
X12850368Y-3126841D01*
X12895072Y-3069691D02*
G01*
X12895072Y-3064611D01*
X12900152Y-3054197D01*
X12905486Y-3048863D01*
X12915900Y-3043783D01*
X12936474Y-3043783D01*
X12946888Y-3048863D01*
X12952222Y-3054197D01*
X12957302Y-3064611D01*
X12957302Y-3075025D01*
X12952222Y-3085439D01*
X12941808Y-3100933D01*
X12889738Y-3152749D01*
X12962636Y-3152749D01*
X12996925Y-3043783D02*
G01*
X12996925Y-3152749D01*
X13069570Y-3043783D02*
G01*
X12996925Y-3116427D01*
X13022834Y-3090519D02*
G01*
X13069570Y-3152749D01*
X14737079Y-3069691D02*
G01*
X14737079Y-3064611D01*
X14742413Y-3054197D01*
X14747493Y-3048863D01*
X14757908Y-3043783D01*
X14778736Y-3043783D01*
X14789150Y-3048863D01*
X14794229Y-3054197D01*
X14799563Y-3064611D01*
X14799563Y-3075025D01*
X14794229Y-3085439D01*
X14784070Y-3100933D01*
X14732000Y-3152749D01*
X14804643Y-3152749D01*
X14844268Y-3126841D02*
G01*
X14838934Y-3132175D01*
X14844268Y-3137255D01*
X14849347Y-3132175D01*
X14844268Y-3126841D01*
X14888972Y-3069691D02*
G01*
X14888972Y-3064611D01*
X14894052Y-3054197D01*
X14899386Y-3048863D01*
X14909800Y-3043783D01*
X14930374Y-3043783D01*
X14940788Y-3048863D01*
X14946122Y-3054197D01*
X14951202Y-3064611D01*
X14951202Y-3075025D01*
X14946122Y-3085439D01*
X14935708Y-3100933D01*
X14883638Y-3152749D01*
X14956536Y-3152749D01*
X14990825Y-3043783D02*
G01*
X14990825Y-3152749D01*
X15063470Y-3043783D02*
G01*
X14990825Y-3116427D01*
X15016734Y-3090519D02*
G01*
X15063470Y-3152749D01*
X11112500Y-4515612D02*
G01*
X11122913Y-4510278D01*
X11138408Y-4494784D01*
X11138408Y-4603750D01*
X11203940Y-4494784D02*
G01*
X11188445Y-4499863D01*
X11178031Y-4515612D01*
X11172697Y-4541520D01*
X11172697Y-4557013D01*
X11178031Y-4583176D01*
X11188445Y-4598670D01*
X11203940Y-4603750D01*
X11214354Y-4603750D01*
X11229847Y-4598670D01*
X11240261Y-4583176D01*
X11245595Y-4557013D01*
X11245595Y-4541520D01*
X11240261Y-4515612D01*
X11229847Y-4499863D01*
X11214354Y-4494784D01*
X11203940Y-4494784D01*
X11279886Y-4494784D02*
G01*
X11279886Y-4603750D01*
X11352529Y-4494784D02*
G01*
X11279886Y-4567428D01*
X11305793Y-4541520D02*
G01*
X11352529Y-4603750D01*
X11099800Y-4172712D02*
G01*
X11110213Y-4167378D01*
X11125708Y-4151884D01*
X11125708Y-4260850D01*
X11191240Y-4151884D02*
G01*
X11175745Y-4156963D01*
X11165331Y-4172712D01*
X11159997Y-4198620D01*
X11159997Y-4214113D01*
X11165331Y-4240276D01*
X11175745Y-4255770D01*
X11191240Y-4260850D01*
X11201654Y-4260850D01*
X11217147Y-4255770D01*
X11227561Y-4240276D01*
X11232895Y-4214113D01*
X11232895Y-4198620D01*
X11227561Y-4172712D01*
X11217147Y-4156963D01*
X11201654Y-4151884D01*
X11191240Y-4151884D01*
X11267186Y-4151884D02*
G01*
X11267186Y-4260850D01*
X11339829Y-4151884D02*
G01*
X11267186Y-4224528D01*
X11293093Y-4198620D02*
G01*
X11339829Y-4260850D01*
X11099800Y-3804412D02*
G01*
X11110213Y-3799078D01*
X11125708Y-3783584D01*
X11125708Y-3892550D01*
X11191240Y-3783584D02*
G01*
X11175745Y-3788663D01*
X11165331Y-3804412D01*
X11159997Y-3830320D01*
X11159997Y-3845813D01*
X11165331Y-3871976D01*
X11175745Y-3887470D01*
X11191240Y-3892550D01*
X11201654Y-3892550D01*
X11217147Y-3887470D01*
X11227561Y-3871976D01*
X11232895Y-3845813D01*
X11232895Y-3830320D01*
X11227561Y-3804412D01*
X11217147Y-3788663D01*
X11201654Y-3783584D01*
X11191240Y-3783584D01*
X11267186Y-3783584D02*
G01*
X11267186Y-3892550D01*
X11339829Y-3783584D02*
G01*
X11267186Y-3856228D01*
X11293093Y-3830320D02*
G01*
X11339829Y-3892550D01*
X4662032Y-4090670D02*
G01*
X4589134Y-4038600D01*
X4589134Y-4116578D01*
X4662032Y-4090670D02*
G01*
X4552812Y-4090670D01*
X4578720Y-4155947D02*
G01*
X4573640Y-4150868D01*
X4568306Y-4155947D01*
X4573640Y-4161281D01*
X4578720Y-4155947D01*
X4662032Y-4268215D02*
G01*
X4552812Y-4216400D01*
X4662032Y-4195571D02*
G01*
X4662032Y-4268215D01*
X4662032Y-4302505D02*
G01*
X4552812Y-4302505D01*
X4662032Y-4375150D02*
G01*
X4589134Y-4302505D01*
X4615296Y-4328413D02*
G01*
X4552812Y-4375150D01*
X5271515Y-4090670D02*
G01*
X5198872Y-4038600D01*
X5198872Y-4116578D01*
X5271515Y-4090670D02*
G01*
X5162550Y-4090670D01*
X5188458Y-4155947D02*
G01*
X5183124Y-4150868D01*
X5178043Y-4155947D01*
X5183124Y-4161281D01*
X5188458Y-4155947D01*
X5271515Y-4268215D02*
G01*
X5162550Y-4216400D01*
X5271515Y-4195571D02*
G01*
X5271515Y-4268215D01*
X5271515Y-4302505D02*
G01*
X5162550Y-4302505D01*
X5271515Y-4375150D02*
G01*
X5198872Y-4302505D01*
X5224779Y-4328413D02*
G01*
X5162550Y-4375150D01*
D10*
X-78Y-2975566D02*
G01*
X-78Y-4025552D01*
X-78Y-2976532D02*
G01*
X-810084Y-2976532D01*
X-78Y-4026517D02*
G01*
X-810084Y-4026517D01*
X-144071Y-2975566D02*
G01*
X-144071Y-4025552D01*
X-816079Y-2976532D02*
G01*
X-816079Y-4026517D01*
X-7876Y-3647549D02*
G01*
X-61876Y-3647549D01*
X-61876Y-3800533D01*
X-7876Y-3800533D01*
X-4879Y-3165736D02*
G01*
X-58879Y-3165736D01*
X-58879Y-3318720D01*
X-4879Y-3318720D01*
X-771070Y-2975566D02*
G01*
X-771070Y-4025552D01*
X-714072Y-2975566D02*
G01*
X-714072Y-4025552D01*
X15800075Y-4024434D02*
G01*
X15800075Y-2974449D01*
X15800075Y-4023469D02*
G01*
X16610081Y-4023469D01*
X15800075Y-2973484D02*
G01*
X16610081Y-2973484D01*
X15944067Y-4024434D02*
G01*
X15944067Y-2974449D01*
X16616075Y-4023469D02*
G01*
X16616075Y-2973484D01*
X15807872Y-3352452D02*
G01*
X15861873Y-3352452D01*
X15861873Y-3199467D01*
X15807872Y-3199467D01*
X15804875Y-3834264D02*
G01*
X15858876Y-3834264D01*
X15858876Y-3681280D01*
X15804875Y-3681280D01*
X16571066Y-4024434D02*
G01*
X16571066Y-2974449D01*
X16514069Y-4024434D02*
G01*
X16514069Y-2974449D01*
X1160000Y-1539999D02*
G01*
X640001Y-1539999D01*
X640001Y-1539999D02*
G01*
X640001Y-1260000D01*
X1160000Y-1260000D02*
G01*
X640001Y-1260000D01*
X1160000Y-1539999D02*
G01*
X1160000Y-1260000D01*
X1064074Y-1539999D02*
G01*
X1064074Y-1260000D01*
X3159998Y-1539999D02*
G01*
X2639999Y-1539999D01*
X2639999Y-1539999D02*
G01*
X2639999Y-1260000D01*
X3159998Y-1260000D02*
G01*
X2639999Y-1260000D01*
X3159998Y-1539999D02*
G01*
X3159998Y-1260000D01*
X3064073Y-1539999D02*
G01*
X3064073Y-1260000D01*
X5159999Y-1539999D02*
G01*
X4640000Y-1539999D01*
X4640000Y-1539999D02*
G01*
X4640000Y-1260000D01*
X5159999Y-1260000D02*
G01*
X4640000Y-1260000D01*
X5159999Y-1539999D02*
G01*
X5159999Y-1260000D01*
X5064074Y-1539999D02*
G01*
X5064074Y-1260000D01*
X7159998Y-1562399D02*
G01*
X6639999Y-1562399D01*
X6639999Y-1562399D02*
G01*
X6639999Y-1282400D01*
X7159998Y-1282400D02*
G01*
X6639999Y-1282400D01*
X7159998Y-1562399D02*
G01*
X7159998Y-1282400D01*
X7064072Y-1562399D02*
G01*
X7064072Y-1282400D01*
X9159999Y-1539999D02*
G01*
X8640000Y-1539999D01*
X8640000Y-1539999D02*
G01*
X8640000Y-1260000D01*
X9159999Y-1260000D02*
G01*
X8640000Y-1260000D01*
X9159999Y-1539999D02*
G01*
X9159999Y-1260000D01*
X9064073Y-1539999D02*
G01*
X9064073Y-1260000D01*
X11160000Y-1539999D02*
G01*
X10640001Y-1539999D01*
X10640001Y-1539999D02*
G01*
X10640001Y-1260000D01*
X11160000Y-1260000D02*
G01*
X10640001Y-1260000D01*
X11160000Y-1539999D02*
G01*
X11160000Y-1260000D01*
X11064074Y-1539999D02*
G01*
X11064074Y-1260000D01*
X13159999Y-1539999D02*
G01*
X12640000Y-1539999D01*
X12640000Y-1539999D02*
G01*
X12640000Y-1260000D01*
X13159999Y-1260000D02*
G01*
X12640000Y-1260000D01*
X13159999Y-1539999D02*
G01*
X13159999Y-1260000D01*
X13064073Y-1539999D02*
G01*
X13064073Y-1260000D01*
X15160000Y-1539999D02*
G01*
X14640001Y-1539999D01*
X14640001Y-1539999D02*
G01*
X14640001Y-1260000D01*
X15160000Y-1260000D02*
G01*
X14640001Y-1260000D01*
X15160000Y-1539999D02*
G01*
X15160000Y-1260000D01*
X15064074Y-1539999D02*
G01*
X15064074Y-1260000D01*
X369892Y-1990597D02*
G01*
X1430093Y-1990597D01*
X1430093Y-2470406D01*
X369892Y-2470406D01*
X369892Y-1991105D01*
X369892Y-1990597D01*
X1429989Y-2050514D02*
G01*
X369996Y-2050514D01*
X2369891Y-1990597D02*
G01*
X3430092Y-1990597D01*
X3430092Y-2470406D01*
X2369891Y-2470406D01*
X2369891Y-1991105D01*
X2369891Y-1990597D01*
X3429988Y-2050514D02*
G01*
X2369995Y-2050514D01*
X4369892Y-1990597D02*
G01*
X5430093Y-1990597D01*
X5430093Y-2470406D01*
X4369892Y-2470406D01*
X4369892Y-1991105D01*
X4369892Y-1990597D01*
X5429989Y-2050514D02*
G01*
X4369996Y-2050514D01*
X6369890Y-2011598D02*
G01*
X7430091Y-2011598D01*
X7430091Y-2491407D01*
X6369890Y-2491407D01*
X6369890Y-2012106D01*
X6369890Y-2011598D01*
X7429987Y-2071514D02*
G01*
X6369994Y-2071514D01*
X8369891Y-1990597D02*
G01*
X9430092Y-1990597D01*
X9430092Y-2470406D01*
X8369891Y-2470406D01*
X8369891Y-1991105D01*
X8369891Y-1990597D01*
X9429988Y-2050514D02*
G01*
X8369995Y-2050514D01*
X10369892Y-1990597D02*
G01*
X11430093Y-1990597D01*
X11430093Y-2470406D01*
X10369892Y-2470406D01*
X10369892Y-1991105D01*
X10369892Y-1990597D01*
X11429989Y-2050514D02*
G01*
X10369997Y-2050514D01*
X12369891Y-1990597D02*
G01*
X13430092Y-1990597D01*
X13430092Y-2470406D01*
X12369891Y-2470406D01*
X12369891Y-1991105D01*
X12369891Y-1990597D01*
X13429988Y-2050514D02*
G01*
X12369995Y-2050514D01*
X14369892Y-1990597D02*
G01*
X15430093Y-1990597D01*
X15430093Y-2470406D01*
X14369892Y-2470406D01*
X14369892Y-1991105D01*
X14369892Y-1990597D01*
X15429989Y-2050514D02*
G01*
X14369996Y-2050514D01*
D18*
X9858700Y-4666399D02*
G01*
X9782500Y-4666399D01*
X9782500Y-4602899D01*
X10097457Y-4602899D01*
X10097457Y-4666399D01*
X10044120Y-4666399D01*
D10*
X9423704Y-4666386D02*
G01*
X9423704Y-3766388D01*
X10413695Y-3766388D01*
X10413695Y-4666386D01*
X9423704Y-4666386D01*
X-164998Y-2213998D02*
G01*
X-164998Y-986002D01*
X-164998Y-986005D02*
G01*
X-739995Y-986002D01*
X-739995Y-986002D02*
G01*
X-739995Y-2213998D01*
X-739998Y-2213998D02*
G01*
X-164998Y-2213998D01*
X-171399Y-2006401D02*
G01*
X-222199Y-2006401D01*
X-222199Y-1168201D01*
X-171399Y-1168201D01*
X16516400Y-2213996D02*
G01*
X16516400Y-986000D01*
X16516400Y-986002D02*
G01*
X15941403Y-986000D01*
X15941403Y-986000D02*
G01*
X15941403Y-2213996D01*
X15941400Y-2213996D02*
G01*
X16516400Y-2213996D01*
X16510000Y-2006399D02*
G01*
X16459200Y-2006399D01*
X16459200Y-1168199D01*
X16510000Y-1168199D01*
X540004Y-834999D02*
G01*
X1260000Y-834999D01*
X1259997Y-834999D02*
G01*
X1260000Y-260002D01*
X1260000Y-260002D02*
G01*
X540004Y-260002D01*
X540004Y-259999D02*
G01*
X540004Y-834999D01*
X747600Y-828598D02*
G01*
X747600Y-777798D01*
X1027000Y-777798D01*
X1027000Y-828598D01*
X1027000Y-828598D01*
X2540002Y-834999D02*
G01*
X3259998Y-834999D01*
X3259996Y-834999D02*
G01*
X3259998Y-260002D01*
X3259998Y-260002D02*
G01*
X2540002Y-260002D01*
X2540002Y-259999D02*
G01*
X2540002Y-834999D01*
X2747599Y-828598D02*
G01*
X2747599Y-777798D01*
X3026999Y-777798D01*
X3026999Y-828598D01*
X3026999Y-828598D01*
X4540003Y-834999D02*
G01*
X5259999Y-834999D01*
X5259997Y-834999D02*
G01*
X5259999Y-260002D01*
X5259999Y-260002D02*
G01*
X4540003Y-260002D01*
X4540003Y-259999D02*
G01*
X4540003Y-834999D01*
X4747600Y-828598D02*
G01*
X4747600Y-777798D01*
X5027000Y-777798D01*
X5027000Y-828598D01*
X5027000Y-828598D01*
X6540002Y-856000D02*
G01*
X7259998Y-856000D01*
X7259995Y-856000D02*
G01*
X7259998Y-281002D01*
X7259998Y-281002D02*
G01*
X6540002Y-281002D01*
X6540002Y-281000D02*
G01*
X6540002Y-856000D01*
X6747598Y-849599D02*
G01*
X6747598Y-798799D01*
X7026998Y-798799D01*
X7026998Y-849599D01*
X7026998Y-849599D01*
X8540003Y-834999D02*
G01*
X9259999Y-834999D01*
X9259996Y-834999D02*
G01*
X9259999Y-260002D01*
X9259999Y-260002D02*
G01*
X8540003Y-260002D01*
X8540003Y-259999D02*
G01*
X8540003Y-834999D01*
X8747599Y-828598D02*
G01*
X8747599Y-777798D01*
X9026999Y-777798D01*
X9026999Y-828598D01*
X9026999Y-828598D01*
X10540004Y-834999D02*
G01*
X11260000Y-834999D01*
X11259997Y-834999D02*
G01*
X11260000Y-260002D01*
X11260000Y-260002D02*
G01*
X10540004Y-260002D01*
X10540004Y-259999D02*
G01*
X10540004Y-834999D01*
X10747601Y-828598D02*
G01*
X10747601Y-777798D01*
X11027001Y-777798D01*
X11027001Y-828598D01*
X11027001Y-828598D01*
X12540002Y-834999D02*
G01*
X13259998Y-834999D01*
X13259996Y-834999D02*
G01*
X13259998Y-260002D01*
X13259998Y-260002D02*
G01*
X12540002Y-260002D01*
X12540002Y-259999D02*
G01*
X12540002Y-834999D01*
X12747599Y-828598D02*
G01*
X12747599Y-777798D01*
X13026999Y-777798D01*
X13026999Y-828598D01*
X13026999Y-828598D01*
X14540003Y-834999D02*
G01*
X15259999Y-834999D01*
X15259997Y-834999D02*
G01*
X15259999Y-260002D01*
X15259999Y-260002D02*
G01*
X14540003Y-260002D01*
X14540003Y-259999D02*
G01*
X14540003Y-834999D01*
X14747600Y-828598D02*
G01*
X14747600Y-777798D01*
X15027000Y-777798D01*
X15027000Y-828598D01*
X15027000Y-828598D01*
X6756999Y-4504799D02*
G01*
X6756999Y-3895199D01*
X9042999Y-4504799D02*
G01*
X9042999Y-4301599D01*
X9042999Y-3895199D02*
G01*
X9042999Y-4098399D01*
X9042999Y-4504799D02*
G01*
X9017599Y-4504799D01*
X8814399Y-4504799D02*
G01*
X8763599Y-4504799D01*
X9042999Y-3895199D02*
G01*
X9017599Y-3895199D01*
X6756999Y-4504799D02*
G01*
X6782399Y-4504799D01*
X6756999Y-3895199D02*
G01*
X6782399Y-3895199D01*
X8560399Y-4504799D02*
G01*
X8509599Y-4504799D01*
X8306399Y-4504799D02*
G01*
X8255599Y-4504799D01*
X8052399Y-4504799D02*
G01*
X8001599Y-4504799D01*
X7798399Y-4504799D02*
G01*
X7747599Y-4504799D01*
X7544399Y-4504799D02*
G01*
X7493599Y-4504799D01*
X7290399Y-4504799D02*
G01*
X7239599Y-4504799D01*
X7036399Y-4504799D02*
G01*
X6985599Y-4504799D01*
X8814399Y-3895199D02*
G01*
X8763599Y-3895199D01*
X8560399Y-3895199D02*
G01*
X8509599Y-3895199D01*
X8306399Y-3895199D02*
G01*
X8255599Y-3895199D01*
X8052399Y-3895199D02*
G01*
X8001599Y-3895199D01*
X7798399Y-3895199D02*
G01*
X7747599Y-3895199D01*
X7544399Y-3895199D02*
G01*
X7493599Y-3895199D01*
X7290399Y-3895199D02*
G01*
X7239599Y-3895199D01*
X7036399Y-3895199D02*
G01*
X6985599Y-3895199D01*
X585040Y-3219378D02*
G01*
X585040Y-2980618D01*
X585040Y-2980618D02*
G01*
X1214960Y-2980618D01*
X1214960Y-2980618D02*
G01*
X1214960Y-3219378D01*
X1214960Y-3219378D02*
G01*
X585040Y-3219378D01*
X2585039Y-3219378D02*
G01*
X2585039Y-2980618D01*
X2585039Y-2980618D02*
G01*
X3214959Y-2980618D01*
X3214959Y-2980618D02*
G01*
X3214959Y-3219378D01*
X3214959Y-3219378D02*
G01*
X2585039Y-3219378D01*
X4585040Y-3219378D02*
G01*
X4585040Y-2980618D01*
X4585040Y-2980618D02*
G01*
X5214960Y-2980618D01*
X5214960Y-2980618D02*
G01*
X5214960Y-3219378D01*
X5214960Y-3219378D02*
G01*
X4585040Y-3219378D01*
X6585038Y-3219378D02*
G01*
X6585038Y-2980618D01*
X6585038Y-2980618D02*
G01*
X7214958Y-2980618D01*
X7214958Y-2980618D02*
G01*
X7214958Y-3219378D01*
X7214958Y-3219378D02*
G01*
X6585038Y-3219378D01*
X8585039Y-3219378D02*
G01*
X8585039Y-2980618D01*
X8585039Y-2980618D02*
G01*
X9214959Y-2980618D01*
X9214959Y-2980618D02*
G01*
X9214959Y-3219378D01*
X9214959Y-3219378D02*
G01*
X8585039Y-3219378D01*
X10585041Y-3219378D02*
G01*
X10585041Y-2980618D01*
X10585041Y-2980618D02*
G01*
X11214961Y-2980618D01*
X11214961Y-2980618D02*
G01*
X11214961Y-3219378D01*
X11214961Y-3219378D02*
G01*
X10585041Y-3219378D01*
X12585039Y-3219378D02*
G01*
X12585039Y-2980618D01*
X12585039Y-2980618D02*
G01*
X13214959Y-2980618D01*
X13214959Y-2980618D02*
G01*
X13214959Y-3219378D01*
X13214959Y-3219378D02*
G01*
X12585039Y-3219378D01*
X14585040Y-3219378D02*
G01*
X14585040Y-2980618D01*
X14585040Y-2980618D02*
G01*
X15214960Y-2980618D01*
X15214960Y-2980618D02*
G01*
X15214960Y-3219378D01*
X15214960Y-3219378D02*
G01*
X14585040Y-3219378D01*
X11551058Y-4430920D02*
G01*
X11551058Y-4669680D01*
X11551058Y-4669680D02*
G01*
X10921138Y-4669680D01*
X10921138Y-4669680D02*
G01*
X10921138Y-4430920D01*
X10921138Y-4430920D02*
G01*
X11551058Y-4430920D01*
X11538358Y-4088020D02*
G01*
X11538358Y-4326780D01*
X11538358Y-4326780D02*
G01*
X10908438Y-4326780D01*
X10908438Y-4326780D02*
G01*
X10908438Y-4088020D01*
X10908438Y-4088020D02*
G01*
X11538358Y-4088020D01*
X11551058Y-3732420D02*
G01*
X11551058Y-3971180D01*
X11551058Y-3971180D02*
G01*
X10921138Y-3971180D01*
X10921138Y-3971180D02*
G01*
X10921138Y-3732420D01*
X10921138Y-3732420D02*
G01*
X11551058Y-3732420D01*
X4478020Y-3885036D02*
G01*
X4716779Y-3885036D01*
X4716779Y-3885036D02*
G01*
X4716779Y-4514956D01*
X4716779Y-4514956D02*
G01*
X4478020Y-4514956D01*
X4478020Y-4514956D02*
G01*
X4478020Y-3885036D01*
X5100320Y-3863339D02*
G01*
X5339079Y-3863339D01*
X5339079Y-3863339D02*
G01*
X5339079Y-4493260D01*
X5339079Y-4493260D02*
G01*
X5100320Y-4493260D01*
X5100320Y-4493260D02*
G01*
X5100320Y-3863339D01*
D19*
G75*
G01*
X622996Y-2533005D02*
G03*
X623250Y-2533005I127J-19999D01*
G75*
G01*
X2622994Y-2533005D02*
G03*
X2623249Y-2533005I128J-19999D01*
G75*
G01*
X4622996Y-2533005D02*
G03*
X4623250Y-2533005I127J-19999D01*
G75*
G01*
X6622994Y-2554006D02*
G03*
X6623248Y-2554006I127J-19999D01*
G75*
G01*
X8622995Y-2533005D02*
G03*
X8623249Y-2533005I127J-19999D01*
G75*
G01*
X10622996Y-2533005D02*
G03*
X10623250Y-2533005I127J-19999D01*
G75*
G01*
X12622995Y-2533005D02*
G03*
X12623249Y-2533005I127J-19999D01*
G75*
G01*
X14622996Y-2533005D02*
G03*
X14623250Y-2533005I127J-19999D01*
D10*
G75*
G01*
X9042997Y-4301599D02*
G02*
X9042997Y-4098399I0J101600D01*
M02*
