G04 Layer: BottomLayer*
G04 EasyEDA v6.4.25, 2021-12-20T13:39:12+01:00*
G04 63a1d32c011d494aaade838ba407243e,51d3ad7738a14b0e94bcfea3d2f56fdc,10*
G04 Gerber Generator version 0.2*
G04 Scale: 100 percent, Rotated: No, Reflected: No *
G04 Dimensions in millimeters *
G04 leading zeros omitted , absolute positions ,4 integer and 5 decimal *
%FSLAX45Y45*%
%MOMM*%

%ADD10C,0.2540*%
%ADD11C,2.0000*%
%ADD12C,1.0000*%
%ADD13C,1.8000*%
%ADD15R,1.8000X1.8000*%
%ADD16R,1.2116X2.1819*%
%ADD17C,2.3000*%

%LPD*%
G36*
X-1221232Y-4974082D02*
G01*
X-1225143Y-4973320D01*
X-1228394Y-4971084D01*
X-1230630Y-4967833D01*
X-1231392Y-4963922D01*
X-1231392Y-36068D01*
X-1230630Y-32156D01*
X-1228394Y-28905D01*
X-1225143Y-26670D01*
X-1221232Y-25908D01*
X17045432Y-25908D01*
X17049343Y-26670D01*
X17052594Y-28905D01*
X17054830Y-32156D01*
X17055592Y-36068D01*
X17055592Y-4963922D01*
X17054830Y-4967833D01*
X17052594Y-4971084D01*
X17049343Y-4973320D01*
X17045432Y-4974082D01*
G37*

%LPC*%
G36*
X4597400Y-4848910D02*
G01*
X4613452Y-4847996D01*
X4629302Y-4845253D01*
X4644745Y-4840681D01*
X4659579Y-4834432D01*
X4673549Y-4826508D01*
X4686604Y-4817059D01*
X4698441Y-4806188D01*
X4708956Y-4794046D01*
X4718050Y-4780737D01*
X4725568Y-4766513D01*
X4731410Y-4751527D01*
X4735474Y-4735982D01*
X4737760Y-4720031D01*
X4738217Y-4703978D01*
X4736846Y-4687925D01*
X4733645Y-4672177D01*
X4728667Y-4656886D01*
X4722012Y-4642256D01*
X4713681Y-4628489D01*
X4703876Y-4615738D01*
X4692650Y-4604207D01*
X4680204Y-4593996D01*
X4666691Y-4585309D01*
X4652264Y-4578197D01*
X4637074Y-4572812D01*
X4621428Y-4569155D01*
X4605426Y-4567326D01*
X4589373Y-4567326D01*
X4573371Y-4569155D01*
X4557725Y-4572812D01*
X4542536Y-4578197D01*
X4528108Y-4585309D01*
X4514596Y-4593996D01*
X4502150Y-4604207D01*
X4490923Y-4615738D01*
X4481118Y-4628489D01*
X4472787Y-4642256D01*
X4466132Y-4656886D01*
X4461154Y-4672177D01*
X4457954Y-4687925D01*
X4456582Y-4703978D01*
X4457039Y-4720031D01*
X4459325Y-4735982D01*
X4463389Y-4751527D01*
X4469231Y-4766513D01*
X4476750Y-4780737D01*
X4485843Y-4794046D01*
X4496358Y-4806188D01*
X4508195Y-4817059D01*
X4521250Y-4826508D01*
X4535220Y-4834432D01*
X4550054Y-4840681D01*
X4565497Y-4845253D01*
X4581347Y-4847996D01*
G37*
G36*
X5219700Y-4827168D02*
G01*
X5235752Y-4826254D01*
X5251602Y-4823510D01*
X5267045Y-4818989D01*
X5281879Y-4812741D01*
X5295849Y-4804816D01*
X5308904Y-4795367D01*
X5320741Y-4784496D01*
X5331256Y-4772355D01*
X5340350Y-4759045D01*
X5347868Y-4744821D01*
X5353710Y-4729835D01*
X5357774Y-4714290D01*
X5360060Y-4698339D01*
X5360517Y-4682286D01*
X5359146Y-4666234D01*
X5355945Y-4650486D01*
X5350967Y-4635195D01*
X5344312Y-4620564D01*
X5335981Y-4606798D01*
X5326176Y-4594047D01*
X5314950Y-4582515D01*
X5302504Y-4572304D01*
X5288991Y-4563618D01*
X5274564Y-4556506D01*
X5259374Y-4551121D01*
X5243728Y-4547463D01*
X5227726Y-4545634D01*
X5211673Y-4545634D01*
X5195671Y-4547463D01*
X5180025Y-4551121D01*
X5164836Y-4556506D01*
X5150408Y-4563618D01*
X5136896Y-4572304D01*
X5124450Y-4582515D01*
X5113223Y-4594047D01*
X5103418Y-4606798D01*
X5095087Y-4620564D01*
X5088432Y-4635195D01*
X5083454Y-4650486D01*
X5080254Y-4666234D01*
X5078882Y-4682286D01*
X5079339Y-4698339D01*
X5081625Y-4714290D01*
X5085689Y-4729835D01*
X5091531Y-4744821D01*
X5099050Y-4759045D01*
X5108143Y-4772355D01*
X5118658Y-4784496D01*
X5130495Y-4795367D01*
X5143550Y-4804816D01*
X5157520Y-4812741D01*
X5172354Y-4818989D01*
X5187797Y-4823510D01*
X5203647Y-4826254D01*
G37*
G36*
X8738108Y-4826508D02*
G01*
X9473692Y-4826508D01*
X9481718Y-4825695D01*
X9488932Y-4823510D01*
X9495637Y-4819954D01*
X9501835Y-4814824D01*
X9882124Y-4434535D01*
X9887254Y-4428337D01*
X9890810Y-4421632D01*
X9892995Y-4414418D01*
X9893808Y-4406392D01*
X9893808Y-3881018D01*
X9894570Y-3877106D01*
X9896805Y-3873804D01*
X10033304Y-3737305D01*
X10036606Y-3735070D01*
X10040518Y-3734308D01*
X10621873Y-3734308D01*
X10625734Y-3735070D01*
X10628985Y-3737203D01*
X10631170Y-3740404D01*
X10632033Y-3744163D01*
X10631424Y-3748024D01*
X10629392Y-3751326D01*
X10619028Y-3762603D01*
X10609580Y-3775608D01*
X10601655Y-3789629D01*
X10595406Y-3804462D01*
X10590885Y-3819906D01*
X10588142Y-3835755D01*
X10587228Y-3851808D01*
X10588142Y-3867861D01*
X10590885Y-3883710D01*
X10595406Y-3899154D01*
X10601655Y-3913987D01*
X10609580Y-3927957D01*
X10619028Y-3940962D01*
X10629900Y-3952849D01*
X10642041Y-3963365D01*
X10655350Y-3972458D01*
X10669574Y-3979976D01*
X10684560Y-3985818D01*
X10700105Y-3989882D01*
X10716056Y-3992168D01*
X10732109Y-3992626D01*
X10748162Y-3991254D01*
X10763910Y-3988054D01*
X10779201Y-3983075D01*
X10793831Y-3976420D01*
X10807649Y-3968089D01*
X10820349Y-3958285D01*
X10831880Y-3947058D01*
X10842091Y-3934612D01*
X10850778Y-3921099D01*
X10857890Y-3906621D01*
X10863275Y-3891483D01*
X10866932Y-3875836D01*
X10868761Y-3859834D01*
X10868761Y-3843782D01*
X10866932Y-3827779D01*
X10863275Y-3812082D01*
X10857890Y-3796944D01*
X10850778Y-3782517D01*
X10842091Y-3769004D01*
X10831880Y-3756558D01*
X10827004Y-3751732D01*
X10824718Y-3748481D01*
X10823905Y-3744569D01*
X10824667Y-3740658D01*
X10826851Y-3737305D01*
X10830153Y-3735070D01*
X10834065Y-3734308D01*
X11637873Y-3734308D01*
X11641734Y-3735070D01*
X11644985Y-3737203D01*
X11647170Y-3740404D01*
X11648033Y-3744163D01*
X11647424Y-3748024D01*
X11645392Y-3751326D01*
X11635028Y-3762603D01*
X11625580Y-3775608D01*
X11618620Y-3787952D01*
X11680240Y-3787952D01*
X11680240Y-3744468D01*
X11681002Y-3740556D01*
X11683238Y-3737305D01*
X11686540Y-3735070D01*
X11690400Y-3734308D01*
X11797792Y-3734308D01*
X11801652Y-3735070D01*
X11804954Y-3737305D01*
X11807190Y-3740556D01*
X11807952Y-3744468D01*
X11807952Y-3787952D01*
X11869470Y-3787952D01*
X11866778Y-3782517D01*
X11858091Y-3769004D01*
X11847880Y-3756558D01*
X11843004Y-3751732D01*
X11840718Y-3748481D01*
X11839905Y-3744569D01*
X11840667Y-3740658D01*
X11842851Y-3737305D01*
X11846153Y-3735070D01*
X11850065Y-3734308D01*
X12852146Y-3734308D01*
X12856311Y-3734104D01*
X12859918Y-3733546D01*
X12863728Y-3732580D01*
X12867132Y-3731361D01*
X12870738Y-3729685D01*
X12873837Y-3727805D01*
X12877190Y-3725316D01*
X13155574Y-3495344D01*
X13158622Y-3493617D01*
X13162026Y-3493008D01*
X15061692Y-3493008D01*
X15069718Y-3492195D01*
X15076932Y-3490010D01*
X15083586Y-3486454D01*
X15090190Y-3480968D01*
X15335910Y-3229102D01*
X15339364Y-3226816D01*
X15343428Y-3226054D01*
X15347442Y-3226968D01*
X15356890Y-3231286D01*
X15372181Y-3236264D01*
X15387929Y-3239465D01*
X15403982Y-3240836D01*
X15420035Y-3240379D01*
X15435986Y-3238093D01*
X15451531Y-3233978D01*
X15466517Y-3228136D01*
X15480741Y-3220669D01*
X15494050Y-3211576D01*
X15506192Y-3201060D01*
X15517063Y-3189173D01*
X15526512Y-3176168D01*
X15534436Y-3162147D01*
X15540685Y-3147364D01*
X15545206Y-3131921D01*
X15547949Y-3116072D01*
X15548914Y-3100019D01*
X15547949Y-3083915D01*
X15545206Y-3068066D01*
X15540685Y-3052673D01*
X15534436Y-3037840D01*
X15526512Y-3023819D01*
X15517063Y-3010814D01*
X15506192Y-2998978D01*
X15494050Y-2988411D01*
X15480741Y-2979369D01*
X15466517Y-2971850D01*
X15451531Y-2966008D01*
X15435986Y-2961894D01*
X15420035Y-2959608D01*
X15403982Y-2959150D01*
X15387929Y-2960522D01*
X15372181Y-2963722D01*
X15356890Y-2968701D01*
X15342260Y-2975406D01*
X15328493Y-2983687D01*
X15315742Y-2993542D01*
X15304211Y-3004718D01*
X15294000Y-3017164D01*
X15285313Y-3030728D01*
X15278201Y-3045155D01*
X15272816Y-3060293D01*
X15269159Y-3075990D01*
X15267330Y-3091942D01*
X15267330Y-3108045D01*
X15269159Y-3124047D01*
X15272816Y-3139694D01*
X15278201Y-3154832D01*
X15282519Y-3163620D01*
X15283535Y-3167583D01*
X15282926Y-3171698D01*
X15280690Y-3175152D01*
X15048941Y-3412744D01*
X15045588Y-3414979D01*
X15041626Y-3415792D01*
X13144754Y-3415792D01*
X13140588Y-3415995D01*
X13136981Y-3416554D01*
X13133171Y-3417519D01*
X13129768Y-3418738D01*
X13126161Y-3420414D01*
X13123062Y-3422294D01*
X13119709Y-3424783D01*
X12841325Y-3654755D01*
X12838277Y-3656482D01*
X12834874Y-3657092D01*
X12803886Y-3657092D01*
X12799720Y-3656228D01*
X12796316Y-3653739D01*
X12794183Y-3650081D01*
X12793776Y-3645915D01*
X12795046Y-3641902D01*
X12797840Y-3638753D01*
X12800533Y-3636772D01*
X13320776Y-3219450D01*
X13324433Y-3217570D01*
X13328548Y-3217316D01*
X13332409Y-3218688D01*
X13342264Y-3224631D01*
X13356894Y-3231286D01*
X13372185Y-3236264D01*
X13387933Y-3239465D01*
X13403986Y-3240836D01*
X13420039Y-3240379D01*
X13435990Y-3238093D01*
X13451535Y-3233978D01*
X13466521Y-3228136D01*
X13480745Y-3220669D01*
X13494054Y-3211576D01*
X13506196Y-3201060D01*
X13517067Y-3189173D01*
X13526516Y-3176168D01*
X13534440Y-3162147D01*
X13540689Y-3147364D01*
X13545210Y-3131921D01*
X13547953Y-3116072D01*
X13548868Y-3100019D01*
X13547953Y-3083915D01*
X13545210Y-3068066D01*
X13540689Y-3052673D01*
X13534440Y-3037840D01*
X13526516Y-3023819D01*
X13517067Y-3010814D01*
X13506196Y-2998978D01*
X13494054Y-2988411D01*
X13480745Y-2979369D01*
X13466521Y-2971850D01*
X13451535Y-2966008D01*
X13435990Y-2961894D01*
X13420039Y-2959608D01*
X13403986Y-2959150D01*
X13387933Y-2960522D01*
X13372185Y-2963722D01*
X13356894Y-2968701D01*
X13342264Y-2975406D01*
X13328497Y-2983687D01*
X13315746Y-2993542D01*
X13304215Y-3004718D01*
X13294004Y-3017164D01*
X13285317Y-3030728D01*
X13278205Y-3045155D01*
X13272820Y-3060293D01*
X13269163Y-3075990D01*
X13267334Y-3091942D01*
X13267334Y-3108045D01*
X13269163Y-3124047D01*
X13272820Y-3139694D01*
X13275716Y-3147822D01*
X13276275Y-3151987D01*
X13275157Y-3155950D01*
X13272516Y-3159201D01*
X12765430Y-3565956D01*
X12762433Y-3567633D01*
X12759080Y-3568192D01*
X12443155Y-3568192D01*
X12439345Y-3567429D01*
X12436043Y-3565296D01*
X12433808Y-3562045D01*
X12432995Y-3558184D01*
X12433706Y-3554323D01*
X12435789Y-3551021D01*
X12439040Y-3548786D01*
X12444171Y-3546449D01*
X12453874Y-3540150D01*
X12462560Y-3532428D01*
X12469977Y-3523437D01*
X12475921Y-3513480D01*
X12480239Y-3502710D01*
X12482880Y-3491382D01*
X12483795Y-3479800D01*
X12482880Y-3468217D01*
X12480239Y-3456889D01*
X12475921Y-3446119D01*
X12469977Y-3436162D01*
X12462560Y-3427171D01*
X12453874Y-3419449D01*
X12444171Y-3413150D01*
X12433554Y-3408375D01*
X12422327Y-3405327D01*
X12410795Y-3403955D01*
X12399213Y-3404412D01*
X12387783Y-3406648D01*
X12376861Y-3410559D01*
X12366650Y-3416096D01*
X12357404Y-3423158D01*
X12349378Y-3431540D01*
X12345619Y-3436874D01*
X12343333Y-3439210D01*
X12340488Y-3440684D01*
X12337288Y-3441192D01*
X12303455Y-3441192D01*
X12299645Y-3440429D01*
X12296343Y-3438296D01*
X12294108Y-3435045D01*
X12293295Y-3431184D01*
X12294006Y-3427323D01*
X12296089Y-3424021D01*
X12299340Y-3421786D01*
X12304471Y-3419449D01*
X12314174Y-3413150D01*
X12322860Y-3405428D01*
X12330277Y-3396437D01*
X12336221Y-3386480D01*
X12340539Y-3375710D01*
X12343180Y-3364382D01*
X12344095Y-3352800D01*
X12343180Y-3341217D01*
X12340539Y-3329889D01*
X12336221Y-3319119D01*
X12330277Y-3309162D01*
X12322860Y-3300171D01*
X12314174Y-3292449D01*
X12304471Y-3286150D01*
X12293854Y-3281375D01*
X12282627Y-3278327D01*
X12271095Y-3276955D01*
X12259513Y-3277412D01*
X12254687Y-3278378D01*
X12251385Y-3278428D01*
X12248235Y-3277463D01*
X12245543Y-3275584D01*
X11749735Y-2779776D01*
X11743537Y-2774645D01*
X11736832Y-2771089D01*
X11729618Y-2768904D01*
X11721592Y-2768092D01*
X8979408Y-2768092D01*
X8971381Y-2768904D01*
X8964168Y-2771089D01*
X8957462Y-2774645D01*
X8951264Y-2779776D01*
X8647125Y-3083864D01*
X8642451Y-3089503D01*
X8638743Y-3096107D01*
X8636406Y-3103321D01*
X8635492Y-3111347D01*
X8625789Y-3674008D01*
X8624976Y-3677869D01*
X8622741Y-3681069D01*
X8619490Y-3683254D01*
X8615629Y-3684015D01*
X8602014Y-3684015D01*
X8595664Y-3684727D01*
X8590229Y-3686606D01*
X8585301Y-3689705D01*
X8581237Y-3693769D01*
X8578138Y-3698697D01*
X8576208Y-3704132D01*
X8575497Y-3710482D01*
X8575497Y-3846677D01*
X8574735Y-3850589D01*
X8572550Y-3853891D01*
X8511844Y-3914597D01*
X8508542Y-3916781D01*
X8504631Y-3917543D01*
X8500770Y-3916781D01*
X8497468Y-3914597D01*
X8495284Y-3911295D01*
X8494471Y-3907383D01*
X8494471Y-3710482D01*
X8493760Y-3704132D01*
X8491880Y-3698697D01*
X8488781Y-3693769D01*
X8484666Y-3689705D01*
X8479790Y-3686606D01*
X8474354Y-3684727D01*
X8468004Y-3684015D01*
X8348014Y-3684015D01*
X8341664Y-3684727D01*
X8336229Y-3686606D01*
X8331301Y-3689705D01*
X8327237Y-3693769D01*
X8324138Y-3698697D01*
X8322208Y-3704132D01*
X8321497Y-3710482D01*
X8321497Y-3927500D01*
X8322208Y-3933850D01*
X8324138Y-3939286D01*
X8329777Y-3947820D01*
X8330539Y-3951732D01*
X8329777Y-3955643D01*
X8327542Y-3958894D01*
X8324240Y-3961129D01*
X8320379Y-3961892D01*
X8241639Y-3961892D01*
X8237728Y-3961129D01*
X8234425Y-3958894D01*
X8232241Y-3955643D01*
X8231479Y-3951732D01*
X8232241Y-3947820D01*
X8237880Y-3939286D01*
X8239759Y-3933850D01*
X8240471Y-3927500D01*
X8240471Y-3710482D01*
X8239759Y-3704132D01*
X8237880Y-3698697D01*
X8234781Y-3693769D01*
X8230666Y-3689705D01*
X8225790Y-3686606D01*
X8220354Y-3684727D01*
X8214004Y-3684015D01*
X8094014Y-3684015D01*
X8087664Y-3684727D01*
X8082229Y-3686606D01*
X8077301Y-3689705D01*
X8073237Y-3693769D01*
X8070138Y-3698697D01*
X8068208Y-3704132D01*
X8067497Y-3710482D01*
X8067497Y-3927500D01*
X8068208Y-3933850D01*
X8070138Y-3939286D01*
X8075777Y-3947820D01*
X8076539Y-3951732D01*
X8075777Y-3955643D01*
X8073542Y-3958894D01*
X8070240Y-3961129D01*
X8066379Y-3961892D01*
X7987639Y-3961892D01*
X7983728Y-3961129D01*
X7980425Y-3958894D01*
X7978241Y-3955643D01*
X7977479Y-3951732D01*
X7978241Y-3947820D01*
X7983880Y-3939286D01*
X7985759Y-3933850D01*
X7986471Y-3927500D01*
X7986471Y-3710482D01*
X7985759Y-3704132D01*
X7983880Y-3698697D01*
X7980781Y-3693769D01*
X7976666Y-3689705D01*
X7971790Y-3686606D01*
X7966354Y-3684727D01*
X7960004Y-3684015D01*
X7840014Y-3684015D01*
X7833664Y-3684727D01*
X7828229Y-3686606D01*
X7823301Y-3689705D01*
X7819237Y-3693769D01*
X7816138Y-3698697D01*
X7814208Y-3704132D01*
X7813497Y-3710482D01*
X7813497Y-3927500D01*
X7814208Y-3933850D01*
X7816138Y-3939286D01*
X7821777Y-3947820D01*
X7822539Y-3951732D01*
X7821777Y-3955643D01*
X7819542Y-3958894D01*
X7816240Y-3961129D01*
X7812379Y-3961892D01*
X7733639Y-3961892D01*
X7729728Y-3961129D01*
X7726425Y-3958894D01*
X7724241Y-3955643D01*
X7723479Y-3951732D01*
X7724241Y-3947820D01*
X7729880Y-3939286D01*
X7731759Y-3933850D01*
X7732471Y-3927500D01*
X7732471Y-3710482D01*
X7731759Y-3704132D01*
X7729880Y-3698697D01*
X7726781Y-3693769D01*
X7722666Y-3689705D01*
X7717790Y-3686606D01*
X7712354Y-3684727D01*
X7706004Y-3684015D01*
X7586014Y-3684015D01*
X7579664Y-3684727D01*
X7574229Y-3686606D01*
X7572552Y-3687673D01*
X7568539Y-3689096D01*
X7564221Y-3688791D01*
X7560462Y-3686708D01*
X7557922Y-3683254D01*
X7557008Y-3679037D01*
X7557008Y-3658108D01*
X7556195Y-3650081D01*
X7554010Y-3642868D01*
X7550454Y-3636162D01*
X7545324Y-3629964D01*
X7367117Y-3451707D01*
X7365136Y-3448913D01*
X7364222Y-3445611D01*
X7365695Y-3429000D01*
X7364780Y-3417417D01*
X7362139Y-3406089D01*
X7357821Y-3395319D01*
X7351877Y-3385362D01*
X7344460Y-3376371D01*
X7335774Y-3368649D01*
X7326071Y-3362350D01*
X7315453Y-3357575D01*
X7304227Y-3354527D01*
X7292695Y-3353155D01*
X7281113Y-3353612D01*
X7269683Y-3355848D01*
X7258761Y-3359759D01*
X7248550Y-3365296D01*
X7239304Y-3372358D01*
X7231278Y-3380740D01*
X7224572Y-3390239D01*
X7219442Y-3400653D01*
X7215936Y-3411728D01*
X7214158Y-3423208D01*
X7214158Y-3434791D01*
X7215936Y-3446272D01*
X7219442Y-3457346D01*
X7224572Y-3467760D01*
X7231278Y-3477260D01*
X7233666Y-3479749D01*
X7235901Y-3483356D01*
X7236459Y-3487572D01*
X7235240Y-3491636D01*
X7232497Y-3494887D01*
X7226604Y-3499358D01*
X7218578Y-3507740D01*
X7211872Y-3517239D01*
X7206742Y-3527653D01*
X7203236Y-3538728D01*
X7201458Y-3550208D01*
X7201458Y-3561791D01*
X7203236Y-3573272D01*
X7206742Y-3584346D01*
X7211872Y-3594760D01*
X7218578Y-3604260D01*
X7226604Y-3612642D01*
X7234478Y-3618636D01*
X7236663Y-3620871D01*
X7238034Y-3623665D01*
X7238492Y-3626713D01*
X7238492Y-3689908D01*
X7237577Y-3694125D01*
X7234936Y-3697579D01*
X7231125Y-3699662D01*
X7226808Y-3699916D01*
X7222744Y-3698392D01*
X7219746Y-3695293D01*
X7218781Y-3693769D01*
X7214666Y-3689705D01*
X7209790Y-3686606D01*
X7204354Y-3684727D01*
X7198004Y-3684015D01*
X7078014Y-3684015D01*
X7071664Y-3684727D01*
X7066229Y-3686606D01*
X7061301Y-3689705D01*
X7057237Y-3693769D01*
X7054138Y-3698697D01*
X7052208Y-3704132D01*
X7051497Y-3710482D01*
X7051497Y-3927500D01*
X7052208Y-3933850D01*
X7054138Y-3939286D01*
X7057237Y-3944213D01*
X7061301Y-3948277D01*
X7066229Y-3951376D01*
X7071664Y-3953306D01*
X7078014Y-3954018D01*
X7198004Y-3954018D01*
X7204354Y-3953306D01*
X7209790Y-3951376D01*
X7214666Y-3948277D01*
X7218781Y-3944213D01*
X7219746Y-3942689D01*
X7222744Y-3939590D01*
X7226808Y-3938066D01*
X7231125Y-3938320D01*
X7234936Y-3940403D01*
X7237577Y-3943858D01*
X7238492Y-3948125D01*
X7238492Y-4038092D01*
X7239304Y-4046118D01*
X7241489Y-4053332D01*
X7245045Y-4060037D01*
X7250175Y-4066235D01*
X7325664Y-4141724D01*
X7331862Y-4146854D01*
X7338568Y-4150410D01*
X7345781Y-4152595D01*
X7353808Y-4153408D01*
X8673592Y-4153408D01*
X8681618Y-4152595D01*
X8688832Y-4150410D01*
X8695537Y-4146854D01*
X8701735Y-4141724D01*
X8886494Y-3956964D01*
X8889796Y-3954779D01*
X8893708Y-3954018D01*
X8976004Y-3954018D01*
X8982354Y-3953306D01*
X8987790Y-3951376D01*
X8992666Y-3948277D01*
X8996781Y-3944213D01*
X8999880Y-3939286D01*
X9001760Y-3933850D01*
X9002471Y-3927500D01*
X9002471Y-3710482D01*
X9001760Y-3704132D01*
X8999880Y-3698697D01*
X8996781Y-3693769D01*
X8992666Y-3689705D01*
X8987790Y-3686606D01*
X8982354Y-3684727D01*
X8976004Y-3684015D01*
X8964676Y-3684015D01*
X8960764Y-3683203D01*
X8957513Y-3681018D01*
X8955278Y-3677716D01*
X8954516Y-3673856D01*
X8954516Y-3143910D01*
X8955278Y-3139998D01*
X8957513Y-3136696D01*
X9169704Y-2924505D01*
X9173006Y-2922270D01*
X9176918Y-2921508D01*
X11638381Y-2921508D01*
X11642293Y-2922270D01*
X11645595Y-2924505D01*
X12227864Y-3506724D01*
X12234062Y-3511854D01*
X12240768Y-3515410D01*
X12247981Y-3517595D01*
X12256008Y-3518408D01*
X12337288Y-3518408D01*
X12340488Y-3518915D01*
X12343333Y-3520389D01*
X12345619Y-3522726D01*
X12349378Y-3528060D01*
X12357404Y-3536442D01*
X12366650Y-3543503D01*
X12376962Y-3549091D01*
X12380315Y-3552037D01*
X12382093Y-3556101D01*
X12381992Y-3560521D01*
X12379960Y-3564483D01*
X12376454Y-3567226D01*
X12372136Y-3568192D01*
X9474708Y-3568192D01*
X9466681Y-3569004D01*
X9459468Y-3571189D01*
X9452762Y-3574745D01*
X9446564Y-3579876D01*
X9320276Y-3706164D01*
X9314942Y-3712667D01*
X9311690Y-3715258D01*
X9307728Y-3716324D01*
X9303664Y-3715765D01*
X9300108Y-3713632D01*
X9297771Y-3710228D01*
X9296908Y-3706215D01*
X9296908Y-3538118D01*
X9297670Y-3534206D01*
X9299905Y-3530904D01*
X9309557Y-3521252D01*
X9312808Y-3519068D01*
X9316669Y-3518255D01*
X11089335Y-3505606D01*
X11097158Y-3504336D01*
X11104219Y-3501644D01*
X11110620Y-3497630D01*
X11116513Y-3492144D01*
X11343081Y-3232962D01*
X11346535Y-3230372D01*
X11350701Y-3229457D01*
X11354917Y-3230372D01*
X11356898Y-3231286D01*
X11372189Y-3236264D01*
X11387937Y-3239465D01*
X11403990Y-3240836D01*
X11420043Y-3240379D01*
X11435994Y-3238093D01*
X11451539Y-3233978D01*
X11466525Y-3228136D01*
X11480749Y-3220669D01*
X11494058Y-3211576D01*
X11506200Y-3201060D01*
X11517071Y-3189173D01*
X11526520Y-3176168D01*
X11534444Y-3162147D01*
X11540693Y-3147364D01*
X11545214Y-3131921D01*
X11547957Y-3116072D01*
X11548872Y-3100019D01*
X11547957Y-3083915D01*
X11545214Y-3068066D01*
X11540693Y-3052673D01*
X11534444Y-3037840D01*
X11526520Y-3023819D01*
X11517071Y-3010814D01*
X11506200Y-2998978D01*
X11494058Y-2988411D01*
X11480749Y-2979369D01*
X11466525Y-2971850D01*
X11451539Y-2966008D01*
X11435994Y-2961894D01*
X11420043Y-2959608D01*
X11403990Y-2959150D01*
X11387937Y-2960522D01*
X11372189Y-2963722D01*
X11356898Y-2968701D01*
X11342268Y-2975406D01*
X11328450Y-2983687D01*
X11315750Y-2993542D01*
X11304219Y-3004718D01*
X11294008Y-3017164D01*
X11285321Y-3030728D01*
X11278209Y-3045155D01*
X11272824Y-3060293D01*
X11269167Y-3075990D01*
X11267338Y-3091942D01*
X11267338Y-3108045D01*
X11269167Y-3124047D01*
X11272824Y-3139694D01*
X11278209Y-3154832D01*
X11285321Y-3169259D01*
X11287302Y-3174034D01*
X11286998Y-3178403D01*
X11284864Y-3182162D01*
X11072469Y-3425190D01*
X11069066Y-3427729D01*
X11064900Y-3428644D01*
X9296603Y-3441192D01*
X9288881Y-3441954D01*
X9281668Y-3444189D01*
X9274962Y-3447745D01*
X9268764Y-3452876D01*
X9231376Y-3490264D01*
X9226245Y-3496462D01*
X9222689Y-3503168D01*
X9220504Y-3510381D01*
X9219692Y-3518408D01*
X9219692Y-4094581D01*
X9218930Y-4098493D01*
X9216694Y-4101795D01*
X9042095Y-4276394D01*
X9038793Y-4278630D01*
X9034881Y-4279392D01*
X8892184Y-4279392D01*
X8888171Y-4278579D01*
X8884767Y-4276191D01*
X8882634Y-4272635D01*
X8882075Y-4268571D01*
X8883142Y-4264609D01*
X8885732Y-4261358D01*
X8892235Y-4256024D01*
X9145524Y-4002735D01*
X9150654Y-3996537D01*
X9154210Y-3989832D01*
X9156395Y-3982618D01*
X9157208Y-3974592D01*
X9157208Y-3423107D01*
X9157919Y-3419348D01*
X9160002Y-3416096D01*
X9337497Y-3229965D01*
X9340900Y-3227578D01*
X9344964Y-3226816D01*
X9349028Y-3227730D01*
X9356902Y-3231286D01*
X9372193Y-3236264D01*
X9387941Y-3239465D01*
X9403994Y-3240836D01*
X9420047Y-3240379D01*
X9435998Y-3238093D01*
X9451543Y-3233978D01*
X9466529Y-3228136D01*
X9480753Y-3220669D01*
X9494012Y-3211576D01*
X9506204Y-3201060D01*
X9517075Y-3189173D01*
X9526524Y-3176168D01*
X9534448Y-3162147D01*
X9540697Y-3147364D01*
X9545218Y-3131921D01*
X9547961Y-3116072D01*
X9548876Y-3100019D01*
X9547961Y-3083915D01*
X9545218Y-3068066D01*
X9540697Y-3052673D01*
X9534448Y-3037840D01*
X9526524Y-3023819D01*
X9517075Y-3010814D01*
X9506204Y-2998978D01*
X9494012Y-2988411D01*
X9480753Y-2979369D01*
X9466529Y-2971850D01*
X9451543Y-2966008D01*
X9435998Y-2961894D01*
X9420047Y-2959608D01*
X9403994Y-2959150D01*
X9387941Y-2960522D01*
X9372193Y-2963722D01*
X9356902Y-2968701D01*
X9342272Y-2975406D01*
X9328454Y-2983687D01*
X9315754Y-2993542D01*
X9304223Y-3004718D01*
X9294012Y-3017164D01*
X9285325Y-3030728D01*
X9278213Y-3045155D01*
X9272828Y-3060293D01*
X9269171Y-3075990D01*
X9267342Y-3091942D01*
X9267342Y-3108045D01*
X9269171Y-3124047D01*
X9272828Y-3139694D01*
X9278213Y-3154832D01*
X9283293Y-3165195D01*
X9284360Y-3169158D01*
X9283700Y-3173222D01*
X9281566Y-3176676D01*
X9090964Y-3376625D01*
X9086545Y-3382111D01*
X9082989Y-3388868D01*
X9080804Y-3396081D01*
X9079992Y-3404108D01*
X9079992Y-3954881D01*
X9079230Y-3958793D01*
X9076994Y-3962095D01*
X8851595Y-4187494D01*
X8848293Y-4189729D01*
X8844381Y-4190492D01*
X7925308Y-4190492D01*
X7917281Y-4191304D01*
X7910068Y-4193489D01*
X7903362Y-4197045D01*
X7897164Y-4202176D01*
X7872984Y-4226356D01*
X7867853Y-4232554D01*
X7864297Y-4239260D01*
X7862112Y-4246473D01*
X7861300Y-4254500D01*
X7861300Y-4435856D01*
X7860538Y-4439716D01*
X7858302Y-4443018D01*
X7855051Y-4445203D01*
X7851140Y-4446016D01*
X7840014Y-4446016D01*
X7833664Y-4446727D01*
X7828229Y-4448606D01*
X7823301Y-4451705D01*
X7819237Y-4455769D01*
X7816138Y-4460697D01*
X7814208Y-4466132D01*
X7813497Y-4472482D01*
X7813497Y-4689500D01*
X7814208Y-4695850D01*
X7816138Y-4701286D01*
X7819237Y-4706213D01*
X7823301Y-4710277D01*
X7828229Y-4713376D01*
X7833664Y-4715306D01*
X7840014Y-4716018D01*
X7960004Y-4716018D01*
X7966354Y-4715306D01*
X7971790Y-4713376D01*
X7976666Y-4710277D01*
X7980781Y-4706213D01*
X7983880Y-4701286D01*
X7985759Y-4695850D01*
X7986471Y-4689500D01*
X7986471Y-4472482D01*
X7985759Y-4466132D01*
X7983880Y-4460697D01*
X7980781Y-4455769D01*
X7976666Y-4451705D01*
X7971790Y-4448606D01*
X7966354Y-4446727D01*
X7960004Y-4446016D01*
X7948675Y-4446016D01*
X7944764Y-4445203D01*
X7941513Y-4443018D01*
X7939278Y-4439716D01*
X7938516Y-4435856D01*
X7938516Y-4277868D01*
X7939278Y-4273956D01*
X7941513Y-4270705D01*
X7944764Y-4268470D01*
X7948675Y-4267708D01*
X8151215Y-4267708D01*
X8155228Y-4268571D01*
X8158632Y-4270908D01*
X8160766Y-4274464D01*
X8161324Y-4278528D01*
X8160258Y-4282490D01*
X8157667Y-4285742D01*
X8151164Y-4291076D01*
X8126984Y-4315256D01*
X8121853Y-4321454D01*
X8118297Y-4328160D01*
X8116112Y-4335373D01*
X8115300Y-4343400D01*
X8115300Y-4435856D01*
X8114538Y-4439716D01*
X8112302Y-4443018D01*
X8109051Y-4445203D01*
X8105140Y-4446016D01*
X8094014Y-4446016D01*
X8087664Y-4446727D01*
X8082229Y-4448606D01*
X8077301Y-4451705D01*
X8073237Y-4455769D01*
X8070138Y-4460697D01*
X8068208Y-4466132D01*
X8067497Y-4472482D01*
X8067497Y-4689500D01*
X8068208Y-4695850D01*
X8070138Y-4701286D01*
X8073237Y-4706213D01*
X8077301Y-4710277D01*
X8082229Y-4713376D01*
X8087664Y-4715306D01*
X8094014Y-4716018D01*
X8214004Y-4716018D01*
X8220354Y-4715306D01*
X8225790Y-4713376D01*
X8230666Y-4710277D01*
X8234781Y-4706213D01*
X8237880Y-4701286D01*
X8239759Y-4695850D01*
X8240471Y-4689500D01*
X8240471Y-4472482D01*
X8239759Y-4466132D01*
X8237880Y-4460697D01*
X8234781Y-4455769D01*
X8230666Y-4451705D01*
X8225790Y-4448606D01*
X8220354Y-4446727D01*
X8214004Y-4446016D01*
X8202675Y-4446016D01*
X8198764Y-4445203D01*
X8195513Y-4443018D01*
X8193278Y-4439716D01*
X8192516Y-4435856D01*
X8192516Y-4366768D01*
X8193278Y-4362856D01*
X8195513Y-4359605D01*
X8198764Y-4357370D01*
X8202675Y-4356608D01*
X8416645Y-4356608D01*
X8420557Y-4357370D01*
X8423859Y-4359605D01*
X8426043Y-4362856D01*
X8426805Y-4366768D01*
X8426043Y-4370679D01*
X8423859Y-4373930D01*
X8380984Y-4416856D01*
X8375853Y-4423054D01*
X8372297Y-4429760D01*
X8368995Y-4440478D01*
X8366759Y-4443425D01*
X8363610Y-4445304D01*
X8360003Y-4446016D01*
X8348014Y-4446016D01*
X8341664Y-4446727D01*
X8336229Y-4448606D01*
X8331301Y-4451705D01*
X8327237Y-4455769D01*
X8324138Y-4460697D01*
X8322208Y-4466132D01*
X8321497Y-4472482D01*
X8321497Y-4689500D01*
X8322208Y-4695850D01*
X8324138Y-4701286D01*
X8327237Y-4706213D01*
X8331301Y-4710277D01*
X8336229Y-4713376D01*
X8341664Y-4715306D01*
X8348014Y-4716018D01*
X8468004Y-4716018D01*
X8474354Y-4715306D01*
X8479790Y-4713376D01*
X8484666Y-4710277D01*
X8488781Y-4706213D01*
X8491880Y-4701286D01*
X8493760Y-4695850D01*
X8494471Y-4689500D01*
X8494471Y-4472482D01*
X8493760Y-4466132D01*
X8491880Y-4460697D01*
X8488781Y-4455769D01*
X8481364Y-4448556D01*
X8479840Y-4444492D01*
X8480145Y-4440174D01*
X8482177Y-4436364D01*
X8485632Y-4433722D01*
X8489899Y-4432808D01*
X8580120Y-4432808D01*
X8584336Y-4433722D01*
X8587790Y-4436364D01*
X8589873Y-4440174D01*
X8590178Y-4444492D01*
X8588603Y-4448556D01*
X8581237Y-4455769D01*
X8578138Y-4460697D01*
X8576208Y-4466132D01*
X8575497Y-4472482D01*
X8575497Y-4689500D01*
X8576208Y-4695850D01*
X8578138Y-4701286D01*
X8581237Y-4706213D01*
X8585301Y-4710277D01*
X8590229Y-4713376D01*
X8595664Y-4715306D01*
X8602014Y-4716018D01*
X8615426Y-4716018D01*
X8619591Y-4716881D01*
X8623046Y-4719472D01*
X8625128Y-4723231D01*
X8626297Y-4726940D01*
X8629853Y-4733645D01*
X8634984Y-4739843D01*
X8709964Y-4814824D01*
X8716162Y-4819954D01*
X8722868Y-4823510D01*
X8730081Y-4825695D01*
G37*
G36*
X-766724Y-4785664D02*
G01*
X-747877Y-4785664D01*
X-729132Y-4783734D01*
X-710692Y-4779975D01*
X-692759Y-4774336D01*
X-675436Y-4766868D01*
X-658977Y-4757724D01*
X-643534Y-4747006D01*
X-629208Y-4734712D01*
X-616254Y-4721098D01*
X-604723Y-4706162D01*
X-594766Y-4690211D01*
X-586486Y-4673295D01*
X-579932Y-4655616D01*
X-575208Y-4637430D01*
X-572363Y-4618786D01*
X-571398Y-4599990D01*
X-572363Y-4581194D01*
X-575208Y-4562551D01*
X-579932Y-4544364D01*
X-586486Y-4526686D01*
X-594766Y-4509770D01*
X-604723Y-4493818D01*
X-616254Y-4478883D01*
X-629208Y-4465269D01*
X-643534Y-4452975D01*
X-658977Y-4442256D01*
X-675436Y-4433112D01*
X-692759Y-4425645D01*
X-710692Y-4420006D01*
X-729132Y-4416247D01*
X-747877Y-4414316D01*
X-766724Y-4414316D01*
X-785469Y-4416247D01*
X-803910Y-4420006D01*
X-821842Y-4425645D01*
X-839165Y-4433112D01*
X-855624Y-4442256D01*
X-871067Y-4452975D01*
X-885393Y-4465269D01*
X-898347Y-4478883D01*
X-909878Y-4493818D01*
X-919835Y-4509770D01*
X-928116Y-4526686D01*
X-934669Y-4544364D01*
X-939393Y-4562551D01*
X-942238Y-4581194D01*
X-943203Y-4599990D01*
X-942238Y-4618786D01*
X-939393Y-4637430D01*
X-934669Y-4655616D01*
X-928116Y-4673295D01*
X-919835Y-4690211D01*
X-909878Y-4706162D01*
X-898347Y-4721098D01*
X-885393Y-4734712D01*
X-871067Y-4747006D01*
X-855624Y-4757724D01*
X-839165Y-4766868D01*
X-821842Y-4774336D01*
X-803910Y-4779975D01*
X-785469Y-4783734D01*
G37*
G36*
X7586014Y-4716018D02*
G01*
X7706004Y-4716018D01*
X7712354Y-4715306D01*
X7717790Y-4713376D01*
X7722666Y-4710277D01*
X7726781Y-4706213D01*
X7729880Y-4701286D01*
X7731759Y-4695850D01*
X7732471Y-4689500D01*
X7732471Y-4472482D01*
X7731759Y-4466132D01*
X7729880Y-4460697D01*
X7726781Y-4455769D01*
X7722666Y-4451705D01*
X7717790Y-4448606D01*
X7712354Y-4446727D01*
X7706004Y-4446016D01*
X7586014Y-4446016D01*
X7579664Y-4446727D01*
X7574229Y-4448606D01*
X7569301Y-4451705D01*
X7565237Y-4455769D01*
X7562138Y-4460697D01*
X7560208Y-4466132D01*
X7559497Y-4472482D01*
X7559497Y-4689500D01*
X7560208Y-4695850D01*
X7562138Y-4701286D01*
X7565237Y-4706213D01*
X7569301Y-4710277D01*
X7574229Y-4713376D01*
X7579664Y-4715306D01*
G37*
G36*
X7078014Y-4716018D02*
G01*
X7198004Y-4716018D01*
X7204354Y-4715306D01*
X7209790Y-4713376D01*
X7214666Y-4710277D01*
X7218781Y-4706213D01*
X7221880Y-4701286D01*
X7223759Y-4695850D01*
X7224471Y-4689500D01*
X7224471Y-4472482D01*
X7223759Y-4466132D01*
X7221880Y-4460697D01*
X7218781Y-4455769D01*
X7214666Y-4451705D01*
X7209790Y-4448606D01*
X7204354Y-4446727D01*
X7198004Y-4446016D01*
X7186675Y-4446016D01*
X7182764Y-4445203D01*
X7179513Y-4443018D01*
X7177278Y-4439716D01*
X7176516Y-4435856D01*
X7176516Y-4319016D01*
X7175703Y-4310989D01*
X7173518Y-4303776D01*
X7169962Y-4297070D01*
X7164831Y-4290872D01*
X6981240Y-4107230D01*
X6979056Y-4103979D01*
X6978294Y-4100068D01*
X6979056Y-4096156D01*
X6981240Y-4092905D01*
X6984542Y-4090670D01*
X6988454Y-4089908D01*
X7079081Y-4089908D01*
X7082993Y-4090670D01*
X7086295Y-4092905D01*
X7349845Y-4356455D01*
X7352080Y-4359757D01*
X7352842Y-4363618D01*
X7352995Y-4435805D01*
X7352233Y-4439716D01*
X7349998Y-4443018D01*
X7346746Y-4445203D01*
X7342835Y-4446016D01*
X7332014Y-4446016D01*
X7325664Y-4446727D01*
X7320229Y-4448606D01*
X7315301Y-4451705D01*
X7311237Y-4455769D01*
X7308138Y-4460697D01*
X7306208Y-4466132D01*
X7305497Y-4472482D01*
X7305497Y-4689500D01*
X7306208Y-4695850D01*
X7308138Y-4701286D01*
X7311237Y-4706213D01*
X7315301Y-4710277D01*
X7320229Y-4713376D01*
X7325664Y-4715306D01*
X7332014Y-4716018D01*
X7452004Y-4716018D01*
X7458354Y-4715306D01*
X7463790Y-4713376D01*
X7468666Y-4710277D01*
X7472781Y-4706213D01*
X7475880Y-4701286D01*
X7477759Y-4695850D01*
X7478471Y-4689500D01*
X7478471Y-4472482D01*
X7477759Y-4466132D01*
X7475880Y-4460697D01*
X7472781Y-4455769D01*
X7468666Y-4451705D01*
X7463790Y-4448606D01*
X7458354Y-4446727D01*
X7452004Y-4446016D01*
X7440371Y-4446016D01*
X7436459Y-4445203D01*
X7433208Y-4443018D01*
X7430973Y-4439716D01*
X7430211Y-4435856D01*
X7430008Y-4343806D01*
X7429195Y-4335881D01*
X7427010Y-4328668D01*
X7423454Y-4321962D01*
X7418324Y-4315764D01*
X7126935Y-4024376D01*
X7120737Y-4019245D01*
X7114031Y-4015689D01*
X7106818Y-4013504D01*
X7098792Y-4012692D01*
X6776618Y-4012692D01*
X6772706Y-4011929D01*
X6769404Y-4009694D01*
X5832805Y-3073146D01*
X5826607Y-3068015D01*
X5819902Y-3064459D01*
X5812688Y-3062274D01*
X5804662Y-3061462D01*
X5550865Y-3061462D01*
X5546648Y-3060547D01*
X5543194Y-3057956D01*
X5541162Y-3054146D01*
X5540705Y-3052673D01*
X5534456Y-3037840D01*
X5526532Y-3023819D01*
X5517083Y-3010814D01*
X5506212Y-2998978D01*
X5494020Y-2988411D01*
X5480761Y-2979369D01*
X5466537Y-2971850D01*
X5451551Y-2966008D01*
X5435955Y-2961894D01*
X5420055Y-2959608D01*
X5404002Y-2959150D01*
X5387949Y-2960522D01*
X5372201Y-2963722D01*
X5356860Y-2968701D01*
X5342229Y-2975406D01*
X5328462Y-2983687D01*
X5315712Y-2993542D01*
X5304180Y-3004718D01*
X5294020Y-3017164D01*
X5285333Y-3030728D01*
X5278221Y-3045155D01*
X5272836Y-3060293D01*
X5269179Y-3075990D01*
X5267350Y-3091942D01*
X5267350Y-3108045D01*
X5269179Y-3124047D01*
X5272836Y-3139694D01*
X5278221Y-3154832D01*
X5285333Y-3169259D01*
X5294020Y-3182823D01*
X5304180Y-3195269D01*
X5315712Y-3206496D01*
X5328462Y-3216300D01*
X5342229Y-3224631D01*
X5356860Y-3231286D01*
X5372201Y-3236264D01*
X5387949Y-3239465D01*
X5404002Y-3240836D01*
X5420055Y-3240379D01*
X5435955Y-3238093D01*
X5451551Y-3233978D01*
X5466537Y-3228136D01*
X5480761Y-3220669D01*
X5494020Y-3211576D01*
X5506212Y-3201060D01*
X5517083Y-3189173D01*
X5526532Y-3176168D01*
X5534456Y-3162147D01*
X5540705Y-3147364D01*
X5541111Y-3145993D01*
X5543194Y-3142183D01*
X5546648Y-3139592D01*
X5550865Y-3138678D01*
X5784951Y-3138678D01*
X5788863Y-3139440D01*
X5792165Y-3141675D01*
X6722059Y-4071569D01*
X6724243Y-4074820D01*
X6725005Y-4078732D01*
X6724243Y-4082643D01*
X6722059Y-4085894D01*
X6718757Y-4088129D01*
X6714845Y-4088892D01*
X3893718Y-4088892D01*
X3889806Y-4088129D01*
X3886504Y-4085894D01*
X3762705Y-3962095D01*
X3760470Y-3958793D01*
X3759708Y-3954881D01*
X3759708Y-3413506D01*
X3758895Y-3405479D01*
X3756710Y-3398265D01*
X3753154Y-3391560D01*
X3748024Y-3385362D01*
X3536391Y-3173831D01*
X3534156Y-3170529D01*
X3533394Y-3166618D01*
X3534206Y-3162706D01*
X3540709Y-3147364D01*
X3545230Y-3131921D01*
X3547973Y-3116072D01*
X3548887Y-3100019D01*
X3547973Y-3083915D01*
X3545230Y-3068066D01*
X3540709Y-3052673D01*
X3534410Y-3037840D01*
X3526536Y-3023819D01*
X3517087Y-3010814D01*
X3506215Y-2998978D01*
X3494024Y-2988411D01*
X3480765Y-2979369D01*
X3466541Y-2971850D01*
X3451555Y-2966008D01*
X3435959Y-2961894D01*
X3420059Y-2959608D01*
X3403955Y-2959150D01*
X3387953Y-2960522D01*
X3372205Y-2963722D01*
X3356864Y-2968701D01*
X3342233Y-2975406D01*
X3328466Y-2983687D01*
X3315715Y-2993542D01*
X3304184Y-3004718D01*
X3294024Y-3017164D01*
X3285337Y-3030728D01*
X3278225Y-3045155D01*
X3272790Y-3060293D01*
X3269183Y-3075990D01*
X3267354Y-3091942D01*
X3267354Y-3108045D01*
X3269183Y-3124047D01*
X3272790Y-3139694D01*
X3278225Y-3154832D01*
X3285337Y-3169259D01*
X3294024Y-3182823D01*
X3304184Y-3195269D01*
X3315715Y-3206496D01*
X3328466Y-3216300D01*
X3342233Y-3224631D01*
X3356864Y-3231286D01*
X3372205Y-3236264D01*
X3387953Y-3239465D01*
X3403955Y-3240836D01*
X3420059Y-3240379D01*
X3435959Y-3238093D01*
X3451555Y-3233978D01*
X3466541Y-3228136D01*
X3469690Y-3226511D01*
X3473805Y-3225342D01*
X3478022Y-3225952D01*
X3481628Y-3228289D01*
X3679494Y-3426002D01*
X3681729Y-3429304D01*
X3682492Y-3433216D01*
X3682492Y-3974592D01*
X3683304Y-3982618D01*
X3685489Y-3989832D01*
X3689045Y-3996537D01*
X3694176Y-4002735D01*
X3845864Y-4154424D01*
X3852062Y-4159554D01*
X3858768Y-4163110D01*
X3865981Y-4165295D01*
X3874008Y-4166108D01*
X6926681Y-4166108D01*
X6930593Y-4166870D01*
X6933895Y-4169105D01*
X7096302Y-4331512D01*
X7098538Y-4334814D01*
X7099300Y-4338726D01*
X7099300Y-4435856D01*
X7098538Y-4439716D01*
X7096302Y-4443018D01*
X7093051Y-4445203D01*
X7089140Y-4446016D01*
X7078014Y-4446016D01*
X7071664Y-4446727D01*
X7066229Y-4448606D01*
X7061301Y-4451705D01*
X7057237Y-4455769D01*
X7054138Y-4460697D01*
X7052208Y-4466132D01*
X7051497Y-4472482D01*
X7051497Y-4689500D01*
X7052208Y-4695850D01*
X7054138Y-4701286D01*
X7057237Y-4706213D01*
X7061301Y-4710277D01*
X7066229Y-4713376D01*
X7071664Y-4715306D01*
G37*
G36*
X6824014Y-4716018D02*
G01*
X6944004Y-4716018D01*
X6950354Y-4715306D01*
X6955790Y-4713376D01*
X6960666Y-4710277D01*
X6964781Y-4706213D01*
X6967880Y-4701286D01*
X6969759Y-4695850D01*
X6970471Y-4689500D01*
X6970471Y-4472482D01*
X6969759Y-4466132D01*
X6967880Y-4460697D01*
X6964781Y-4455769D01*
X6960666Y-4451705D01*
X6955790Y-4448606D01*
X6950354Y-4446727D01*
X6944004Y-4446016D01*
X6824014Y-4446016D01*
X6817664Y-4446727D01*
X6812229Y-4448606D01*
X6807301Y-4451705D01*
X6803237Y-4455769D01*
X6800138Y-4460697D01*
X6798208Y-4466132D01*
X6797497Y-4472482D01*
X6797497Y-4532122D01*
X6796735Y-4536033D01*
X6794550Y-4539284D01*
X6791248Y-4541520D01*
X6787337Y-4542282D01*
X6696608Y-4542282D01*
X6692696Y-4541520D01*
X6689394Y-4539284D01*
X6466535Y-4316476D01*
X6460337Y-4311345D01*
X6453632Y-4307789D01*
X6446418Y-4305604D01*
X6438392Y-4304792D01*
X1874418Y-4304792D01*
X1870506Y-4304030D01*
X1867204Y-4301794D01*
X1756105Y-4190695D01*
X1753870Y-4187393D01*
X1753107Y-4183481D01*
X1753107Y-3404108D01*
X1752295Y-3396081D01*
X1750110Y-3388868D01*
X1746554Y-3382162D01*
X1741424Y-3375964D01*
X1537258Y-3171748D01*
X1535074Y-3168446D01*
X1534261Y-3164535D01*
X1535074Y-3160623D01*
X1540713Y-3147364D01*
X1545234Y-3131921D01*
X1547977Y-3116072D01*
X1548892Y-3100019D01*
X1547977Y-3083915D01*
X1545234Y-3068066D01*
X1540713Y-3052673D01*
X1534414Y-3037840D01*
X1526540Y-3023819D01*
X1517091Y-3010814D01*
X1506169Y-2998978D01*
X1494028Y-2988411D01*
X1480769Y-2979369D01*
X1466545Y-2971850D01*
X1451559Y-2966008D01*
X1435963Y-2961894D01*
X1420063Y-2959608D01*
X1403959Y-2959150D01*
X1387957Y-2960522D01*
X1372158Y-2963722D01*
X1356868Y-2968701D01*
X1342237Y-2975406D01*
X1328470Y-2983687D01*
X1315720Y-2993542D01*
X1304188Y-3004718D01*
X1294028Y-3017164D01*
X1285341Y-3030728D01*
X1278229Y-3045155D01*
X1272794Y-3060293D01*
X1269187Y-3075990D01*
X1267358Y-3091942D01*
X1267358Y-3108045D01*
X1269187Y-3124047D01*
X1272794Y-3139694D01*
X1278229Y-3154832D01*
X1285341Y-3169259D01*
X1294028Y-3182823D01*
X1304188Y-3195269D01*
X1315720Y-3206496D01*
X1328470Y-3216300D01*
X1342237Y-3224631D01*
X1356868Y-3231286D01*
X1372158Y-3236264D01*
X1387957Y-3239465D01*
X1403959Y-3240836D01*
X1420063Y-3240379D01*
X1435963Y-3238093D01*
X1451559Y-3233978D01*
X1466545Y-3228136D01*
X1471625Y-3225444D01*
X1475740Y-3224326D01*
X1479956Y-3224936D01*
X1483563Y-3227273D01*
X1672894Y-3416604D01*
X1675130Y-3419906D01*
X1675892Y-3423818D01*
X1675892Y-4203192D01*
X1676704Y-4211218D01*
X1678889Y-4218432D01*
X1682445Y-4225137D01*
X1687575Y-4231335D01*
X1826564Y-4370324D01*
X1832762Y-4375454D01*
X1839468Y-4379010D01*
X1846681Y-4381195D01*
X1854707Y-4382008D01*
X6418681Y-4382008D01*
X6422593Y-4382770D01*
X6425895Y-4385005D01*
X6648754Y-4607814D01*
X6654952Y-4612944D01*
X6661658Y-4616500D01*
X6668871Y-4618685D01*
X6676898Y-4619498D01*
X6787337Y-4619498D01*
X6791248Y-4620260D01*
X6794550Y-4622495D01*
X6796735Y-4625746D01*
X6797497Y-4629658D01*
X6797497Y-4689500D01*
X6798208Y-4695850D01*
X6800138Y-4701286D01*
X6803237Y-4706213D01*
X6807301Y-4710277D01*
X6812229Y-4713376D01*
X6817664Y-4715306D01*
G37*
G36*
X10732109Y-4691126D02*
G01*
X10748162Y-4689754D01*
X10763910Y-4686554D01*
X10779201Y-4681575D01*
X10793831Y-4674920D01*
X10807649Y-4666589D01*
X10820349Y-4656785D01*
X10831880Y-4645558D01*
X10842091Y-4633112D01*
X10850778Y-4619599D01*
X10857890Y-4605121D01*
X10863275Y-4589983D01*
X10866932Y-4574336D01*
X10868761Y-4558334D01*
X10868761Y-4542282D01*
X10866932Y-4526280D01*
X10863275Y-4510582D01*
X10857890Y-4495444D01*
X10850778Y-4481017D01*
X10842091Y-4467504D01*
X10831880Y-4455058D01*
X10820349Y-4443831D01*
X10807649Y-4433976D01*
X10793831Y-4425696D01*
X10779201Y-4418990D01*
X10763910Y-4414062D01*
X10748162Y-4410862D01*
X10732109Y-4409490D01*
X10716056Y-4409948D01*
X10700105Y-4412234D01*
X10684560Y-4416298D01*
X10669574Y-4422140D01*
X10655350Y-4429658D01*
X10642041Y-4438751D01*
X10629900Y-4449267D01*
X10619028Y-4461103D01*
X10609580Y-4474108D01*
X10601655Y-4488129D01*
X10595406Y-4502962D01*
X10590885Y-4518406D01*
X10588142Y-4534255D01*
X10587228Y-4550308D01*
X10588142Y-4566361D01*
X10590885Y-4582210D01*
X10595406Y-4597654D01*
X10601655Y-4612487D01*
X10609580Y-4626457D01*
X10619028Y-4639462D01*
X10629900Y-4651349D01*
X10642041Y-4661865D01*
X10655350Y-4670958D01*
X10669574Y-4678476D01*
X10684560Y-4684318D01*
X10700105Y-4688382D01*
X10716056Y-4690668D01*
G37*
G36*
X16490594Y-4685639D02*
G01*
X16509390Y-4685639D01*
X16528135Y-4683760D01*
X16546576Y-4679950D01*
X16564559Y-4674311D01*
X16581882Y-4666894D01*
X16598341Y-4657750D01*
X16613784Y-4646980D01*
X16628059Y-4634738D01*
X16641063Y-4621072D01*
X16652544Y-4606188D01*
X16662552Y-4590186D01*
X16670832Y-4573320D01*
X16677386Y-4555642D01*
X16682059Y-4537405D01*
X16684955Y-4518812D01*
X16685869Y-4500016D01*
X16684955Y-4481169D01*
X16682059Y-4462576D01*
X16677386Y-4444339D01*
X16670832Y-4426661D01*
X16662552Y-4409795D01*
X16652544Y-4393793D01*
X16641063Y-4378909D01*
X16628059Y-4365244D01*
X16613784Y-4353001D01*
X16598341Y-4342231D01*
X16581882Y-4333087D01*
X16564559Y-4325670D01*
X16546576Y-4320032D01*
X16528135Y-4316222D01*
X16509390Y-4314342D01*
X16490594Y-4314342D01*
X16471849Y-4316222D01*
X16453408Y-4320032D01*
X16435425Y-4325670D01*
X16418102Y-4333087D01*
X16401643Y-4342231D01*
X16386200Y-4353001D01*
X16371925Y-4365244D01*
X16358920Y-4378909D01*
X16347440Y-4393793D01*
X16337432Y-4409795D01*
X16329151Y-4426661D01*
X16322598Y-4444339D01*
X16317925Y-4462576D01*
X16315029Y-4481169D01*
X16314115Y-4500016D01*
X16315029Y-4518812D01*
X16317925Y-4537405D01*
X16322598Y-4555642D01*
X16329151Y-4573320D01*
X16337432Y-4590186D01*
X16347440Y-4606188D01*
X16358920Y-4621072D01*
X16371925Y-4634738D01*
X16386200Y-4646980D01*
X16401643Y-4657750D01*
X16418102Y-4666894D01*
X16435425Y-4674311D01*
X16453408Y-4679950D01*
X16471849Y-4683760D01*
G37*
G36*
X11807952Y-4675784D02*
G01*
X11809831Y-4674920D01*
X11823649Y-4666589D01*
X11836349Y-4656785D01*
X11847880Y-4645558D01*
X11858091Y-4633112D01*
X11866778Y-4619599D01*
X11869470Y-4614164D01*
X11807952Y-4614164D01*
G37*
G36*
X11680240Y-4675632D02*
G01*
X11680240Y-4614164D01*
X11618620Y-4614164D01*
X11625580Y-4626457D01*
X11635028Y-4639462D01*
X11645900Y-4651349D01*
X11658041Y-4661865D01*
X11671350Y-4670958D01*
G37*
G36*
X10299700Y-4586274D02*
G01*
X10314228Y-4585360D01*
X10328503Y-4582668D01*
X10342372Y-4578146D01*
X10355529Y-4571949D01*
X10367822Y-4564176D01*
X10379049Y-4554880D01*
X10389006Y-4544263D01*
X10397540Y-4532477D01*
X10404551Y-4519726D01*
X10409936Y-4506214D01*
X10413542Y-4492091D01*
X10415371Y-4477664D01*
X10415371Y-4463135D01*
X10413542Y-4448708D01*
X10409936Y-4434586D01*
X10404551Y-4421073D01*
X10397540Y-4408322D01*
X10389006Y-4396536D01*
X10379049Y-4385919D01*
X10367822Y-4376623D01*
X10355529Y-4368850D01*
X10342372Y-4362653D01*
X10328503Y-4358132D01*
X10314228Y-4355439D01*
X10299700Y-4354525D01*
X10285171Y-4355439D01*
X10270896Y-4358132D01*
X10257028Y-4362653D01*
X10243870Y-4368850D01*
X10231577Y-4376623D01*
X10220350Y-4385919D01*
X10210393Y-4396536D01*
X10201859Y-4408322D01*
X10194848Y-4421073D01*
X10189464Y-4434586D01*
X10185857Y-4448708D01*
X10184028Y-4463135D01*
X10184028Y-4477664D01*
X10185857Y-4492091D01*
X10189464Y-4506214D01*
X10194848Y-4519726D01*
X10201859Y-4532477D01*
X10210393Y-4544263D01*
X10220350Y-4554880D01*
X10231577Y-4564176D01*
X10243870Y-4571949D01*
X10257028Y-4578146D01*
X10270896Y-4582668D01*
X10285171Y-4585360D01*
G37*
G36*
X11807952Y-4486452D02*
G01*
X11869470Y-4486452D01*
X11866778Y-4481017D01*
X11858091Y-4467504D01*
X11847880Y-4455058D01*
X11836349Y-4443831D01*
X11823649Y-4433976D01*
X11809831Y-4425696D01*
X11807952Y-4424832D01*
G37*
G36*
X11618620Y-4486452D02*
G01*
X11680240Y-4486452D01*
X11680240Y-4424934D01*
X11671350Y-4429658D01*
X11658041Y-4438751D01*
X11645900Y-4449267D01*
X11635028Y-4461103D01*
X11625580Y-4474108D01*
G37*
G36*
X10719409Y-4348226D02*
G01*
X10735462Y-4346854D01*
X10751210Y-4343654D01*
X10766501Y-4338675D01*
X10781131Y-4332020D01*
X10794949Y-4323689D01*
X10807649Y-4313885D01*
X10819180Y-4302658D01*
X10829391Y-4290212D01*
X10838078Y-4276699D01*
X10845190Y-4262221D01*
X10850575Y-4247083D01*
X10854232Y-4231436D01*
X10856061Y-4215434D01*
X10856061Y-4199382D01*
X10854232Y-4183379D01*
X10850575Y-4167682D01*
X10845190Y-4152544D01*
X10838078Y-4138117D01*
X10829391Y-4124604D01*
X10819180Y-4112158D01*
X10807649Y-4100931D01*
X10794949Y-4091076D01*
X10781131Y-4082796D01*
X10766501Y-4076090D01*
X10751210Y-4071162D01*
X10735462Y-4067962D01*
X10719409Y-4066590D01*
X10703356Y-4067048D01*
X10687405Y-4069334D01*
X10671860Y-4073398D01*
X10656874Y-4079240D01*
X10642650Y-4086758D01*
X10629341Y-4095851D01*
X10617200Y-4106367D01*
X10606328Y-4118203D01*
X10596880Y-4131208D01*
X10588955Y-4145229D01*
X10582706Y-4160062D01*
X10578185Y-4175506D01*
X10575442Y-4191355D01*
X10574528Y-4207408D01*
X10575442Y-4223461D01*
X10578185Y-4239310D01*
X10582706Y-4254754D01*
X10588955Y-4269587D01*
X10596880Y-4283557D01*
X10606328Y-4296562D01*
X10617200Y-4308449D01*
X10629341Y-4318965D01*
X10642650Y-4328058D01*
X10656874Y-4335576D01*
X10671860Y-4341418D01*
X10687405Y-4345482D01*
X10703356Y-4347768D01*
G37*
G36*
X11795252Y-4332884D02*
G01*
X11797131Y-4332020D01*
X11810949Y-4323689D01*
X11823649Y-4313885D01*
X11835180Y-4302658D01*
X11845391Y-4290212D01*
X11854078Y-4276699D01*
X11856770Y-4271264D01*
X11795252Y-4271264D01*
G37*
G36*
X11667540Y-4332732D02*
G01*
X11667540Y-4271264D01*
X11605920Y-4271264D01*
X11612880Y-4283557D01*
X11622328Y-4296562D01*
X11633200Y-4308449D01*
X11645341Y-4318965D01*
X11658650Y-4328058D01*
G37*
G36*
X10299700Y-4332274D02*
G01*
X10314228Y-4331360D01*
X10328503Y-4328668D01*
X10342372Y-4324146D01*
X10355529Y-4317949D01*
X10367822Y-4310176D01*
X10379049Y-4300880D01*
X10389006Y-4290263D01*
X10397540Y-4278477D01*
X10404551Y-4265726D01*
X10409936Y-4252214D01*
X10413542Y-4238091D01*
X10415371Y-4223664D01*
X10415371Y-4209135D01*
X10413542Y-4194708D01*
X10409936Y-4180586D01*
X10404551Y-4167073D01*
X10397540Y-4154322D01*
X10389006Y-4142536D01*
X10379049Y-4131919D01*
X10367822Y-4122623D01*
X10355529Y-4114850D01*
X10342372Y-4108653D01*
X10328503Y-4104132D01*
X10314228Y-4101439D01*
X10299700Y-4100525D01*
X10285171Y-4101439D01*
X10270896Y-4104132D01*
X10257028Y-4108653D01*
X10243870Y-4114850D01*
X10231577Y-4122623D01*
X10220350Y-4131919D01*
X10210393Y-4142536D01*
X10201859Y-4154322D01*
X10194848Y-4167073D01*
X10189464Y-4180586D01*
X10185857Y-4194708D01*
X10184028Y-4209135D01*
X10184028Y-4223664D01*
X10185857Y-4238091D01*
X10189464Y-4252214D01*
X10194848Y-4265726D01*
X10201859Y-4278477D01*
X10210393Y-4290263D01*
X10220350Y-4300880D01*
X10231577Y-4310176D01*
X10243870Y-4317949D01*
X10257028Y-4324146D01*
X10270896Y-4328668D01*
X10285171Y-4331360D01*
G37*
G36*
X11795252Y-4143552D02*
G01*
X11856770Y-4143552D01*
X11854078Y-4138117D01*
X11845391Y-4124604D01*
X11835180Y-4112158D01*
X11823649Y-4100931D01*
X11810949Y-4091076D01*
X11797131Y-4082796D01*
X11795252Y-4081932D01*
G37*
G36*
X11605920Y-4143552D02*
G01*
X11667540Y-4143552D01*
X11667540Y-4082034D01*
X11658650Y-4086758D01*
X11645341Y-4095851D01*
X11633200Y-4106367D01*
X11622328Y-4118203D01*
X11612880Y-4131208D01*
G37*
G36*
X10299700Y-4078274D02*
G01*
X10314228Y-4077360D01*
X10328503Y-4074668D01*
X10342372Y-4070146D01*
X10355529Y-4063949D01*
X10367822Y-4056176D01*
X10379049Y-4046880D01*
X10389006Y-4036263D01*
X10397540Y-4024477D01*
X10404551Y-4011726D01*
X10409936Y-3998214D01*
X10413542Y-3984091D01*
X10415371Y-3969664D01*
X10415371Y-3955135D01*
X10413542Y-3940708D01*
X10409936Y-3926586D01*
X10404551Y-3913073D01*
X10397540Y-3900322D01*
X10389006Y-3888536D01*
X10379049Y-3877919D01*
X10367822Y-3868623D01*
X10355529Y-3860850D01*
X10342372Y-3854653D01*
X10328503Y-3850132D01*
X10314228Y-3847439D01*
X10299700Y-3846525D01*
X10285171Y-3847439D01*
X10270896Y-3850132D01*
X10257028Y-3854653D01*
X10243870Y-3860850D01*
X10231577Y-3868623D01*
X10220350Y-3877919D01*
X10210393Y-3888536D01*
X10201859Y-3900322D01*
X10194848Y-3913073D01*
X10189464Y-3926586D01*
X10185857Y-3940708D01*
X10184028Y-3955135D01*
X10184028Y-3969664D01*
X10185857Y-3984091D01*
X10189464Y-3998214D01*
X10194848Y-4011726D01*
X10201859Y-4024477D01*
X10210393Y-4036263D01*
X10220350Y-4046880D01*
X10231577Y-4056176D01*
X10243870Y-4063949D01*
X10257028Y-4070146D01*
X10270896Y-4074668D01*
X10285171Y-4077360D01*
G37*
G36*
X11807952Y-3977284D02*
G01*
X11809831Y-3976420D01*
X11823649Y-3968089D01*
X11836349Y-3958285D01*
X11847880Y-3947058D01*
X11858091Y-3934612D01*
X11866778Y-3921099D01*
X11869470Y-3915664D01*
X11807952Y-3915664D01*
G37*
G36*
X11680240Y-3977132D02*
G01*
X11680240Y-3915664D01*
X11618620Y-3915664D01*
X11625580Y-3927957D01*
X11635028Y-3940962D01*
X11645900Y-3952849D01*
X11658041Y-3963365D01*
X11671350Y-3972458D01*
G37*
G36*
X6824014Y-3954018D02*
G01*
X6847382Y-3954018D01*
X6847382Y-3879900D01*
X6797497Y-3879900D01*
X6797497Y-3927500D01*
X6798208Y-3933850D01*
X6800138Y-3939286D01*
X6803237Y-3944213D01*
X6807301Y-3948277D01*
X6812229Y-3951376D01*
X6817664Y-3953306D01*
G37*
G36*
X6920636Y-3954018D02*
G01*
X6944004Y-3954018D01*
X6950354Y-3953306D01*
X6955790Y-3951376D01*
X6960666Y-3948277D01*
X6964781Y-3944213D01*
X6967880Y-3939286D01*
X6969759Y-3933850D01*
X6970471Y-3927500D01*
X6970471Y-3879900D01*
X6920636Y-3879900D01*
G37*
G36*
X16200018Y-3876344D02*
G01*
X16215156Y-3875430D01*
X16230142Y-3872687D01*
X16244620Y-3868165D01*
X16258489Y-3861917D01*
X16271494Y-3854043D01*
X16283482Y-3844696D01*
X16294252Y-3833926D01*
X16303599Y-3821937D01*
X16311473Y-3808933D01*
X16317722Y-3795064D01*
X16322243Y-3780586D01*
X16324986Y-3765600D01*
X16325900Y-3750462D01*
X16324986Y-3735273D01*
X16322243Y-3720337D01*
X16317722Y-3705809D01*
X16311473Y-3691940D01*
X16303599Y-3678936D01*
X16294252Y-3666947D01*
X16283482Y-3656228D01*
X16271494Y-3646830D01*
X16258489Y-3638956D01*
X16244620Y-3632758D01*
X16230142Y-3628237D01*
X16215156Y-3625494D01*
X16200018Y-3624579D01*
X16184829Y-3625494D01*
X16169894Y-3628237D01*
X16155365Y-3632758D01*
X16141496Y-3638956D01*
X16128492Y-3646830D01*
X16116503Y-3656228D01*
X16105784Y-3666947D01*
X16096386Y-3678936D01*
X16088512Y-3691940D01*
X16082314Y-3705809D01*
X16077793Y-3720337D01*
X16075050Y-3735273D01*
X16074136Y-3750462D01*
X16075050Y-3765600D01*
X16077793Y-3780586D01*
X16082314Y-3795064D01*
X16088512Y-3808933D01*
X16096386Y-3821937D01*
X16105784Y-3833926D01*
X16116503Y-3844696D01*
X16128492Y-3854043D01*
X16141496Y-3861917D01*
X16155365Y-3868165D01*
X16169894Y-3872687D01*
X16184829Y-3875430D01*
G37*
G36*
X-456336Y-3862882D02*
G01*
X-456336Y-3806799D01*
X-512419Y-3806799D01*
X-511454Y-3808933D01*
X-503580Y-3821937D01*
X-494233Y-3833926D01*
X-483463Y-3844696D01*
X-471525Y-3854043D01*
X-458520Y-3861917D01*
G37*
G36*
X-343662Y-3862882D02*
G01*
X-341477Y-3861917D01*
X-328472Y-3854043D01*
X-316534Y-3844696D01*
X-305765Y-3833926D01*
X-296418Y-3821937D01*
X-288544Y-3808933D01*
X-287578Y-3806799D01*
X-343662Y-3806799D01*
G37*
G36*
X4597400Y-3832910D02*
G01*
X4613452Y-3831996D01*
X4629302Y-3829253D01*
X4644745Y-3824681D01*
X4659579Y-3818432D01*
X4673549Y-3810508D01*
X4686604Y-3801059D01*
X4698441Y-3790187D01*
X4708956Y-3778046D01*
X4718050Y-3764737D01*
X4725568Y-3750513D01*
X4731410Y-3735527D01*
X4735474Y-3719982D01*
X4737760Y-3704031D01*
X4738217Y-3687978D01*
X4736846Y-3671925D01*
X4733645Y-3656177D01*
X4728667Y-3640886D01*
X4722012Y-3626256D01*
X4713681Y-3612489D01*
X4703876Y-3599738D01*
X4692650Y-3588207D01*
X4680204Y-3577996D01*
X4666691Y-3569309D01*
X4652264Y-3562197D01*
X4637074Y-3556812D01*
X4621428Y-3553155D01*
X4605426Y-3551326D01*
X4589373Y-3551326D01*
X4573371Y-3553155D01*
X4557725Y-3556812D01*
X4542536Y-3562197D01*
X4528108Y-3569309D01*
X4514596Y-3577996D01*
X4502150Y-3588207D01*
X4490923Y-3599738D01*
X4481118Y-3612489D01*
X4472787Y-3626256D01*
X4466132Y-3640886D01*
X4461154Y-3656177D01*
X4457954Y-3671925D01*
X4456582Y-3687978D01*
X4457039Y-3704031D01*
X4459325Y-3719982D01*
X4463389Y-3735527D01*
X4469231Y-3750513D01*
X4476750Y-3764737D01*
X4485843Y-3778046D01*
X4496358Y-3790187D01*
X4508195Y-3801059D01*
X4521250Y-3810508D01*
X4535220Y-3818432D01*
X4550054Y-3824681D01*
X4565497Y-3829253D01*
X4581347Y-3831996D01*
G37*
G36*
X5219700Y-3811168D02*
G01*
X5235752Y-3810254D01*
X5251602Y-3807510D01*
X5267045Y-3802989D01*
X5281879Y-3796741D01*
X5295849Y-3788816D01*
X5308904Y-3779367D01*
X5320741Y-3768496D01*
X5331256Y-3756355D01*
X5340350Y-3743045D01*
X5347868Y-3728821D01*
X5353710Y-3713835D01*
X5357774Y-3698290D01*
X5360060Y-3682339D01*
X5360517Y-3666286D01*
X5359146Y-3650234D01*
X5355945Y-3634486D01*
X5350967Y-3619195D01*
X5344312Y-3604564D01*
X5335981Y-3590798D01*
X5326176Y-3578047D01*
X5314950Y-3566515D01*
X5302504Y-3556304D01*
X5288991Y-3547618D01*
X5274564Y-3540506D01*
X5259374Y-3535121D01*
X5243728Y-3531463D01*
X5227726Y-3529634D01*
X5211673Y-3529634D01*
X5195671Y-3531463D01*
X5180025Y-3535121D01*
X5164836Y-3540506D01*
X5157724Y-3544011D01*
X5153710Y-3545027D01*
X5149596Y-3544366D01*
X5146090Y-3542080D01*
X4459935Y-2855976D01*
X4453737Y-2850845D01*
X4447032Y-2847289D01*
X4439818Y-2845104D01*
X4431792Y-2844292D01*
X261518Y-2844292D01*
X257606Y-2843530D01*
X254304Y-2841294D01*
X117297Y-2704287D01*
X115163Y-2701137D01*
X114350Y-2697378D01*
X102108Y-2189988D01*
X101346Y-2183028D01*
X99110Y-2175764D01*
X95554Y-2169058D01*
X90424Y-2162860D01*
X-290677Y-1781708D01*
X-292862Y-1778457D01*
X-293674Y-1774647D01*
X-292963Y-1770786D01*
X-289763Y-1762810D01*
X-286156Y-1748739D01*
X-284327Y-1734261D01*
X-284327Y-1719732D01*
X-286156Y-1705305D01*
X-289763Y-1691182D01*
X-295148Y-1677670D01*
X-302158Y-1664919D01*
X-310692Y-1653133D01*
X-320649Y-1642516D01*
X-331876Y-1633220D01*
X-344170Y-1625447D01*
X-357327Y-1619250D01*
X-371195Y-1614728D01*
X-385470Y-1612036D01*
X-399999Y-1611122D01*
X-414528Y-1612036D01*
X-428802Y-1614728D01*
X-442671Y-1619250D01*
X-455828Y-1625447D01*
X-468122Y-1633220D01*
X-479348Y-1642516D01*
X-489305Y-1653133D01*
X-497840Y-1664919D01*
X-504850Y-1677670D01*
X-510235Y-1691182D01*
X-513842Y-1705305D01*
X-515670Y-1719732D01*
X-515670Y-1734261D01*
X-513842Y-1748739D01*
X-510235Y-1762810D01*
X-504850Y-1776323D01*
X-497840Y-1789074D01*
X-489305Y-1800860D01*
X-479348Y-1811477D01*
X-468122Y-1820773D01*
X-455828Y-1828546D01*
X-442671Y-1834743D01*
X-428802Y-1839264D01*
X-414528Y-1841957D01*
X-399999Y-1842871D01*
X-385470Y-1841957D01*
X-371195Y-1839264D01*
X-357327Y-1834743D01*
X-352653Y-1833473D01*
X-348589Y-1834184D01*
X-345135Y-1836420D01*
X-333857Y-1847748D01*
X-331622Y-1851050D01*
X-330860Y-1854911D01*
X-331622Y-1858822D01*
X-333857Y-1862124D01*
X-337159Y-1864309D01*
X-341020Y-1865071D01*
X-489407Y-1865071D01*
X-495757Y-1865782D01*
X-501192Y-1867712D01*
X-506120Y-1870811D01*
X-510184Y-1874875D01*
X-513283Y-1879803D01*
X-515213Y-1885238D01*
X-515924Y-1891588D01*
X-515924Y-2070404D01*
X-515213Y-2076754D01*
X-513283Y-2082190D01*
X-510184Y-2087118D01*
X-506120Y-2091182D01*
X-501192Y-2094280D01*
X-495757Y-2096211D01*
X-489407Y-2096922D01*
X-310591Y-2096922D01*
X-304241Y-2096211D01*
X-298805Y-2094280D01*
X-293878Y-2091182D01*
X-289814Y-2087118D01*
X-286715Y-2082190D01*
X-284784Y-2076754D01*
X-284073Y-2070404D01*
X-284073Y-1922018D01*
X-283311Y-1918157D01*
X-281127Y-1914855D01*
X-277825Y-1912670D01*
X-273913Y-1911857D01*
X-270052Y-1912670D01*
X-266750Y-1914855D01*
X22402Y-2204008D01*
X24536Y-2207158D01*
X25349Y-2210917D01*
X37592Y-2718308D01*
X38354Y-2725267D01*
X40589Y-2732532D01*
X44145Y-2739237D01*
X49276Y-2745435D01*
X213664Y-2909824D01*
X219862Y-2914954D01*
X226567Y-2918510D01*
X233781Y-2920695D01*
X241808Y-2921508D01*
X4412081Y-2921508D01*
X4415993Y-2922270D01*
X4419295Y-2924505D01*
X4443272Y-2948432D01*
X4445609Y-2952140D01*
X4446168Y-2956509D01*
X4444898Y-2960674D01*
X4441901Y-2963926D01*
X4437888Y-2965653D01*
X4433468Y-2965450D01*
X4419955Y-2961894D01*
X4404055Y-2959608D01*
X4388002Y-2959150D01*
X4371949Y-2960522D01*
X4356201Y-2963722D01*
X4340860Y-2968701D01*
X4326229Y-2975406D01*
X4312462Y-2983687D01*
X4299712Y-2993542D01*
X4288180Y-3004718D01*
X4278020Y-3017164D01*
X4269333Y-3030728D01*
X4262221Y-3045155D01*
X4256836Y-3060293D01*
X4253179Y-3075990D01*
X4251350Y-3091942D01*
X4251350Y-3108045D01*
X4253179Y-3124047D01*
X4256836Y-3139694D01*
X4262221Y-3154832D01*
X4269333Y-3169259D01*
X4278020Y-3182823D01*
X4288180Y-3195269D01*
X4299712Y-3206496D01*
X4312462Y-3216300D01*
X4326229Y-3224631D01*
X4340860Y-3231286D01*
X4356201Y-3236264D01*
X4371949Y-3239465D01*
X4388002Y-3240836D01*
X4404055Y-3240379D01*
X4419955Y-3238093D01*
X4435551Y-3233978D01*
X4450537Y-3228136D01*
X4464761Y-3220669D01*
X4478020Y-3211576D01*
X4490212Y-3201060D01*
X4501083Y-3189173D01*
X4510532Y-3176168D01*
X4518456Y-3162147D01*
X4524705Y-3147364D01*
X4529226Y-3131921D01*
X4531969Y-3116072D01*
X4532884Y-3100019D01*
X4531969Y-3083915D01*
X4529226Y-3068066D01*
X4526432Y-3058617D01*
X4526178Y-3054197D01*
X4527804Y-3050082D01*
X4531004Y-3047034D01*
X4535220Y-3045663D01*
X4539640Y-3046222D01*
X4543399Y-3048609D01*
X5091430Y-3596640D01*
X5093665Y-3600043D01*
X5094427Y-3604056D01*
X5093512Y-3608019D01*
X5088432Y-3619195D01*
X5083454Y-3634486D01*
X5080254Y-3650234D01*
X5078882Y-3666286D01*
X5079339Y-3682339D01*
X5081625Y-3698290D01*
X5085689Y-3713835D01*
X5091531Y-3728821D01*
X5099050Y-3743045D01*
X5108143Y-3756355D01*
X5118658Y-3768496D01*
X5130495Y-3779367D01*
X5143550Y-3788816D01*
X5157520Y-3796741D01*
X5172354Y-3802989D01*
X5187797Y-3807510D01*
X5203647Y-3810254D01*
G37*
G36*
X6920636Y-3758082D02*
G01*
X6970471Y-3758082D01*
X6970471Y-3710482D01*
X6969759Y-3704132D01*
X6967880Y-3698697D01*
X6964781Y-3693769D01*
X6960666Y-3689705D01*
X6955790Y-3686606D01*
X6950354Y-3684727D01*
X6944004Y-3684015D01*
X6920636Y-3684015D01*
G37*
G36*
X6797497Y-3758082D02*
G01*
X6847382Y-3758082D01*
X6847382Y-3684015D01*
X6824014Y-3684015D01*
X6817664Y-3684727D01*
X6812229Y-3686606D01*
X6807301Y-3689705D01*
X6803237Y-3693769D01*
X6800138Y-3698697D01*
X6798208Y-3704132D01*
X6797497Y-3710482D01*
G37*
G36*
X-343662Y-3694074D02*
G01*
X-287578Y-3694074D01*
X-288544Y-3691940D01*
X-296418Y-3678936D01*
X-305765Y-3666947D01*
X-316534Y-3656228D01*
X-328472Y-3646830D01*
X-341477Y-3638956D01*
X-343662Y-3637991D01*
G37*
G36*
X-512419Y-3694074D02*
G01*
X-456336Y-3694074D01*
X-456336Y-3637991D01*
X-458520Y-3638956D01*
X-471525Y-3646830D01*
X-483463Y-3656228D01*
X-494233Y-3666947D01*
X-503580Y-3678936D01*
X-511454Y-3691940D01*
G37*
G36*
X-399999Y-3375456D02*
G01*
X-384810Y-3374542D01*
X-369874Y-3371799D01*
X-355346Y-3367278D01*
X-341477Y-3361029D01*
X-328472Y-3353155D01*
X-316534Y-3343808D01*
X-305765Y-3333038D01*
X-296418Y-3321050D01*
X-288544Y-3308045D01*
X-282295Y-3294176D01*
X-277774Y-3279698D01*
X-275031Y-3264712D01*
X-274116Y-3249574D01*
X-275031Y-3234385D01*
X-277774Y-3219450D01*
X-282295Y-3204921D01*
X-288544Y-3191052D01*
X-296418Y-3178048D01*
X-305765Y-3166059D01*
X-316534Y-3155340D01*
X-328472Y-3145942D01*
X-341477Y-3138068D01*
X-355346Y-3131870D01*
X-369874Y-3127349D01*
X-384810Y-3124606D01*
X-399999Y-3123692D01*
X-415188Y-3124606D01*
X-430123Y-3127349D01*
X-444652Y-3131870D01*
X-458520Y-3138068D01*
X-471525Y-3145942D01*
X-483463Y-3155340D01*
X-494233Y-3166059D01*
X-503580Y-3178048D01*
X-511454Y-3191052D01*
X-517702Y-3204921D01*
X-522224Y-3219450D01*
X-524967Y-3234385D01*
X-525881Y-3249574D01*
X-524967Y-3264712D01*
X-522224Y-3279698D01*
X-517702Y-3294176D01*
X-511454Y-3308045D01*
X-503580Y-3321050D01*
X-494233Y-3333038D01*
X-483463Y-3343808D01*
X-471525Y-3353155D01*
X-458520Y-3361029D01*
X-444652Y-3367278D01*
X-430123Y-3371799D01*
X-415188Y-3374542D01*
G37*
G36*
X16256355Y-3361994D02*
G01*
X16258489Y-3361029D01*
X16271494Y-3353155D01*
X16283482Y-3343808D01*
X16294252Y-3333038D01*
X16303599Y-3321050D01*
X16311473Y-3308045D01*
X16312438Y-3305911D01*
X16256355Y-3305911D01*
G37*
G36*
X16143630Y-3361994D02*
G01*
X16143630Y-3305911D01*
X16087547Y-3305911D01*
X16088512Y-3308045D01*
X16096386Y-3321050D01*
X16105784Y-3333038D01*
X16116503Y-3343808D01*
X16128492Y-3353155D01*
X16141496Y-3361029D01*
G37*
G36*
X2387955Y-3240836D02*
G01*
X2404059Y-3240379D01*
X2419959Y-3238093D01*
X2435555Y-3233978D01*
X2450541Y-3228136D01*
X2464765Y-3220669D01*
X2478024Y-3211576D01*
X2490216Y-3201060D01*
X2501087Y-3189173D01*
X2510536Y-3176168D01*
X2518410Y-3162147D01*
X2524709Y-3147364D01*
X2529230Y-3131921D01*
X2531973Y-3116072D01*
X2532888Y-3100019D01*
X2531973Y-3083915D01*
X2529230Y-3068066D01*
X2524709Y-3052673D01*
X2518410Y-3037840D01*
X2510536Y-3023819D01*
X2501087Y-3010814D01*
X2490216Y-2998978D01*
X2478024Y-2988411D01*
X2464765Y-2979369D01*
X2450541Y-2971850D01*
X2435555Y-2966008D01*
X2419959Y-2961894D01*
X2404059Y-2959608D01*
X2387955Y-2959150D01*
X2371953Y-2960522D01*
X2356205Y-2963722D01*
X2340864Y-2968701D01*
X2326233Y-2975406D01*
X2312466Y-2983687D01*
X2299716Y-2993542D01*
X2288184Y-3004718D01*
X2278024Y-3017164D01*
X2269337Y-3030728D01*
X2262225Y-3045155D01*
X2256790Y-3060293D01*
X2253183Y-3075990D01*
X2251354Y-3091942D01*
X2251354Y-3108045D01*
X2253183Y-3124047D01*
X2256790Y-3139694D01*
X2262225Y-3154832D01*
X2269337Y-3169259D01*
X2278024Y-3182823D01*
X2288184Y-3195269D01*
X2299716Y-3206496D01*
X2312466Y-3216300D01*
X2326233Y-3224631D01*
X2340864Y-3231286D01*
X2356205Y-3236264D01*
X2371953Y-3239465D01*
G37*
G36*
X12387986Y-3240836D02*
G01*
X12404039Y-3240379D01*
X12419990Y-3238093D01*
X12435535Y-3233978D01*
X12450521Y-3228136D01*
X12464745Y-3220669D01*
X12478054Y-3211576D01*
X12490196Y-3201060D01*
X12501067Y-3189173D01*
X12510516Y-3176168D01*
X12518440Y-3162147D01*
X12524689Y-3147364D01*
X12529210Y-3131921D01*
X12531953Y-3116072D01*
X12532868Y-3100019D01*
X12531953Y-3083915D01*
X12529210Y-3068066D01*
X12524689Y-3052673D01*
X12518440Y-3037840D01*
X12510516Y-3023819D01*
X12501067Y-3010814D01*
X12490196Y-2998978D01*
X12478054Y-2988411D01*
X12464745Y-2979369D01*
X12450521Y-2971850D01*
X12435535Y-2966008D01*
X12419990Y-2961894D01*
X12404039Y-2959608D01*
X12387986Y-2959150D01*
X12371933Y-2960522D01*
X12356185Y-2963722D01*
X12340894Y-2968701D01*
X12326264Y-2975406D01*
X12312497Y-2983687D01*
X12299746Y-2993542D01*
X12288215Y-3004718D01*
X12278004Y-3017164D01*
X12269317Y-3030728D01*
X12262205Y-3045155D01*
X12256820Y-3060293D01*
X12253163Y-3075990D01*
X12251334Y-3091942D01*
X12251334Y-3108045D01*
X12253163Y-3124047D01*
X12256820Y-3139694D01*
X12262205Y-3154832D01*
X12269317Y-3169259D01*
X12278004Y-3182823D01*
X12288215Y-3195269D01*
X12299746Y-3206496D01*
X12312497Y-3216300D01*
X12326264Y-3224631D01*
X12340894Y-3231286D01*
X12356185Y-3236264D01*
X12371933Y-3239465D01*
G37*
G36*
X8387994Y-3240836D02*
G01*
X8404047Y-3240379D01*
X8419998Y-3238093D01*
X8435543Y-3233978D01*
X8450529Y-3228136D01*
X8464753Y-3220669D01*
X8478012Y-3211576D01*
X8490204Y-3201060D01*
X8501075Y-3189173D01*
X8510524Y-3176168D01*
X8518448Y-3162147D01*
X8524697Y-3147364D01*
X8529218Y-3131921D01*
X8531961Y-3116072D01*
X8532876Y-3100019D01*
X8531961Y-3083915D01*
X8529218Y-3068066D01*
X8524697Y-3052673D01*
X8518448Y-3037840D01*
X8510524Y-3023819D01*
X8501075Y-3010814D01*
X8490204Y-2998978D01*
X8478012Y-2988411D01*
X8464753Y-2979369D01*
X8450529Y-2971850D01*
X8435543Y-2966008D01*
X8419998Y-2961894D01*
X8404047Y-2959608D01*
X8387994Y-2959150D01*
X8371941Y-2960522D01*
X8356193Y-2963722D01*
X8340902Y-2968701D01*
X8326272Y-2975406D01*
X8312454Y-2983687D01*
X8299754Y-2993542D01*
X8288223Y-3004718D01*
X8278012Y-3017164D01*
X8269325Y-3030728D01*
X8262213Y-3045155D01*
X8256828Y-3060293D01*
X8253171Y-3075990D01*
X8251342Y-3091942D01*
X8251342Y-3108045D01*
X8253171Y-3124047D01*
X8256828Y-3139694D01*
X8262213Y-3154832D01*
X8269325Y-3169259D01*
X8278012Y-3182823D01*
X8288223Y-3195269D01*
X8299754Y-3206496D01*
X8312454Y-3216300D01*
X8326272Y-3224631D01*
X8340902Y-3231286D01*
X8356193Y-3236264D01*
X8371941Y-3239465D01*
G37*
G36*
X14387982Y-3240836D02*
G01*
X14404035Y-3240379D01*
X14419986Y-3238093D01*
X14435531Y-3233978D01*
X14450517Y-3228136D01*
X14464741Y-3220669D01*
X14478050Y-3211576D01*
X14490192Y-3201060D01*
X14501063Y-3189173D01*
X14510512Y-3176168D01*
X14518436Y-3162147D01*
X14524685Y-3147364D01*
X14529206Y-3131921D01*
X14531949Y-3116072D01*
X14532914Y-3100019D01*
X14531949Y-3083915D01*
X14529206Y-3068066D01*
X14524685Y-3052673D01*
X14518436Y-3037840D01*
X14510512Y-3023819D01*
X14501063Y-3010814D01*
X14490192Y-2998978D01*
X14478050Y-2988411D01*
X14464741Y-2979369D01*
X14450517Y-2971850D01*
X14435531Y-2966008D01*
X14419986Y-2961894D01*
X14404035Y-2959608D01*
X14387982Y-2959150D01*
X14371929Y-2960522D01*
X14356181Y-2963722D01*
X14340890Y-2968701D01*
X14326260Y-2975406D01*
X14312493Y-2983687D01*
X14299742Y-2993542D01*
X14288211Y-3004718D01*
X14278000Y-3017164D01*
X14269313Y-3030728D01*
X14262201Y-3045155D01*
X14256816Y-3060293D01*
X14253159Y-3075990D01*
X14251330Y-3091942D01*
X14251330Y-3108045D01*
X14253159Y-3124047D01*
X14256816Y-3139694D01*
X14262201Y-3154832D01*
X14269313Y-3169259D01*
X14278000Y-3182823D01*
X14288211Y-3195269D01*
X14299742Y-3206496D01*
X14312493Y-3216300D01*
X14326260Y-3224631D01*
X14340890Y-3231286D01*
X14356181Y-3236264D01*
X14371929Y-3239465D01*
G37*
G36*
X7403998Y-3240836D02*
G01*
X7420051Y-3240379D01*
X7436002Y-3238093D01*
X7451547Y-3233978D01*
X7466533Y-3228136D01*
X7480757Y-3220669D01*
X7494016Y-3211576D01*
X7506208Y-3201060D01*
X7517079Y-3189173D01*
X7526528Y-3176168D01*
X7534452Y-3162147D01*
X7540701Y-3147364D01*
X7545222Y-3131921D01*
X7547965Y-3116072D01*
X7548880Y-3100019D01*
X7547965Y-3083915D01*
X7545222Y-3068066D01*
X7540701Y-3052673D01*
X7534452Y-3037840D01*
X7526528Y-3023819D01*
X7517079Y-3010814D01*
X7506208Y-2998978D01*
X7494016Y-2988411D01*
X7480757Y-2979369D01*
X7466533Y-2971850D01*
X7451547Y-2966008D01*
X7436002Y-2961894D01*
X7420051Y-2959608D01*
X7403998Y-2959150D01*
X7387945Y-2960522D01*
X7372197Y-2963722D01*
X7356906Y-2968701D01*
X7342225Y-2975406D01*
X7328458Y-2983687D01*
X7315758Y-2993542D01*
X7304176Y-3004718D01*
X7294016Y-3017164D01*
X7285329Y-3030728D01*
X7278217Y-3045155D01*
X7272832Y-3060293D01*
X7269175Y-3075990D01*
X7267346Y-3091942D01*
X7267346Y-3108045D01*
X7269175Y-3124047D01*
X7272832Y-3139694D01*
X7278217Y-3154832D01*
X7285329Y-3169259D01*
X7294016Y-3182823D01*
X7304176Y-3195269D01*
X7315758Y-3206496D01*
X7328458Y-3216300D01*
X7342225Y-3224631D01*
X7356906Y-3231286D01*
X7372197Y-3236264D01*
X7387945Y-3239465D01*
G37*
G36*
X10387990Y-3240836D02*
G01*
X10404043Y-3240379D01*
X10419994Y-3238093D01*
X10435539Y-3233978D01*
X10450525Y-3228136D01*
X10464749Y-3220669D01*
X10478058Y-3211576D01*
X10490200Y-3201060D01*
X10501071Y-3189173D01*
X10510520Y-3176168D01*
X10518444Y-3162147D01*
X10524693Y-3147364D01*
X10529214Y-3131921D01*
X10531957Y-3116072D01*
X10532872Y-3100019D01*
X10531957Y-3083915D01*
X10529214Y-3068066D01*
X10524693Y-3052673D01*
X10518444Y-3037840D01*
X10510520Y-3023819D01*
X10501071Y-3010814D01*
X10490200Y-2998978D01*
X10478058Y-2988411D01*
X10464749Y-2979369D01*
X10450525Y-2971850D01*
X10435539Y-2966008D01*
X10419994Y-2961894D01*
X10404043Y-2959608D01*
X10387990Y-2959150D01*
X10371937Y-2960522D01*
X10356189Y-2963722D01*
X10340898Y-2968701D01*
X10326268Y-2975406D01*
X10312450Y-2983687D01*
X10299750Y-2993542D01*
X10288219Y-3004718D01*
X10278008Y-3017164D01*
X10269321Y-3030728D01*
X10262209Y-3045155D01*
X10256824Y-3060293D01*
X10253167Y-3075990D01*
X10251338Y-3091942D01*
X10251338Y-3108045D01*
X10253167Y-3124047D01*
X10256824Y-3139694D01*
X10262209Y-3154832D01*
X10269321Y-3169259D01*
X10278008Y-3182823D01*
X10288219Y-3195269D01*
X10299750Y-3206496D01*
X10312450Y-3216300D01*
X10326268Y-3224631D01*
X10340898Y-3231286D01*
X10356189Y-3236264D01*
X10371937Y-3239465D01*
G37*
G36*
X6387998Y-3240836D02*
G01*
X6404051Y-3240379D01*
X6420002Y-3238093D01*
X6435547Y-3233978D01*
X6450533Y-3228136D01*
X6464757Y-3220669D01*
X6478016Y-3211576D01*
X6490208Y-3201060D01*
X6501079Y-3189173D01*
X6510528Y-3176168D01*
X6518452Y-3162147D01*
X6524701Y-3147364D01*
X6529222Y-3131921D01*
X6531965Y-3116072D01*
X6532880Y-3100019D01*
X6531965Y-3083915D01*
X6529222Y-3068066D01*
X6524701Y-3052673D01*
X6518452Y-3037840D01*
X6510528Y-3023819D01*
X6501079Y-3010814D01*
X6490208Y-2998978D01*
X6478016Y-2988411D01*
X6464757Y-2979369D01*
X6450533Y-2971850D01*
X6435547Y-2966008D01*
X6420002Y-2961894D01*
X6404051Y-2959608D01*
X6387998Y-2959150D01*
X6371945Y-2960522D01*
X6356197Y-2963722D01*
X6340906Y-2968701D01*
X6326225Y-2975406D01*
X6312458Y-2983687D01*
X6299758Y-2993542D01*
X6288176Y-3004718D01*
X6278016Y-3017164D01*
X6269329Y-3030728D01*
X6262217Y-3045155D01*
X6256832Y-3060293D01*
X6253175Y-3075990D01*
X6251346Y-3091942D01*
X6251346Y-3108045D01*
X6253175Y-3124047D01*
X6256832Y-3139694D01*
X6262217Y-3154832D01*
X6269329Y-3169259D01*
X6278016Y-3182823D01*
X6288176Y-3195269D01*
X6299758Y-3206496D01*
X6312458Y-3216300D01*
X6326225Y-3224631D01*
X6340906Y-3231286D01*
X6356197Y-3236264D01*
X6371945Y-3239465D01*
G37*
G36*
X387959Y-3240836D02*
G01*
X404063Y-3240379D01*
X419963Y-3238093D01*
X435559Y-3233978D01*
X450545Y-3228136D01*
X464769Y-3220669D01*
X478028Y-3211576D01*
X490169Y-3201060D01*
X501091Y-3189173D01*
X510540Y-3176168D01*
X518414Y-3162147D01*
X524713Y-3147364D01*
X529234Y-3131921D01*
X531977Y-3116072D01*
X532892Y-3100019D01*
X531977Y-3083915D01*
X529234Y-3068066D01*
X524713Y-3052673D01*
X518414Y-3037840D01*
X510540Y-3023819D01*
X501091Y-3010814D01*
X490169Y-2998978D01*
X478028Y-2988411D01*
X464769Y-2979369D01*
X450545Y-2971850D01*
X435559Y-2966008D01*
X419963Y-2961894D01*
X404063Y-2959608D01*
X387959Y-2959150D01*
X371957Y-2960522D01*
X356158Y-2963722D01*
X340868Y-2968701D01*
X326237Y-2975406D01*
X312470Y-2983687D01*
X299720Y-2993542D01*
X288188Y-3004718D01*
X278028Y-3017164D01*
X269341Y-3030728D01*
X262229Y-3045155D01*
X256794Y-3060293D01*
X253187Y-3075990D01*
X251358Y-3091942D01*
X251358Y-3108045D01*
X253187Y-3124047D01*
X256794Y-3139694D01*
X262229Y-3154832D01*
X269341Y-3169259D01*
X278028Y-3182823D01*
X288188Y-3195269D01*
X299720Y-3206496D01*
X312470Y-3216300D01*
X326237Y-3224631D01*
X340868Y-3231286D01*
X356158Y-3236264D01*
X371957Y-3239465D01*
G37*
G36*
X16087547Y-3193186D02*
G01*
X16143630Y-3193186D01*
X16143630Y-3137103D01*
X16141496Y-3138068D01*
X16128492Y-3145942D01*
X16116503Y-3155340D01*
X16105784Y-3166059D01*
X16096386Y-3178048D01*
X16088512Y-3191052D01*
G37*
G36*
X16256355Y-3193186D02*
G01*
X16312438Y-3193186D01*
X16311473Y-3191052D01*
X16303599Y-3178048D01*
X16294252Y-3166059D01*
X16283482Y-3155340D01*
X16271494Y-3145942D01*
X16258489Y-3138068D01*
X16256355Y-3137103D01*
G37*
G36*
X6556552Y-2476398D02*
G01*
X6735419Y-2476398D01*
X6741718Y-2475687D01*
X6747205Y-2473807D01*
X6752081Y-2470708D01*
X6756196Y-2466594D01*
X6759295Y-2461717D01*
X6761175Y-2456281D01*
X6761886Y-2449931D01*
X6761886Y-2191054D01*
X6761175Y-2184755D01*
X6759295Y-2179269D01*
X6756196Y-2174392D01*
X6752081Y-2170277D01*
X6747205Y-2167229D01*
X6741718Y-2165299D01*
X6735419Y-2164588D01*
X6556552Y-2164588D01*
X6550253Y-2165299D01*
X6544767Y-2167229D01*
X6539890Y-2170277D01*
X6535775Y-2174392D01*
X6532727Y-2179269D01*
X6530797Y-2184755D01*
X6530085Y-2191054D01*
X6530085Y-2449931D01*
X6530797Y-2456281D01*
X6532727Y-2461717D01*
X6535775Y-2466594D01*
X6539890Y-2470708D01*
X6544767Y-2473807D01*
X6550253Y-2475687D01*
G37*
G36*
X6892696Y-2476144D02*
G01*
X6907275Y-2476144D01*
X6921703Y-2474315D01*
X6935825Y-2470708D01*
X6949338Y-2465374D01*
X6962089Y-2458364D01*
X6973874Y-2449779D01*
X6984492Y-2439822D01*
X6993737Y-2428646D01*
X7001560Y-2416352D01*
X7007758Y-2403144D01*
X7012228Y-2389327D01*
X7014972Y-2375052D01*
X7015886Y-2360168D01*
X7015886Y-2280818D01*
X7014972Y-2265984D01*
X7012228Y-2251710D01*
X7007758Y-2237841D01*
X7001560Y-2224684D01*
X6993737Y-2212390D01*
X6984492Y-2201164D01*
X6973874Y-2191207D01*
X6962089Y-2182672D01*
X6949338Y-2175662D01*
X6935825Y-2170277D01*
X6921703Y-2166670D01*
X6907275Y-2164842D01*
X6892696Y-2164842D01*
X6878269Y-2166670D01*
X6864197Y-2170277D01*
X6850634Y-2175662D01*
X6837883Y-2182672D01*
X6826097Y-2191207D01*
X6815531Y-2201164D01*
X6806234Y-2212390D01*
X6798462Y-2224684D01*
X6792264Y-2237841D01*
X6787743Y-2251710D01*
X6785000Y-2265984D01*
X6784086Y-2280818D01*
X6784086Y-2360168D01*
X6785000Y-2375052D01*
X6787743Y-2389327D01*
X6792264Y-2403144D01*
X6798462Y-2416352D01*
X6806234Y-2428646D01*
X6815531Y-2439822D01*
X6826097Y-2449779D01*
X6837883Y-2458364D01*
X6850634Y-2465374D01*
X6864197Y-2470708D01*
X6878269Y-2474315D01*
G37*
G36*
X7102652Y-2465273D02*
G01*
X7102652Y-2392832D01*
X7042556Y-2392832D01*
X7046264Y-2404160D01*
X7052462Y-2417318D01*
X7060234Y-2429611D01*
X7069531Y-2440838D01*
X7080097Y-2450795D01*
X7091883Y-2459329D01*
G37*
G36*
X7205319Y-2465273D02*
G01*
X7216089Y-2459329D01*
X7227874Y-2450795D01*
X7238492Y-2440838D01*
X7247737Y-2429611D01*
X7255560Y-2417318D01*
X7261758Y-2404160D01*
X7265416Y-2392832D01*
X7205319Y-2392832D01*
G37*
G36*
X556564Y-2455418D02*
G01*
X735431Y-2455418D01*
X741730Y-2454706D01*
X747217Y-2452776D01*
X752094Y-2449728D01*
X756208Y-2445613D01*
X759256Y-2440736D01*
X761187Y-2435250D01*
X761898Y-2428951D01*
X761898Y-2170074D01*
X761187Y-2163775D01*
X759256Y-2158288D01*
X756208Y-2153412D01*
X752094Y-2149297D01*
X747217Y-2146198D01*
X741730Y-2144318D01*
X735431Y-2143607D01*
X556564Y-2143607D01*
X550265Y-2144318D01*
X544779Y-2146198D01*
X539902Y-2149297D01*
X535787Y-2153412D01*
X532688Y-2158288D01*
X530809Y-2163775D01*
X530098Y-2170074D01*
X530098Y-2428951D01*
X530809Y-2435250D01*
X532688Y-2440736D01*
X535787Y-2445613D01*
X539902Y-2449728D01*
X544779Y-2452776D01*
X550265Y-2454706D01*
G37*
G36*
X8556548Y-2455418D02*
G01*
X8735415Y-2455418D01*
X8741765Y-2454706D01*
X8747201Y-2452776D01*
X8752128Y-2449728D01*
X8756192Y-2445613D01*
X8759291Y-2440736D01*
X8761171Y-2435250D01*
X8761882Y-2428951D01*
X8761882Y-2170074D01*
X8761171Y-2163775D01*
X8759291Y-2158288D01*
X8756192Y-2153412D01*
X8752128Y-2149297D01*
X8747201Y-2146198D01*
X8741765Y-2144318D01*
X8735415Y-2143607D01*
X8556548Y-2143607D01*
X8550249Y-2144318D01*
X8544763Y-2146198D01*
X8539886Y-2149297D01*
X8535771Y-2153412D01*
X8532723Y-2158288D01*
X8530793Y-2163775D01*
X8530082Y-2170074D01*
X8530082Y-2428951D01*
X8530793Y-2435250D01*
X8532723Y-2440736D01*
X8535771Y-2445613D01*
X8539886Y-2449728D01*
X8544763Y-2452776D01*
X8550249Y-2454706D01*
G37*
G36*
X10556544Y-2455418D02*
G01*
X10735411Y-2455418D01*
X10741761Y-2454706D01*
X10747197Y-2452776D01*
X10752124Y-2449728D01*
X10756188Y-2445613D01*
X10759287Y-2440736D01*
X10761167Y-2435250D01*
X10761878Y-2428951D01*
X10761878Y-2170074D01*
X10761167Y-2163775D01*
X10759287Y-2158288D01*
X10756188Y-2153412D01*
X10752124Y-2149297D01*
X10747197Y-2146198D01*
X10741761Y-2144318D01*
X10735411Y-2143607D01*
X10556544Y-2143607D01*
X10550245Y-2144318D01*
X10544759Y-2146198D01*
X10539882Y-2149297D01*
X10535767Y-2153412D01*
X10532719Y-2158288D01*
X10530789Y-2163775D01*
X10530078Y-2170074D01*
X10530078Y-2428951D01*
X10530789Y-2435250D01*
X10532719Y-2440736D01*
X10535767Y-2445613D01*
X10539882Y-2449728D01*
X10544759Y-2452776D01*
X10550245Y-2454706D01*
G37*
G36*
X4556556Y-2455418D02*
G01*
X4735423Y-2455418D01*
X4741722Y-2454706D01*
X4747209Y-2452776D01*
X4752086Y-2449728D01*
X4756200Y-2445613D01*
X4759299Y-2440736D01*
X4761179Y-2435250D01*
X4761890Y-2428951D01*
X4761890Y-2170074D01*
X4761179Y-2163775D01*
X4759299Y-2158288D01*
X4756200Y-2153412D01*
X4752086Y-2149297D01*
X4747209Y-2146198D01*
X4741722Y-2144318D01*
X4735423Y-2143607D01*
X4556556Y-2143607D01*
X4550257Y-2144318D01*
X4544771Y-2146198D01*
X4539894Y-2149297D01*
X4535779Y-2153412D01*
X4532731Y-2158288D01*
X4530801Y-2163775D01*
X4530090Y-2170074D01*
X4530090Y-2428951D01*
X4530801Y-2435250D01*
X4532731Y-2440736D01*
X4535779Y-2445613D01*
X4539894Y-2449728D01*
X4544771Y-2452776D01*
X4550257Y-2454706D01*
G37*
G36*
X2556560Y-2455418D02*
G01*
X2735427Y-2455418D01*
X2741726Y-2454706D01*
X2747213Y-2452776D01*
X2752090Y-2449728D01*
X2756204Y-2445613D01*
X2759252Y-2440736D01*
X2761183Y-2435250D01*
X2761894Y-2428951D01*
X2761894Y-2170074D01*
X2761183Y-2163775D01*
X2759252Y-2158288D01*
X2756204Y-2153412D01*
X2752090Y-2149297D01*
X2747213Y-2146198D01*
X2741726Y-2144318D01*
X2735427Y-2143607D01*
X2556560Y-2143607D01*
X2550261Y-2144318D01*
X2544775Y-2146198D01*
X2539898Y-2149297D01*
X2535783Y-2153412D01*
X2532684Y-2158288D01*
X2530805Y-2163775D01*
X2530094Y-2170074D01*
X2530094Y-2428951D01*
X2530805Y-2435250D01*
X2532684Y-2440736D01*
X2535783Y-2445613D01*
X2539898Y-2449728D01*
X2544775Y-2452776D01*
X2550261Y-2454706D01*
G37*
G36*
X14556587Y-2455418D02*
G01*
X14735403Y-2455418D01*
X14741753Y-2454706D01*
X14747189Y-2452776D01*
X14752116Y-2449728D01*
X14756180Y-2445613D01*
X14759279Y-2440736D01*
X14761210Y-2435250D01*
X14761921Y-2428951D01*
X14761921Y-2170074D01*
X14761210Y-2163775D01*
X14759279Y-2158288D01*
X14756180Y-2153412D01*
X14752116Y-2149297D01*
X14747189Y-2146198D01*
X14741753Y-2144318D01*
X14735403Y-2143607D01*
X14556587Y-2143607D01*
X14550237Y-2144318D01*
X14544801Y-2146198D01*
X14539874Y-2149297D01*
X14535810Y-2153412D01*
X14532711Y-2158288D01*
X14530781Y-2163775D01*
X14530069Y-2170074D01*
X14530069Y-2428951D01*
X14530781Y-2435250D01*
X14532711Y-2440736D01*
X14535810Y-2445613D01*
X14539874Y-2449728D01*
X14544801Y-2452776D01*
X14550237Y-2454706D01*
G37*
G36*
X12556540Y-2455418D02*
G01*
X12735407Y-2455418D01*
X12741757Y-2454706D01*
X12747193Y-2452776D01*
X12752120Y-2449728D01*
X12756184Y-2445613D01*
X12759283Y-2440736D01*
X12761163Y-2435250D01*
X12761925Y-2428951D01*
X12761925Y-2170074D01*
X12761163Y-2163775D01*
X12759283Y-2158288D01*
X12756184Y-2153412D01*
X12752120Y-2149297D01*
X12747193Y-2146198D01*
X12741757Y-2144318D01*
X12735407Y-2143607D01*
X12556540Y-2143607D01*
X12550241Y-2144318D01*
X12544755Y-2146198D01*
X12539878Y-2149297D01*
X12535763Y-2153412D01*
X12532715Y-2158288D01*
X12530785Y-2163775D01*
X12530074Y-2170074D01*
X12530074Y-2428951D01*
X12530785Y-2435250D01*
X12532715Y-2440736D01*
X12535763Y-2445613D01*
X12539878Y-2449728D01*
X12544755Y-2452776D01*
X12550241Y-2454706D01*
G37*
G36*
X892708Y-2455164D02*
G01*
X907287Y-2455164D01*
X921715Y-2453335D01*
X935786Y-2449728D01*
X949350Y-2444343D01*
X962101Y-2437333D01*
X973886Y-2428798D01*
X984453Y-2418842D01*
X993749Y-2407615D01*
X1001521Y-2395321D01*
X1007719Y-2382164D01*
X1012240Y-2368346D01*
X1014984Y-2354021D01*
X1015898Y-2339187D01*
X1015898Y-2259838D01*
X1014984Y-2245004D01*
X1012240Y-2230678D01*
X1007719Y-2216861D01*
X1001521Y-2203653D01*
X993749Y-2191410D01*
X984453Y-2180183D01*
X973886Y-2170226D01*
X962101Y-2161641D01*
X949350Y-2154631D01*
X935786Y-2149297D01*
X921715Y-2145690D01*
X907287Y-2143861D01*
X892708Y-2143861D01*
X878281Y-2145690D01*
X864158Y-2149297D01*
X850646Y-2154631D01*
X837895Y-2161641D01*
X826109Y-2170226D01*
X815492Y-2180183D01*
X806246Y-2191410D01*
X798423Y-2203653D01*
X792226Y-2216861D01*
X787755Y-2230678D01*
X785012Y-2245004D01*
X784098Y-2259838D01*
X784098Y-2339187D01*
X785012Y-2354021D01*
X787755Y-2368346D01*
X792226Y-2382164D01*
X798423Y-2395321D01*
X806246Y-2407615D01*
X815492Y-2418842D01*
X826109Y-2428798D01*
X837895Y-2437333D01*
X850646Y-2444343D01*
X864158Y-2449728D01*
X878281Y-2453335D01*
G37*
G36*
X8892692Y-2455164D02*
G01*
X8907272Y-2455164D01*
X8921699Y-2453335D01*
X8935821Y-2449728D01*
X8949334Y-2444343D01*
X8962085Y-2437333D01*
X8973870Y-2428798D01*
X8984488Y-2418842D01*
X8993733Y-2407615D01*
X9001556Y-2395321D01*
X9007754Y-2382164D01*
X9012224Y-2368346D01*
X9014968Y-2354021D01*
X9015882Y-2339187D01*
X9015882Y-2259838D01*
X9014968Y-2245004D01*
X9012224Y-2230678D01*
X9007754Y-2216861D01*
X9001556Y-2203653D01*
X8993733Y-2191410D01*
X8984488Y-2180183D01*
X8973870Y-2170226D01*
X8962085Y-2161641D01*
X8949334Y-2154631D01*
X8935821Y-2149297D01*
X8921699Y-2145690D01*
X8907272Y-2143861D01*
X8892692Y-2143861D01*
X8878265Y-2145690D01*
X8864193Y-2149297D01*
X8850630Y-2154631D01*
X8837879Y-2161641D01*
X8826144Y-2170226D01*
X8815527Y-2180183D01*
X8806230Y-2191410D01*
X8798458Y-2203653D01*
X8792260Y-2216861D01*
X8787739Y-2230678D01*
X8784996Y-2245004D01*
X8784082Y-2259838D01*
X8784082Y-2339187D01*
X8784996Y-2354021D01*
X8787739Y-2368346D01*
X8792260Y-2382164D01*
X8798458Y-2395321D01*
X8806230Y-2407615D01*
X8815527Y-2418842D01*
X8826144Y-2428798D01*
X8837879Y-2437333D01*
X8850630Y-2444343D01*
X8864193Y-2449728D01*
X8878265Y-2453335D01*
G37*
G36*
X10892739Y-2455164D02*
G01*
X10907268Y-2455164D01*
X10921695Y-2453335D01*
X10935817Y-2449728D01*
X10949330Y-2444343D01*
X10962081Y-2437333D01*
X10973866Y-2428798D01*
X10984484Y-2418842D01*
X10993729Y-2407615D01*
X11001552Y-2395321D01*
X11007750Y-2382164D01*
X11012220Y-2368346D01*
X11014964Y-2354021D01*
X11015878Y-2339187D01*
X11015878Y-2259838D01*
X11014964Y-2245004D01*
X11012220Y-2230678D01*
X11007750Y-2216861D01*
X11001552Y-2203653D01*
X10993729Y-2191410D01*
X10984484Y-2180183D01*
X10973866Y-2170226D01*
X10962081Y-2161641D01*
X10949330Y-2154631D01*
X10935817Y-2149297D01*
X10921695Y-2145690D01*
X10907268Y-2143861D01*
X10892739Y-2143861D01*
X10878261Y-2145690D01*
X10864189Y-2149297D01*
X10850626Y-2154631D01*
X10837875Y-2161641D01*
X10826140Y-2170226D01*
X10815523Y-2180183D01*
X10806226Y-2191410D01*
X10798454Y-2203653D01*
X10792256Y-2216861D01*
X10787735Y-2230678D01*
X10785043Y-2245004D01*
X10784078Y-2259838D01*
X10784078Y-2339187D01*
X10785043Y-2354021D01*
X10787735Y-2368346D01*
X10792256Y-2382164D01*
X10798454Y-2395321D01*
X10806226Y-2407615D01*
X10815523Y-2418842D01*
X10826140Y-2428798D01*
X10837875Y-2437333D01*
X10850626Y-2444343D01*
X10864189Y-2449728D01*
X10878261Y-2453335D01*
G37*
G36*
X12892735Y-2455164D02*
G01*
X12907264Y-2455164D01*
X12921691Y-2453335D01*
X12935813Y-2449728D01*
X12949326Y-2444343D01*
X12962077Y-2437333D01*
X12973862Y-2428798D01*
X12984480Y-2418842D01*
X12993725Y-2407615D01*
X13001548Y-2395321D01*
X13007746Y-2382164D01*
X13012216Y-2368346D01*
X13014960Y-2354021D01*
X13015925Y-2339187D01*
X13015925Y-2259838D01*
X13014960Y-2245004D01*
X13012216Y-2230678D01*
X13007746Y-2216861D01*
X13001548Y-2203653D01*
X12993725Y-2191410D01*
X12984480Y-2180183D01*
X12973862Y-2170226D01*
X12962077Y-2161641D01*
X12949326Y-2154631D01*
X12935813Y-2149297D01*
X12921691Y-2145690D01*
X12907264Y-2143861D01*
X12892735Y-2143861D01*
X12878257Y-2145690D01*
X12864185Y-2149297D01*
X12850672Y-2154631D01*
X12837871Y-2161641D01*
X12826136Y-2170226D01*
X12815519Y-2180183D01*
X12806222Y-2191410D01*
X12798450Y-2203653D01*
X12792252Y-2216861D01*
X12787731Y-2230678D01*
X12785039Y-2245004D01*
X12784074Y-2259838D01*
X12784074Y-2339187D01*
X12785039Y-2354021D01*
X12787731Y-2368346D01*
X12792252Y-2382164D01*
X12798450Y-2395321D01*
X12806222Y-2407615D01*
X12815519Y-2418842D01*
X12826136Y-2428798D01*
X12837871Y-2437333D01*
X12850672Y-2444343D01*
X12864185Y-2449728D01*
X12878257Y-2453335D01*
G37*
G36*
X2892704Y-2455164D02*
G01*
X2907284Y-2455164D01*
X2921711Y-2453335D01*
X2935782Y-2449728D01*
X2949346Y-2444343D01*
X2962097Y-2437333D01*
X2973882Y-2428798D01*
X2984449Y-2418842D01*
X2993745Y-2407615D01*
X3001568Y-2395321D01*
X3007766Y-2382164D01*
X3012236Y-2368346D01*
X3014980Y-2354021D01*
X3015894Y-2339187D01*
X3015894Y-2259838D01*
X3014980Y-2245004D01*
X3012236Y-2230678D01*
X3007766Y-2216861D01*
X3001568Y-2203653D01*
X2993745Y-2191410D01*
X2984449Y-2180183D01*
X2973882Y-2170226D01*
X2962097Y-2161641D01*
X2949346Y-2154631D01*
X2935782Y-2149297D01*
X2921711Y-2145690D01*
X2907284Y-2143861D01*
X2892704Y-2143861D01*
X2878277Y-2145690D01*
X2864205Y-2149297D01*
X2850642Y-2154631D01*
X2837891Y-2161641D01*
X2826105Y-2170226D01*
X2815488Y-2180183D01*
X2806242Y-2191410D01*
X2798419Y-2203653D01*
X2792222Y-2216861D01*
X2787751Y-2230678D01*
X2785008Y-2245004D01*
X2784094Y-2259838D01*
X2784094Y-2339187D01*
X2785008Y-2354021D01*
X2787751Y-2368346D01*
X2792222Y-2382164D01*
X2798419Y-2395321D01*
X2806242Y-2407615D01*
X2815488Y-2418842D01*
X2826105Y-2428798D01*
X2837891Y-2437333D01*
X2850642Y-2444343D01*
X2864205Y-2449728D01*
X2878277Y-2453335D01*
G37*
G36*
X4892700Y-2455164D02*
G01*
X4907280Y-2455164D01*
X4921707Y-2453335D01*
X4935778Y-2449728D01*
X4949342Y-2444343D01*
X4962093Y-2437333D01*
X4973878Y-2428798D01*
X4984496Y-2418842D01*
X4993741Y-2407615D01*
X5001564Y-2395321D01*
X5007762Y-2382164D01*
X5012232Y-2368346D01*
X5014976Y-2354021D01*
X5015890Y-2339187D01*
X5015890Y-2259838D01*
X5014976Y-2245004D01*
X5012232Y-2230678D01*
X5007762Y-2216861D01*
X5001564Y-2203653D01*
X4993741Y-2191410D01*
X4984496Y-2180183D01*
X4973878Y-2170226D01*
X4962093Y-2161641D01*
X4949342Y-2154631D01*
X4935778Y-2149297D01*
X4921707Y-2145690D01*
X4907280Y-2143861D01*
X4892700Y-2143861D01*
X4878273Y-2145690D01*
X4864201Y-2149297D01*
X4850638Y-2154631D01*
X4837887Y-2161641D01*
X4826101Y-2170226D01*
X4815535Y-2180183D01*
X4806238Y-2191410D01*
X4798415Y-2203653D01*
X4792218Y-2216861D01*
X4787747Y-2230678D01*
X4785004Y-2245004D01*
X4784090Y-2259838D01*
X4784090Y-2339187D01*
X4785004Y-2354021D01*
X4787747Y-2368346D01*
X4792218Y-2382164D01*
X4798415Y-2395321D01*
X4806238Y-2407615D01*
X4815535Y-2418842D01*
X4826101Y-2428798D01*
X4837887Y-2437333D01*
X4850638Y-2444343D01*
X4864201Y-2449728D01*
X4878273Y-2453335D01*
G37*
G36*
X14892731Y-2455164D02*
G01*
X14907260Y-2455164D01*
X14921687Y-2453335D01*
X14935809Y-2449728D01*
X14949322Y-2444343D01*
X14962073Y-2437333D01*
X14973858Y-2428798D01*
X14984476Y-2418842D01*
X14993772Y-2407615D01*
X15001544Y-2395321D01*
X15007742Y-2382164D01*
X15012263Y-2368346D01*
X15014956Y-2354021D01*
X15015921Y-2339187D01*
X15015921Y-2259838D01*
X15014956Y-2245004D01*
X15012263Y-2230678D01*
X15007742Y-2216861D01*
X15001544Y-2203653D01*
X14993772Y-2191410D01*
X14984476Y-2180183D01*
X14973858Y-2170226D01*
X14962073Y-2161641D01*
X14949322Y-2154631D01*
X14935809Y-2149297D01*
X14921687Y-2145690D01*
X14907260Y-2143861D01*
X14892731Y-2143861D01*
X14878253Y-2145690D01*
X14864181Y-2149297D01*
X14850668Y-2154631D01*
X14837918Y-2161641D01*
X14826132Y-2170226D01*
X14815515Y-2180183D01*
X14806218Y-2191410D01*
X14798446Y-2203653D01*
X14792248Y-2216861D01*
X14787727Y-2230678D01*
X14785035Y-2245004D01*
X14784069Y-2259838D01*
X14784069Y-2339187D01*
X14785035Y-2354021D01*
X14787727Y-2368346D01*
X14792248Y-2382164D01*
X14798446Y-2395321D01*
X14806218Y-2407615D01*
X14815515Y-2418842D01*
X14826132Y-2428798D01*
X14837918Y-2437333D01*
X14850668Y-2444343D01*
X14864181Y-2449728D01*
X14878253Y-2453335D01*
G37*
G36*
X11102644Y-2444242D02*
G01*
X11102644Y-2371852D01*
X11042548Y-2371852D01*
X11046256Y-2383180D01*
X11052454Y-2396337D01*
X11060226Y-2408631D01*
X11069523Y-2419858D01*
X11080140Y-2429814D01*
X11091875Y-2438349D01*
G37*
G36*
X9102648Y-2444242D02*
G01*
X9102648Y-2371852D01*
X9042552Y-2371852D01*
X9046260Y-2383180D01*
X9052458Y-2396337D01*
X9060230Y-2408631D01*
X9069527Y-2419858D01*
X9080144Y-2429814D01*
X9091879Y-2438349D01*
G37*
G36*
X9205366Y-2444242D02*
G01*
X9216085Y-2438349D01*
X9227870Y-2429814D01*
X9238488Y-2419858D01*
X9247733Y-2408631D01*
X9255556Y-2396337D01*
X9261754Y-2383180D01*
X9265412Y-2371852D01*
X9205366Y-2371852D01*
G37*
G36*
X3102660Y-2444242D02*
G01*
X3102660Y-2371852D01*
X3042564Y-2371852D01*
X3046222Y-2383180D01*
X3052419Y-2396337D01*
X3060242Y-2408631D01*
X3069488Y-2419858D01*
X3080105Y-2429814D01*
X3091891Y-2438349D01*
G37*
G36*
X1102664Y-2444242D02*
G01*
X1102664Y-2371852D01*
X1042568Y-2371852D01*
X1046226Y-2383180D01*
X1052423Y-2396337D01*
X1060246Y-2408631D01*
X1069492Y-2419858D01*
X1080109Y-2429814D01*
X1091895Y-2438349D01*
G37*
G36*
X1205331Y-2444242D02*
G01*
X1216101Y-2438349D01*
X1227886Y-2429814D01*
X1238453Y-2419858D01*
X1247749Y-2408631D01*
X1255522Y-2396337D01*
X1261719Y-2383180D01*
X1265428Y-2371852D01*
X1205331Y-2371852D01*
G37*
G36*
X3205327Y-2444242D02*
G01*
X3216097Y-2438349D01*
X3227882Y-2429814D01*
X3238449Y-2419858D01*
X3247745Y-2408631D01*
X3255568Y-2396337D01*
X3261766Y-2383180D01*
X3265424Y-2371852D01*
X3205327Y-2371852D01*
G37*
G36*
X5205323Y-2444242D02*
G01*
X5216093Y-2438349D01*
X5227878Y-2429814D01*
X5238496Y-2419858D01*
X5247741Y-2408631D01*
X5255564Y-2396337D01*
X5261762Y-2383180D01*
X5265420Y-2371852D01*
X5205323Y-2371852D01*
G37*
G36*
X5102656Y-2444242D02*
G01*
X5102656Y-2371852D01*
X5042560Y-2371852D01*
X5046218Y-2383180D01*
X5052415Y-2396337D01*
X5060238Y-2408631D01*
X5069535Y-2419858D01*
X5080101Y-2429814D01*
X5091887Y-2438349D01*
G37*
G36*
X13205358Y-2444242D02*
G01*
X13216077Y-2438349D01*
X13227862Y-2429814D01*
X13238480Y-2419858D01*
X13247725Y-2408631D01*
X13255548Y-2396337D01*
X13261746Y-2383180D01*
X13265404Y-2371852D01*
X13205358Y-2371852D01*
G37*
G36*
X13102640Y-2444242D02*
G01*
X13102640Y-2371852D01*
X13042544Y-2371852D01*
X13046252Y-2383180D01*
X13052450Y-2396337D01*
X13060222Y-2408631D01*
X13069519Y-2419858D01*
X13080136Y-2429814D01*
X13091871Y-2438349D01*
G37*
G36*
X15102636Y-2444242D02*
G01*
X15102636Y-2371852D01*
X15042591Y-2371852D01*
X15046248Y-2383180D01*
X15052446Y-2396337D01*
X15060218Y-2408631D01*
X15069515Y-2419858D01*
X15080132Y-2429814D01*
X15091918Y-2438349D01*
G37*
G36*
X15205354Y-2444242D02*
G01*
X15216073Y-2438349D01*
X15227858Y-2429814D01*
X15238476Y-2419858D01*
X15247772Y-2408631D01*
X15255544Y-2396337D01*
X15261742Y-2383180D01*
X15265400Y-2371852D01*
X15205354Y-2371852D01*
G37*
G36*
X11205362Y-2444242D02*
G01*
X11216081Y-2438349D01*
X11227866Y-2429814D01*
X11238484Y-2419858D01*
X11247729Y-2408631D01*
X11255552Y-2396337D01*
X11261750Y-2383180D01*
X11265408Y-2371852D01*
X11205362Y-2371852D01*
G37*
G36*
X7042556Y-2250135D02*
G01*
X7102652Y-2250135D01*
X7102652Y-2177745D01*
X7091883Y-2183638D01*
X7080097Y-2192223D01*
X7069531Y-2202180D01*
X7060234Y-2213406D01*
X7052462Y-2225700D01*
X7046264Y-2238857D01*
G37*
G36*
X7205319Y-2250135D02*
G01*
X7265416Y-2250135D01*
X7261758Y-2238857D01*
X7255560Y-2225700D01*
X7247737Y-2213406D01*
X7238492Y-2202180D01*
X7227874Y-2192223D01*
X7216089Y-2183638D01*
X7205319Y-2177745D01*
G37*
G36*
X11042548Y-2229154D02*
G01*
X11102644Y-2229154D01*
X11102644Y-2156764D01*
X11091875Y-2162657D01*
X11080140Y-2171192D01*
X11069523Y-2181199D01*
X11060226Y-2192375D01*
X11052454Y-2204669D01*
X11046256Y-2217826D01*
G37*
G36*
X9042552Y-2229154D02*
G01*
X9102648Y-2229154D01*
X9102648Y-2156764D01*
X9091879Y-2162657D01*
X9080144Y-2171192D01*
X9069527Y-2181199D01*
X9060230Y-2192375D01*
X9052458Y-2204669D01*
X9046260Y-2217826D01*
G37*
G36*
X9205366Y-2229154D02*
G01*
X9265412Y-2229154D01*
X9261754Y-2217826D01*
X9255556Y-2204669D01*
X9247733Y-2192375D01*
X9238488Y-2181199D01*
X9227870Y-2171192D01*
X9216085Y-2162657D01*
X9205366Y-2156764D01*
G37*
G36*
X3042564Y-2229154D02*
G01*
X3102660Y-2229154D01*
X3102660Y-2156764D01*
X3091891Y-2162657D01*
X3080105Y-2171192D01*
X3069488Y-2181199D01*
X3060242Y-2192375D01*
X3052419Y-2204669D01*
X3046222Y-2217826D01*
G37*
G36*
X1042568Y-2229154D02*
G01*
X1102664Y-2229154D01*
X1102664Y-2156764D01*
X1091895Y-2162657D01*
X1080109Y-2171192D01*
X1069492Y-2181199D01*
X1060246Y-2192375D01*
X1052423Y-2204669D01*
X1046226Y-2217826D01*
G37*
G36*
X1205331Y-2229154D02*
G01*
X1265428Y-2229154D01*
X1261719Y-2217826D01*
X1255522Y-2204669D01*
X1247749Y-2192375D01*
X1238453Y-2181199D01*
X1227886Y-2171192D01*
X1216101Y-2162657D01*
X1205331Y-2156764D01*
G37*
G36*
X5042560Y-2229154D02*
G01*
X5102656Y-2229154D01*
X5102656Y-2156764D01*
X5091887Y-2162657D01*
X5080101Y-2171192D01*
X5069535Y-2181199D01*
X5060238Y-2192375D01*
X5052415Y-2204669D01*
X5046218Y-2217826D01*
G37*
G36*
X3205327Y-2229154D02*
G01*
X3265424Y-2229154D01*
X3261766Y-2217826D01*
X3255568Y-2204669D01*
X3247745Y-2192375D01*
X3238449Y-2181199D01*
X3227882Y-2171192D01*
X3216097Y-2162657D01*
X3205327Y-2156764D01*
G37*
G36*
X13205358Y-2229154D02*
G01*
X13265404Y-2229154D01*
X13261746Y-2217826D01*
X13255548Y-2204669D01*
X13247725Y-2192375D01*
X13238480Y-2181199D01*
X13227862Y-2171192D01*
X13216077Y-2162657D01*
X13205358Y-2156764D01*
G37*
G36*
X13042544Y-2229154D02*
G01*
X13102640Y-2229154D01*
X13102640Y-2156764D01*
X13091871Y-2162657D01*
X13080136Y-2171192D01*
X13069519Y-2181199D01*
X13060222Y-2192375D01*
X13052450Y-2204669D01*
X13046252Y-2217826D01*
G37*
G36*
X5205323Y-2229154D02*
G01*
X5265420Y-2229154D01*
X5261762Y-2217826D01*
X5255564Y-2204669D01*
X5247741Y-2192375D01*
X5238496Y-2181199D01*
X5227878Y-2171192D01*
X5216093Y-2162657D01*
X5205323Y-2156764D01*
G37*
G36*
X11205362Y-2229154D02*
G01*
X11265408Y-2229154D01*
X11261750Y-2217826D01*
X11255552Y-2204669D01*
X11247729Y-2192375D01*
X11238484Y-2181199D01*
X11227866Y-2171192D01*
X11216081Y-2162657D01*
X11205362Y-2156764D01*
G37*
G36*
X15042591Y-2229154D02*
G01*
X15102636Y-2229154D01*
X15102636Y-2156764D01*
X15091918Y-2162657D01*
X15080132Y-2171192D01*
X15069515Y-2181199D01*
X15060218Y-2192375D01*
X15052446Y-2204669D01*
X15046248Y-2217826D01*
G37*
G36*
X15205354Y-2229154D02*
G01*
X15265400Y-2229154D01*
X15261742Y-2217826D01*
X15255544Y-2204669D01*
X15247772Y-2192375D01*
X15238476Y-2181199D01*
X15227858Y-2171192D01*
X15216073Y-2162657D01*
X15205354Y-2156764D01*
G37*
G36*
X16191992Y-2096922D02*
G01*
X16370807Y-2096922D01*
X16377157Y-2096211D01*
X16382593Y-2094280D01*
X16387521Y-2091182D01*
X16391585Y-2087118D01*
X16394684Y-2082190D01*
X16396614Y-2076754D01*
X16397325Y-2070404D01*
X16397325Y-1891588D01*
X16396614Y-1885238D01*
X16394684Y-1879803D01*
X16391585Y-1874875D01*
X16387521Y-1870811D01*
X16382593Y-1867712D01*
X16377157Y-1865782D01*
X16370807Y-1865071D01*
X16191992Y-1865071D01*
X16185642Y-1865782D01*
X16180206Y-1867712D01*
X16175278Y-1870811D01*
X16171214Y-1874875D01*
X16168116Y-1879803D01*
X16166185Y-1885238D01*
X16165474Y-1891588D01*
X16165474Y-2070404D01*
X16166185Y-2076754D01*
X16168116Y-2082190D01*
X16171214Y-2087118D01*
X16175278Y-2091182D01*
X16180206Y-2094280D01*
X16185642Y-2096211D01*
G37*
G36*
X16281400Y-1842871D02*
G01*
X16295928Y-1841957D01*
X16310203Y-1839264D01*
X16324072Y-1834743D01*
X16337229Y-1828546D01*
X16349522Y-1820773D01*
X16360749Y-1811477D01*
X16370706Y-1800860D01*
X16379240Y-1789074D01*
X16386251Y-1776323D01*
X16391636Y-1762810D01*
X16395242Y-1748739D01*
X16397071Y-1734261D01*
X16397071Y-1719732D01*
X16395242Y-1705305D01*
X16391636Y-1691182D01*
X16386251Y-1677670D01*
X16379240Y-1664919D01*
X16370706Y-1653133D01*
X16360749Y-1642516D01*
X16349522Y-1633220D01*
X16337229Y-1625447D01*
X16324072Y-1619250D01*
X16310203Y-1614728D01*
X16295928Y-1612036D01*
X16281400Y-1611122D01*
X16266871Y-1612036D01*
X16252596Y-1614728D01*
X16238728Y-1619250D01*
X16225570Y-1625447D01*
X16213277Y-1633220D01*
X16202050Y-1642516D01*
X16192093Y-1653133D01*
X16183559Y-1664919D01*
X16176548Y-1677670D01*
X16171163Y-1691182D01*
X16167557Y-1705305D01*
X16165728Y-1719732D01*
X16165728Y-1734261D01*
X16167557Y-1748739D01*
X16171163Y-1762810D01*
X16176548Y-1776323D01*
X16183559Y-1789074D01*
X16192093Y-1800860D01*
X16202050Y-1811477D01*
X16213277Y-1820773D01*
X16225570Y-1828546D01*
X16238728Y-1834743D01*
X16252596Y-1839264D01*
X16266871Y-1841957D01*
G37*
G36*
X-399999Y-1588871D02*
G01*
X-385470Y-1587957D01*
X-371195Y-1585264D01*
X-357327Y-1580743D01*
X-344170Y-1574546D01*
X-331876Y-1566773D01*
X-320649Y-1557477D01*
X-310692Y-1546860D01*
X-302158Y-1535074D01*
X-295148Y-1522323D01*
X-289763Y-1508810D01*
X-286156Y-1494739D01*
X-284327Y-1480261D01*
X-284327Y-1465732D01*
X-286156Y-1451305D01*
X-289763Y-1437182D01*
X-295148Y-1423670D01*
X-302158Y-1410919D01*
X-310692Y-1399133D01*
X-320649Y-1388516D01*
X-331876Y-1379220D01*
X-344170Y-1371447D01*
X-357327Y-1365250D01*
X-371195Y-1360728D01*
X-385470Y-1358036D01*
X-399999Y-1357122D01*
X-414528Y-1358036D01*
X-428802Y-1360728D01*
X-442671Y-1365250D01*
X-455828Y-1371447D01*
X-468122Y-1379220D01*
X-479348Y-1388516D01*
X-489305Y-1399133D01*
X-497840Y-1410919D01*
X-504850Y-1423670D01*
X-510235Y-1437182D01*
X-513842Y-1451305D01*
X-515670Y-1465732D01*
X-515670Y-1480261D01*
X-513842Y-1494739D01*
X-510235Y-1508810D01*
X-504850Y-1522323D01*
X-497840Y-1535074D01*
X-489305Y-1546860D01*
X-479348Y-1557477D01*
X-468122Y-1566773D01*
X-455828Y-1574546D01*
X-442671Y-1580743D01*
X-428802Y-1585264D01*
X-414528Y-1587957D01*
G37*
G36*
X16281400Y-1588871D02*
G01*
X16295928Y-1587957D01*
X16310203Y-1585264D01*
X16324072Y-1580743D01*
X16337229Y-1574546D01*
X16349522Y-1566773D01*
X16360749Y-1557477D01*
X16370706Y-1546860D01*
X16379240Y-1535074D01*
X16386251Y-1522323D01*
X16391636Y-1508810D01*
X16395242Y-1494739D01*
X16397071Y-1480261D01*
X16397071Y-1465732D01*
X16395242Y-1451305D01*
X16391636Y-1437182D01*
X16386251Y-1423670D01*
X16379240Y-1410919D01*
X16370706Y-1399133D01*
X16360749Y-1388516D01*
X16349522Y-1379220D01*
X16337229Y-1371447D01*
X16324072Y-1365250D01*
X16310203Y-1360728D01*
X16295928Y-1358036D01*
X16281400Y-1357122D01*
X16266871Y-1358036D01*
X16252596Y-1360728D01*
X16238728Y-1365250D01*
X16225570Y-1371447D01*
X16213277Y-1379220D01*
X16202050Y-1388516D01*
X16192093Y-1399133D01*
X16183559Y-1410919D01*
X16176548Y-1423670D01*
X16171163Y-1437182D01*
X16167557Y-1451305D01*
X16165728Y-1465732D01*
X16165728Y-1480261D01*
X16167557Y-1494739D01*
X16171163Y-1508810D01*
X16176548Y-1522323D01*
X16183559Y-1535074D01*
X16192093Y-1546860D01*
X16202050Y-1557477D01*
X16213277Y-1566773D01*
X16225570Y-1574546D01*
X16238728Y-1580743D01*
X16252596Y-1585264D01*
X16266871Y-1587957D01*
G37*
G36*
X7335316Y-1548333D02*
G01*
X7861147Y-1548333D01*
X7868920Y-1548079D01*
X7876489Y-1547368D01*
X7884007Y-1546250D01*
X7891424Y-1544624D01*
X7898739Y-1542592D01*
X7905953Y-1540103D01*
X7912963Y-1537208D01*
X7919821Y-1533906D01*
X7926425Y-1530146D01*
X7932826Y-1526032D01*
X7938922Y-1521510D01*
X7944764Y-1516634D01*
X7950453Y-1511300D01*
X8215274Y-1246479D01*
X8218576Y-1244295D01*
X8222437Y-1243533D01*
X9026601Y-1243533D01*
X9042095Y-1242568D01*
X9057030Y-1239824D01*
X9071559Y-1235303D01*
X9085427Y-1229055D01*
X9098432Y-1221181D01*
X9110370Y-1211834D01*
X9121140Y-1201064D01*
X9130487Y-1189126D01*
X9138361Y-1176121D01*
X9144609Y-1162253D01*
X9149130Y-1147724D01*
X9151874Y-1132789D01*
X9152839Y-1117295D01*
X9152839Y-600252D01*
X9151874Y-584758D01*
X9149130Y-569823D01*
X9144609Y-555294D01*
X9143796Y-553516D01*
X9142933Y-549351D01*
X9142933Y-510590D01*
X9142171Y-504240D01*
X9140291Y-498805D01*
X9137192Y-493877D01*
X9133128Y-489813D01*
X9128201Y-486714D01*
X9122765Y-484784D01*
X9116415Y-484073D01*
X9077858Y-484073D01*
X9073692Y-483209D01*
X9071559Y-482244D01*
X9057030Y-477723D01*
X9042095Y-474980D01*
X9026906Y-474065D01*
X9011716Y-474980D01*
X8996781Y-477723D01*
X8982252Y-482244D01*
X8980119Y-483209D01*
X8975953Y-484073D01*
X8937548Y-484073D01*
X8931249Y-484784D01*
X8925763Y-486714D01*
X8920886Y-489813D01*
X8916771Y-493877D01*
X8913723Y-498805D01*
X8911793Y-504240D01*
X8911082Y-510590D01*
X8911082Y-548894D01*
X8910218Y-553110D01*
X8909202Y-555294D01*
X8904478Y-570585D01*
X8902395Y-574294D01*
X8898991Y-576834D01*
X8894826Y-577748D01*
X8890660Y-576884D01*
X8887206Y-574395D01*
X8885072Y-570687D01*
X8880754Y-557326D01*
X8874556Y-544169D01*
X8866733Y-531876D01*
X8857488Y-520649D01*
X8846870Y-510692D01*
X8835085Y-502158D01*
X8822334Y-495147D01*
X8808821Y-489762D01*
X8794699Y-486156D01*
X8780272Y-484327D01*
X8765743Y-484327D01*
X8751265Y-486156D01*
X8737193Y-489762D01*
X8723680Y-495147D01*
X8710879Y-502158D01*
X8699144Y-510692D01*
X8688527Y-520649D01*
X8679230Y-531876D01*
X8671458Y-544169D01*
X8665260Y-557326D01*
X8660739Y-571195D01*
X8658047Y-585470D01*
X8657132Y-599998D01*
X8658047Y-614527D01*
X8660739Y-628802D01*
X8665260Y-642670D01*
X8671458Y-655828D01*
X8679230Y-668121D01*
X8688527Y-679348D01*
X8699144Y-689305D01*
X8710879Y-697839D01*
X8723680Y-704850D01*
X8737193Y-710234D01*
X8751265Y-713841D01*
X8765743Y-715670D01*
X8780272Y-715670D01*
X8794699Y-713841D01*
X8808821Y-710234D01*
X8822334Y-704850D01*
X8835085Y-697839D01*
X8846870Y-689305D01*
X8857488Y-679348D01*
X8866733Y-668121D01*
X8874556Y-655828D01*
X8883192Y-637794D01*
X8886444Y-635355D01*
X8890406Y-634339D01*
X8894419Y-635000D01*
X8897874Y-637133D01*
X8900160Y-640486D01*
X8901023Y-644499D01*
X8901023Y-981557D01*
X8900210Y-985418D01*
X8898026Y-988720D01*
X8894724Y-990904D01*
X8890863Y-991717D01*
X8166252Y-991717D01*
X8158480Y-991920D01*
X8150910Y-992632D01*
X8143392Y-993749D01*
X8135975Y-995375D01*
X8128660Y-997407D01*
X8121446Y-999896D01*
X8114436Y-1002792D01*
X8107578Y-1006094D01*
X8100974Y-1009853D01*
X8094573Y-1013968D01*
X8088477Y-1018489D01*
X8082635Y-1023366D01*
X8076946Y-1028700D01*
X7812125Y-1293520D01*
X7808823Y-1295704D01*
X7804962Y-1296517D01*
X7335316Y-1296517D01*
X7319822Y-1297432D01*
X7304887Y-1300175D01*
X7290358Y-1304696D01*
X7276490Y-1310944D01*
X7263485Y-1318818D01*
X7251547Y-1328166D01*
X7240778Y-1338935D01*
X7231430Y-1350873D01*
X7223556Y-1363878D01*
X7217308Y-1377746D01*
X7212787Y-1392275D01*
X7210044Y-1407210D01*
X7209129Y-1422400D01*
X7210044Y-1437589D01*
X7212787Y-1452524D01*
X7217308Y-1467053D01*
X7223556Y-1480921D01*
X7231430Y-1493926D01*
X7240778Y-1505864D01*
X7251547Y-1516634D01*
X7263485Y-1525981D01*
X7276490Y-1533855D01*
X7290358Y-1540103D01*
X7304887Y-1544624D01*
X7319822Y-1547368D01*
G37*
G36*
X6457696Y-1538071D02*
G01*
X6472275Y-1538071D01*
X6486702Y-1536242D01*
X6500825Y-1532636D01*
X6514338Y-1527251D01*
X6527088Y-1520240D01*
X6538874Y-1511706D01*
X6549491Y-1501749D01*
X6558737Y-1490522D01*
X6566560Y-1478229D01*
X6572758Y-1465072D01*
X6577228Y-1451203D01*
X6579971Y-1436928D01*
X6580886Y-1422400D01*
X6579971Y-1407871D01*
X6577228Y-1393596D01*
X6572758Y-1379728D01*
X6566560Y-1366570D01*
X6558737Y-1354277D01*
X6549491Y-1343050D01*
X6538874Y-1333093D01*
X6527088Y-1324559D01*
X6514338Y-1317548D01*
X6500825Y-1312164D01*
X6486702Y-1308557D01*
X6472275Y-1306728D01*
X6457696Y-1306728D01*
X6443268Y-1308557D01*
X6429197Y-1312164D01*
X6415633Y-1317548D01*
X6402882Y-1324559D01*
X6391148Y-1333093D01*
X6380530Y-1343050D01*
X6371234Y-1354277D01*
X6363462Y-1366570D01*
X6357264Y-1379728D01*
X6352743Y-1393596D01*
X6350000Y-1407871D01*
X6349085Y-1422400D01*
X6350000Y-1436928D01*
X6352743Y-1451203D01*
X6357264Y-1465072D01*
X6363462Y-1478229D01*
X6371234Y-1490522D01*
X6380530Y-1501749D01*
X6391148Y-1511706D01*
X6402882Y-1520240D01*
X6415633Y-1527251D01*
X6429197Y-1532636D01*
X6443268Y-1536242D01*
G37*
G36*
X5335320Y-1525981D02*
G01*
X5876899Y-1525981D01*
X5884672Y-1525727D01*
X5892241Y-1525016D01*
X5899759Y-1523898D01*
X5907176Y-1522272D01*
X5914491Y-1520240D01*
X5921705Y-1517751D01*
X5928715Y-1514856D01*
X5935573Y-1511554D01*
X5942177Y-1507794D01*
X5948578Y-1503680D01*
X5954674Y-1499158D01*
X5960516Y-1494282D01*
X5966206Y-1488948D01*
X6208674Y-1246479D01*
X6211976Y-1244295D01*
X6215837Y-1243533D01*
X7026605Y-1243533D01*
X7042099Y-1242568D01*
X7057034Y-1239824D01*
X7071563Y-1235303D01*
X7085431Y-1229055D01*
X7098436Y-1221181D01*
X7110374Y-1211834D01*
X7121144Y-1201064D01*
X7130491Y-1189126D01*
X7138365Y-1176121D01*
X7144613Y-1162253D01*
X7149134Y-1147724D01*
X7151878Y-1132789D01*
X7152843Y-1117295D01*
X7152843Y-621334D01*
X7151878Y-605840D01*
X7149134Y-590905D01*
X7144613Y-576376D01*
X7143800Y-574598D01*
X7142886Y-570382D01*
X7142886Y-531571D01*
X7142175Y-525272D01*
X7140295Y-519785D01*
X7137196Y-514908D01*
X7133132Y-510793D01*
X7128205Y-507695D01*
X7122769Y-505815D01*
X7116419Y-505104D01*
X7077659Y-505104D01*
X7073493Y-504190D01*
X7071563Y-503326D01*
X7057034Y-498805D01*
X7042099Y-496062D01*
X7026909Y-495147D01*
X7011720Y-496062D01*
X6996785Y-498805D01*
X6982256Y-503326D01*
X6980326Y-504190D01*
X6976160Y-505104D01*
X6937552Y-505104D01*
X6931253Y-505815D01*
X6925767Y-507695D01*
X6920890Y-510793D01*
X6916775Y-514908D01*
X6913727Y-519785D01*
X6911797Y-525272D01*
X6911086Y-531571D01*
X6911086Y-570026D01*
X6910171Y-574192D01*
X6909206Y-576376D01*
X6904481Y-591616D01*
X6902399Y-595325D01*
X6898995Y-597865D01*
X6894830Y-598779D01*
X6890664Y-597916D01*
X6887209Y-595426D01*
X6885127Y-591769D01*
X6880758Y-578358D01*
X6874560Y-565150D01*
X6866737Y-552907D01*
X6857492Y-541680D01*
X6846874Y-531723D01*
X6835089Y-523138D01*
X6822338Y-516128D01*
X6808825Y-510793D01*
X6794703Y-507187D01*
X6780275Y-505358D01*
X6765747Y-505358D01*
X6751269Y-507187D01*
X6737197Y-510793D01*
X6723634Y-516128D01*
X6710883Y-523138D01*
X6699148Y-531723D01*
X6688531Y-541680D01*
X6679234Y-552907D01*
X6671462Y-565150D01*
X6665264Y-578358D01*
X6660743Y-592175D01*
X6658000Y-606450D01*
X6657086Y-620979D01*
X6658000Y-635508D01*
X6660743Y-649833D01*
X6665264Y-663651D01*
X6671462Y-676808D01*
X6679234Y-689102D01*
X6688531Y-700328D01*
X6699148Y-710285D01*
X6710883Y-718870D01*
X6723634Y-725881D01*
X6737197Y-731215D01*
X6751269Y-734822D01*
X6765747Y-736650D01*
X6780275Y-736650D01*
X6794703Y-734822D01*
X6808825Y-731215D01*
X6822338Y-725881D01*
X6835089Y-718870D01*
X6846874Y-710285D01*
X6857492Y-700328D01*
X6866737Y-689102D01*
X6874560Y-676808D01*
X6883196Y-658774D01*
X6886448Y-656336D01*
X6890410Y-655320D01*
X6894423Y-655980D01*
X6897878Y-658114D01*
X6900164Y-661466D01*
X6901027Y-665480D01*
X6901027Y-981557D01*
X6900214Y-985418D01*
X6898030Y-988720D01*
X6894728Y-990904D01*
X6890867Y-991717D01*
X6159652Y-991717D01*
X6151880Y-991920D01*
X6144310Y-992632D01*
X6136792Y-993749D01*
X6129375Y-995375D01*
X6122060Y-997407D01*
X6114846Y-999896D01*
X6107836Y-1002792D01*
X6100978Y-1006094D01*
X6094374Y-1009853D01*
X6087973Y-1013968D01*
X6081877Y-1018489D01*
X6076035Y-1023366D01*
X6070346Y-1028700D01*
X5827877Y-1271168D01*
X5824575Y-1273352D01*
X5820714Y-1274165D01*
X5335320Y-1274165D01*
X5319826Y-1275080D01*
X5304891Y-1277823D01*
X5290362Y-1282344D01*
X5276494Y-1288592D01*
X5263489Y-1296466D01*
X5251551Y-1305814D01*
X5240782Y-1316583D01*
X5231434Y-1328521D01*
X5223560Y-1341526D01*
X5217312Y-1355394D01*
X5212791Y-1369923D01*
X5210048Y-1384858D01*
X5209133Y-1400048D01*
X5210048Y-1415237D01*
X5212791Y-1430172D01*
X5217312Y-1444701D01*
X5223560Y-1458569D01*
X5231434Y-1471574D01*
X5240782Y-1483512D01*
X5251551Y-1494282D01*
X5263489Y-1503629D01*
X5276494Y-1511503D01*
X5290362Y-1517751D01*
X5304891Y-1522272D01*
X5319826Y-1525016D01*
G37*
G36*
X11335308Y-1525981D02*
G01*
X11922099Y-1525981D01*
X11929872Y-1525727D01*
X11937441Y-1525016D01*
X11944959Y-1523898D01*
X11952376Y-1522272D01*
X11959691Y-1520240D01*
X11966905Y-1517751D01*
X11973915Y-1514856D01*
X11980773Y-1511554D01*
X11987377Y-1507794D01*
X11993778Y-1503680D01*
X11999874Y-1499158D01*
X12005716Y-1494282D01*
X12011406Y-1488948D01*
X12241174Y-1259179D01*
X12244476Y-1256995D01*
X12248337Y-1256233D01*
X13026593Y-1256233D01*
X13042087Y-1255268D01*
X13057022Y-1252524D01*
X13071551Y-1248003D01*
X13085419Y-1241755D01*
X13098424Y-1233881D01*
X13110362Y-1224534D01*
X13121132Y-1213764D01*
X13130479Y-1201826D01*
X13138353Y-1188821D01*
X13144601Y-1174953D01*
X13149122Y-1160424D01*
X13151866Y-1145489D01*
X13152831Y-1129995D01*
X13152831Y-600252D01*
X13151866Y-584758D01*
X13149122Y-569823D01*
X13144601Y-555294D01*
X13143788Y-553516D01*
X13142925Y-549351D01*
X13142925Y-510590D01*
X13142213Y-504240D01*
X13140283Y-498805D01*
X13137184Y-493877D01*
X13133120Y-489813D01*
X13128193Y-486714D01*
X13122757Y-484784D01*
X13116407Y-484073D01*
X13077850Y-484073D01*
X13073684Y-483209D01*
X13071551Y-482244D01*
X13057022Y-477723D01*
X13042087Y-474980D01*
X13026898Y-474065D01*
X13011708Y-474980D01*
X12996773Y-477723D01*
X12982244Y-482244D01*
X12980111Y-483209D01*
X12975945Y-484073D01*
X12937591Y-484073D01*
X12931241Y-484784D01*
X12925806Y-486714D01*
X12920878Y-489813D01*
X12916814Y-493877D01*
X12913715Y-498805D01*
X12911785Y-504240D01*
X12911074Y-510590D01*
X12911074Y-548894D01*
X12910210Y-553059D01*
X12909194Y-555294D01*
X12904470Y-570585D01*
X12902387Y-574294D01*
X12898983Y-576783D01*
X12894818Y-577697D01*
X12890652Y-576834D01*
X12887198Y-574395D01*
X12885115Y-570687D01*
X12880746Y-557326D01*
X12874548Y-544169D01*
X12866776Y-531876D01*
X12857480Y-520649D01*
X12846862Y-510692D01*
X12835077Y-502158D01*
X12822326Y-495147D01*
X12808813Y-489762D01*
X12794691Y-486156D01*
X12780264Y-484327D01*
X12765735Y-484327D01*
X12751308Y-486156D01*
X12737185Y-489762D01*
X12723672Y-495147D01*
X12710922Y-502158D01*
X12699136Y-510692D01*
X12688519Y-520649D01*
X12679222Y-531876D01*
X12671450Y-544169D01*
X12665252Y-557326D01*
X12660731Y-571195D01*
X12658039Y-585470D01*
X12657124Y-599998D01*
X12658039Y-614527D01*
X12660731Y-628802D01*
X12665252Y-642670D01*
X12671450Y-655828D01*
X12679222Y-668121D01*
X12688519Y-679348D01*
X12699136Y-689305D01*
X12710922Y-697839D01*
X12723672Y-704850D01*
X12737185Y-710234D01*
X12751308Y-713841D01*
X12765735Y-715670D01*
X12780264Y-715670D01*
X12794691Y-713841D01*
X12808813Y-710234D01*
X12822326Y-704850D01*
X12835077Y-697839D01*
X12846862Y-689305D01*
X12857480Y-679348D01*
X12866776Y-668121D01*
X12874548Y-655828D01*
X12883184Y-637844D01*
X12886436Y-635355D01*
X12890398Y-634339D01*
X12894411Y-635000D01*
X12897866Y-637184D01*
X12900152Y-640537D01*
X12901015Y-644499D01*
X12901015Y-994257D01*
X12900202Y-998118D01*
X12898018Y-1001420D01*
X12894716Y-1003604D01*
X12890855Y-1004417D01*
X12192152Y-1004417D01*
X12184380Y-1004620D01*
X12176810Y-1005332D01*
X12169292Y-1006449D01*
X12161875Y-1008075D01*
X12154560Y-1010107D01*
X12147346Y-1012596D01*
X12140336Y-1015492D01*
X12133478Y-1018794D01*
X12126874Y-1022553D01*
X12120473Y-1026668D01*
X12114377Y-1031189D01*
X12108535Y-1036066D01*
X12102846Y-1041400D01*
X11873077Y-1271168D01*
X11869775Y-1273352D01*
X11865914Y-1274165D01*
X11335308Y-1274165D01*
X11319814Y-1275080D01*
X11304879Y-1277823D01*
X11290350Y-1282344D01*
X11276482Y-1288592D01*
X11263477Y-1296466D01*
X11251539Y-1305814D01*
X11240770Y-1316583D01*
X11231422Y-1328521D01*
X11223548Y-1341526D01*
X11217300Y-1355394D01*
X11212779Y-1369923D01*
X11210036Y-1384858D01*
X11209121Y-1400048D01*
X11210036Y-1415237D01*
X11212779Y-1430172D01*
X11217300Y-1444701D01*
X11223548Y-1458569D01*
X11231422Y-1471574D01*
X11240770Y-1483512D01*
X11251539Y-1494282D01*
X11263477Y-1503629D01*
X11276482Y-1511503D01*
X11290350Y-1517751D01*
X11304879Y-1522272D01*
X11319814Y-1525016D01*
G37*
G36*
X9335312Y-1525981D02*
G01*
X9915499Y-1525981D01*
X9923272Y-1525727D01*
X9930841Y-1525016D01*
X9938359Y-1523898D01*
X9945776Y-1522272D01*
X9953091Y-1520240D01*
X9960305Y-1517751D01*
X9967315Y-1514856D01*
X9974173Y-1511554D01*
X9980777Y-1507794D01*
X9987178Y-1503680D01*
X9993274Y-1499158D01*
X9999116Y-1494282D01*
X10004806Y-1488948D01*
X10247274Y-1246479D01*
X10250576Y-1244295D01*
X10254437Y-1243533D01*
X11026597Y-1243533D01*
X11042091Y-1242568D01*
X11057026Y-1239824D01*
X11071555Y-1235303D01*
X11085423Y-1229055D01*
X11098428Y-1221181D01*
X11110366Y-1211834D01*
X11121136Y-1201064D01*
X11130483Y-1189126D01*
X11138357Y-1176121D01*
X11144605Y-1162253D01*
X11149126Y-1147724D01*
X11151870Y-1132789D01*
X11152835Y-1117295D01*
X11152835Y-600252D01*
X11151870Y-584758D01*
X11149126Y-569823D01*
X11144605Y-555294D01*
X11143792Y-553516D01*
X11142929Y-549351D01*
X11142929Y-510590D01*
X11142218Y-504240D01*
X11140287Y-498805D01*
X11137188Y-493877D01*
X11133124Y-489813D01*
X11128197Y-486714D01*
X11122761Y-484784D01*
X11116411Y-484073D01*
X11077854Y-484073D01*
X11073688Y-483209D01*
X11071555Y-482244D01*
X11057026Y-477723D01*
X11042091Y-474980D01*
X11026902Y-474065D01*
X11011712Y-474980D01*
X10996777Y-477723D01*
X10982248Y-482244D01*
X10980115Y-483209D01*
X10975949Y-484073D01*
X10937595Y-484073D01*
X10931245Y-484784D01*
X10925810Y-486714D01*
X10920882Y-489813D01*
X10916818Y-493877D01*
X10913719Y-498805D01*
X10911789Y-504240D01*
X10911078Y-510590D01*
X10911078Y-548894D01*
X10910214Y-553059D01*
X10909198Y-555294D01*
X10904474Y-570585D01*
X10902391Y-574294D01*
X10898987Y-576783D01*
X10894822Y-577697D01*
X10890656Y-576884D01*
X10887202Y-574395D01*
X10885068Y-570687D01*
X10880750Y-557326D01*
X10874552Y-544169D01*
X10866780Y-531876D01*
X10857484Y-520649D01*
X10846866Y-510692D01*
X10835081Y-502158D01*
X10822330Y-495147D01*
X10808817Y-489762D01*
X10794695Y-486156D01*
X10780268Y-484327D01*
X10765739Y-484327D01*
X10751261Y-486156D01*
X10737189Y-489762D01*
X10723676Y-495147D01*
X10710926Y-502158D01*
X10699140Y-510692D01*
X10688523Y-520649D01*
X10679226Y-531876D01*
X10671454Y-544169D01*
X10665256Y-557326D01*
X10660735Y-571195D01*
X10658043Y-585470D01*
X10657128Y-599998D01*
X10658043Y-614527D01*
X10660735Y-628802D01*
X10665256Y-642670D01*
X10671454Y-655828D01*
X10679226Y-668121D01*
X10688523Y-679348D01*
X10699140Y-689305D01*
X10710926Y-697839D01*
X10723676Y-704850D01*
X10737189Y-710234D01*
X10751261Y-713841D01*
X10765739Y-715670D01*
X10780268Y-715670D01*
X10794695Y-713841D01*
X10808817Y-710234D01*
X10822330Y-704850D01*
X10835081Y-697839D01*
X10846866Y-689305D01*
X10857484Y-679348D01*
X10866780Y-668121D01*
X10874552Y-655828D01*
X10883188Y-637844D01*
X10886440Y-635355D01*
X10890402Y-634339D01*
X10894415Y-635000D01*
X10897870Y-637184D01*
X10900156Y-640486D01*
X10901019Y-644499D01*
X10901019Y-981557D01*
X10900206Y-985418D01*
X10898022Y-988720D01*
X10894720Y-990904D01*
X10890859Y-991717D01*
X10198252Y-991717D01*
X10190480Y-991920D01*
X10182910Y-992632D01*
X10175392Y-993749D01*
X10167975Y-995375D01*
X10160660Y-997407D01*
X10153446Y-999896D01*
X10146436Y-1002792D01*
X10139578Y-1006094D01*
X10132974Y-1009853D01*
X10126573Y-1013968D01*
X10120477Y-1018489D01*
X10114635Y-1023366D01*
X10108946Y-1028700D01*
X9866477Y-1271168D01*
X9863175Y-1273352D01*
X9859314Y-1274165D01*
X9335312Y-1274165D01*
X9319818Y-1275080D01*
X9304883Y-1277823D01*
X9290354Y-1282344D01*
X9276486Y-1288592D01*
X9263481Y-1296466D01*
X9251543Y-1305814D01*
X9240774Y-1316583D01*
X9231426Y-1328521D01*
X9223552Y-1341526D01*
X9217304Y-1355394D01*
X9212783Y-1369923D01*
X9210040Y-1384858D01*
X9209125Y-1400048D01*
X9210040Y-1415237D01*
X9212783Y-1430172D01*
X9217304Y-1444701D01*
X9223552Y-1458569D01*
X9231426Y-1471574D01*
X9240774Y-1483512D01*
X9251543Y-1494282D01*
X9263481Y-1503629D01*
X9276486Y-1511503D01*
X9290354Y-1517751D01*
X9304883Y-1522272D01*
X9319818Y-1525016D01*
G37*
G36*
X3335324Y-1525981D02*
G01*
X3882999Y-1525981D01*
X3890772Y-1525727D01*
X3898341Y-1525016D01*
X3905859Y-1523898D01*
X3913276Y-1522272D01*
X3920591Y-1520240D01*
X3927805Y-1517751D01*
X3934815Y-1514856D01*
X3941673Y-1511554D01*
X3948277Y-1507794D01*
X3954678Y-1503680D01*
X3960774Y-1499158D01*
X3966616Y-1494282D01*
X3972306Y-1488948D01*
X4214774Y-1246479D01*
X4218076Y-1244295D01*
X4221937Y-1243533D01*
X5026609Y-1243533D01*
X5042103Y-1242568D01*
X5057038Y-1239824D01*
X5071567Y-1235303D01*
X5085435Y-1229055D01*
X5098440Y-1221181D01*
X5110378Y-1211834D01*
X5121148Y-1201064D01*
X5130495Y-1189126D01*
X5138369Y-1176121D01*
X5144617Y-1162253D01*
X5149138Y-1147724D01*
X5151882Y-1132789D01*
X5152847Y-1117295D01*
X5152847Y-600252D01*
X5151882Y-584758D01*
X5149138Y-569823D01*
X5144617Y-555294D01*
X5143804Y-553466D01*
X5142890Y-549300D01*
X5142890Y-510590D01*
X5142179Y-504240D01*
X5140299Y-498805D01*
X5137200Y-493877D01*
X5133136Y-489813D01*
X5128209Y-486714D01*
X5122773Y-484784D01*
X5116423Y-484073D01*
X5077866Y-484073D01*
X5073700Y-483209D01*
X5071567Y-482244D01*
X5057038Y-477723D01*
X5042103Y-474980D01*
X5026914Y-474065D01*
X5011724Y-474980D01*
X4996789Y-477723D01*
X4982260Y-482244D01*
X4980127Y-483209D01*
X4975961Y-484073D01*
X4937556Y-484073D01*
X4931257Y-484784D01*
X4925771Y-486714D01*
X4920894Y-489813D01*
X4916779Y-493877D01*
X4913731Y-498805D01*
X4911801Y-504240D01*
X4911090Y-510590D01*
X4911090Y-548944D01*
X4910175Y-553110D01*
X4909210Y-555294D01*
X4904486Y-570585D01*
X4902403Y-574294D01*
X4898999Y-576834D01*
X4894834Y-577748D01*
X4890668Y-576884D01*
X4887214Y-574395D01*
X4885080Y-570738D01*
X4880762Y-557326D01*
X4874564Y-544169D01*
X4866741Y-531876D01*
X4857496Y-520649D01*
X4846878Y-510692D01*
X4835093Y-502158D01*
X4822342Y-495147D01*
X4808829Y-489762D01*
X4794707Y-486156D01*
X4780280Y-484327D01*
X4765700Y-484327D01*
X4751273Y-486156D01*
X4737201Y-489762D01*
X4723638Y-495147D01*
X4710887Y-502158D01*
X4699152Y-510692D01*
X4688535Y-520649D01*
X4679238Y-531876D01*
X4671466Y-544169D01*
X4665268Y-557326D01*
X4660747Y-571195D01*
X4658004Y-585470D01*
X4657090Y-599998D01*
X4658004Y-614527D01*
X4660747Y-628802D01*
X4665268Y-642670D01*
X4671466Y-655828D01*
X4679238Y-668121D01*
X4688535Y-679348D01*
X4699152Y-689305D01*
X4710887Y-697839D01*
X4723638Y-704850D01*
X4737201Y-710234D01*
X4751273Y-713841D01*
X4765700Y-715670D01*
X4780280Y-715670D01*
X4794707Y-713841D01*
X4808829Y-710234D01*
X4822342Y-704850D01*
X4835093Y-697839D01*
X4846878Y-689305D01*
X4857496Y-679348D01*
X4866741Y-668121D01*
X4874564Y-655828D01*
X4883200Y-637794D01*
X4886452Y-635304D01*
X4890414Y-634339D01*
X4894427Y-634949D01*
X4897882Y-637133D01*
X4900168Y-640486D01*
X4901031Y-644448D01*
X4901031Y-981557D01*
X4900218Y-985418D01*
X4898034Y-988720D01*
X4894732Y-990904D01*
X4890871Y-991717D01*
X4165752Y-991717D01*
X4157979Y-991920D01*
X4150410Y-992632D01*
X4142892Y-993749D01*
X4135475Y-995375D01*
X4128160Y-997407D01*
X4120946Y-999896D01*
X4113936Y-1002792D01*
X4107078Y-1006094D01*
X4100474Y-1009853D01*
X4094073Y-1013968D01*
X4087977Y-1018489D01*
X4082135Y-1023366D01*
X4076446Y-1028700D01*
X3833977Y-1271168D01*
X3830675Y-1273352D01*
X3826814Y-1274165D01*
X3335324Y-1274165D01*
X3319830Y-1275080D01*
X3304895Y-1277823D01*
X3290366Y-1282344D01*
X3276498Y-1288592D01*
X3263493Y-1296466D01*
X3251555Y-1305814D01*
X3240786Y-1316583D01*
X3231438Y-1328521D01*
X3223564Y-1341526D01*
X3217316Y-1355394D01*
X3212795Y-1369923D01*
X3210052Y-1384858D01*
X3209137Y-1400048D01*
X3210052Y-1415237D01*
X3212795Y-1430172D01*
X3217316Y-1444701D01*
X3223564Y-1458569D01*
X3231438Y-1471574D01*
X3240786Y-1483512D01*
X3251555Y-1494282D01*
X3263493Y-1503629D01*
X3276498Y-1511503D01*
X3290366Y-1517751D01*
X3304895Y-1522272D01*
X3319830Y-1525016D01*
G37*
G36*
X13335304Y-1525981D02*
G01*
X13928699Y-1525981D01*
X13936472Y-1525727D01*
X13944041Y-1525016D01*
X13951559Y-1523898D01*
X13958976Y-1522272D01*
X13966291Y-1520240D01*
X13973505Y-1517751D01*
X13980515Y-1514856D01*
X13987373Y-1511554D01*
X13993977Y-1507794D01*
X14000378Y-1503680D01*
X14006474Y-1499158D01*
X14012316Y-1494282D01*
X14018006Y-1488948D01*
X14260474Y-1246479D01*
X14263776Y-1244295D01*
X14267637Y-1243533D01*
X15026589Y-1243533D01*
X15042083Y-1242568D01*
X15057018Y-1239824D01*
X15071547Y-1235303D01*
X15085415Y-1229055D01*
X15098420Y-1221181D01*
X15110358Y-1211834D01*
X15121128Y-1201064D01*
X15130475Y-1189126D01*
X15138349Y-1176121D01*
X15144597Y-1162253D01*
X15149118Y-1147724D01*
X15151862Y-1132789D01*
X15152827Y-1117295D01*
X15152827Y-600252D01*
X15151862Y-584758D01*
X15149118Y-569823D01*
X15144597Y-555294D01*
X15143784Y-553516D01*
X15142921Y-549351D01*
X15142921Y-510590D01*
X15142210Y-504240D01*
X15140279Y-498805D01*
X15137180Y-493877D01*
X15133116Y-489813D01*
X15128189Y-486714D01*
X15122753Y-484784D01*
X15116454Y-484073D01*
X15077846Y-484073D01*
X15073680Y-483209D01*
X15071547Y-482244D01*
X15057018Y-477723D01*
X15042083Y-474980D01*
X15026894Y-474065D01*
X15011704Y-474980D01*
X14996769Y-477723D01*
X14982240Y-482244D01*
X14980107Y-483209D01*
X14975941Y-484073D01*
X14937587Y-484073D01*
X14931237Y-484784D01*
X14925801Y-486714D01*
X14920874Y-489813D01*
X14916810Y-493877D01*
X14913711Y-498805D01*
X14911781Y-504240D01*
X14911069Y-510590D01*
X14911069Y-548894D01*
X14910206Y-553059D01*
X14909190Y-555294D01*
X14904466Y-570534D01*
X14902383Y-574243D01*
X14898979Y-576783D01*
X14894813Y-577697D01*
X14890648Y-576834D01*
X14887194Y-574344D01*
X14885111Y-570687D01*
X14880742Y-557326D01*
X14874544Y-544169D01*
X14866772Y-531876D01*
X14857476Y-520649D01*
X14846858Y-510692D01*
X14835073Y-502158D01*
X14822322Y-495147D01*
X14808809Y-489762D01*
X14794738Y-486156D01*
X14780260Y-484327D01*
X14765731Y-484327D01*
X14751304Y-486156D01*
X14737181Y-489762D01*
X14723668Y-495147D01*
X14710918Y-502158D01*
X14699132Y-510692D01*
X14688515Y-520649D01*
X14679269Y-531876D01*
X14671446Y-544169D01*
X14665248Y-557326D01*
X14660778Y-571195D01*
X14658035Y-585470D01*
X14657120Y-599998D01*
X14658035Y-614527D01*
X14660778Y-628802D01*
X14665248Y-642670D01*
X14671446Y-655828D01*
X14679269Y-668121D01*
X14688515Y-679348D01*
X14699132Y-689305D01*
X14710918Y-697839D01*
X14723668Y-704850D01*
X14737181Y-710234D01*
X14751304Y-713841D01*
X14765731Y-715670D01*
X14780260Y-715670D01*
X14794738Y-713841D01*
X14808809Y-710234D01*
X14822322Y-704850D01*
X14835073Y-697839D01*
X14846858Y-689305D01*
X14857476Y-679348D01*
X14866772Y-668121D01*
X14874544Y-655828D01*
X14883180Y-637844D01*
X14886432Y-635355D01*
X14890394Y-634390D01*
X14894407Y-635000D01*
X14897862Y-637184D01*
X14900148Y-640537D01*
X14901011Y-644550D01*
X14901011Y-981557D01*
X14900198Y-985418D01*
X14898014Y-988720D01*
X14894712Y-990904D01*
X14890851Y-991717D01*
X14211452Y-991717D01*
X14203680Y-991920D01*
X14196110Y-992632D01*
X14188592Y-993749D01*
X14181175Y-995375D01*
X14173860Y-997407D01*
X14166646Y-999896D01*
X14159636Y-1002792D01*
X14152778Y-1006094D01*
X14146174Y-1009853D01*
X14139773Y-1013968D01*
X14133677Y-1018489D01*
X14127835Y-1023366D01*
X14122146Y-1028700D01*
X13879677Y-1271168D01*
X13876375Y-1273352D01*
X13872514Y-1274165D01*
X13335304Y-1274165D01*
X13319810Y-1275080D01*
X13304875Y-1277823D01*
X13290346Y-1282344D01*
X13276478Y-1288592D01*
X13263473Y-1296466D01*
X13251535Y-1305814D01*
X13240766Y-1316583D01*
X13231418Y-1328521D01*
X13223544Y-1341526D01*
X13217296Y-1355394D01*
X13212775Y-1369923D01*
X13210032Y-1384858D01*
X13209117Y-1400048D01*
X13210032Y-1415237D01*
X13212775Y-1430172D01*
X13217296Y-1444701D01*
X13223544Y-1458569D01*
X13231418Y-1471574D01*
X13240766Y-1483512D01*
X13251535Y-1494282D01*
X13263473Y-1503629D01*
X13276478Y-1511503D01*
X13290346Y-1517751D01*
X13304875Y-1522272D01*
X13319810Y-1525016D01*
G37*
G36*
X1335328Y-1525981D02*
G01*
X1812899Y-1525981D01*
X1820672Y-1525727D01*
X1828241Y-1525016D01*
X1835759Y-1523898D01*
X1843176Y-1522272D01*
X1850491Y-1520240D01*
X1857705Y-1517751D01*
X1864715Y-1514856D01*
X1871573Y-1511554D01*
X1878177Y-1507794D01*
X1884578Y-1503680D01*
X1890674Y-1499158D01*
X1896516Y-1494282D01*
X1902206Y-1488948D01*
X2144674Y-1246479D01*
X2147976Y-1244295D01*
X2151837Y-1243533D01*
X3026613Y-1243533D01*
X3042107Y-1242568D01*
X3057042Y-1239824D01*
X3071571Y-1235303D01*
X3085439Y-1229055D01*
X3098444Y-1221181D01*
X3110382Y-1211834D01*
X3121152Y-1201064D01*
X3130499Y-1189126D01*
X3138373Y-1176121D01*
X3144621Y-1162253D01*
X3149142Y-1147724D01*
X3151886Y-1132789D01*
X3152851Y-1117295D01*
X3152851Y-600252D01*
X3151886Y-584758D01*
X3149142Y-569823D01*
X3144621Y-555294D01*
X3143808Y-553466D01*
X3142894Y-549300D01*
X3142894Y-510590D01*
X3142183Y-504240D01*
X3140303Y-498805D01*
X3137204Y-493877D01*
X3133090Y-489813D01*
X3128213Y-486714D01*
X3122726Y-484784D01*
X3116427Y-484073D01*
X3077870Y-484073D01*
X3073704Y-483209D01*
X3071571Y-482244D01*
X3057042Y-477723D01*
X3042107Y-474980D01*
X3026918Y-474065D01*
X3011728Y-474980D01*
X2996793Y-477723D01*
X2982264Y-482244D01*
X2980131Y-483209D01*
X2975965Y-484073D01*
X2937560Y-484073D01*
X2931261Y-484784D01*
X2925775Y-486714D01*
X2920898Y-489813D01*
X2916783Y-493877D01*
X2913735Y-498805D01*
X2911805Y-504240D01*
X2911094Y-510590D01*
X2911094Y-548944D01*
X2910179Y-553110D01*
X2909214Y-555294D01*
X2904490Y-570585D01*
X2902407Y-574294D01*
X2899003Y-576834D01*
X2894838Y-577748D01*
X2890672Y-576884D01*
X2887218Y-574395D01*
X2885084Y-570738D01*
X2880766Y-557326D01*
X2874568Y-544169D01*
X2866745Y-531876D01*
X2857500Y-520649D01*
X2846882Y-510692D01*
X2835097Y-502158D01*
X2822346Y-495147D01*
X2808833Y-489762D01*
X2794711Y-486156D01*
X2780284Y-484327D01*
X2765704Y-484327D01*
X2751277Y-486156D01*
X2737205Y-489762D01*
X2723642Y-495147D01*
X2710891Y-502158D01*
X2699105Y-510692D01*
X2688539Y-520649D01*
X2679242Y-531876D01*
X2671470Y-544169D01*
X2665272Y-557326D01*
X2660751Y-571195D01*
X2658008Y-585470D01*
X2657094Y-599998D01*
X2658008Y-614527D01*
X2660751Y-628802D01*
X2665272Y-642670D01*
X2671470Y-655828D01*
X2679242Y-668121D01*
X2688539Y-679348D01*
X2699105Y-689305D01*
X2710891Y-697839D01*
X2723642Y-704850D01*
X2737205Y-710234D01*
X2751277Y-713841D01*
X2765704Y-715670D01*
X2780284Y-715670D01*
X2794711Y-713841D01*
X2808833Y-710234D01*
X2822346Y-704850D01*
X2835097Y-697839D01*
X2846882Y-689305D01*
X2857500Y-679348D01*
X2866745Y-668121D01*
X2874568Y-655828D01*
X2883204Y-637743D01*
X2886456Y-635304D01*
X2890418Y-634288D01*
X2894431Y-634949D01*
X2897886Y-637082D01*
X2900172Y-640435D01*
X2900984Y-644448D01*
X2900984Y-981557D01*
X2900222Y-985418D01*
X2898038Y-988720D01*
X2894736Y-990904D01*
X2890875Y-991717D01*
X2095652Y-991717D01*
X2087880Y-991920D01*
X2080310Y-992632D01*
X2072792Y-993749D01*
X2065375Y-995375D01*
X2058060Y-997407D01*
X2050846Y-999896D01*
X2043836Y-1002792D01*
X2036978Y-1006094D01*
X2030374Y-1009853D01*
X2023973Y-1013968D01*
X2017877Y-1018489D01*
X2012035Y-1023366D01*
X2006346Y-1028700D01*
X1763877Y-1271168D01*
X1760575Y-1273352D01*
X1756714Y-1274165D01*
X1335328Y-1274165D01*
X1319834Y-1275080D01*
X1304899Y-1277823D01*
X1290370Y-1282344D01*
X1276502Y-1288592D01*
X1263497Y-1296466D01*
X1251559Y-1305814D01*
X1240790Y-1316583D01*
X1231442Y-1328521D01*
X1223568Y-1341526D01*
X1217320Y-1355394D01*
X1212799Y-1369923D01*
X1210056Y-1384858D01*
X1209141Y-1400048D01*
X1210056Y-1415237D01*
X1212799Y-1430172D01*
X1217320Y-1444701D01*
X1223568Y-1458569D01*
X1231442Y-1471574D01*
X1240790Y-1483512D01*
X1251559Y-1494282D01*
X1263497Y-1503629D01*
X1276502Y-1511503D01*
X1290370Y-1517751D01*
X1304899Y-1522272D01*
X1319834Y-1525016D01*
G37*
G36*
X457708Y-1515668D02*
G01*
X472287Y-1515668D01*
X486714Y-1513840D01*
X500786Y-1510233D01*
X514350Y-1504848D01*
X527100Y-1497838D01*
X538886Y-1489303D01*
X549452Y-1479346D01*
X558749Y-1468120D01*
X566572Y-1455826D01*
X572770Y-1442669D01*
X577240Y-1428800D01*
X579983Y-1414526D01*
X580898Y-1399997D01*
X579983Y-1385468D01*
X577240Y-1371193D01*
X572770Y-1357325D01*
X566572Y-1344168D01*
X558749Y-1331874D01*
X549452Y-1320647D01*
X538886Y-1310690D01*
X527100Y-1302156D01*
X514350Y-1295146D01*
X500786Y-1289761D01*
X486714Y-1286154D01*
X472287Y-1284325D01*
X457708Y-1284325D01*
X443280Y-1286154D01*
X429209Y-1289761D01*
X415645Y-1295146D01*
X402894Y-1302156D01*
X391109Y-1310690D01*
X380492Y-1320647D01*
X371246Y-1331874D01*
X363423Y-1344168D01*
X357225Y-1357325D01*
X352755Y-1371193D01*
X350012Y-1385468D01*
X349097Y-1399997D01*
X350012Y-1414526D01*
X352755Y-1428800D01*
X357225Y-1442669D01*
X363423Y-1455826D01*
X371246Y-1468120D01*
X380492Y-1479346D01*
X391109Y-1489303D01*
X402894Y-1497838D01*
X415645Y-1504848D01*
X429209Y-1510233D01*
X443280Y-1513840D01*
G37*
G36*
X8457742Y-1515668D02*
G01*
X8472271Y-1515668D01*
X8486698Y-1513840D01*
X8500821Y-1510233D01*
X8514334Y-1504848D01*
X8527084Y-1497838D01*
X8538870Y-1489303D01*
X8549487Y-1479346D01*
X8558733Y-1468120D01*
X8566556Y-1455826D01*
X8572754Y-1442669D01*
X8577224Y-1428800D01*
X8579967Y-1414526D01*
X8580882Y-1399997D01*
X8579967Y-1385468D01*
X8577224Y-1371193D01*
X8572754Y-1357325D01*
X8566556Y-1344168D01*
X8558733Y-1331874D01*
X8549487Y-1320647D01*
X8538870Y-1310690D01*
X8527084Y-1302156D01*
X8514334Y-1295146D01*
X8500821Y-1289761D01*
X8486698Y-1286154D01*
X8472271Y-1284325D01*
X8457742Y-1284325D01*
X8443264Y-1286154D01*
X8429193Y-1289761D01*
X8415629Y-1295146D01*
X8402878Y-1302156D01*
X8391144Y-1310690D01*
X8380526Y-1320647D01*
X8371230Y-1331874D01*
X8363458Y-1344168D01*
X8357260Y-1357325D01*
X8352739Y-1371193D01*
X8349996Y-1385468D01*
X8349081Y-1399997D01*
X8349996Y-1414526D01*
X8352739Y-1428800D01*
X8357260Y-1442669D01*
X8363458Y-1455826D01*
X8371230Y-1468120D01*
X8380526Y-1479346D01*
X8391144Y-1489303D01*
X8402878Y-1497838D01*
X8415629Y-1504848D01*
X8429193Y-1510233D01*
X8443264Y-1513840D01*
G37*
G36*
X12457734Y-1515668D02*
G01*
X12472263Y-1515668D01*
X12486690Y-1513840D01*
X12500813Y-1510233D01*
X12514326Y-1504848D01*
X12527076Y-1497838D01*
X12538862Y-1489303D01*
X12549479Y-1479346D01*
X12558725Y-1468120D01*
X12566548Y-1455826D01*
X12572746Y-1442669D01*
X12577216Y-1428800D01*
X12579959Y-1414526D01*
X12580874Y-1399997D01*
X12579959Y-1385468D01*
X12577216Y-1371193D01*
X12572746Y-1357325D01*
X12566548Y-1344168D01*
X12558725Y-1331874D01*
X12549479Y-1320647D01*
X12538862Y-1310690D01*
X12527076Y-1302156D01*
X12514326Y-1295146D01*
X12500813Y-1289761D01*
X12486690Y-1286154D01*
X12472263Y-1284325D01*
X12457734Y-1284325D01*
X12443256Y-1286154D01*
X12429185Y-1289761D01*
X12415672Y-1295146D01*
X12402921Y-1302156D01*
X12391136Y-1310690D01*
X12380518Y-1320647D01*
X12371222Y-1331874D01*
X12363450Y-1344168D01*
X12357252Y-1357325D01*
X12352731Y-1371193D01*
X12350038Y-1385468D01*
X12349124Y-1399997D01*
X12350038Y-1414526D01*
X12352731Y-1428800D01*
X12357252Y-1442669D01*
X12363450Y-1455826D01*
X12371222Y-1468120D01*
X12380518Y-1479346D01*
X12391136Y-1489303D01*
X12402921Y-1497838D01*
X12415672Y-1504848D01*
X12429185Y-1510233D01*
X12443256Y-1513840D01*
G37*
G36*
X10457738Y-1515668D02*
G01*
X10472267Y-1515668D01*
X10486694Y-1513840D01*
X10500817Y-1510233D01*
X10514330Y-1504848D01*
X10527080Y-1497838D01*
X10538866Y-1489303D01*
X10549483Y-1479346D01*
X10558729Y-1468120D01*
X10566552Y-1455826D01*
X10572750Y-1442669D01*
X10577220Y-1428800D01*
X10579963Y-1414526D01*
X10580878Y-1399997D01*
X10579963Y-1385468D01*
X10577220Y-1371193D01*
X10572750Y-1357325D01*
X10566552Y-1344168D01*
X10558729Y-1331874D01*
X10549483Y-1320647D01*
X10538866Y-1310690D01*
X10527080Y-1302156D01*
X10514330Y-1295146D01*
X10500817Y-1289761D01*
X10486694Y-1286154D01*
X10472267Y-1284325D01*
X10457738Y-1284325D01*
X10443260Y-1286154D01*
X10429189Y-1289761D01*
X10415676Y-1295146D01*
X10402874Y-1302156D01*
X10391140Y-1310690D01*
X10380522Y-1320647D01*
X10371226Y-1331874D01*
X10363454Y-1344168D01*
X10357256Y-1357325D01*
X10352735Y-1371193D01*
X10350042Y-1385468D01*
X10349128Y-1399997D01*
X10350042Y-1414526D01*
X10352735Y-1428800D01*
X10357256Y-1442669D01*
X10363454Y-1455826D01*
X10371226Y-1468120D01*
X10380522Y-1479346D01*
X10391140Y-1489303D01*
X10402874Y-1497838D01*
X10415676Y-1504848D01*
X10429189Y-1510233D01*
X10443260Y-1513840D01*
G37*
G36*
X14457730Y-1515668D02*
G01*
X14472259Y-1515668D01*
X14486686Y-1513840D01*
X14500809Y-1510233D01*
X14514322Y-1504848D01*
X14527072Y-1497838D01*
X14538858Y-1489303D01*
X14549475Y-1479346D01*
X14558772Y-1468120D01*
X14566544Y-1455826D01*
X14572742Y-1442669D01*
X14577263Y-1428800D01*
X14579955Y-1414526D01*
X14580869Y-1399997D01*
X14579955Y-1385468D01*
X14577263Y-1371193D01*
X14572742Y-1357325D01*
X14566544Y-1344168D01*
X14558772Y-1331874D01*
X14549475Y-1320647D01*
X14538858Y-1310690D01*
X14527072Y-1302156D01*
X14514322Y-1295146D01*
X14500809Y-1289761D01*
X14486686Y-1286154D01*
X14472259Y-1284325D01*
X14457730Y-1284325D01*
X14443303Y-1286154D01*
X14429181Y-1289761D01*
X14415668Y-1295146D01*
X14402917Y-1302156D01*
X14391132Y-1310690D01*
X14380514Y-1320647D01*
X14371218Y-1331874D01*
X14363446Y-1344168D01*
X14357248Y-1357325D01*
X14352727Y-1371193D01*
X14350034Y-1385468D01*
X14349120Y-1399997D01*
X14350034Y-1414526D01*
X14352727Y-1428800D01*
X14357248Y-1442669D01*
X14363446Y-1455826D01*
X14371218Y-1468120D01*
X14380514Y-1479346D01*
X14391132Y-1489303D01*
X14402917Y-1497838D01*
X14415668Y-1504848D01*
X14429181Y-1510233D01*
X14443303Y-1513840D01*
G37*
G36*
X4457700Y-1515668D02*
G01*
X4472279Y-1515668D01*
X4486706Y-1513840D01*
X4500829Y-1510233D01*
X4514342Y-1504848D01*
X4527092Y-1497838D01*
X4538878Y-1489303D01*
X4549495Y-1479346D01*
X4558741Y-1468120D01*
X4566564Y-1455826D01*
X4572762Y-1442669D01*
X4577232Y-1428800D01*
X4579975Y-1414526D01*
X4580890Y-1399997D01*
X4579975Y-1385468D01*
X4577232Y-1371193D01*
X4572762Y-1357325D01*
X4566564Y-1344168D01*
X4558741Y-1331874D01*
X4549495Y-1320647D01*
X4538878Y-1310690D01*
X4527092Y-1302156D01*
X4514342Y-1295146D01*
X4500829Y-1289761D01*
X4486706Y-1286154D01*
X4472279Y-1284325D01*
X4457700Y-1284325D01*
X4443272Y-1286154D01*
X4429201Y-1289761D01*
X4415637Y-1295146D01*
X4402886Y-1302156D01*
X4391101Y-1310690D01*
X4380534Y-1320647D01*
X4371238Y-1331874D01*
X4363466Y-1344168D01*
X4357268Y-1357325D01*
X4352747Y-1371193D01*
X4350004Y-1385468D01*
X4349089Y-1399997D01*
X4350004Y-1414526D01*
X4352747Y-1428800D01*
X4357268Y-1442669D01*
X4363466Y-1455826D01*
X4371238Y-1468120D01*
X4380534Y-1479346D01*
X4391101Y-1489303D01*
X4402886Y-1497838D01*
X4415637Y-1504848D01*
X4429201Y-1510233D01*
X4443272Y-1513840D01*
G37*
G36*
X2457704Y-1515668D02*
G01*
X2472283Y-1515668D01*
X2486710Y-1513840D01*
X2500782Y-1510233D01*
X2514346Y-1504848D01*
X2527096Y-1497838D01*
X2538882Y-1489303D01*
X2549448Y-1479346D01*
X2558745Y-1468120D01*
X2566568Y-1455826D01*
X2572766Y-1442669D01*
X2577236Y-1428800D01*
X2579979Y-1414526D01*
X2580894Y-1399997D01*
X2579979Y-1385468D01*
X2577236Y-1371193D01*
X2572766Y-1357325D01*
X2566568Y-1344168D01*
X2558745Y-1331874D01*
X2549448Y-1320647D01*
X2538882Y-1310690D01*
X2527096Y-1302156D01*
X2514346Y-1295146D01*
X2500782Y-1289761D01*
X2486710Y-1286154D01*
X2472283Y-1284325D01*
X2457704Y-1284325D01*
X2443276Y-1286154D01*
X2429205Y-1289761D01*
X2415641Y-1295146D01*
X2402890Y-1302156D01*
X2391105Y-1310690D01*
X2380538Y-1320647D01*
X2371242Y-1331874D01*
X2363419Y-1344168D01*
X2357221Y-1357325D01*
X2352751Y-1371193D01*
X2350008Y-1385468D01*
X2349093Y-1399997D01*
X2350008Y-1414526D01*
X2352751Y-1428800D01*
X2357221Y-1442669D01*
X2363419Y-1455826D01*
X2371242Y-1468120D01*
X2380538Y-1479346D01*
X2391105Y-1489303D01*
X2402890Y-1497838D01*
X2415641Y-1504848D01*
X2429205Y-1510233D01*
X2443276Y-1513840D01*
G37*
G36*
X15327731Y-1515668D02*
G01*
X15342260Y-1515668D01*
X15356738Y-1513840D01*
X15370810Y-1510233D01*
X15384373Y-1504848D01*
X15397124Y-1497838D01*
X15408859Y-1489303D01*
X15419476Y-1479346D01*
X15428772Y-1468120D01*
X15436545Y-1455826D01*
X15442742Y-1442669D01*
X15447263Y-1428800D01*
X15449956Y-1414526D01*
X15450870Y-1399997D01*
X15449956Y-1385468D01*
X15447263Y-1371193D01*
X15442742Y-1357325D01*
X15436545Y-1344168D01*
X15428772Y-1331874D01*
X15419476Y-1320647D01*
X15408859Y-1310690D01*
X15397124Y-1302156D01*
X15384373Y-1295146D01*
X15370810Y-1289761D01*
X15356738Y-1286154D01*
X15342260Y-1284325D01*
X15327731Y-1284325D01*
X15313304Y-1286154D01*
X15299182Y-1289761D01*
X15285669Y-1295146D01*
X15272918Y-1302156D01*
X15261132Y-1310690D01*
X15250515Y-1320647D01*
X15241269Y-1331874D01*
X15233446Y-1344168D01*
X15227249Y-1357325D01*
X15222778Y-1371193D01*
X15220035Y-1385468D01*
X15219121Y-1399997D01*
X15220035Y-1414526D01*
X15222778Y-1428800D01*
X15227249Y-1442669D01*
X15233446Y-1455826D01*
X15241269Y-1468120D01*
X15250515Y-1479346D01*
X15261132Y-1489303D01*
X15272918Y-1497838D01*
X15285669Y-1504848D01*
X15299182Y-1510233D01*
X15313304Y-1513840D01*
G37*
G36*
X-348640Y-1322679D02*
G01*
X-344170Y-1320546D01*
X-331876Y-1312773D01*
X-320649Y-1303477D01*
X-310692Y-1292860D01*
X-302158Y-1281074D01*
X-296265Y-1270355D01*
X-348640Y-1270355D01*
G37*
G36*
X-451358Y-1322679D02*
G01*
X-451358Y-1270355D01*
X-503732Y-1270355D01*
X-497840Y-1281074D01*
X-489305Y-1292860D01*
X-479348Y-1303477D01*
X-468122Y-1312773D01*
X-455828Y-1320546D01*
G37*
G36*
X16230041Y-1322679D02*
G01*
X16230041Y-1270355D01*
X16177666Y-1270355D01*
X16183559Y-1281074D01*
X16192093Y-1292860D01*
X16202050Y-1303477D01*
X16213277Y-1312773D01*
X16225570Y-1320546D01*
G37*
G36*
X16332758Y-1322679D02*
G01*
X16337229Y-1320546D01*
X16349522Y-1312773D01*
X16360749Y-1303477D01*
X16370706Y-1292860D01*
X16379240Y-1281074D01*
X16385133Y-1270355D01*
X16332758Y-1270355D01*
G37*
G36*
X-348640Y-1167638D02*
G01*
X-296265Y-1167638D01*
X-302158Y-1156919D01*
X-310692Y-1145133D01*
X-320649Y-1134516D01*
X-331876Y-1125220D01*
X-344170Y-1117447D01*
X-348640Y-1115314D01*
G37*
G36*
X-503732Y-1167638D02*
G01*
X-451358Y-1167638D01*
X-451358Y-1115314D01*
X-455828Y-1117447D01*
X-468122Y-1125220D01*
X-479348Y-1134516D01*
X-489305Y-1145133D01*
X-497840Y-1156919D01*
G37*
G36*
X16332758Y-1167638D02*
G01*
X16385133Y-1167638D01*
X16379240Y-1156919D01*
X16370706Y-1145133D01*
X16360749Y-1134516D01*
X16349522Y-1125220D01*
X16337229Y-1117447D01*
X16332758Y-1115314D01*
G37*
G36*
X16177666Y-1167638D02*
G01*
X16230041Y-1167638D01*
X16230041Y-1115314D01*
X16225570Y-1117447D01*
X16213277Y-1125220D01*
X16202050Y-1134516D01*
X16192093Y-1145133D01*
X16183559Y-1156919D01*
G37*
G36*
X937564Y-715924D02*
G01*
X1116431Y-715924D01*
X1122730Y-715213D01*
X1128217Y-713282D01*
X1133094Y-710184D01*
X1137208Y-706120D01*
X1140307Y-701192D01*
X1142187Y-695756D01*
X1142898Y-689406D01*
X1142898Y-510590D01*
X1142187Y-504240D01*
X1140307Y-498805D01*
X1137208Y-493877D01*
X1133094Y-489813D01*
X1128217Y-486714D01*
X1122730Y-484784D01*
X1116431Y-484073D01*
X937564Y-484073D01*
X931265Y-484784D01*
X925779Y-486714D01*
X920902Y-489813D01*
X916787Y-493877D01*
X913739Y-498805D01*
X911809Y-504240D01*
X911098Y-510590D01*
X911098Y-689406D01*
X911809Y-695756D01*
X913739Y-701192D01*
X916787Y-706120D01*
X920902Y-710184D01*
X925779Y-713282D01*
X931265Y-715213D01*
G37*
G36*
X765708Y-715670D02*
G01*
X780288Y-715670D01*
X794715Y-713841D01*
X808786Y-710234D01*
X822350Y-704850D01*
X835101Y-697839D01*
X846886Y-689305D01*
X857503Y-679348D01*
X866749Y-668121D01*
X874572Y-655828D01*
X880770Y-642670D01*
X885240Y-628802D01*
X887984Y-614527D01*
X888898Y-599998D01*
X887984Y-585470D01*
X885240Y-571195D01*
X880770Y-557326D01*
X874572Y-544169D01*
X866749Y-531876D01*
X857503Y-520649D01*
X846886Y-510692D01*
X835101Y-502158D01*
X822350Y-495147D01*
X808786Y-489762D01*
X794715Y-486156D01*
X780288Y-484327D01*
X765708Y-484327D01*
X751281Y-486156D01*
X737209Y-489762D01*
X723646Y-495147D01*
X710895Y-502158D01*
X699109Y-510692D01*
X688543Y-520649D01*
X679246Y-531876D01*
X671423Y-544169D01*
X665226Y-557326D01*
X660755Y-571195D01*
X658012Y-585470D01*
X657098Y-599998D01*
X658012Y-614527D01*
X660755Y-628802D01*
X665226Y-642670D01*
X671423Y-655828D01*
X679246Y-668121D01*
X688543Y-679348D01*
X699109Y-689305D01*
X710895Y-697839D01*
X723646Y-704850D01*
X737209Y-710234D01*
X751281Y-713841D01*
G37*
G36*
X16490594Y-585673D02*
G01*
X16509390Y-585673D01*
X16528135Y-583742D01*
X16546576Y-579983D01*
X16564559Y-574344D01*
X16581882Y-566877D01*
X16598341Y-557733D01*
X16613784Y-547014D01*
X16628059Y-534720D01*
X16641063Y-521106D01*
X16652544Y-506171D01*
X16662552Y-490220D01*
X16670832Y-473303D01*
X16677386Y-455625D01*
X16682059Y-437438D01*
X16684955Y-418795D01*
X16685869Y-399999D01*
X16684955Y-381203D01*
X16682059Y-362559D01*
X16677386Y-344373D01*
X16670832Y-326694D01*
X16662552Y-309778D01*
X16652544Y-293827D01*
X16641063Y-278892D01*
X16628059Y-265277D01*
X16613784Y-252984D01*
X16598341Y-242265D01*
X16581882Y-233121D01*
X16564559Y-225653D01*
X16546576Y-220014D01*
X16528135Y-216255D01*
X16509390Y-214325D01*
X16490594Y-214325D01*
X16471849Y-216255D01*
X16453408Y-220014D01*
X16435425Y-225653D01*
X16418102Y-233121D01*
X16401643Y-242265D01*
X16386200Y-252984D01*
X16371925Y-265277D01*
X16358920Y-278892D01*
X16347440Y-293827D01*
X16337432Y-309778D01*
X16329151Y-326694D01*
X16322598Y-344373D01*
X16317925Y-362559D01*
X16315029Y-381203D01*
X16314115Y-399999D01*
X16315029Y-418795D01*
X16317925Y-437438D01*
X16322598Y-455625D01*
X16329151Y-473303D01*
X16337432Y-490220D01*
X16347440Y-506171D01*
X16358920Y-521106D01*
X16371925Y-534720D01*
X16386200Y-547014D01*
X16401643Y-557733D01*
X16418102Y-566877D01*
X16435425Y-574344D01*
X16453408Y-579983D01*
X16471849Y-583742D01*
G37*
G36*
X-766724Y-585673D02*
G01*
X-747877Y-585673D01*
X-729132Y-583742D01*
X-710692Y-579983D01*
X-692759Y-574344D01*
X-675436Y-566877D01*
X-658977Y-557733D01*
X-643534Y-547014D01*
X-629208Y-534720D01*
X-616254Y-521106D01*
X-604723Y-506171D01*
X-594766Y-490220D01*
X-586486Y-473303D01*
X-579932Y-455625D01*
X-575208Y-437438D01*
X-572363Y-418795D01*
X-571398Y-399999D01*
X-572363Y-381203D01*
X-575208Y-362559D01*
X-579932Y-344373D01*
X-586486Y-326694D01*
X-594766Y-309778D01*
X-604723Y-293827D01*
X-616254Y-278892D01*
X-629208Y-265277D01*
X-643534Y-252984D01*
X-658977Y-242265D01*
X-675436Y-233121D01*
X-692759Y-225653D01*
X-710692Y-220014D01*
X-729132Y-216255D01*
X-747877Y-214325D01*
X-766724Y-214325D01*
X-785469Y-216255D01*
X-803910Y-220014D01*
X-821842Y-225653D01*
X-839165Y-233121D01*
X-855624Y-242265D01*
X-871067Y-252984D01*
X-885393Y-265277D01*
X-898347Y-278892D01*
X-909878Y-293827D01*
X-919835Y-309778D01*
X-928116Y-326694D01*
X-934669Y-344373D01*
X-939393Y-362559D01*
X-942238Y-381203D01*
X-943203Y-399999D01*
X-942238Y-418795D01*
X-939393Y-437438D01*
X-934669Y-455625D01*
X-928116Y-473303D01*
X-919835Y-490220D01*
X-909878Y-506171D01*
X-898347Y-521106D01*
X-885393Y-534720D01*
X-871067Y-547014D01*
X-855624Y-557733D01*
X-839165Y-566877D01*
X-821842Y-574344D01*
X-803910Y-579983D01*
X-785469Y-583742D01*
G37*

%LPD*%
D10*
X7277100Y-3556000D02*
G01*
X7277100Y-4038600D01*
X7353300Y-4114800D01*
X8674100Y-4114800D01*
X8915994Y-3872898D01*
X8915994Y-3819004D01*
X7289800Y-3429000D02*
G01*
X7518400Y-3657600D01*
X7518400Y-4000500D01*
X8480506Y-4000500D01*
X8661999Y-3819006D01*
X9408007Y-3099993D02*
G01*
X9118600Y-3403600D01*
X9118600Y-3975100D01*
X8864600Y-4229100D01*
X7924800Y-4229100D01*
X7899908Y-4253992D01*
X7899908Y-4580889D01*
X11408003Y-3099993D02*
G01*
X11087100Y-3467100D01*
X9296400Y-3479800D01*
X9258300Y-3517900D01*
X9258300Y-4114800D01*
X9055100Y-4318000D01*
X8178800Y-4318000D01*
X8153908Y-4342892D01*
X8153908Y-4580889D01*
X8661908Y-3818892D02*
G01*
X8674100Y-3111500D01*
X8978900Y-2806700D01*
X11722100Y-2806700D01*
X12268200Y-3352800D01*
X12407900Y-3479800D02*
G01*
X12255500Y-3479800D01*
X11658600Y-2882900D01*
X9156700Y-2882900D01*
X8915908Y-3123692D01*
X8915908Y-3818892D01*
X13407999Y-3099993D02*
G01*
X12776200Y-3606800D01*
X9474200Y-3606800D01*
X9347200Y-3733800D01*
X9347200Y-4267200D01*
X9220200Y-4394200D01*
X8458200Y-4394200D01*
X8407908Y-4444492D01*
X8407908Y-4580889D01*
X5407913Y-3100070D02*
G01*
X5805170Y-3100070D01*
X6756400Y-4051300D01*
X7099300Y-4051300D01*
X7391400Y-4343400D01*
X7391908Y-4580889D01*
X3407918Y-3100070D02*
G01*
X3721100Y-3412997D01*
X3721100Y-3975100D01*
X3873500Y-4127500D01*
X6946900Y-4127500D01*
X7137908Y-4318507D01*
X7137908Y-4580889D01*
X-400050Y-1726945D02*
G01*
X63500Y-2190495D01*
X76200Y-2717800D01*
X241300Y-2882900D01*
X4432300Y-2882900D01*
X5219700Y-3670300D01*
D11*
X7335011Y-1422400D02*
G01*
X7861300Y-1422400D01*
X8166100Y-1117600D01*
X9026906Y-1117600D01*
X9026906Y-599947D01*
X5335015Y-1400047D02*
G01*
X5877052Y-1400047D01*
X6159500Y-1117600D01*
X7026909Y-1117600D01*
X7026909Y-621029D01*
X3335020Y-1400047D02*
G01*
X3883152Y-1400047D01*
X4165600Y-1117600D01*
X5026913Y-1117600D01*
X5026913Y-599947D01*
X1335023Y-1400047D02*
G01*
X1813052Y-1400047D01*
X2095500Y-1117600D01*
X3026918Y-1117600D01*
X3026918Y-599947D01*
X9335008Y-1400047D02*
G01*
X9915652Y-1400047D01*
X10198100Y-1117600D01*
X11026902Y-1117600D01*
X11026902Y-599947D01*
X11335004Y-1400047D02*
G01*
X11922252Y-1400047D01*
X12192000Y-1130300D01*
X13026897Y-1130300D01*
X13026897Y-599947D01*
X13335000Y-1400047D02*
G01*
X13928852Y-1400047D01*
X14211300Y-1117600D01*
X15026893Y-1117600D01*
X15026893Y-599947D01*
D10*
X15407893Y-3100070D02*
G01*
X15062200Y-3454400D01*
X13144500Y-3454400D01*
X12852400Y-3695700D01*
X10020300Y-3695700D01*
X9855200Y-3860800D01*
X9855200Y-4406900D01*
X9474200Y-4787900D01*
X8737600Y-4787900D01*
X8661908Y-4712207D01*
X8661908Y-4580889D01*
X1407921Y-3100070D02*
G01*
X1407921Y-3097021D01*
X1714500Y-3403600D01*
X1714500Y-4203700D01*
X1854200Y-4343400D01*
X6438900Y-4343400D01*
X6676390Y-4580889D01*
X6883908Y-4580889D01*
D11*
G01*
X-399999Y-3249548D03*
G01*
X-399999Y-3750437D03*
G01*
X16199993Y-3750437D03*
G01*
X16199993Y-3249548D03*
D13*
G01*
X1334998Y-1399997D03*
G01*
X464997Y-1399997D03*
G01*
X3334994Y-1399997D03*
G01*
X2464993Y-1399997D03*
G01*
X5335015Y-1399997D03*
G01*
X4465015Y-1399997D03*
G01*
X7334986Y-1422400D03*
G01*
X6464985Y-1422400D03*
G01*
X9334982Y-1399997D03*
G01*
X8464981Y-1399997D03*
G01*
X11335004Y-1399997D03*
G01*
X10465003Y-1399997D03*
G01*
X13335000Y-1399997D03*
G01*
X12464999Y-1399997D03*
G01*
X15334995Y-1399997D03*
G01*
X14464995Y-1399997D03*
G36*
X555993Y-2169505D02*
G01*
X735992Y-2169505D01*
X735992Y-2429504D01*
X555993Y-2429504D01*
G37*
G36*
X2555991Y-2169505D02*
G01*
X2735991Y-2169505D01*
X2735991Y-2429504D01*
X2555991Y-2429504D01*
G37*
G36*
X4555992Y-2169505D02*
G01*
X4735992Y-2169505D01*
X4735992Y-2429504D01*
X4555992Y-2429504D01*
G37*
G36*
X6555991Y-2190506D02*
G01*
X6735991Y-2190506D01*
X6735991Y-2450505D01*
X6555991Y-2450505D01*
G37*
G36*
X8555992Y-2169505D02*
G01*
X8735992Y-2169505D01*
X8735992Y-2429504D01*
X8555992Y-2429504D01*
G37*
G36*
X10555993Y-2169505D02*
G01*
X10735993Y-2169505D01*
X10735993Y-2429504D01*
X10555993Y-2429504D01*
G37*
G36*
X12555992Y-2169505D02*
G01*
X12735991Y-2169505D01*
X12735991Y-2429504D01*
X12555992Y-2429504D01*
G37*
G36*
X14555993Y-2169505D02*
G01*
X14735992Y-2169505D01*
X14735992Y-2429504D01*
X14555993Y-2429504D01*
G37*
G01*
X9537700Y-4216400D03*
G01*
X9537700Y-3962400D03*
G01*
X10299700Y-4470400D03*
G01*
X10299700Y-4216400D03*
G01*
X10299700Y-3962400D03*
G01*
X9537700Y-4470400D03*
D15*
G01*
X-399999Y-1980996D03*
D13*
G01*
X-399999Y-1726996D03*
G01*
X-399999Y-1472996D03*
G01*
X-399999Y-1218996D03*
D15*
G01*
X16281400Y-1980996D03*
D13*
G01*
X16281400Y-1726996D03*
G01*
X16281400Y-1472996D03*
G01*
X16281400Y-1218996D03*
D15*
G01*
X1026998Y-599998D03*
D13*
G01*
X772998Y-599998D03*
D15*
G01*
X3026994Y-599998D03*
D13*
G01*
X2772994Y-599998D03*
D15*
G01*
X5026990Y-599998D03*
D13*
G01*
X4772990Y-599998D03*
D15*
G01*
X7027011Y-621004D03*
D13*
G01*
X6773011Y-621004D03*
D15*
G01*
X9027007Y-599998D03*
D13*
G01*
X8773007Y-599998D03*
D15*
G01*
X11027003Y-599998D03*
D13*
G01*
X10773003Y-599998D03*
D15*
G01*
X13026999Y-599998D03*
D13*
G01*
X12772999Y-599998D03*
D15*
G01*
X15026995Y-599998D03*
D13*
G01*
X14772995Y-599998D03*
D16*
G01*
X8916009Y-3818991D03*
G01*
X8662009Y-3818991D03*
G01*
X7392009Y-3818991D03*
G01*
X7138009Y-3818991D03*
G01*
X8408009Y-3818991D03*
G01*
X8154009Y-3818991D03*
G01*
X7646009Y-3818991D03*
G01*
X7900009Y-3818991D03*
G01*
X6884009Y-3818991D03*
G01*
X6884009Y-4580991D03*
G01*
X7138009Y-4580991D03*
G01*
X7392009Y-4580991D03*
G01*
X7646009Y-4580991D03*
G01*
X7900009Y-4580991D03*
G01*
X8154009Y-4580991D03*
G01*
X8408009Y-4580991D03*
G01*
X8662009Y-4580991D03*
G01*
X8916009Y-4580991D03*
D17*
G01*
X391998Y-3099993D03*
G01*
X1407998Y-3099993D03*
G01*
X2391994Y-3099993D03*
G01*
X3407994Y-3099993D03*
G01*
X4391990Y-3099993D03*
G01*
X5407990Y-3099993D03*
G01*
X6392011Y-3099993D03*
G01*
X7408011Y-3099993D03*
G01*
X8392007Y-3099993D03*
G01*
X9408007Y-3099993D03*
G01*
X10392003Y-3099993D03*
G01*
X11408003Y-3099993D03*
G01*
X12391999Y-3099993D03*
G01*
X13407999Y-3099993D03*
G01*
X14391995Y-3099993D03*
G01*
X15407995Y-3099993D03*
G01*
X11744096Y-4550308D03*
G01*
X10728096Y-4550308D03*
G01*
X11731396Y-4207408D03*
G01*
X10715396Y-4207408D03*
G01*
X11744096Y-3851808D03*
G01*
X10728096Y-3851808D03*
G01*
X4597400Y-3692017D03*
G01*
X4597400Y-4708017D03*
G01*
X5219700Y-3670300D03*
G01*
X5219700Y-4686300D03*
D12*
G01*
X7289800Y-3429000D03*
G01*
X12268200Y-3352800D03*
G01*
X7277100Y-3556000D03*
G01*
X12407900Y-3479800D03*
D13*
X899998Y-2259512D02*
G01*
X899998Y-2339512D01*
X1154023Y-2260503D02*
G01*
X1154023Y-2340503D01*
X2899994Y-2259512D02*
G01*
X2899994Y-2339512D01*
X3154019Y-2260503D02*
G01*
X3154019Y-2340503D01*
X4899990Y-2259512D02*
G01*
X4899990Y-2339512D01*
X5154015Y-2260503D02*
G01*
X5154015Y-2340503D01*
X6899986Y-2280518D02*
G01*
X6899986Y-2360518D01*
X7154011Y-2281509D02*
G01*
X7154011Y-2361509D01*
X8899982Y-2259512D02*
G01*
X8899982Y-2339512D01*
X9154007Y-2260503D02*
G01*
X9154007Y-2340503D01*
X10900003Y-2259512D02*
G01*
X10900003Y-2339512D01*
X11154029Y-2260503D02*
G01*
X11154029Y-2340503D01*
X12899999Y-2259512D02*
G01*
X12899999Y-2339512D01*
X13154025Y-2260503D02*
G01*
X13154025Y-2340503D01*
X14899995Y-2259512D02*
G01*
X14899995Y-2339512D01*
X15154020Y-2260503D02*
G01*
X15154020Y-2340503D01*
M02*
